<?xml version="1.0" encoding="utf-8"?>
<!-- Generator: Adobe Illustrator 22.0.1, SVG Export Plug-In . SVG Version: 6.00 Build 0)  -->
<svg version="1.1" id="Layer_1" xmlns="http://www.w3.org/2000/svg" xmlns:xlink="http://www.w3.org/1999/xlink" x="0px" y="0px"
	 viewBox="0 0 512 512" style="enable-background:new 0 0 512 512;" xml:space="preserve">
<path d="M175.2,63.1"/>
<path d="M289.5,122.5"/>
<path d="M451.8,354.2c0-1.6-0.3-3.1-0.5-5c-6.2,4-12.2,8-18.2,11.9c-0.2,0-0.3-0.1-0.5-0.1c14-24.3,12.2-48.5,0.1-73.1
	c-3.2,5.5-6.1,10.6-9.1,15.7c-0.2,0-0.4,0-0.5,0c4.7-26.8-6.9-47.4-24.6-66.3c0,6,0,11.5,0,17c-0.2,0.1-0.4,0.3-0.6,0.4
	c-0.7-0.9-1.5-1.7-2.2-2.6c-5.2-6.2-7.7-13.7-9.1-21.5c-1.8-10.4-1.9-20.8-0.8-31.3c0.1-1.4,0.1-2.8,0.2-4.4
	c-6,3.3-11.4,7.2-16.3,11.8c-8,7.6-13.4,16.6-15.9,27.4c-1.5,6.5-1.7,13-1.1,19.6c2,20.5,10.7,38.5,20.7,56.1
	c7.9,13.7,13.8,28.2,16.6,43.8c3.6,20.1,0.7,39.1-9.1,57.1c-4.6,8.5-9.6,16.7-16.8,23.2c-1.1,1-2.3,1.8-3.8,3
	c-0.2-3.2-0.4-5.9-0.6-8.5c-0.7-8.2-1.4-16.3-2.3-24.5c-1.6-14.3-4.5-28.4-8.1-42.3c-7.3-27.9-19.3-53.7-35.8-77.4
	c-10-14.4-19.9-29-30.4-43c-9.7-12.9-20.3-25.3-30.4-37.9c-6.1-7.5-12.3-14.9-18.1-22.6c-4.8-6.4-8.1-13.6-9.6-21.4
	c-0.5-2.6-0.8-5.3-0.9-8c-0.3-5.1-0.6-15.7-0.6-16c0.5-61.8-48.3-72.2-48.3-72.2c-4.4-1.4-8.7-3-13.2-4.2
	c-10.7-2.7-21.3-2.5-31.7,1.6c-10.6,4.1-17.7,11.8-22.3,22.1c-0.6,1.3-1.3,1.9-2.7,2.2c-11.8,2.8-23.5,5.8-35.3,8.7
	c-5.4,1.3-8.3,5.7-7.8,11.8c0.6,7.4,2.4,14.6,5.8,21.2c5.8,11.1,15,18.6,26,24c8,4,16.5,6.4,25.4,7.6c4.5,0.6,8.1,2.6,9.9,6.8
	c1,2.2,1.1,4.7,1.5,7.1c1.4,9.3,2.6,18.7,4.1,28c0.8,5-0.5,9.6-2.4,14c-1.6,3.7-3.6,7.3-5.9,10.7c-5.2,7.7-9.4,15.8-12.5,24.9
	c4.3-1.8,8.6-3.5,13.5-5.5c-4.2,7.2-6.6,14.5-8.8,21.9c-1.6,5.2-2.6,10.4-1.5,15.5c2.6-2.1,5.3-4.2,8.6-6.8
	c-1.4,17.4,1.7,33.3,10.1,48.7c1.1-4.3,2.1-8,3.1-11.7c1.8,3.5,3.5,7,5.4,10.3c2.5,4.1,5.1,8.2,7.9,12.2c2.7,3.9,4.2,8,4.5,12.7
	c0.5,7.2,1.5,14.3,1.8,21.5c0.5,11.2,0.7,22.5,0.8,33.7c0,7-1.2,13.8-3.2,20.5c-2.1,7.4-6.6,13.2-11.9,18.7c-4,4.2-7.4,8.9-9.5,14.4
	c-3.7,9.7,1.5,16,9.9,17.6c16.6,3.1,30.9-1.8,41.1-16.9c3-4.4,5.1-9.3,7.6-14c0.9-1.8,1-3.6,0.5-5.6c-2.3-9.9-4-19.8-4.7-30
	c-0.6-9.9-0.5-19.8,2.3-29.4c4.3-15,14-24.2,29.3-27.2c21.4-4.2,39.4,2.3,54.3,17.9c0.2,0.2,0.3,0.4,0.3,0.8
	c-0.4-0.3-0.8-0.6-1.2-0.9c-7.4-6.8-15.9-11.3-25.9-12.7c-9.4-1.3-18.7-0.4-27.3,3.8c-9.3,4.5-14.2,12.6-16.7,22.3
	c-2.1,8.2-2.8,16.6-2,25c0.7,6.8,1.3,13.7,2.4,20.5c0.6,3.5,2.2,6.8,3.5,10.1c1.6,3.9,3.3,7.7,5.1,11.6c-3.4,0.3-6.7,0.5-9.9,0.9
	c-4.4,0.6-8.6,1.6-12.2,4.3c-4.7,3.6-6.3,11-3.4,16.1c0.4,0.7,1.4,1.3,2.2,1.5c5.5,1.5,10.9,3.2,16.5,4.1c6.2,0.9,12.5,1.4,18.8,1.2
	c9.5-0.3,19-1,28.5-2.2c11.4-1.4,22.7-3.7,34.1-5.1c9.2-1.1,18.5-2,27.7-2.2c37.1-0.9,71.4-10.9,101.8-32.6
	c16.9-12.1,27.2-28.7,31.7-48.9C451.5,375.2,452.1,364.7,451.8,354.2z"/>
</svg>
