<?xml version="1.0" encoding="utf-8"?>
<!-- Generator: Adobe Illustrator 26.0.1, SVG Export Plug-In . SVG Version: 6.00 Build 0)  -->
<svg version="1.1" id="Capa_1" xmlns="http://www.w3.org/2000/svg" xmlns:xlink="http://www.w3.org/1999/xlink" x="0px" y="0px"
	 viewBox="0 0 512 512" style="enable-background:new 0 0 512 512;" xml:space="preserve">
<style type="text/css">
	.st0{fill:#C4E04F;}
</style>
<g>
	<g>
		<path class="st0" d="M378.6,291c-34.4-41.6-78-64.5-122.6-64.5s-88.2,22.9-122.6,64.5c-31,37.4-49.4,84.5-49.4,126
			c0,20.2,6.2,35.5,18.3,45.7c12,10,27.9,13.4,45.5,13.4c18.8,0,39.7-3.8,60.2-7.6c17.9-3.3,34.9-6.4,47.9-6.4c11.3,0,27.2,3,44,6.1
			c39.3,7.3,83.9,15.6,109.6-5.8c12.2-10.2,18.4-25.4,18.4-45.3C428.1,375.5,409.6,328.4,378.6,291z M390.4,439.3
			c-14.9,12.4-53.8,5.2-85-0.6c-18.2-3.4-35.4-6.6-49.5-6.6c-15.8,0-34,3.3-53.4,6.9c-29.9,5.5-67.2,12.3-81.2,0.7
			c-1.9-1.6-7.5-6.3-7.5-22.6c0-34.2,16.3-75.2,42.6-106.9c28.6-34.6,64-53.6,99.5-53.6s70.9,19,99.5,53.6
			c26.2,31.7,42.6,72.7,42.6,106.9C398.1,432.9,392.3,437.7,390.4,439.3z"/>
	</g>
</g>
<g>
	<g>
		<path class="st0" d="M382.1,65.1c-12.6-18.6-30.7-29.2-49.5-29.2c-18.9,0-36.9,10.7-49.5,29.2c-11.6,17.1-18,39.5-18,63.1
			s6.4,46.1,18,63.1c12.6,18.6,30.7,29.2,49.5,29.2c18.9,0,36.9-10.7,49.5-29.2c11.6-17.1,18-39.5,18-63.1S393.7,82.2,382.1,65.1z
			 M357.3,174.6c-4.1,6-12.7,16.1-24.7,16.1s-20.6-10.1-24.7-16.1c-8.1-12-12.8-28.8-12.8-46.3c0-17.4,4.7-34.3,12.8-46.3
			c4.1-6,12.7-16.1,24.7-16.1S353.2,76,357.3,82c8.1,12,12.8,28.8,12.8,46.3C370.1,145.7,365.4,162.6,357.3,174.6z"/>
	</g>
</g>
<g>
	<g>
		<path class="st0" d="M228.9,65.1c-12.6-18.6-30.7-29.2-49.5-29.2s-36.9,10.7-49.5,29.2c-11.6,17.1-18,39.5-18,63.1
			s6.4,46.1,18,63.1c12.6,18.6,30.7,29.2,49.5,29.2s36.9-10.7,49.5-29.2c11.6-17.1,18-39.5,18-63.1
			C246.9,104.6,240.5,82.2,228.9,65.1z M204.1,174.6c-4.1,6-12.7,16.1-24.7,16.1c-12,0-20.6-10.1-24.7-16.1
			c-8.1-12-12.8-28.8-12.8-46.3c0-17.4,4.7-34.3,12.8-46.3c4.1-6,12.7-16.1,24.7-16.1S200,76,204.1,82c8.1,12,12.8,28.8,12.8,46.3
			C216.9,145.7,212.2,162.6,204.1,174.6z"/>
	</g>
</g>
<g>
	<g>
		<path class="st0" d="M509,210.1c-5.1-17.3-16-29.8-30.7-35.4c-11.8-4.4-25.2-3.7-37.6,2.1c-17.1,8-31.1,24.5-38.4,45.3
			c-5.9,17-6.7,35-2.1,50.6c5.1,17.3,16,29.8,30.7,35.4c5.1,1.9,10.5,2.9,15.9,2.9c7.2,0,14.6-1.7,21.7-5
			c17.1-8,31.1-24.5,38.4-45.3v0C512.9,243.7,513.6,225.8,509,210.1z M478.6,250.9c-4.6,13-13.1,23.5-22.8,28.1
			c-3.6,1.7-8.9,3.2-14.3,1.2c-13-4.9-18-27.3-10.8-48c4.6-13,13.1-23.5,22.8-28.1c2.4-1.1,5.5-2.2,8.9-2.2c1.7,0,3.6,0.3,5.4,1
			C480.8,207.7,485.8,230.2,478.6,250.9z"/>
	</g>
</g>
<g>
	<g>
		<path class="st0" d="M109.6,222.2c-7.3-20.8-21.3-37.3-38.4-45.3c-12.4-5.8-25.8-6.6-37.6-2.1C19,180.3,8.1,192.8,3,210.1
			c-4.6,15.6-3.9,33.6,2.1,50.6v0c7.3,20.8,21.3,37.3,38.4,45.3c7.1,3.3,14.5,5,21.7,5c5.5,0,10.8-1,15.9-2.9
			c14.7-5.5,25.6-18.1,30.7-35.4C116.3,257.2,115.5,239.2,109.6,222.2z M70.5,280.1c-5.4,2-10.8,0.5-14.3-1.2
			c-9.7-4.5-18.2-15-22.8-28.1v0c-7.2-20.7-2.2-43.1,10.8-48c5.4-2,10.8-0.5,14.3,1.2c9.7,4.5,18.2,15,22.7,28.1
			C88.5,252.8,83.4,275.3,70.5,280.1z"/>
	</g>
</g>
</svg>
