<?xml version="1.0" encoding="utf-8"?>
<!-- Generator: Adobe Illustrator 26.0.1, SVG Export Plug-In . SVG Version: 6.00 Build 0)  -->
<svg version="1.1" id="Image" xmlns="http://www.w3.org/2000/svg" xmlns:xlink="http://www.w3.org/1999/xlink" x="0px" y="0px"
	 viewBox="0 0 64 64" style="enable-background:new 0 0 64 64;" xml:space="preserve">
<style type="text/css">
	.st0{fill:none;stroke:#C4E04F;stroke-width:2;stroke-linecap:round;stroke-linejoin:round;}
	.st1{fill:none;stroke:#C4E04F;stroke-miterlimit:10;}
</style>
<path class="st0" d="M19,41v11.5c0,5.2,4.3,9.5,9.5,9.5s9.5-4.3,9.5-9.5V36c0-5,4-9,9-9s9,4,9,9v17.5"/>
<circle class="st0" cx="56" cy="56" r="2.5"/>
<circle class="st0" cx="56" cy="56" r="6"/>
<path class="st1" d="M25,3c0-1.1,0.9-2,2-2c1.2,0,5,2,5,2s-3.8,2-5,2C25.9,5,25,4.1,25,3z"/>
<path class="st1" d="M13,3c0-1.1-0.9-2-2-2C9.8,1,6,3,6,3s3.8,2,5,2C12.1,5,13,4.1,13,3z"/>
<g>
	<path class="st0" d="M9.8,3C6.2,3,2,4,2,7c0,25.1,9,34,17,34s17-8.9,17-34c0-3-4.2-4-7.8-4"/>
	<path class="st0" d="M19,19c2.8,0,2.8,2.3,3.5,3.1s3.5,1.5,3.5,3.8S24.6,29,23.2,29c-2.1,0-2.1-1.5-4.2-1.5S16.9,29,14.8,29
		c-1.4,0-2.8-0.8-2.8-3.1s2.8-3.1,3.5-3.8C16.2,21.3,16.2,19,19,19z"/>
	<path class="st0" d="M20.6,13.5c0.1-1.3,1.1-2.3,2.4-2.5c0.8,0,1.6,0.8,1.6,2.5c-0.1,1.3-1.1,2.3-2.4,2.5
		C21.4,15.9,20.6,15.1,20.6,13.5z"/>
	<path class="st0" d="M17.4,13.5c-0.1-1.3-1.1-2.3-2.4-2.5c-0.8,0-1.6,0.8-1.6,2.5c0.1,1.3,1.1,2.3,2.4,2.5
		C16.6,15.9,17.4,15.1,17.4,13.5z"/>
	<path class="st0" d="M26.1,18.4c0.1-1.3,1.1-2.3,2.4-2.5c0.8,0,1.6,0.8,1.6,2.5c-0.1,1.3-1.1,2.3-2.4,2.5
		C26.9,20.8,26.1,20,26.1,18.4z"/>
	<path class="st0" d="M11.9,18.4c-0.1-1.3-1.1-2.3-2.4-2.5c-0.8,0-1.6,0.8-1.6,2.5c0.1,1.3,1.1,2.3,2.4,2.5
		C11.1,20.8,11.9,20,11.9,18.4z"/>
</g>
</svg>
