<?xml version="1.0" encoding="utf-8"?>
<!-- Generator: Adobe Illustrator 22.0.1, SVG Export Plug-In . SVG Version: 6.00 Build 0)  -->
<svg version="1.1" id="Layer_1" xmlns="http://www.w3.org/2000/svg" xmlns:xlink="http://www.w3.org/1999/xlink" x="0px" y="0px"
	 viewBox="0 0 200 200" style="enable-background:new 0 0 200 200;" xml:space="preserve">
<style type="text/css">
	.st0{fill:#B72133;}
	.st1{fill:#BCBCBC;}
</style>
<path d="M-410.9,46.8c10.8-2.5,20.6-6.6,27.3-16c0.6-0.8,3.3-1.2,4.1-0.6c2.7,2.2,5.9,4.5,7.1,7.6c7.8,18.7,15.1,37.5,22.5,56.4
	c3.3,8.3,0.2,14.6-8.6,17.1c-12.5,3.5-25.1,6.9-37.7,10.1c-6.2,1.6-12.2-1.8-14-7.4c-2.1-6.5,0.9-12.9,7.5-14.9
	c8.6-2.6,17.3-4.8,26.6-7.3c-1.5-3.9-2.7-7.3-4-10.8c-0.3,0-0.6,0.1-0.9,0.1c0,3.2,0,6.4,0,10.1c-6.8,1.8-13.3,3.6-19.7,5.4
	c-8.8,2.4-13.4,9-11.5,16.8c1.8,7.5,9.4,11.5,18,9.3c4.2-1,8.4-2.2,14.3-3.7c0,18.8-0.4,36.9,0.1,54.9c0.8,33.3,2.1,66.5,3.3,99.8
	c0.2,6.2-0.1,12.2-5.3,16.5c-4.5,3.8-9.9,4.6-15.3,2.3c-5.9-2.4-8.8-7.3-9.3-13.6c-1-13.4-1.9-26.8-2.9-40.2
	c-1.5-20.2-3-40.3-5.6-60.6c-0.7,9.1-1.5,18.2-2.1,27.3c-1.7,24.6-3.3,49.2-5,73.8c-0.6,8.9-7,14.7-15.4,14.4
	c-8.2-0.3-14.5-6.4-14.2-14.8c1.6-52.5,3.3-105,5.1-158.2c4.9,0.8,9.7,1.7,14.5,2.5c8,1.3,14.5-3,16-10.8c1.4-7-3.3-13.8-10.9-15.5
	c-6-1.4-12.1-2.5-18.2-3.7c-0.3-0.1-0.6-0.5-1.2-0.9c0-5.7,0-11.6,0-17.5c-0.4-0.1-0.7-0.2-1.1-0.4c-2.8,6-5.5,12-8.6,18.7
	c9.8,2,18.9,3.8,28.1,5.6c7.4,1.5,11.6,7.1,10.3,13.6c-1.4,7-7.5,10.7-15.1,9.2c-13.6-2.6-27.1-5.2-40.7-7.8
	c-10-1.9-13.8-9-9.6-18.1c8.8-19.1,17.6-38.2,26.5-57.3c1.1-2.3,2.5-4.7,4.3-6.3c3-2.6,5.9-3.3,9.1,0.7c4.4,5.5,9.6,10.2,17.2,11.1
	C-420.9,44.6-415.9,45.7-410.9,46.8z"/>
<path d="M-410.9,46.8c-5-1.1-10-2.2-15-3.2c-13.4-6.4-21.6-16.4-21.8-31.7c-0.3-18,13.6-30.9,27.3-33.3c18.6-3.3,35.5,9.3,39,25.7
	c3.6,16.8-5.8,33.7-22.1,39.3C-406,44.4-408.4,45.7-410.9,46.8z"/>
<path class="st0" d="M-456.4,153c-4.2,7.6-8.5,15-12.7,22.4c-0.1,0-0.1,0-0.2,0c0.3-1.7,0.6-3.4,0.8-5.1c0.6-3.6,1.2-7.2,1.8-10.7
	c0.1-0.6,0.1-0.9-0.6-0.6c-2.4,0.6-4.7,1.3-7.1,1.8c-0.3,0.1-0.5,0.1-0.9,0.2c4.7-7.8,9.3-15.4,13.8-23c0.1,0,0.1,0,0.2,0.1
	c-0.4,2-0.8,4-1.2,6c-0.6,3.1-1.3,6.4-2,9.5c-0.1,0.6-0.1,0.8,0.6,0.6c2.1-0.5,4.2-0.8,6.4-1.2C-457.2,153.1-456.9,153.1-456.4,153z
	"/>
<path class="st0" d="M-477.9,134.4c-3.6,4.2-7.2,8.3-10.8,12.6c2.7,0.9,5.2,1.8,7.8,2.9c-7.4,4.4-14.6,8.8-21.9,13.2l-0.1-0.1
	c3.5-4.3,6.9-8.7,10.5-13c-3-0.8-5.8-1.6-8.9-2.4C-493.3,143.1-485.6,138.8-477.9,134.4C-478,134.4-477.9,134.4-477.9,134.4z"/>
<path class="st0" d="M-490.2,117.3c1.8,2.2,3.4,4.3,5.3,6.6c-8.6-0.1-17-0.2-25.4-0.3c0-0.1,0-0.1-0.1-0.2
	c5.2-1.8,10.3-3.7,15.6-5.6c-2.1-2.2-4.2-4.4-6.3-6.7c9,0.4,17.6,0.7,26.4,1.1c0,0.1,0,0.1,0,0.2C-479.8,114-485,115.6-490.2,117.3z
	"/>
<path class="st1" d="M60.4,400.1c-12.4-3.5-18.2-12-18.4-24.6c-0.1-3.8-0.6-7.5-0.8-11.2c-2.3-37.2-3.1-74.4,1.6-111.4
	c1.7-13.3,5.1-26.4,7.7-39.6c0.3-1.6,0.6-3.3,0.6-5c0-16.2,0.1-32.4-0.1-48.6c0-3.2,1.1-4.4,4-5.4c19.3-6.6,38.7-13.3,57.9-20.3
	c4.4-1.6,8.2-4.4,12.4-6.7c-0.1-0.4-0.2-0.8-0.3-1.2c0.8,0.6,1.6,1.2,2.2,1.9c6,6.1,12.2,12,18,18.3c1.4,1.5,2.5,3.9,2.5,6
	c0.2,13.3,0.3,26.7,0.1,40c-0.1,10.9,0.8,21.5,3.4,32.2c7.3,29.8,8.7,60.2,8.2,90.7c-0.4,20.7-1.7,41.4-2.6,62.1
	c-0.5,11.8-6.8,19.1-17.8,22.7c-2.9,0-5.7,0-8.6,0c-1.2-0.5-2.3-1-3.5-1.4c-8.9-3.4-14.7-12.1-14.2-21.5c0.2-3.6,0.5-7.2,0.8-10.8
	c2.8-38.4,3.5-76.8-1.9-115.1c-1.2-8.7-3.3-17.2-5-25.9c-2.6,0-4.6,0-6.5,0c-7.7,0-7.7,0-9.4,7.4c-6.9,30.3-8,61.1-7.3,91.9
	c0.4,16.6,1.5,33.1,2.5,49.6c0.8,13.3-4.4,21.2-17.2,25.4c-0.2,0.1-0.4,0.3-0.6,0.5C65.6,400.1,63,400.1,60.4,400.1z"/>
<path class="st1" d="M13,143.4c1.8-3.8,3.4-7.8,5.6-11.3c10.2-16.2,20.4-32.4,31-48.4c1.9-2.9,5.2-5.4,8.4-7c3.8-1.9,7.4-1.4,11,2.2
	c4,3.9,9,7.4,14.2,9.1c6.7,2.2,11.3,6.5,15.7,11.6c-10,6.2-23.5,5.1-31.2,15.8c9.8-3.4,19.8-6.6,29.5-10.4c4-1.6,6.6-1.2,9.6,2.1
	c4.9,5.4,10.4,10.1,16.5,15.9c-3.7,2.6-6.2,5.3-9.3,6.4c-27,9.7-54.2,19.1-81.3,28.5c-8.7,3-16.5-1.4-19-10.2
	c-0.2-0.6-0.5-1.2-0.7-1.8C13,145,13,144.2,13,143.4z"/>
<path class="st0" d="M188,73.4c-2,6.2-5.7,10-12.8,9.3c-0.6-0.1-1.4,0.5-1.9,1c-5.1,4.8-9.5,5.9-14.1,3.3c-4.7-2.7-6.3-7.3-4.6-14.2
	c-3.8-1.4-7.6-2.9-11.5-4.4c0.1-0.4,0.2-0.7,0.3-1.1c1.6,0.4,3.2,0.7,4.8,1.2c3.9,1.1,7.7,2.2,11.5,3.5c1,0.3,1.7,1.4,2.5,2.1
	c-1,0.1-2,0.2-3,0.2c-0.6,0-1.2-0.1-1.8-0.2c-1.4,5.4,0.7,9.6,5.2,10.9c4.2,1.2,8-0.5,9.3-4.3c6.1,0.6,10.4-2.2,11.2-7.4
	c0.8-5.3-2.9-9.1-10.3-10.3c1.1-0.6,1.9-1.1,2.8-1.5c-1.7-4.8-5-6.9-9.5-6.2c-4.3,0.7-6.7,3.8-6.7,7.9c1.6,0.9,2.9,1.6,4.3,2.3
	c-1.5,0.3-3,0.8-4.5,0.7c-5.1-0.3-10.2-0.7-15.3-1.1c0-0.3,0-0.6,0-1c4.2,0,8.4,0,12.7,0c0.2-1.4,0.3-2.4,0.4-3.4
	c0.9-5,4.6-8.5,9.4-8.9c4.7-0.4,8.8,2.5,10.6,7.4c0.3,0.9,1.1,2.2,1.9,2.4c5,1.2,7.4,4.8,8.9,9.3C188,71.9,188,72.7,188,73.4z"/>
<path class="st0" d="M139,1.9c2,0.9,4,1.7,5.9,2.8c6.5,3.8,9.9,12,8.1,19.1c-0.2,0.8-1.2,1.4-1.8,2.1c-0.5-0.8-1.2-1.5-1.5-2.3
	c-0.2-0.5,0.1-1.3,0.1-1.9c0.3-8.3-3.3-13.5-11.4-15.7c-2.2-0.6-3.6-1.4-2.5-3.9C136.9,1.9,138,1.9,139,1.9z"/>
<path class="st1" d="M139.7,47.3c-0.2,22.2-18.4,40.2-40.6,40C77.1,87.1,59,68.8,59.2,47C59.4,24.7,77.5,6.7,99.6,6.7
	C121.8,6.8,139.9,25.2,139.7,47.3z M90.5,64.4c0.4,1.6,0.7,3.9,1.6,6c1.8,4.2,4.8,7.1,9.7,7.1c4.9,0,8.1-2.9,9.6-7.1
	c1.1-3,1.4-6.6,1-9.8c-0.7-6.2-5.3-10.5-10.5-10.6c-5.1-0.1-9.4,3.8-10.9,9.8C90.8,61,90.8,62.3,90.5,64.4z"/>
<path class="st1" d="M97.7,91.7C116,89,116,89,126.8,82.1c7.7,7.7,15.4,15.3,23.7,23.5c0.8-3.7,0.7-6-1.6-8.1
	c-6.4-5.9-12.6-11.9-18.8-17.7c3.4-4.6,6.6-5.8,11.4-3.6c3,1.4,6.2,3.7,7.9,6.4c11.6,18.7,22.9,37.6,34.2,56.5
	c4,6.6,2.5,14.3-3.2,18.9c-5.6,4.4-13.6,4.2-18.8-1.1c-21.2-21.3-42.3-42.7-63.4-64.1C97.9,92.5,97.8,92.1,97.7,91.7z"/>
<path class="st0" d="M28.5,72.3c0-9.1,5.5-15.9,14.3-17.7c1.1-0.2,2.3,0.7,3.5,1c-0.8,0.8-1.6,1.9-2.6,2.2
	c-8.8,2.8-12.2,7.7-11.7,16.7c0.1,1.1-0.9,2.3-1.4,3.4c-0.7-1-1.6-1.9-2.1-3.1C28.3,74.2,28.5,73.2,28.5,72.3z"/>
<path class="st0" d="M27.9,173.2c0.7,1.4,1.3,2.2,1.4,3c0,0.8-0.5,1.7-0.8,2.5c-3,7.9-1.1,13.6,5.8,18.5c0.9,0.7,1.4,2.1,2.1,3.2
	c-1.3-0.1-3,0.3-4-0.3c-8.3-5-11.1-15.5-6.6-24C26.1,175.3,26.8,174.6,27.9,173.2z"/>
<path class="st0" d="M145.2,23.2c-0.2,0.4-1,1.5-1.8,2.7c-0.6-1.2-1.7-2.3-1.8-3.6c-0.4-5.1-2.1-7.2-7.1-8.9c-1-0.4-1.7-1.7-2.6-2.5
	c1.2-0.3,2.6-1,3.7-0.8C141.6,11.4,145.2,16,145.2,23.2z"/>
<path class="st0" d="M36.5,75.2c0.3-7.2,4-11.8,10-12.9c1.1-0.2,2.3,0.7,3.5,1.1c-0.9,0.7-1.6,1.9-2.6,2.2c-5.1,1.7-6.9,3.9-7.3,8.8
	c-0.1,1.3-1.1,2.5-1.7,3.7C37.6,76.9,36.8,75.6,36.5,75.2z"/>
<path class="st0" d="M36,175.9c0.3,1.7,1,2.9,0.7,3.7c-2,5.4-0.5,9.3,4.4,12.2c0.7,0.4,0.8,1.6,1.2,2.4c-0.9,0.2-1.9,0.9-2.7,0.7
	c-6.1-1.7-9.5-11.6-6-16.9C34,177.4,34.7,177,36,175.9z"/>
</svg>
