<?xml version="1.0" encoding="utf-8"?>
<!-- Generator: Adobe Illustrator 22.0.1, SVG Export Plug-In . SVG Version: 6.00 Build 0)  -->
<svg version="1.1" id="Layer_1" xmlns="http://www.w3.org/2000/svg" xmlns:xlink="http://www.w3.org/1999/xlink" x="0px" y="0px"
	 viewBox="0 0 200 200" style="enable-background:new 0 0 200 200;" xml:space="preserve">
<style type="text/css">
	.st0{fill:#B72133;}
	.st1{fill:#BCBCBC;}
	.st2{fill:#58595B;}
	.st3{fill:#FEFEFE;}
</style>
<g>
	<path d="M-209.5,13.5c-9,6.8-18,13.4-27.9,18.9c-2,1.1-3.8,2.6-5.4,4.2c-8.3,7.8-8.4,9.4-1.3,18.3c9.3,11.6,12.4,24.6,9.1,39.3
		c-6.4,28.8-4.3,56.6,8.8,83.4c1.1,2.2,1.8,4.7,2.3,7.1c1.5,8-3.7,14.5-11.8,15.1c-1.4,0.1-3,0.2-4.4-0.1c-13-3-26.1-2.1-39.1,0
		c-9.3,1.4-18.2-2.3-27.5-0.1c-3.5,0.8-6.6-2.3-7-6.5c-0.4-4.1,3-3.5,5.4-4.4c11.6-4,23.2-7.8,34.6-12.4c6.1-2.4,8.9-7.9,8.9-14.5
		c0.1-15.5-4.8-30-10.2-44.1c-6-15.8-12.5-31.3-13.1-48.5c-0.2-5-2.3-9.6-4.7-14.1c-4.8-9.1-4.1-17.7,1.6-26.5
		c5.1-7.9,6-17.6,10.2-25.9c1.5-3.8,5.4-0.4,7.5-2.4c7.9,0,15.8,0,23.8,0c11.5,1.1,23.1,2.1,33.6,7.6C-213.4,9-210,9.7-209.5,13.5z"
		/>
	<path class="st0" d="M-222.9,82.7c-2.6,0.5-3-0.5-3.3-1.5c-0.3-1.2,0.5-1.9,1.5-2.3c3.5-1.3,7-2.5,10.5-3.7c1.3-0.4,2.5-0.2,3,1.3
		c0.3,0.9,0.1,1.8-0.7,2.1C-215.9,80.2-220,81.7-222.9,82.7z"/>
	<path class="st0" d="M-224.6,95.3c3.1,1.9,7,4.3,10.7,6.8c0.4,0.2,0.3,1.6,0,2.2c-0.3,0.7-1,1.5-2,0.9c-3.7-2.2-7.5-4.4-11.2-6.6
		c-0.7-0.5-1-1.3-0.4-2.2C-227,95.7-226.5,95.1-224.6,95.3z"/>
	<path class="st0" d="M-218.8,87.4c1.3,0.2,3.5,0.5,5.8,0.9c1.3,0.2,2.4,1,2.1,2.5c-0.3,1.7-1.7,1.6-2.9,1.5c-2.7-0.3-5.4-0.6-8-1
		c-1.5-0.2-3.8,0.5-3.7-2.1c0.1-2.4,2.3-1.7,3.9-1.8C-221,87.4-220.4,87.4-218.8,87.4z"/>
</g>
<path class="st1" d="M50.2,160.3c-2.3-0.3-4.3-0.6-6.3-1c-19-3.9-28.9-18.9-23.9-37.7c2.1-7.9,5.7-15.5,9.7-22.7
	c4.2-7.5,9.8-14.3,14.6-21.4c5.2-7.6,11.9-10.9,20.9-7.3c17.2-24.9,52.5-25.1,70-0.1c0.8-0.2,1.6-0.4,2.4-0.7
	c6.1-1.8,11.5-0.5,15.5,4.3c9.7,11.7,18.5,23.9,24.4,38c3.1,7.4,5.1,15,3.9,23c-2,13.5-12.2,22.8-26.6,24.7c-1.5,0.2-3,0.5-4.7,0.7
	c0,1.9,0,3.4,0,4.9c0,32.9-0.4,65.7,0.2,98.6c0.2,9.6,2.8,19.1,4.7,28.6c8.9,43.5,18,87,26.9,130.5c2.5,12.4-5.5,23.9-18,26.5
	c-11.8,2.5-23.8-5.1-26.4-17.2c-7.4-34.7-14.5-69.5-21.7-104.3c-2.8-13.4-5.7-26.8-8.3-40.2c-0.5-2.5-1.4-3.1-3.8-3.1
	c-9.9-0.1-9.9-0.1-11.8,9.4c-9.4,45.5-18.8,91.1-28.2,136.6c-2.5,12-12.1,19.7-23.7,19.2c-11.2-0.5-20.3-9-21.5-20.7
	c-0.3-2.9,0.2-5.9,0.8-8.8c10.3-49.8,20.6-99.7,30.9-149.5c0.2-1.1,0.4-2.3,0.4-3.4c0-35.1,0-70.1,0-105.2
	C50.3,161.7,50.3,161.2,50.2,160.3z M140.8,105.5c-8,17.3-20,27.7-38.5,28.5c-20.5,0.9-34.1-9.6-42-28.6
	c-5.3,7.8-10.2,15.2-12.3,24.8c3.1,0.1,5.6,0.4,8.2,0.4c4.8-0.1,9.5-0.6,14.3-0.5c2.3,0.1,4.8,0.7,6.9,1.8
	c13.6,7.4,27.8,8.6,41.6,1.7c6.2-3.1,12.1-3.8,18.5-3.5c1.9,0.1,3.9,0.4,5.8,0.5c2.9,0.1,5.7,0,8.6,0c0.3-0.5,0.7-1.1,1-1.6
	C148.9,121.2,144.9,113.4,140.8,105.5z"/>
<path class="st2" d="M-488.9,509.7c-9.7-0.1-18.2-3-24.8-10.5c-4.4-5-6.9-11-8.2-17.5c-0.2-1.2-0.5-2.5-0.5-3.7c0-1-0.5-1.2-1.4-1.3
	c-1.4-0.1-2.6-0.6-3.8-1.3c-2-1.2-3.2-2.9-3.6-5.2c-0.6-3.2-1.1-6.4-0.4-9.7c0.4-1.7,1.1-3.2,2.6-4.2c0.6-0.4,1.1-0.5,1.7,0.1
	c2,1.9,4.3,2.3,6.5,1.1c2.2-1.1,3.2-3.4,3-6.1c-0.6-5.4-0.8-10.8,0.3-16.2c0.3-1.4,0.7-2.8,1.5-4.1c1.5-2.4,3.6-3,6.1-1.5
	c5.5,3.2,11.1,6,17.1,8.1c4.2,1.4,8.4,2.7,12.9,2.4c4.3-0.2,8.5-1,12.1-3.6c0.7-0.5,0.9-0.3,1.3,0.3c2.5,3.9,4.6,7.9,5.4,12.5
	c0.2,1.2,0.3,2.5,0.3,3.7c0,2.4,1.1,4.1,3.2,5.1c2.2,1,4.2,0.6,6-1c1.4-1.2,2.8-1,3.9,0.5s1.4,3.3,1.5,5.1c0.1,2.7-0.2,5.3-0.9,7.9
	c-0.8,3.2-3.6,5.6-7.2,5.9c-1,0.1-1.4,0.4-1.5,1.5c-0.9,7.8-3.4,15-8.7,21c-5,5.7-11.4,8.9-18.9,10
	C-485.1,509.5-487,509.7-488.9,509.7z"/>
<path class="st2" d="M-522.9,443.8c0,2.6,0.1,5.3,0.4,7.9c0,0.2,0,0.4,0.1,0.6c0,0.5,0,0.9-0.5,1.1s-0.8-0.1-1.2-0.4
	c-1.6-1.9-3.2-3.9-4.4-6.1c-6.2-10.9-7.2-22.3-3.4-34.1c2.9-9,9.6-14,18.8-15.7c1.6-0.3,3.3-0.5,4.9-0.4c0.6,0,1.1-0.2,1.5-0.6
	c4.6-4.4,10-7.5,16.3-8.7c7.6-1.5,14.9-0.1,21.7,3.3c11.2,5.7,18.2,14.7,20.5,27.2c1.2,6.9,0.6,13.8-1,20.6
	c-1.1,4.9-2.8,9.7-4.9,14.3c-0.1,0.2-0.2,0.4-0.3,0.6c-0.2,0.5-0.6,0.8-1.1,0.7c-0.6-0.1-0.6-0.6-0.6-1.1c0-2.1-0.2-4.2-0.7-6.3
	c-1.4-5.4-4.1-10.1-7.3-14.6c-0.9-1.2-1.9-1.5-3.4-0.9c-0.9,0.4-1.7,0.8-2.5,1.3c-4.9,3.2-10.2,3.7-15.8,2.5
	c-6.6-1.4-12.7-4.3-18.6-7.4c-1.2-0.6-2.3-1.3-3.4-1.9c-4.5-2.6-9.4-1.4-12.2,3.1c-1.8,2.8-2.5,6-2.9,9.2
	C-522.9,439.8-522.9,441.8-522.9,443.8z"/>
<g>
	<path class="st0" d="M62.6,42c-4.9-8.2-9.9-16.4-14.9-24.6c0.4-0.3,0.7-0.1,0.9,0c2.6,0.7,5.1,1.3,7.7,2c0.7,0.2,0.8,0.1,0.7-0.6
		c-1-5.7-2-11.3-3-17c0-0.1,0-0.2,0-0.5c4.7,8.3,9.2,16.4,13.9,24.6c-2.4-0.4-4.7-0.8-6.9-1.2c-2-0.4-2-0.4-1.6,1.6
		c1.1,5.1,2.1,10.1,3.2,15.2C62.6,41.7,62.6,41.8,62.6,42C62.7,42,62.7,42,62.6,42z"/>
	<path class="st0" d="M131.8,25.9c4.6-8.2,9.2-16.3,13.8-24.3c0.1,0,0.1,0,0.2,0c-0.3,1.8-0.6,3.7-0.9,5.5c-0.7,3.9-1.3,7.8-2,11.6
		c-0.1,0.7-0.1,1,0.7,0.7c2.6-0.7,5.1-1.4,7.7-2c0.3-0.1,0.5-0.1,1-0.2c-5.1,8.4-10.1,16.7-15,24.9c-0.1,0-0.1,0-0.2-0.1
		c0.4-2.2,0.9-4.3,1.3-6.5c0.7-3.4,1.4-6.9,2.2-10.3c0.1-0.7,0.1-0.9-0.7-0.7c-2.3,0.5-4.6,0.9-6.9,1.3
		C132.6,25.8,132.3,25.8,131.8,25.9z"/>
	<path class="st0" d="M155,46c3.9-4.5,7.8-9,11.7-13.6c-2.9-1-5.6-2-8.5-3.1c8-4.8,15.8-9.5,23.7-14.3l0.1,0.1
		c-3.8,4.7-7.5,9.4-11.4,14.1c3.2,0.9,6.3,1.7,9.6,2.6C171.7,36.6,163.4,41.3,155,46C155.1,46.1,155,46,155,46z"/>
	<path class="st0" d="M41.6,29.3c-2.9,1.1-5.7,2.1-8.5,3.1C37,37,40.9,41.5,44.8,46l-0.1,0.1c-8.3-4.7-16.7-9.4-25.2-14.2
		c3.3-0.9,6.4-1.8,9.6-2.6c-3.8-4.8-7.6-9.5-11.4-14.2c0-0.1,0.1-0.1,0.1-0.2C25.7,19.7,33.6,24.5,41.6,29.3z"/>
	<path class="st0" d="M168.4,64.6c-1.9-2.4-3.7-4.7-5.7-7.1c9.3,0.1,18.4,0.2,27.5,0.3c0,0.1,0,0.1,0.1,0.2c-5.6,2-11.2,4-16.9,6.1
		c2.3,2.4,4.5,4.8,6.8,7.3c-9.7-0.4-19.1-0.8-28.6-1.2c0-0.1,0-0.1,0-0.2C157.1,68.2,162.7,66.4,168.4,64.6z"/>
	<path class="st0" d="M19.7,71.4c2.4-2.5,4.6-4.9,6.9-7.3C20.8,62,15.2,60,9.6,58c0-0.1,0-0.1,0-0.2c9.1-0.1,18.2-0.2,27.5-0.3
		c-1.7,2.2-3.4,4.2-5,6.2c-0.8,0.9-0.8,0.9,0.4,1.3c5,1.6,10,3.2,15,4.8c0.3,0.1,0.5,0.1,0.8,0.4C38.8,70.6,29.4,71,19.7,71.4z"/>
</g>
<path class="st3" d="M-490.1,487.9c5.1,0.1,9.4,1.9,13,5.4c1.2,1.1,1.2,2.6,0.3,3.6c-1,1-2.4,0.9-3.5-0.1c-5.7-5.3-13.8-5.4-19.5,0
	c-1.2,1.1-2.6,1.1-3.6,0.1c-0.9-1-0.8-2.4,0.3-3.5C-499.5,489.8-495.1,488-490.1,487.9z"/>
<path class="st3" d="M-476,458.8c1.3,0.8,2.5,1.5,3.7,2.2c1.4,0.8,1.8,2.2,1.1,3.4c-0.7,1.2-2.1,1.5-3.5,0.7
	c-2.1-1.2-4.2-2.4-6.2-3.7c-2-1.2-2.1-3.7-0.1-5c3.2-2.1,6.5-4.2,9.8-6.3c1.2-0.8,2.5-0.5,3.3,0.6s0.5,2.5-0.7,3.3
	C-471,455.7-473.4,457.2-476,458.8z"/>
<path class="st3" d="M-503.9,458.8c-2.4-1.5-4.7-3-7.1-4.5c-0.6-0.4-1.2-0.9-1.3-1.7c-0.2-1,0.1-1.9,0.9-2.5c0.9-0.6,1.8-0.6,2.7,0
	c2.5,1.6,5.1,3.2,7.6,4.9c0.7,0.5,1.5,0.9,2.2,1.4c1.9,1.3,1.9,3.7-0.1,5c-2.1,1.3-4.3,2.6-6.5,3.8c-1.2,0.7-2.6,0.3-3.2-0.8
	c-0.7-1.1-0.4-2.5,0.8-3.2C-506.6,460.4-505.3,459.6-503.9,458.8z"/>
</svg>
