<?xml version="1.0" encoding="iso-8859-1"?>
<!-- Generator: Adobe Illustrator 19.0.0, SVG Export Plug-In . SVG Version: 6.00 Build 0)  -->
<svg version="1.1" id="Capa_1" xmlns="http://www.w3.org/2000/svg" xmlns:xlink="http://www.w3.org/1999/xlink" x="0px" y="0px"
	 viewBox="0 0 512.001 512.001" style="enable-background:new 0 0 512.001 512.001;" xml:space="preserve">
<circle style="fill:#FFF6D8;" cx="256" cy="256.46" r="208"/>
<path style="fill:#FFE17D;" d="M256.046,512c-5.305,0-10.633-0.156-15.969-0.484C111.558,503.719,8.563,400.95,0.508,272.47
	c-4.609-73.611,22.547-145.621,74.525-197.56c51.97-51.947,124.003-79.033,197.607-74.4
	c128.871,8.149,231.592,111.542,238.936,240.506c2.563,44.923-6.625,89.705-26.555,129.496c-1.984,3.945-6.766,5.539-10.742,3.57
	c-3.945-1.984-5.547-6.789-3.57-10.742c18.688-37.29,27.298-79.275,24.899-121.417C488.716,121.037,392.424,24.12,271.624,16.479
	c-68.885-4.32-136.55,21.055-185.278,69.752C37.618,134.92,12.149,202.445,16.477,271.47
	c7.547,120.433,104.096,216.763,224.568,224.076c30.399,1.828,60.392-1.922,88.994-11.203c16.282-5.281,29.321-17.594,35.759-33.774
	c6.719-16.86,5.594-35.657-3.086-51.564l-18.907-28.915c-2.422-3.703-1.375-8.656,2.32-11.071c3.703-2.422,8.656-1.383,11.071,2.32
	l19.235,29.462c11.289,20.641,12.719,44.384,4.234,65.689c-8.211,20.618-24.86,36.313-45.689,43.071
	C309.485,507.836,283,512,256.046,512z"/>
<path style="fill:#F2A275;" d="M357.197,361.34c-2.414-3.703-7.367-4.742-11.071-2.32c-3.695,2.414-4.742,7.367-2.32,11.071
	l18.907,28.915c8.68,15.907,9.805,34.704,3.086,51.564c-6.438,16.18-19.477,28.493-35.759,33.774
	c-28.602,9.281-58.595,13.032-88.994,11.203c-44.513-2.702-85.728-17.598-120.424-41.336c-3.131-2.142-7.29-1.873-10.037,0.743l0,0
	c-3.653,3.48-3.286,9.524,0.875,12.376c37.042,25.381,81.068,41.302,128.617,44.187c5.336,0.328,10.664,0.484,15.969,0.484
	c26.954,0,53.439-4.164,78.932-12.438c20.829-6.758,37.478-22.454,45.689-43.071c8.485-21.305,7.055-45.048-4.234-65.689
	L357.197,361.34z"/>
<path style="fill:#E6646E;" d="M390.891,339.411l-73.433-42.28c-7.125-4.102-16.116-2.913-21.93,2.9l-19.002,19.002
	c-5.813,5.813-15.051,6.275-21.448,1.111c-11.177-9.023-22.346-19.044-33.268-29.966s-20.943-22.09-29.966-33.268
	c-5.164-6.397-4.702-15.635,1.111-21.448l19.002-19.002c5.813-5.813,7.003-14.804,2.9-21.929l-42.28-73.433
	c-5.97-10.369-20.154-12.245-28.614-3.785l-21.795,21.795c-28.403,28.403,4.696,107.551,73.927,176.783
	s148.38,102.33,176.783,73.927l21.795-21.795C403.136,359.565,401.26,345.381,390.891,339.411z"/>
<g>
	<path style="fill:#DC4655;" d="M193.865,234.555l11.713-11.713L144.555,116.85c-0.188,0.173-0.407,0.283-0.59,0.465l-11.169,11.169
		L193.865,234.555z"/>
	<path style="fill:#DC4655;" d="M382.812,379.889l11.728-11.728L288.13,307.43l-11.603,11.603c-0.043,0.043-0.096,0.073-0.14,0.116
		L382.812,379.889z"/>
	<polygon style="fill:#DC4655;" points="384.645,378.055 394.675,368.025 394.676,368.024 	"/>
	<path style="fill:#DC4655;" d="M207.862,304.127c-69.231-69.23-102.329-148.375-73.93-176.781l-11.763,11.763
		c-28.403,28.403,4.695,107.551,73.927,176.783s148.38,102.33,176.783,73.928l11.764-11.764
		C356.243,406.458,277.094,373.359,207.862,304.127z"/>
</g>
<path style="fill:#FFEDB1;" d="M474.278,374.082c3.977,1.969,8.758,0.375,10.742-3.57c19.93-39.79,29.118-84.572,26.555-129.496
	C504.519,117.104,409.393,16.863,287.641,1.969c-4.444-0.544-8.462,2.798-8.88,7.255l0,0c-0.407,4.338,2.754,8.11,7.078,8.642
	c114.054,14.029,203.15,107.958,209.768,224.056c2.398,42.142-6.211,84.127-24.899,121.417
	C468.731,367.293,470.333,372.098,474.278,374.082z"/>
<g>
</g>
<g>
</g>
<g>
</g>
<g>
</g>
<g>
</g>
<g>
</g>
<g>
</g>
<g>
</g>
<g>
</g>
<g>
</g>
<g>
</g>
<g>
</g>
<g>
</g>
<g>
</g>
<g>
</g>
</svg>
