<?xml version="1.0" encoding="utf-8"?>
<!-- Generator: Adobe Illustrator 22.0.1, SVG Export Plug-In . SVG Version: 6.00 Build 0)  -->
<svg version="1.1" id="Layer_1" xmlns="http://www.w3.org/2000/svg" xmlns:xlink="http://www.w3.org/1999/xlink" x="0px" y="0px"
	 viewBox="0 0 512 512" style="enable-background:new 0 0 512 512;" xml:space="preserve">
<style type="text/css">
	.st0{fill:#D3A484;}
	.st1{fill:#1D2A35;}
	.st2{fill:#2E4051;}
	.st3{fill:#E2E2E2;}
	.st4{fill:#E5AB83;}
	.st5{fill:#1C191A;}
	.st6{fill:#F7CD9C;}
	.st7{fill:#1A2C3F;}
	.st8{fill:#E22727;}
	.st9{fill:#EDEDED;}
	.st10{fill:#F9BF30;}
	.st11{fill:#0A0A0A;}
	.st12{fill:#632616;}
	.st13{fill:none;stroke:#231F20;stroke-width:1.5;stroke-miterlimit:10;}
	.st14{fill:none;stroke:#231F20;stroke-linecap:round;stroke-miterlimit:10;}
	.st15{fill:#CC9671;}
	.st16{fill:#190703;}
	.st17{fill:#747B81;}
	.st18{fill:#C5D2D8;}
	.st19{fill:#97ABB1;}
	.st20{fill:#495259;}
	.st21{fill:#E2181B;}
	.st22{fill:#B81328;}
	.st23{fill:#B0BDC3;}
	.st24{fill:#8D9BA0;}
</style>
<g id="XMLID_149_">
	<path id="XMLID_36_" class="st0" d="M74.3,594c0,0,6.4,29.7,1.7,32.8c-5.6,3.6-9.6-15.7-9.6-15.7L74.3,594z"/>
	<path id="XMLID_37_" class="st0" d="M268.9,591.1c0,0-6.4,29.7-1.7,32.8c5.6,3.6,9.6-15.7,9.6-15.7L268.9,591.1z"/>
	<path id="XMLID_9_" class="st1" d="M258.2,1005.1c0,0,5.1-392.6,3.7-430.4L79.6,573l8.8,432.1h63.7c0,0-4.9-365.3,13.2-364.1
		l21.5-0.4c19.5-1,10.6,364.4,10.6,364.4H258.2z"/>
	<path id="XMLID_58_" class="st2" d="M262.1,266.2c-1.4-16.3-72.6-24.9-93.3-24.9c-40.1-0.1-74.5,4.5-89.2,16.8
		c-13.3,11.2,2.9,297.4,0,314.9c13.6,11.9,69.5,24.2,69.5,24.2l10.9-12.1l5.5,12.1c0,0,71.6-1.3,96.3-22.4c0.1-0.1,0.2-0.1,0.2-0.1
		S266.9,324,262.1,266.2z"/>
	<path id="XMLID_23_" class="st3" d="M173,401.9c0,0,15.6-25.8,40.5-155.9l0,0c-17.8-3.1-35.8-4.7-44.7-4.7
		c-15.5,0-30.2,0.6-43.2,2.2C125.7,243.6,141.4,354.8,173,401.9z"/>
	<path id="XMLID_1_" class="st4" d="M145.3,207.6c0,0-0.7,34.4-1.5,43.9c0,0,5.3,6.7,26.3,6.6c15.6-0.1,23.8-6.6,23.8-6.6
		s-2.5-31.1-4.3-44.9C189.6,206.6,169.7,196.7,145.3,207.6z"/>
	<path id="XMLID_6_" class="st2" d="M87.6,253c0,0-47.4,9.3-53.3,143.6c-4.8,110.1-2.9,196.5-2.9,196.5l42.8,0.9
		c0,0,2.3-159.2,3.3-213.8C77.6,380.2,83.2,273.1,87.6,253z"/>
	<path id="XMLID_7_" class="st2" d="M254.6,258.1c0,0,39.8,6.9,48.8,121.2c6.8,86.6,8.3,210.9,8.3,210.9l-42.8,0.9
		c0,0-7.2-185.7-5.4-206.2C265.2,364.5,259.2,349.1,254.6,258.1z"/>
	<path id="XMLID_4_" class="st5" d="M197.3,1005.1c0,0-2.9,29.4-2.2,53h84.6c0,0,2-28.6-8.4-39.2c-7.9-8-13.1-13.9-13.1-13.9H197.3z
		"/>
	<path id="XMLID_8_" class="st5" d="M152.1,1005.1c0,0,3.6,30.2,3.6,53h-89c0,0,0.8-27.6,9.1-37c6.2-7.1,12.5-16.1,12.5-16.1H152.1z
		"/>
	<path id="XMLID_10_" class="st6" d="M31.5,593.1c0,0-0.7,16.5,0,32.3c0.8,19.1,4.1,29.9,8,22.1c2.5-5,1.5-20.2,2.2-22.1
		c0.7-1.9-0.8,22.1,1.9,27.2c1.6,2.9,6.8,8,7.8-11.2c1-19.2,1-17.3,1.2-15.8c0.2,1.5,0,16.5,0.4,21.1c0.5,4.6,0.2,13.6,4.7,13.6
		c4.4,0,2.7-4.8,4.6-19.7c1.5-11.8,1.2-14.8,1.5-14c0.2,0.9,0.2,16.7,1.5,24.4c0.7,4.2,4.4,4.1,6.1-2.4c1.7-6.6,2.4-18,2.9-23.6
		c0.5-5.6,0-31.2,0-31.2L31.5,593.1z"/>
	<path id="XMLID_11_" class="st6" d="M311.7,590.2c0,0,0.7,16.5,0,32.3c-0.8,19.1-4.1,29.9-8,22.1c-2.5-5-1.5-20.2-2.2-22.1
		c-0.7-1.9,0.8,22.1-1.9,27.2c-1.6,2.9-6.8,8-7.8-11.2c-1-19.2-1-17.3-1.2-15.8s0,16.5-0.4,21.1s-0.2,13.6-4.7,13.6
		c-4.4,0-2.7-4.8-4.6-19.7c-1.5-11.8-1.2-14.8-1.5-14c-0.2,0.9-0.2,16.7-1.5,24.4c-0.7,4.2-4.4,4.1-6.1-2.4
		c-1.7-6.6-2.4-18-2.9-23.6c-0.5-5.6,0-31.2,0-31.2L311.7,590.2z"/>
	<g id="XMLID_21_">
		<path id="XMLID_22_" class="st7" d="M131.7,242.9C131.7,242.9,131.7,242.9,131.7,242.9c-1.9,0.1-3.7,0.3-5.6,0.6
			C127.9,243.2,129.8,243.1,131.7,242.9z"/>
		<path id="XMLID_25_" class="st7" d="M113.4,245.3c0,0.2-1.2,49.1,0,76.3c0,0,8.5,4,15.8,5.9c0,0-9.2,9.2-12.6,14.6
			c0,0,15.1,36.5,56.4,59.8c-31.6-47.1-47.3-158.1-47.3-158.4C121.4,244,117.3,244.6,113.4,245.3z"/>
	</g>
	<polygon id="XMLID_30_" class="st8" points="151.6,264.5 159.4,282.8 180.8,282.8 187.3,261.4 170.1,258.1 	"/>
	<g id="XMLID_24_">
		<path id="XMLID_26_" class="st7" d="M211.2,245.6c-0.1,0-0.2,0-0.3-0.1c0,0,0,0,0,0C210.9,245.6,211,245.6,211.2,245.6z"/>
		<path id="XMLID_28_" class="st7" d="M209,322.7c2.9-0.4,18-6.4,18-6.4c0.7-10.2-3.2-68.2-3.2-68.3c-3.4-0.7-6.9-1.3-10.3-1.9
			C188.6,376.2,173,401.9,173,401.9c43.8-33.1,51.2-68.1,51.2-68.1C220.4,328,209,322.7,209,322.7z"/>
	</g>
	<path id="XMLID_20_" class="st9" d="M144.7,230.3l-19.1,13.2c0,0,1.6,30,10.4,55.3c0,0,22.5-32.6,34-40.7L144.7,230.3z"/>
	<path id="XMLID_27_" class="st9" d="M192.1,230.3l-22,27.8l34,34.4c0,0,9-20.8,9.4-46.4L192.1,230.3z"/>
	<path id="XMLID_33_" class="st8" d="M159.4,282.8l-6.7,75.7c5.8,16.6,12.6,31.9,20.3,43.5c0,0,6-10,16.5-48.7l-8.7-70.5H159.4z"/>
	<path id="XMLID_34_" class="st9" d="M268.9,591.1l42.8-0.9c0,0-0.1-5-0.2-13.6h-43.1C268.7,585.6,268.9,591.1,268.9,591.1z"/>
	<path id="XMLID_35_" class="st9" d="M31.5,593.1l42.8,0.9c0,0,0-6.5,0.1-17.4H31.2C31.3,587.2,31.5,593.1,31.5,593.1z"/>
	<circle id="XMLID_29_" class="st10" cx="279" cy="583.8" r="3.7"/>
	<circle id="XMLID_32_" class="st10" cx="64.5" cy="583.8" r="3.7"/>
	<path id="XMLID_38_" class="st11" d="M66.7,1058.1h89c0-3.4-0.1-7.1-0.2-10.7H67.6C66.9,1053.5,66.7,1058.1,66.7,1058.1z"/>
	<path id="XMLID_39_" class="st11" d="M279.8,1047.4H195c0,3.6,0,7.2,0.1,10.7h84.6C279.8,1058.1,280.1,1053.5,279.8,1047.4z"/>
	<path id="XMLID_14_" class="st12" d="M118,26.7c0,0,0.6-8.8,12.6-11.4v4.4c0,0,6-5.5,35.3-5.8s53,15.3,62.8,19.3s14.2,2.2,14.2,2.2
		s-1.7,7.7-5.4,8.8c0,0,9.1,10.9,10.2,24.4s-0.8,43.8-4.8,58c-4,14.2-8,25.4-8,25.4H97.7c0,0-28.2-75.7,0-106.7c0,0-3.5-0.7-7.4,0.4
		c0,0,3.5-10,18.4-10.2c0,0-4-7.7,0.7-21.5C109.4,13.9,113.2,17.6,118,26.7z"/>
	<path id="XMLID_5_" class="st6" d="M237.3,125.8c0,0,3.8-13.1,10.6-8.8c9.7,6.2,4.5,39.9-14.9,43.3
		C233,160.3,234.9,139,237.3,125.8z"/>
	<path id="XMLID_12_" class="st6" d="M94.2,128.2c0,0-7.5-9.8-11.7-5c-8.3,9.4,1.5,39.6,18.5,44.4C101,167.6,99.1,136.5,94.2,128.2z
		"/>
	<path id="XMLID_2_" class="st6" d="M95.7,82.5c-3.2,29.5-1.8,66.8,9.4,98.6c11.1,31.5,61.6,40.9,61.6,40.9s38.3-6.6,58.2-37.6
		c10.5-16.5,15.7-61.2,10.6-101.9c-1.4-11.3-6.5-58.1-71.4-58.1C137.6,24.4,100.7,36.8,95.7,82.5z"/>
	<path id="XMLID_13_" class="st12" d="M126.3,69.8c0,0,11.5,12.6,39.6,15.6c0,0-3.1-2.9-3.6-7.8c0,0,22.9,10.2,45.2,11.2
		c0,0-4.4-6.3-4.4-9.5c0,0,9.7,11.4,22.9,14.3c0,0,2.9,8.8,2.4,19c0,0,10.7,10.9,9,21.4c0,0,2.2-9.2,3.3-23.1s0-37.2-7.7-52.9
		s-21.5-29-42.7-33.7s-43.8-2.7-59.8,3.4C118,32.5,105.8,43.8,98.5,57c-7.3,13.1-10.7,56.9-3,78.8c0,0-1.4-21.1,7.4-26.2
		c0,0,1.1-15,3.3-19l0.7,5.8C106.8,96.4,116.2,91.5,126.3,69.8z"/>
	<path id="XMLID_16_" class="st13" d="M104.1,120c0,0,9.1-6.1,29.2-6.2c21.7-0.2,22.9,7.6,22.9,7.6s-2.7,23.7-5.9,25.5
		c-3.2,1.7-35.6,5.1-40,0.8S100.1,131,104.1,120z"/>
	<path id="XMLID_17_" class="st13" d="M227,120c0,0-9.1-6.1-29.2-6.2c-21.7-0.2-22.9,7.6-22.9,7.6s2.7,23.7,5.9,25.5
		c3.2,1.7,35.6,5.1,40,0.8C225,143.3,230.9,131,227,120z"/>
	<path id="XMLID_19_" class="st13" d="M175.1,124.3c0,0-2.2-2.2-9.3-2.2c-7.1,0-10,2.2-10,2.2"/>
	<path id="XMLID_15_" class="st14" d="M147.8,185.3c-0.1,4.2,5.4,8,19.7,8c12.2,0,19.8-4.3,19.7-9.4"/>
	<path id="XMLID_18_" class="st15" d="M157.6,164c0,0,3.4,2.7,9.6,2.3c0,0,0.8,8.3-1.9,8.3C162.6,174.7,157.3,173.3,157.6,164z"/>
	<circle id="XMLID_31_" class="st16" cx="128.9" cy="131.8" r="5.6"/>
	<circle id="XMLID_41_" class="st16" cx="201.5" cy="131.8" r="5.6"/>
	<path id="XMLID_40_" class="st12" d="M115.3,108c0,0,15.6-4.2,27.2,0.3c0,0-1.2-6.1-11.1-6.2C120.7,101.9,115.3,108,115.3,108z"/>
	<path id="XMLID_43_" class="st12" d="M215.1,108c0,0-15.6-4.2-27.2,0.3c0,0,1.2-6.1,11.1-6.2C209.7,101.9,215.1,108,215.1,108z"/>
	<g id="XMLID_134_">
		<path class="st7" d="M173,401.9c-1.7,2.7-3.5,5.4-5.3,8c-1.8,2.6-3.7,5.2-5.6,7.8c-3.9,5.1-7.9,10.1-12.5,14.7l0.2-0.6
			c0.2,5,0.3,10,0.5,15l0.4,15l0.9,30l1,30c0.5,10,0.7,20,1.9,30c-0.4-2.5-0.9-4.9-1.2-7.4c-0.3-2.5-0.6-5-0.8-7.5
			c-0.3-2.5-0.5-5-0.7-7.5c-0.2-2.5-0.4-5-0.5-7.5c-0.3-5-0.6-10-0.9-15l-0.7-15c-0.4-10-0.8-20-1-30.1l-0.3-15
			c-0.1-5-0.2-10-0.2-15l0-0.3l0.2-0.2c4.6-4.4,8.8-9.2,12.8-14.2c2-2.5,4-5,5.9-7.5C169.2,407.1,171.1,404.5,173,401.9z"/>
	</g>
	<circle id="XMLID_3_" class="st10" cx="166.4" cy="441.5" r="6.6"/>
	<circle id="XMLID_136_" class="st10" cx="166.4" cy="504.5" r="6.6"/>
	<circle id="XMLID_137_" class="st10" cx="169.6" cy="567.5" r="6.6"/>
</g>
<g>
	<path class="st17" d="M331,270.4L286,312l41.6-45c0.9-1,2.4-1,3.4-0.1c1,0.9,1,2.4,0.1,3.4C331.1,270.3,331,270.3,331,270.4z"/>
	<path class="st18" d="M329.6,261.2l-8,8c-2,2-2,5.3,0,7.3l0,0c2,2,5.3,2,7.3,0l8-8"/>
	<path class="st19" d="M321.6,276.4c0.5,0.5,1.1,0.9,1.7,1.1c-0.8-1.9-0.4-4.1,1.1-5.6l8-8l-2.8-2.8l-8,8
		C319.6,271.2,319.6,274.4,321.6,276.4z"/>
	
		<rect x="397" y="178.3" transform="matrix(0.7071 -0.7071 0.7071 0.7071 -10.5762 345.9195)" class="st17" width="30.5" height="14.8"/>
	<g>
		
			<rect x="400.1" y="185.6" transform="matrix(0.7071 -0.7071 0.7071 0.7071 -17.8757 342.8953)" class="st20" width="9.8" height="14.8"/>
		
			<rect x="394.4" y="179.4" transform="matrix(0.7071 -0.7071 0.7071 0.7071 -9.493 343.3031)" class="st20" width="30.5" height="7.4"/>
	</g>
	<path class="st19" d="M329.3,245l60.3-60.3l23.7,23.7L353,268.7c-6.6,6.6-17.2,6.6-23.7,0l0,0C322.7,262.2,322.7,251.5,329.3,245z"
		/>
	<polyline class="st18" points="372.8,230 372,226 398.1,199.9 410,211.8 383.8,237.9 379.9,237.1 	"/>
	<path class="st21" d="M319,255.2l41.1-41.1l23.7,23.7L342.8,279c-0.9,0.9-2.3,0.9-3.2,0L319,258.4
		C318.1,257.5,318.1,256.1,319,255.2z"/>
	<path class="st22" d="M319,255.2l39.5-39.5l6.8,6.8l-41.1,41.1l-5.2-5.2C318.1,257.5,318.1,256.1,319,255.2z"/>
	<path class="st23" d="M377.6,176l3.4-3.4c0.9-0.9,2.3-0.9,3.2,0l41.1,41.1c0.9,0.9,0.9,2.3,0,3.2l-3.4,3.4c-0.9,0.9-2.3,0.9-3.2,0
		l-41.1-41.1C376.7,178.3,376.7,176.9,377.6,176z"/>
	<path class="st24" d="M377.6,176l3.4-3.4c0.9-0.9,2.3-0.9,3.2,0l17,17l-6.6,6.6l-17-17C376.7,178.3,376.7,176.9,377.6,176z"/>
	
		<rect x="372.1" y="203.3" transform="matrix(0.7071 -0.7071 0.7071 0.7071 -35.5139 335.5906)" class="st20" width="30.5" height="14.8"/>
	<g>
		
			<rect x="374.7" y="209.6" transform="matrix(0.7071 -0.7071 0.7071 0.7071 -36.5969 338.206)" class="st17" width="30.5" height="7.4"/>
		
			<rect x="369.1" y="207.7" transform="matrix(0.7071 -0.7071 0.7071 0.7071 -49.368 329.8478)" class="st17" width="8.7" height="33.6"/>
	</g>
	<polygon class="st20" points="365.3,222.5 371.3,216.2 364.7,209.6 358.5,215.7 	"/>
	<path class="st17" d="M411.2,165.3l2.5-2.5c1.1-1.1,2.8-1.1,3.8,0l17.7,17.7c1.1,1.1,1.1,2.8,0,3.8l-2.5,2.5
		c-1.1,1.1-2.8,1.1-3.8,0l-17.7-17.7C410.1,168.1,410.1,166.3,411.2,165.3z"/>
	<path class="st20" d="M411.2,169.1l4.4,4.4c-1.1-1.1-1.1-2.8,0-3.8l2.5-2.5c1.1-1.1,2.8-1.1,3.8,0l-4.4-4.4c-1.1-1.1-2.8-1.1-3.8,0
		l-2.5,2.5C410.1,166.3,410.1,168.1,411.2,169.1z"/>
</g>
</svg>
