<?xml version="1.0" encoding="utf-8"?>
<!-- Generator: Adobe Illustrator 22.0.1, SVG Export Plug-In . SVG Version: 6.00 Build 0)  -->
<svg version="1.1" id="Layer_1" xmlns="http://www.w3.org/2000/svg" xmlns:xlink="http://www.w3.org/1999/xlink" x="0px" y="0px"
	 viewBox="0 0 200 200" style="enable-background:new 0 0 200 200;" xml:space="preserve">
<style type="text/css">
	.st0{fill:#B72133;}
	.st1{fill:#BCBCBC;}
</style>
<path d="M-410.9,46.8c10.8-2.5,20.6-6.6,27.3-16c0.6-0.8,3.3-1.2,4.1-0.6c2.7,2.2,5.9,4.5,7.1,7.6c7.8,18.7,15.1,37.5,22.5,56.4
	c3.3,8.3,0.2,14.6-8.6,17.1c-12.5,3.5-25.1,6.9-37.7,10.1c-6.2,1.6-12.2-1.8-14-7.4c-2.1-6.5,0.9-12.9,7.5-14.9
	c8.6-2.6,17.3-4.8,26.6-7.3c-1.5-3.9-2.7-7.3-4-10.8c-0.3,0-0.6,0.1-0.9,0.1c0,3.2,0,6.4,0,10.1c-6.8,1.8-13.3,3.6-19.7,5.4
	c-8.8,2.4-13.4,9-11.5,16.8c1.8,7.5,9.4,11.5,18,9.3c4.2-1,8.4-2.2,14.3-3.7c0,18.8-0.4,36.9,0.1,54.9c0.8,33.3,2.1,66.5,3.3,99.8
	c0.2,6.2-0.1,12.2-5.3,16.5c-4.5,3.8-9.9,4.6-15.3,2.3c-5.9-2.4-8.8-7.3-9.3-13.6c-1-13.4-1.9-26.8-2.9-40.2
	c-1.5-20.2-3-40.3-5.6-60.6c-0.7,9.1-1.5,18.2-2.1,27.3c-1.7,24.6-3.3,49.2-5,73.8c-0.6,8.9-7,14.7-15.4,14.4
	c-8.2-0.3-14.5-6.4-14.2-14.8c1.6-52.5,3.3-105,5.1-158.2c4.9,0.8,9.7,1.7,14.5,2.5c8,1.3,14.5-3,16-10.8c1.4-7-3.3-13.8-10.9-15.5
	c-6-1.4-12.1-2.5-18.2-3.7c-0.3-0.1-0.6-0.5-1.2-0.9c0-5.7,0-11.6,0-17.5c-0.4-0.1-0.7-0.2-1.1-0.4c-2.8,6-5.5,12-8.6,18.7
	c9.8,2,18.9,3.8,28.1,5.6c7.4,1.5,11.6,7.1,10.3,13.6c-1.4,7-7.5,10.7-15.1,9.2c-13.6-2.6-27.1-5.2-40.7-7.8
	c-10-1.9-13.8-9-9.6-18.1c8.8-19.1,17.6-38.2,26.5-57.3c1.1-2.3,2.5-4.7,4.3-6.3c3-2.6,5.9-3.3,9.1,0.7c4.4,5.5,9.6,10.2,17.2,11.1
	C-420.9,44.6-415.9,45.7-410.9,46.8z"/>
<path d="M-410.9,46.8c-5-1.1-10-2.2-15-3.2c-13.4-6.4-21.6-16.4-21.8-31.7c-0.3-18,13.6-30.9,27.3-33.3c18.6-3.3,35.5,9.3,39,25.7
	c3.6,16.8-5.8,33.7-22.1,39.3C-406,44.4-408.4,45.7-410.9,46.8z"/>
<path class="st0" d="M-456.4,153c-4.2,7.6-8.5,15-12.7,22.4c-0.1,0-0.1,0-0.2,0c0.3-1.7,0.6-3.4,0.8-5.1c0.6-3.6,1.2-7.2,1.8-10.7
	c0.1-0.6,0.1-0.9-0.6-0.6c-2.4,0.6-4.7,1.3-7.1,1.8c-0.3,0.1-0.5,0.1-0.9,0.2c4.7-7.8,9.3-15.4,13.8-23c0.1,0,0.1,0,0.2,0.1
	c-0.4,2-0.8,4-1.2,6c-0.6,3.1-1.3,6.4-2,9.5c-0.1,0.6-0.1,0.8,0.6,0.6c2.1-0.5,4.2-0.8,6.4-1.2C-457.2,153.1-456.9,153.1-456.4,153z
	"/>
<path class="st0" d="M-477.9,134.4c-3.6,4.2-7.2,8.3-10.8,12.6c2.7,0.9,5.2,1.8,7.8,2.9c-7.4,4.4-14.6,8.8-21.9,13.2l-0.1-0.1
	c3.5-4.3,6.9-8.7,10.5-13c-3-0.8-5.8-1.6-8.9-2.4C-493.3,143.1-485.6,138.8-477.9,134.4C-478,134.4-477.9,134.4-477.9,134.4z"/>
<path class="st0" d="M-490.2,117.3c1.8,2.2,3.4,4.3,5.3,6.6c-8.6-0.1-17-0.2-25.4-0.3c0-0.1,0-0.1-0.1-0.2
	c5.2-1.8,10.3-3.7,15.6-5.6c-2.1-2.2-4.2-4.4-6.3-6.7c9,0.4,17.6,0.7,26.4,1.1c0,0.1,0,0.1,0,0.2C-479.8,114-485,115.6-490.2,117.3z
	"/>
<path class="st0" d="M58,138.3c-6.8,5.4-13.5,10.8-20.2,16.1c-0.1,0-0.1,0-0.2-0.1c0.9-1.4,1.8-3,2.7-4.4c1.9-3.1,3.8-6.2,5.7-9.3
	c0.3-0.6,0.4-0.8-0.4-0.8c-2.5-0.3-4.9-0.6-7.3-0.9c-0.3,0-0.5-0.1-0.9-0.2c7.3-5.4,14.4-10.8,21.4-16.2c0.1,0,0.1,0,0.1,0.2
	c-1.1,1.7-2.2,3.4-3.3,5.1c-1.8,2.7-3.6,5.4-5.4,8.1c-0.3,0.6-0.4,0.7,0.4,0.8c2.1,0.4,4.3,0.8,6.4,1.3
	C57.3,138.1,57.5,138.2,58,138.3z"/>
<path class="st0" d="M45,113.1c-4.9,2.5-9.8,5-14.7,7.6c2.1,1.9,4.1,3.6,6.2,5.6c-8.5,1.4-16.8,2.7-25.2,4.1l-0.1-0.1
	c4.9-2.7,9.7-5.5,14.6-8.2c-2.4-1.9-4.8-3.6-7.3-5.5C27.5,115.5,36.2,114.3,45,113.1C44.9,113,45,113.1,45,113.1z"/>
<path class="st0" d="M39.9,92.6c0.8,2.7,1.6,5.3,2.4,8c-7.9-3.3-15.7-6.5-23.5-9.7c0-0.1,0-0.1,0-0.2c5.5,0.2,11,0.4,16.6,0.6
	c-1.1-2.8-2.2-5.7-3.3-8.6c8.2,3.7,16.1,7.2,24.1,10.8c0,0.1,0,0.1-0.1,0.2C50.8,93.4,45.4,93,39.9,92.6z"/>
<path class="st1" d="M82,94.5c0.6-6.8,2.4-12.9,7-18c-0.5,0.8-0.9,1.7-1.4,2.5c-1.4,2.9-2.1,6.1-2.3,9.3c-0.2,3.1,0,6.1,0.5,9.2
	c0.1,0.3,0.2,0.6,0.4,0.8c1.8,1.7,3.6,3.3,6,4.2c1.6,0.6,3.3,0.8,4.9,0.3c1.7-0.6,3.3-1.1,4.9-1.8c3.5-1.7,5.7-4.5,6.5-8.4
	c0.3-1.2,0.5-2.5,0.5-3.8c-0.1-1.6-0.3-3.2-0.7-4.7c-0.5-1.9-1.3-3.7-2-5.5c-1.7-4.8-2.5-9.7-2.1-14.8c0.2-2.8,1-5.4,2.1-8
	c1.3-2.9,2.4-5.9,3.5-8.8c2.8-7.3,5.5-14.6,8.2-21.9c2-5.2,3.9-10.5,5.9-15.7c1.1-2.9,2.2-5.9,3.3-8.8c0.1-0.4,0.3-0.6,0.8-0.6
	c9.6,0,19.1,0,28.7,0c1,0,1,0,1,1c0,7-0.6,14-1.7,20.9c-1.4,8.8-3.5,17.3-6.5,25.7c-2.2,6.2-4.9,12.3-8.1,18.1
	c-3,5.5-6.4,10.9-10.2,15.9c-4,5.2-8,10.3-12,15.5c-0.3,0.4-0.3,0.7,0.1,1.1c2.2,2.4,5,3.9,8.1,4.9c2.3,0.7,4.7,1.2,7,2.1
	c3.1,1.3,6.2,2.8,9.2,4.5c4.6,2.5,8.8,5.4,12.8,8.8c2.9,2.5,5.7,5.1,8.4,7.8c2,1.9,3.7,4.1,5.5,6.2c3.7,4.5,7.1,9.3,10,14.3
	c3.6,6.1,6.8,12.5,9.4,19.1c1.9,5,3.7,10.1,5.3,15.2c1.9,5.8,3.3,11.8,4.5,17.8c0,0.2,0.1,0.5,0.1,0.8c-0.4,0-0.6,0.1-0.9,0.1
	c-6.5,0-13,0-19.5,0c-0.5,0-0.8-0.1-1.1-0.6c-2.7-3.9-5.4-7.8-8.1-11.7c-3.9-5.7-7.8-11.4-11.8-17c-3.8-5.4-7.5-10.8-11.3-16.2
	c-2.9-4.1-5.8-8.1-8.8-12.1c-3.3-4.5-6.7-9.1-10.2-13.5c-2.5-3.2-5.3-6.3-8-9.4c-0.3-0.3-0.7-0.6-1-0.9c-0.1,0-0.1,0.1-0.2,0.1
	c0.4,1.1,0.7,2.3,1.3,3.4c2.1,3.9,4.3,7.8,6.4,11.8c1.2,2.1,2.3,4.2,3.5,6.2c0.6,1,1.5,1.9,2.3,2.8c3.3,4.3,6.8,8.5,10,12.8
	c3.6,4.9,7,9.8,10.3,14.8c3.2,4.7,6.3,9.5,9.3,14.4c2.9,4.7,5.8,9.5,8.6,14.3c0.1,0.2,0.2,0.4,0.3,0.6c-0.2,0-0.4,0.1-0.6,0.1
	c-1.8,0-3.6,0-5.3,0c-0.3,0-0.7-0.2-0.8-0.4c-2.6-3.9-5.3-7.8-7.9-11.6c-2.3-3.4-4.6-6.8-6.9-10.1c-2.3-3.5-4.7-6.9-7-10.4
	c-3-4.5-5.9-8.9-8.8-13.5c-1.7-2.7-3.4-5.5-5-8.3c-3.2-5.6-6.4-11.3-9.6-16.9c-2.2-3.8-3.9-7.7-4.6-12c-0.2-1-0.3-2-0.4-3.2
	c-6.6,9.2-15,15.7-26.6,17.1c0.7,0.6,1.3,1.1,1.9,1.7c6.1,5.1,12.1,10.3,17.6,16.2c3.7,4,7.2,8.3,10.8,12.5c2.6,3.1,5.1,6.4,7.7,9.5
	c4.6,5.6,9.3,11.3,14,16.8c3.3,3.8,6.7,7.5,10,11.3c0.4,0.4,0.7,0.8,1.1,1.3c-0.3,0-0.4,0.1-0.6,0.1c-3.7,0-7.3,0-11,0
	c-0.3,0-0.7-0.2-0.9-0.4c-3.1-3.3-6.1-6.6-9.1-9.9c-2.8-3-5.5-6-8.3-9c-4-4.4-8-8.8-12-13.1c-2.8-3.1-5.6-6.1-8.3-9.2
	c-4.4-4.9-8.9-9.8-13.3-14.7c-3.6-4.1-7.2-8.2-10.9-12.3c-5-5.5-9-11.6-12.1-18.4c-2.5-5.5-4.3-11.2-5.2-17.2
	c-0.5-3.4-0.7-6.8-0.9-10.2C57.3,79.5,57.9,73.7,59,68c0.9-4.8,2.2-9.5,3.2-14.2c0.7-3.2,1.3-6.3,1.9-9.5s1.2-6.4,1.7-9.5
	c0.3-1.8,0.6-3.5,0.9-5.3c1-6.2,2-12.5,2.9-18.7C70,7.9,70.1,4.9,70.3,2c0-0.5-0.1-1-0.1-1.5c14.1,0,28.3,0,42.5,0
	c-0.2,0.5-0.4,0.9-0.6,1.3c-2.5,5.4-5,10.9-7.5,16.3c-2.2,4.8-4.4,9.6-6.7,14.3c-2.4,5.1-4.8,10.1-7.4,15.1
	c-1.6,3.2-3.4,6.3-5.2,9.5c-0.3,0.5-0.7,1.1-1.1,1.5c-4.1,4.2-7.2,9.1-9.6,14.4c-1.4,3.1-2.4,6.3-2.4,9.6c-0.1,5.5,2.6,9.4,8.1,11.8
	C81,94.2,81.5,94.3,82,94.5z M99.2,106.8c-0.4,0.1-0.6,0.1-0.7,0.2c-4.6,1.6-8.5,4.2-11.6,8c-2.1,2.6-3.6,5.4-4,8.8
	c-0.2,1.9,0.2,3.5,2,4.5c0.3,0.2,0.8,0.3,1.1,0.1c2.5-1.1,5.1-2.1,7.6-3.4c3.8-2,7.4-4.4,10.8-7.1c3-2.4,5.8-5,8.7-7.5
	c0.4-0.3,0.4-0.6,0.2-1.1c-0.8-2.2-2.4-3.4-4.6-4c-1.4-0.3-2.8-0.6-4.1,0.3c-3.1,2-5.6,4.7-7.6,7.8c-0.9,1.4-1.6,2.9-2.5,4.5
	C95.2,113.9,96.8,110.3,99.2,106.8z"/>
</svg>
