<?xml version="1.0" encoding="utf-8"?>
<!-- Generator: Adobe Illustrator 22.0.1, SVG Export Plug-In . SVG Version: 6.00 Build 0)  -->
<svg version="1.1" id="Layer_1" xmlns="http://www.w3.org/2000/svg" xmlns:xlink="http://www.w3.org/1999/xlink" x="0px" y="0px"
	 viewBox="0 0 200 200" style="enable-background:new 0 0 200 200;" xml:space="preserve">
<style type="text/css">
	.st0{fill:#B72133;}
	.st1{fill:#BCBCBC;}
</style>
<path d="M-410.9,46.8c10.8-2.5,20.6-6.6,27.3-16c0.6-0.8,3.3-1.2,4.1-0.6c2.7,2.2,5.9,4.5,7.1,7.6c7.8,18.7,15.1,37.5,22.5,56.4
	c3.3,8.3,0.2,14.6-8.6,17.1c-12.5,3.5-25.1,6.9-37.7,10.1c-6.2,1.6-12.2-1.8-14-7.4c-2.1-6.5,0.9-12.9,7.5-14.9
	c8.6-2.6,17.3-4.8,26.6-7.3c-1.5-3.9-2.7-7.3-4-10.8c-0.3,0-0.6,0.1-0.9,0.1c0,3.2,0,6.4,0,10.1c-6.8,1.8-13.3,3.6-19.7,5.4
	c-8.8,2.4-13.4,9-11.5,16.8c1.8,7.5,9.4,11.5,18,9.3c4.2-1,8.4-2.2,14.3-3.7c0,18.8-0.4,36.9,0.1,54.9c0.8,33.3,2.1,66.5,3.3,99.8
	c0.2,6.2-0.1,12.2-5.3,16.5c-4.5,3.8-9.9,4.6-15.3,2.3c-5.9-2.4-8.8-7.3-9.3-13.6c-1-13.4-1.9-26.8-2.9-40.2
	c-1.5-20.2-3-40.3-5.6-60.6c-0.7,9.1-1.5,18.2-2.1,27.3c-1.7,24.6-3.3,49.2-5,73.8c-0.6,8.9-7,14.7-15.4,14.4
	c-8.2-0.3-14.5-6.4-14.2-14.8c1.6-52.5,3.3-105,5.1-158.2c4.9,0.8,9.7,1.7,14.5,2.5c8,1.3,14.5-3,16-10.8c1.4-7-3.3-13.8-10.9-15.5
	c-6-1.4-12.1-2.5-18.2-3.7c-0.3-0.1-0.6-0.5-1.2-0.9c0-5.7,0-11.6,0-17.5c-0.4-0.1-0.7-0.2-1.1-0.4c-2.8,6-5.5,12-8.6,18.7
	c9.8,2,18.9,3.8,28.1,5.6c7.4,1.5,11.6,7.1,10.3,13.6c-1.4,7-7.5,10.7-15.1,9.2c-13.6-2.6-27.1-5.2-40.7-7.8
	c-10-1.9-13.8-9-9.6-18.1c8.8-19.1,17.6-38.2,26.5-57.3c1.1-2.3,2.5-4.7,4.3-6.3c3-2.6,5.9-3.3,9.1,0.7c4.4,5.5,9.6,10.2,17.2,11.1
	C-420.9,44.6-415.9,45.7-410.9,46.8z"/>
<path d="M-410.9,46.8c-5-1.1-10-2.2-15-3.2c-13.4-6.4-21.6-16.4-21.8-31.7c-0.3-18,13.6-30.9,27.3-33.3c18.6-3.3,35.5,9.3,39,25.7
	c3.6,16.8-5.8,33.7-22.1,39.3C-406,44.4-408.4,45.7-410.9,46.8z"/>
<path class="st0" d="M-456.4,153c-4.2,7.6-8.5,15-12.7,22.4c-0.1,0-0.1,0-0.2,0c0.3-1.7,0.6-3.4,0.8-5.1c0.6-3.6,1.2-7.2,1.8-10.7
	c0.1-0.6,0.1-0.9-0.6-0.6c-2.4,0.6-4.7,1.3-7.1,1.8c-0.3,0.1-0.5,0.1-0.9,0.2c4.7-7.8,9.3-15.4,13.8-23c0.1,0,0.1,0,0.2,0.1
	c-0.4,2-0.8,4-1.2,6c-0.6,3.1-1.3,6.4-2,9.5c-0.1,0.6-0.1,0.8,0.6,0.6c2.1-0.5,4.2-0.8,6.4-1.2C-457.2,153.1-456.9,153.1-456.4,153z
	"/>
<path class="st0" d="M-477.9,134.4c-3.6,4.2-7.2,8.3-10.8,12.6c2.7,0.9,5.2,1.8,7.8,2.9c-7.4,4.4-14.6,8.8-21.9,13.2l-0.1-0.1
	c3.5-4.3,6.9-8.7,10.5-13c-3-0.8-5.8-1.6-8.9-2.4C-493.3,143.1-485.6,138.8-477.9,134.4C-478,134.4-477.9,134.4-477.9,134.4z"/>
<path class="st0" d="M-490.2,117.3c1.8,2.2,3.4,4.3,5.3,6.6c-8.6-0.1-17-0.2-25.4-0.3c0-0.1,0-0.1-0.1-0.2
	c5.2-1.8,10.3-3.7,15.6-5.6c-2.1-2.2-4.2-4.4-6.3-6.7c9,0.4,17.6,0.7,26.4,1.1c0,0.1,0,0.1,0,0.2C-479.8,114-485,115.6-490.2,117.3z
	"/>
<g>
	<path class="st0" d="M150.8,110.8c7-5.4,14-10.8,21-16.3c0.3,0.3,0.2,0.6,0.1,0.8c-0.4,2.5-0.7,4.8-1,7.3c-0.1,0.7,0,0.7,0.6,0.6
		c5.1-1.5,10.2-3,15.3-4.5c0.1,0,0.2,0,0.5-0.1c-7.1,5.2-14.1,10.2-21.1,15.3c0.1-2.2,0.2-4.4,0.4-6.5c0.2-1.9,0.2-1.9-1.6-1.3
		c-4.6,1.5-9,3-13.6,4.5C151,110.8,150.9,110.8,150.8,110.8C150.8,110.9,150.8,110.9,150.8,110.8z"/>
	<path class="st0" d="M160.2,90.2c-1.3-2.5-2.5-5-3.7-7.5c-3.8,4.1-7.5,8.1-11.2,12.2l-0.1-0.1c3.4-8.1,6.9-16.3,10.4-24.6
		c1.2,2.9,2.3,5.7,3.4,8.5c4-4,7.9-8,11.8-11.9c0.1,0,0.1,0.1,0.2,0.1C167.3,74.6,163.8,82.4,160.2,90.2z"/>
	<path class="st0" d="M119.3,74.6c2.5,1.9,5,3.7,7.4,5.6c1.3-5.5,2.6-10.9,3.8-16.2c0.1,0,0.1,0,0.2,0c1,8.3,2.1,16.7,3.2,25.2
		c-2.2-1.3-4.2-2.7-6.2-3.9c-0.9-0.6-0.9-0.6-1.1,0.5c-0.9,4.8-1.9,9.5-2.8,14.3c-0.1,0.3,0,0.5-0.3,0.8
		C122,92,120.7,83.4,119.3,74.6z"/>
</g>
<g>
	<path class="st1" d="M4.2,198.8c1-4.6,2-9.1,3-13.7c2.6-12.6,5.1-25.2,7.6-37.8c0.2-1.1,0.5-1.6,1.8-1.6c20.3,0,40.5,0,60.8,0
		c0.3,0,0.7,0.1,1.2,0.1c1.1,5.7,2.3,11.4,3.4,17.1c2.3,11.6,4.7,23.3,7,34.9c0.1,0.7,0.2,1.4,0.2,2.1c-28.3,0-56.6,0-85,0
		C4.2,199.6,4.2,199.2,4.2,198.8z"/>
	<path class="st1" d="M113.3,0c3.4,1.1,7.1,1.8,10.3,3.4c10.7,5.5,15.5,17.1,11.8,27.7c-3.7,10.8-14.5,17.4-27.3,16.6
		C96.8,47,86.9,38.4,85,27.5c-2.2-12.8,7.6-25.1,21.5-27.2c0.5-0.1,0.9-0.3,1.4-0.4C109.7,0,111.5,0,113.3,0z"/>
	<path class="st1" d="M72.5,100.9c2.9-0.4,5.4-0.8,7.9-1c0.7-0.1,1.7,0.2,2.2,0.7c12.4,12.1,28,18.4,45.6,21c4,0.6,7.6,0.5,10.9-1.9
		c3.2-2.3,4.6-5.5,4.5-9.6c3.8,2,7.3,3.9,10.8,5.9c1.7,0.9,3.4,2,4.9,3.1c6.1,4.4,7.4,12.2,3,18s-12.9,7.5-19.4,3.6
		c-7.8-4.6-15.8-8.9-24.7-11.5c-2.5-0.7-5-1.3-7.9-2c2.2,6.4,4.2,12.4,6.3,18.4c3.8,11.2,7.7,22.3,11.4,33.5
		c2.9,8.7-3.7,17-13.6,17.2c-6.2,0.1-11.7-3.4-13.9-9.4c-2.8-7.7-5.3-15.5-8-23.2c-2.4-7.1-4.9-14.3-7.3-21.4
		c-0.4-1.3-1-1.7-2.5-1.7c-13.5,0.1-26.9-0.2-40.4,0.1s-19.9-8.2-22.1-16.4c-1.8-6.5-0.6-12.8,1.4-19c6-19.1,15.5-36.5,28.8-52.2
		c5.2-6.2,11.6-10.7,20.2-12c12.2-1.9,21.3,4.4,23.2,15.6c0.9,5.8-0.4,12.9-3.2,16.7c-2.3-4.8-3.6-9.7-4-14.9
		c-0.4-5.3-5.1-9.6-10.7-10c-5.7-0.3-11.3,3.1-12,8.2c-0.5,3.7,0.1,7.5,0.8,11.2c1.7,8.9,5.5,17.1,10.9,24.6
		c0.6,0.9,0.7,1.5,0.1,2.5C74.6,96.7,73.7,98.7,72.5,100.9z"/>
	<path class="st1" d="M141.2,111.4c-0.1,4.9-4.8,9-10.1,8.4c-15.4-1.9-29.7-6.6-41.6-16.1C75.2,92.2,67.7,77.5,65.9,60.3
		c-0.6-5.2,3.2-9.3,8.6-9.7c4.9-0.4,9.2,3.1,9.7,8.2c1.4,12.7,6.7,23.6,17.2,32.1c8,6.4,17.6,9.8,27.9,11.6c1.6,0.3,3.2,0.5,4.8,0.8
		C138.3,104.1,141.2,107.5,141.2,111.4z"/>
</g>
</svg>
