<?xml version="1.0" encoding="utf-8"?>
<!-- Generator: Adobe Illustrator 22.0.1, SVG Export Plug-In . SVG Version: 6.00 Build 0)  -->
<svg version="1.1" id="Layer_1" xmlns="http://www.w3.org/2000/svg" xmlns:xlink="http://www.w3.org/1999/xlink" x="0px" y="0px"
	 viewBox="0 0 200 200" style="enable-background:new 0 0 200 200;" xml:space="preserve">
<style type="text/css">
	.st0{fill:#B72133;}
	.st1{fill:#58595B;}
	.st2{fill:#FEFEFE;}
	.st3{fill:#BCBCBC;}
</style>
<g>
	<path d="M-209.5,13.5c-9,6.8-18,13.4-27.9,18.9c-2,1.1-3.8,2.6-5.4,4.2c-8.3,7.8-8.4,9.4-1.3,18.3c9.3,11.6,12.4,24.6,9.1,39.3
		c-6.4,28.8-4.3,56.6,8.8,83.4c1.1,2.2,1.8,4.7,2.3,7.1c1.5,8-3.7,14.5-11.8,15.1c-1.4,0.1-3,0.2-4.4-0.1c-13-3-26.1-2.1-39.1,0
		c-9.3,1.4-18.2-2.3-27.5-0.1c-3.5,0.8-6.6-2.3-7-6.5c-0.4-4.1,3-3.5,5.4-4.4c11.6-4,23.2-7.8,34.6-12.4c6.1-2.4,8.9-7.9,8.9-14.5
		c0.1-15.5-4.8-30-10.2-44.1c-6-15.8-12.5-31.3-13.1-48.5c-0.2-5-2.3-9.6-4.7-14.1c-4.8-9.1-4.1-17.7,1.6-26.5
		c5.1-7.9,6-17.6,10.2-25.9c1.5-3.8,5.4-0.4,7.5-2.4c7.9,0,15.8,0,23.8,0c11.5,1.1,23.1,2.1,33.6,7.6C-213.4,9-210,9.7-209.5,13.5z"
		/>
	<path class="st0" d="M-222.9,82.7c-2.6,0.5-3-0.5-3.3-1.5c-0.3-1.2,0.5-1.9,1.5-2.3c3.5-1.3,7-2.5,10.5-3.7c1.3-0.4,2.5-0.2,3,1.3
		c0.3,0.9,0.1,1.8-0.7,2.1C-215.9,80.2-220,81.7-222.9,82.7z"/>
	<path class="st0" d="M-224.6,95.3c3.1,1.9,7,4.3,10.7,6.8c0.4,0.2,0.3,1.6,0,2.2c-0.3,0.7-1,1.5-2,0.9c-3.7-2.2-7.5-4.4-11.2-6.6
		c-0.7-0.5-1-1.3-0.4-2.2C-227,95.7-226.5,95.1-224.6,95.3z"/>
	<path class="st0" d="M-218.8,87.4c1.3,0.2,3.5,0.5,5.8,0.9c1.3,0.2,2.4,1,2.1,2.5c-0.3,1.7-1.7,1.6-2.9,1.5c-2.7-0.3-5.4-0.6-8-1
		c-1.5-0.2-3.8,0.5-3.7-2.1c0.1-2.4,2.3-1.7,3.9-1.8C-221,87.4-220.4,87.4-218.8,87.4z"/>
</g>
<path class="st1" d="M-488.9,509.7c-9.7-0.1-18.2-3-24.8-10.5c-4.4-5-6.9-11-8.2-17.5c-0.2-1.2-0.5-2.5-0.5-3.7c0-1-0.5-1.2-1.4-1.3
	c-1.4-0.1-2.6-0.6-3.8-1.3c-2-1.2-3.2-2.9-3.6-5.2c-0.6-3.2-1.1-6.4-0.4-9.7c0.4-1.7,1.1-3.2,2.6-4.2c0.6-0.4,1.1-0.5,1.7,0.1
	c2,1.9,4.3,2.3,6.5,1.1c2.2-1.1,3.2-3.4,3-6.1c-0.6-5.4-0.8-10.8,0.3-16.2c0.3-1.4,0.7-2.8,1.5-4.1c1.5-2.4,3.6-3,6.1-1.5
	c5.5,3.2,11.1,6,17.1,8.1c4.2,1.4,8.4,2.7,12.9,2.4c4.3-0.2,8.5-1,12.1-3.6c0.7-0.5,0.9-0.3,1.3,0.3c2.5,3.9,4.6,7.9,5.4,12.5
	c0.2,1.2,0.3,2.5,0.3,3.7c0,2.4,1.1,4.1,3.2,5.1c2.2,1,4.2,0.6,6-1c1.4-1.2,2.8-1,3.9,0.5s1.4,3.3,1.5,5.1c0.1,2.7-0.2,5.3-0.9,7.9
	c-0.8,3.2-3.6,5.6-7.2,5.9c-1,0.1-1.4,0.4-1.5,1.5c-0.9,7.8-3.4,15-8.7,21c-5,5.7-11.4,8.9-18.9,10
	C-485.1,509.5-487,509.7-488.9,509.7z"/>
<path class="st1" d="M-522.9,443.8c0,2.6,0.1,5.3,0.4,7.9c0,0.2,0,0.4,0.1,0.6c0,0.5,0,0.9-0.5,1.1s-0.8-0.1-1.2-0.4
	c-1.6-1.9-3.2-3.9-4.4-6.1c-6.2-10.9-7.2-22.3-3.4-34.1c2.9-9,9.6-14,18.8-15.7c1.6-0.3,3.3-0.5,4.9-0.4c0.6,0,1.1-0.2,1.5-0.6
	c4.6-4.4,10-7.5,16.3-8.7c7.6-1.5,14.9-0.1,21.7,3.3c11.2,5.7,18.2,14.7,20.5,27.2c1.2,6.9,0.6,13.8-1,20.6
	c-1.1,4.9-2.8,9.7-4.9,14.3c-0.1,0.2-0.2,0.4-0.3,0.6c-0.2,0.5-0.6,0.8-1.1,0.7c-0.6-0.1-0.6-0.6-0.6-1.1c0-2.1-0.2-4.2-0.7-6.3
	c-1.4-5.4-4.1-10.1-7.3-14.6c-0.9-1.2-1.9-1.5-3.4-0.9c-0.9,0.4-1.7,0.8-2.5,1.3c-4.9,3.2-10.2,3.7-15.8,2.5
	c-6.6-1.4-12.7-4.3-18.6-7.4c-1.2-0.6-2.3-1.3-3.4-1.9c-4.5-2.6-9.4-1.4-12.2,3.1c-1.8,2.8-2.5,6-2.9,9.2
	C-522.9,439.8-522.9,441.8-522.9,443.8z"/>
<path class="st2" d="M-490.1,487.9c5.1,0.1,9.4,1.9,13,5.4c1.2,1.1,1.2,2.6,0.3,3.6c-1,1-2.4,0.9-3.5-0.1c-5.7-5.3-13.8-5.4-19.5,0
	c-1.2,1.1-2.6,1.1-3.6,0.1c-0.9-1-0.8-2.4,0.3-3.5C-499.5,489.8-495.1,488-490.1,487.9z"/>
<path class="st2" d="M-476,458.8c1.3,0.8,2.5,1.5,3.7,2.2c1.4,0.8,1.8,2.2,1.1,3.4c-0.7,1.2-2.1,1.5-3.5,0.7
	c-2.1-1.2-4.2-2.4-6.2-3.7c-2-1.2-2.1-3.7-0.1-5c3.2-2.1,6.5-4.2,9.8-6.3c1.2-0.8,2.5-0.5,3.3,0.6s0.5,2.5-0.7,3.3
	C-471,455.7-473.4,457.2-476,458.8z"/>
<path class="st2" d="M-503.9,458.8c-2.4-1.5-4.7-3-7.1-4.5c-0.6-0.4-1.2-0.9-1.3-1.7c-0.2-1,0.1-1.9,0.9-2.5c0.9-0.6,1.8-0.6,2.7,0
	c2.5,1.6,5.1,3.2,7.6,4.9c0.7,0.5,1.5,0.9,2.2,1.4c1.9,1.3,1.9,3.7-0.1,5c-2.1,1.3-4.3,2.6-6.5,3.8c-1.2,0.7-2.6,0.3-3.2-0.8
	c-0.7-1.1-0.4-2.5,0.8-3.2C-506.6,460.4-505.3,459.6-503.9,458.8z"/>
<path class="st3" d="M4,135.4c0-1.3,0-2.7,0-4c3.4-6,6-12.6,10.3-17.8c14.9-18.1,30.4-35.7,45.8-53.4c1.4-1.6,3.5-3,5.5-3.9
	c5.8-2.4,12.3-0.3,16,4.8c3.6,5.1,3.5,11.6-0.7,16.6c-5.2,6.1-10.6,11.9-15.9,18c-6.6,7.5-13.1,15-19.8,22.8
	c1.3,0.9,2.2,1.6,3.1,2.2c9.8-11.1,19.7-21.8,28.9-33c6-7.3,14.4-9.9,22.4-12.7c7.7-2.7,16.1-3.5,24.2-5.2
	c7.9-1.7,15.2,0.1,20.7,5.7c5,5,9.6,10.8,13.1,16.9c7.3,12.5,11.3,26.4,15.2,40.2c3.2,11.6-1.4,21.1-12.8,25.2
	c-5.3,1.9-11.1,2.8-16.7,3.9c-8.5,1.7-17,3-25.4,4.9c-4.1,0.9-7.4,3.2-9.3,7.4c-3.3,7.4-11,10.4-17.9,7.4c-7.1-3-10-10.8-7-18.4
	c3.6-9.2,10-16,19-19.4c8.8-3.3,18.1-5.3,27.2-7.4c4.7-1.1,9.6-1.5,15.4-2.3c-4.2-10.8-8.2-20.8-12.3-31.3c-1.9,1.3-2.8,1.9-3.3,2.3
	c3.5,8.7,6.8,17,10.3,25.8c-2.3,0.3-3.6,0.4-4.9,0.7c-9.7,2.1-19.7,3.5-29.2,6.5c-12.5,3.9-21.8,12.1-26.4,24.8
	c-3.3,9,0.8,18.6,9.4,22.4c8.8,3.8,18.5,0,23.1-8.6c1.3-2.3,3.7-4.8,6.1-5.6c5.2-1.8,10.8-2.8,16.3-3.8c7.5-1.3,15.1-2.3,22.8-3.5
	c0.3,1.5,0.7,2.8,0.9,4.1c2,10.9,5.6,21.7,5.7,32.6c0.6,58.9,0.3,117.8,0.2,176.8c0,8.8-5.4,16.2-13.6,19.4
	c-1.1,0.4-2.1,0.9-3.2,1.4c-2.7,0-5.3,0-8,0c-13.9-5.5-17.4-10.7-17.4-26c0-50.4,0-100.8,0-151.2c0-1.4,0-2.8,0-4.5
	c-3,0.7-5.3,1.2-7.8,1.7c0,3.4,0,6.6,0,9.8c0,48.9,0,97.8,0,146.8c0,6.4-1.1,12.5-6,16.7c-3.2,2.8-7.4,4.4-11.2,6.6
	c-2.7,0-5.3,0-8,0c-12.7-4.2-17.2-13.1-17.1-26.2c0.4-52.8,0.2-105.5,0.1-158.3c0-4-0.4-8-1.2-11.9c-3.2-16.5-6.6-32.9-9.9-49.3
	c-2-9.6-4-19.2-6.1-29.5c-5.2,4.4-9.8,8.6-14.7,12.4c-5.1,3.8-10.2,7.9-15.8,10.6c-8,3.9-16.2-0.2-19.3-8.6
	C4.6,136.5,4.3,136,4,135.4z"/>
<path class="st0" d="M188,164.3c-0.5,0-0.9,0-1.5,0c0-8.6,0-16.9,0-25.6c0.5,0,1,0.1,1.5,0.1C188,147.3,188,155.8,188,164.3z"/>
<path class="st3" d="M87.5,75.7c0-3.6,0.5-7.1-0.1-10.4c-1.2-6.7-5.5-11.1-12.1-13.1c-6.7-2-12.7-0.3-17.6,4.7
	c-3.8,3.9-7.3,8-10.9,12c-11.9-9.2-16.2-28.1-9.9-43.1C43.7,9.8,60.7,0.2,78,2.7c16.8,2.5,30.5,16.5,32.4,32.9
	C112.3,53.3,102.8,70,87.5,75.7z"/>
<path class="st0" d="M182.2,122.7c1.6-0.4,1.4,0.7,1.4,1.5c0,8,0,16,0,24c0,11.3,0,22.6,0,33.9c0,0.8,0.4,2.1-1.4,1.7
	C182.2,163.4,182.2,143.1,182.2,122.7z"/>
<g>
	<path class="st0" d="M156.8,14c0,14.4,0,28.8-0.1,43.3c0,1,0.5,2.5-1.7,2c0-15,0-30.1,0-45.2C155.6,14,156.2,14,156.8,14z"/>
	<path class="st0" d="M151.4,65.1c-2,0.7-1.8-0.5-1.8-1.6c0-7.2,0-14.5,0-21.7c0-2.2-0.1-4.4,0-6.6c0-0.5,0.5-1,0.8-1.5
		c0.3,0.5,0.9,0.9,0.9,1.4C151.4,45,151.4,55,151.4,65.1z"/>
	<path class="st0" d="M161.1,40.1c0.3,0.5,1,1,1,1.5c0.1,9.6,0.1,19.3,0,28.9c0,0.5-0.6,1-0.9,1.4c-0.3-0.4-0.8-0.9-0.8-1.3
		c0-10,0-20,0-30C160.6,40.4,160.9,40.3,161.1,40.1z"/>
</g>
<path class="st0" d="M177.7,169.5c0-8.4,0-16.8,0-25.3c0.9-0.4,1.4-0.3,1.4,0.9c0,7.8,0,15.6,0,23.4c0,0.5-0.5,0.9-0.8,1.4
	C178.1,169.8,177.9,169.6,177.7,169.5z"/>
<path class="st0" d="M46.3,194.6c-1.6,0.4-1.3-0.7-1.3-1.5c0-7.2,0-14.4,0-21.6c0-11.6,0-23.3,0-34.9c0-0.8-0.4-2,1.3-1.6
	C46.3,154.9,46.3,174.7,46.3,194.6z"/>
<path class="st0" d="M42.2,156.1c0,6.7,0,13.4,0,20.1c0,1.1,0.1,2.3,0,3.4c0,0.5-0.4,0.9-0.6,1.4c-0.3-0.5-0.7-1-0.7-1.5
	c-0.1-3.6,0-7.3,0-10.9c0-3.8,0-7.5,0-11.3c0-0.5,0.5-1,0.7-1.5C41.7,155.8,41.9,156,42.2,156.1z"/>
<path class="st0" d="M50.7,175.5c-1.6,0.5-1.4-0.5-1.4-1.4c0-6.1,0-12.2,0-18.3c0-1.4-0.1-2.8,0-4.1c0-0.4,0.5-0.7,0.8-1.1
	c0.2,0.4,0.6,0.7,0.6,1.1C50.7,159.6,50.7,167.5,50.7,175.5z"/>
</svg>
