<?xml version="1.0" encoding="utf-8"?>
<!-- Generator: Adobe Illustrator 22.0.1, SVG Export Plug-In . SVG Version: 6.00 Build 0)  -->
<svg version="1.1" id="Layer_1" xmlns="http://www.w3.org/2000/svg" xmlns:xlink="http://www.w3.org/1999/xlink" x="0px" y="0px"
	 viewBox="0 0 200 200" style="enable-background:new 0 0 200 200;" xml:space="preserve">
<style type="text/css">
	.st0{fill:#B72133;}
	.st1{fill:#58595B;}
	.st2{fill:#FEFEFE;}
	.st3{fill:#F2F2F2;}
	.st4{fill:#BCBCBC;}
</style>
<path d="M718.1,37.6c-71.4-0.2-128.2,57.7-129.4,126.7c-1.3,73.6,57.9,130.8,126.9,131.8c73.3,1.2,131.7-58.3,131.7-129.3
	C847.2,95.6,789,37.4,718.1,37.6z M782.6,225.5c-3.6,2.2-8.4,1-10.8-2.6c-2.5-3.6-4.8-7.2-7.5-10.6c-4.1-5-9.2-9-15-12.1
	c-6.3-3.4-13.1-5.4-20.1-6.3c-10-1.2-20-1-29.9,1.5c-7.2,1.8-13.8,4.8-19.7,9.3c-4.9,3.7-9.2,8.1-12.4,13.4c-1.2,2-2.4,4-3.9,5.8
	c-2.1,2.6-6.7,3.2-9.6,1.6c-4.3-2.4-5.5-7.5-3-11.7c4.8-8.1,10.7-15.3,18.1-21.3c5.4-4.3,11.3-7.7,17.8-10.2
	c7.2-2.8,14.7-4.4,22.5-5c3.1-0.3,6.1-0.4,9.2-0.6c9.5,0.2,18.8,1.4,27.8,4.3c7.3,2.4,13.9,5.8,20,10.4c8.2,6.2,14.5,13.9,19.7,22.7
	C787.8,218.2,786.5,223.1,782.6,225.5z M693.7,133.9c0,9.2-7.1,16.3-16.3,16.3c-9.1,0-16.3-7.3-16.1-16.6c0.2-8.7,7-15.6,15.9-15.7
	C686.4,117.7,693.7,125,693.7,133.9z M742.2,133.5c0.2-8.7,7.4-15.8,16.6-15.6c8.7,0.2,16,7.5,15.8,16.5
	c-0.2,8.8-7.5,15.9-16.3,15.8C749,150,741.9,142.8,742.2,133.5z"/>
<g>
	<path d="M-209.5,13.5c-9,6.8-18,13.4-27.9,18.9c-2,1.1-3.8,2.6-5.4,4.2c-8.3,7.8-8.4,9.4-1.3,18.3c9.3,11.6,12.4,24.6,9.1,39.3
		c-6.4,28.8-4.3,56.6,8.8,83.4c1.1,2.2,1.8,4.7,2.3,7.1c1.5,8-3.7,14.5-11.8,15.1c-1.4,0.1-3,0.2-4.4-0.1c-13-3-26.1-2.1-39.1,0
		c-9.3,1.4-18.2-2.3-27.5-0.1c-3.5,0.8-6.6-2.3-7-6.5c-0.4-4.1,3-3.5,5.4-4.4c11.6-4,23.2-7.8,34.6-12.4c6.1-2.4,8.9-7.9,8.9-14.5
		c0.1-15.5-4.8-30-10.2-44.1c-6-15.8-12.5-31.3-13.1-48.5c-0.2-5-2.3-9.6-4.7-14.1c-4.8-9.1-4.1-17.7,1.6-26.5
		c5.1-7.9,6-17.6,10.2-25.9c1.5-3.8,5.4-0.4,7.5-2.4c7.9,0,15.8,0,23.8,0c11.5,1.1,23.1,2.1,33.6,7.6C-213.4,9-210,9.7-209.5,13.5z"
		/>
	<path class="st0" d="M-222.9,82.7c-2.6,0.5-3-0.5-3.3-1.5c-0.3-1.2,0.5-1.9,1.5-2.3c3.5-1.3,7-2.5,10.5-3.7c1.3-0.4,2.5-0.2,3,1.3
		c0.3,0.9,0.1,1.8-0.7,2.1C-215.9,80.2-220,81.7-222.9,82.7z"/>
	<path class="st0" d="M-224.6,95.3c3.1,1.9,7,4.3,10.7,6.8c0.4,0.2,0.3,1.6,0,2.2c-0.3,0.7-1,1.5-2,0.9c-3.7-2.2-7.5-4.4-11.2-6.6
		c-0.7-0.5-1-1.3-0.4-2.2C-227,95.7-226.5,95.1-224.6,95.3z"/>
	<path class="st0" d="M-218.8,87.4c1.3,0.2,3.5,0.5,5.8,0.9c1.3,0.2,2.4,1,2.1,2.5c-0.3,1.7-1.7,1.6-2.9,1.5c-2.7-0.3-5.4-0.6-8-1
		c-1.5-0.2-3.8,0.5-3.7-2.1c0.1-2.4,2.3-1.7,3.9-1.8C-221,87.4-220.4,87.4-218.8,87.4z"/>
</g>
<path class="st1" d="M-488.9,509.7c-9.7-0.1-18.2-3-24.8-10.5c-4.4-5-6.9-11-8.2-17.5c-0.2-1.2-0.5-2.5-0.5-3.7c0-1-0.5-1.2-1.4-1.3
	c-1.4-0.1-2.6-0.6-3.8-1.3c-2-1.2-3.2-2.9-3.6-5.2c-0.6-3.2-1.1-6.4-0.4-9.7c0.4-1.7,1.1-3.2,2.6-4.2c0.6-0.4,1.1-0.5,1.7,0.1
	c2,1.9,4.3,2.3,6.5,1.1c2.2-1.1,3.2-3.4,3-6.1c-0.6-5.4-0.8-10.8,0.3-16.2c0.3-1.4,0.7-2.8,1.5-4.1c1.5-2.4,3.6-3,6.1-1.5
	c5.5,3.2,11.1,6,17.1,8.1c4.2,1.4,8.4,2.7,12.9,2.4c4.3-0.2,8.5-1,12.1-3.6c0.7-0.5,0.9-0.3,1.3,0.3c2.5,3.9,4.6,7.9,5.4,12.5
	c0.2,1.2,0.3,2.5,0.3,3.7c0,2.4,1.1,4.1,3.2,5.1c2.2,1,4.2,0.6,6-1c1.4-1.2,2.8-1,3.9,0.5s1.4,3.3,1.5,5.1c0.1,2.7-0.2,5.3-0.9,7.9
	c-0.8,3.2-3.6,5.6-7.2,5.9c-1,0.1-1.4,0.4-1.5,1.5c-0.9,7.8-3.4,15-8.7,21c-5,5.7-11.4,8.9-18.9,10
	C-485.1,509.5-487,509.7-488.9,509.7z"/>
<path class="st1" d="M-522.9,443.8c0,2.6,0.1,5.3,0.4,7.9c0,0.2,0,0.4,0.1,0.6c0,0.5,0,0.9-0.5,1.1s-0.8-0.1-1.2-0.4
	c-1.6-1.9-3.2-3.9-4.4-6.1c-6.2-10.9-7.2-22.3-3.4-34.1c2.9-9,9.6-14,18.8-15.7c1.6-0.3,3.3-0.5,4.9-0.4c0.6,0,1.1-0.2,1.5-0.6
	c4.6-4.4,10-7.5,16.3-8.7c7.6-1.5,14.9-0.1,21.7,3.3c11.2,5.7,18.2,14.7,20.5,27.2c1.2,6.9,0.6,13.8-1,20.6
	c-1.1,4.9-2.8,9.7-4.9,14.3c-0.1,0.2-0.2,0.4-0.3,0.6c-0.2,0.5-0.6,0.8-1.1,0.7c-0.6-0.1-0.6-0.6-0.6-1.1c0-2.1-0.2-4.2-0.7-6.3
	c-1.4-5.4-4.1-10.1-7.3-14.6c-0.9-1.2-1.9-1.5-3.4-0.9c-0.9,0.4-1.7,0.8-2.5,1.3c-4.9,3.2-10.2,3.7-15.8,2.5
	c-6.6-1.4-12.7-4.3-18.6-7.4c-1.2-0.6-2.3-1.3-3.4-1.9c-4.5-2.6-9.4-1.4-12.2,3.1c-1.8,2.8-2.5,6-2.9,9.2
	C-522.9,439.8-522.9,441.8-522.9,443.8z"/>
<path class="st2" d="M-490.1,487.9c5.1,0.1,9.4,1.9,13,5.4c1.2,1.1,1.2,2.6,0.3,3.6c-1,1-2.4,0.9-3.5-0.1c-5.7-5.3-13.8-5.4-19.5,0
	c-1.2,1.1-2.6,1.1-3.6,0.1c-0.9-1-0.8-2.4,0.3-3.5C-499.5,489.8-495.1,488-490.1,487.9z"/>
<path class="st2" d="M-476,458.8c1.3,0.8,2.5,1.5,3.7,2.2c1.4,0.8,1.8,2.2,1.1,3.4c-0.7,1.2-2.1,1.5-3.5,0.7
	c-2.1-1.2-4.2-2.4-6.2-3.7c-2-1.2-2.1-3.7-0.1-5c3.2-2.1,6.5-4.2,9.8-6.3c1.2-0.8,2.5-0.5,3.3,0.6s0.5,2.5-0.7,3.3
	C-471,455.7-473.4,457.2-476,458.8z"/>
<path class="st2" d="M-503.9,458.8c-2.4-1.5-4.7-3-7.1-4.5c-0.6-0.4-1.2-0.9-1.3-1.7c-0.2-1,0.1-1.9,0.9-2.5c0.9-0.6,1.8-0.6,2.7,0
	c2.5,1.6,5.1,3.2,7.6,4.9c0.7,0.5,1.5,0.9,2.2,1.4c1.9,1.3,1.9,3.7-0.1,5c-2.1,1.3-4.3,2.6-6.5,3.8c-1.2,0.7-2.6,0.3-3.2-0.8
	c-0.7-1.1-0.4-2.5,0.8-3.2C-506.6,460.4-505.3,459.6-503.9,458.8z"/>
<path d="M718,176.9c9.5,0.2,18.8,1.4,27.8,4.3c7.3,2.4,13.9,5.8,20,10.4c8.2,6.2,14.5,13.9,19.7,22.7c2.3,3.9,0.9,8.7-3,11.1
	c-3.6,2.2-8.4,1-10.8-2.6c-2.5-3.6-4.8-7.2-7.5-10.6c-4.1-5-9.2-9-15-12.1c-6.3-3.4-13.1-5.4-20.1-6.3c-10-1.2-20-1-29.9,1.5
	c-7.2,1.8-13.8,4.8-19.7,9.3c-4.9,3.7-9.2,8.1-12.4,13.4c-1.2,2-2.4,4-3.9,5.8c-2.1,2.6-6.7,3.2-9.6,1.6c-4.3-2.4-5.5-7.5-3-11.7
	c4.8-8.1,10.7-15.3,18.1-21.3c5.4-4.3,11.3-7.7,17.8-10.2c7.2-2.8,14.7-4.4,22.5-5C711.9,177.2,715,177.1,718,176.9z"/>
<path class="st3" d="M758.2,150.2c-9.3-0.1-16.3-7.4-16.1-16.7c0.2-8.7,7.4-15.8,16.6-15.6c8.7,0.2,16,7.5,15.8,16.5
	C774.3,143.2,767,150.3,758.2,150.2z"/>
<path class="st3" d="M677.5,150.2c-9.1,0-16.3-7.3-16.1-16.6c0.2-8.7,7-15.6,15.9-15.7c9.1-0.2,16.4,7.1,16.4,16
	C693.7,143,686.6,150.2,677.5,150.2z"/>
<path class="st3" d="M718,206.9c9.5,0.2,18.8,1.4,27.8,4.3c7.3,2.4,13.9,5.8,20,10.4c8.2,6.2,14.5,13.9,19.7,22.7
	c2.3,3.9,0.9,8.7-3,11.1c-3.6,2.2-8.4,1-10.8-2.6c-2.5-3.6-4.8-7.2-7.5-10.6c-4.1-5-9.2-9-15-12.1c-6.3-3.4-13.1-5.4-20.1-6.3
	c-10-1.2-20-1-29.9,1.5c-7.2,1.8-13.8,4.8-19.7,9.3c-4.9,3.7-9.2,8.1-12.4,13.4c-1.2,2-2.4,4-3.9,5.8c-2.1,2.6-6.7,3.2-9.6,1.6
	c-4.3-2.4-5.5-7.5-3-11.7c4.8-8.1,10.7-15.3,18.1-21.3c5.4-4.3,11.3-7.7,17.8-10.2c7.2-2.8,14.7-4.4,22.5-5
	C711.9,207.2,715,207.1,718,206.9z"/>
<g>
	<path class="st4" d="M99.8,0.3C155,0.3,200,45.1,200,100.2c0,55.2-44.9,100.1-100,100.1c-54.9,0-99.8-44.8-100-99.7
		C-0.1,45.4,44.6,0.4,99.8,0.3z M99.9,141.4c0-43.4,0-86.8,0-130.2c-48.3-0.1-91.7,39.9-89,93.3c2.8,55.8,51.3,86.6,89,84.5
		c0-13.1,0-26.2,0-39.3c11.9,0,23.7,0,35.5,0c0-3,0-5.4,0-8.4C123.3,141.4,111.6,141.4,99.9,141.4z M134.9,95.1
		c7.8-0.1,13.9-6.3,13.8-14.2c0-7.8-6.3-14.1-14-14.1c-7.9,0-14.3,6.6-14.1,14.6C120.8,89.2,127.1,95.2,134.9,95.1z"/>
	<path class="st4" d="M65.7,95.1c-7.8,0-14-6-14.2-13.8c-0.2-7.9,6.2-14.5,14-14.6c7.8,0,14.4,6.7,14.3,14.4
		C79.8,88.9,73.4,95.1,65.7,95.1z"/>
	<path class="st4" d="M100.1,141.3c0,2.9,0,5.7,0,8.6c-12.1,0-24.1,0-36.6,0c0-2.8,0-5.2,0-8.6C75.7,141.3,87.9,141.3,100.1,141.3z"
		/>
</g>
</svg>
