<?xml version="1.0" encoding="utf-8"?>
<!-- Generator: Adobe Illustrator 22.0.1, SVG Export Plug-In . SVG Version: 6.00 Build 0)  -->
<svg version="1.1" id="Layer_1" xmlns="http://www.w3.org/2000/svg" xmlns:xlink="http://www.w3.org/1999/xlink" x="0px" y="0px"
	 viewBox="0 0 200 200" style="enable-background:new 0 0 200 200;" xml:space="preserve">
<style type="text/css">
	.st0{fill:#B72133;}
	.st1{fill:none;}
	.st2{fill:#BCBCBC;}
	.st3{fill:#C47963;}
</style>
<g>
	<path d="M-209.5,13.5c-9,6.8-18,13.4-27.9,18.9c-2,1.1-3.8,2.6-5.4,4.2c-8.3,7.8-8.4,9.4-1.3,18.3c9.3,11.6,12.4,24.6,9.1,39.3
		c-6.4,28.8-4.3,56.6,8.8,83.4c1.1,2.2,1.8,4.7,2.3,7.1c1.5,8-3.7,14.5-11.8,15.1c-1.4,0.1-3,0.2-4.4-0.1c-13-3-26.1-2.1-39.1,0
		c-9.3,1.4-18.2-2.3-27.5-0.1c-3.5,0.8-6.6-2.3-7-6.5c-0.4-4.1,3-3.5,5.4-4.4c11.6-4,23.2-7.8,34.6-12.4c6.1-2.4,8.9-7.9,8.9-14.5
		c0.1-15.5-4.8-30-10.2-44.1c-6-15.8-12.5-31.3-13.1-48.5c-0.2-5-2.3-9.6-4.7-14.1c-4.8-9.1-4.1-17.7,1.6-26.5
		c5.1-7.9,6-17.6,10.2-25.9c1.5-3.8,5.4-0.4,7.5-2.4c7.9,0,15.8,0,23.8,0c11.5,1.1,23.1,2.1,33.6,7.6C-213.4,9-210,9.7-209.5,13.5z"
		/>
	<path class="st0" d="M-222.9,82.7c-2.6,0.5-3-0.5-3.3-1.5c-0.3-1.2,0.5-1.9,1.5-2.3c3.5-1.3,7-2.5,10.5-3.7c1.3-0.4,2.5-0.2,3,1.3
		c0.3,0.9,0.1,1.8-0.7,2.1C-215.9,80.2-220,81.7-222.9,82.7z"/>
	<path class="st0" d="M-224.6,95.3c3.1,1.9,7,4.3,10.7,6.8c0.4,0.2,0.3,1.6,0,2.2c-0.3,0.7-1,1.5-2,0.9c-3.7-2.2-7.5-4.4-11.2-6.6
		c-0.7-0.5-1-1.3-0.4-2.2C-227,95.7-226.5,95.1-224.6,95.3z"/>
	<path class="st0" d="M-218.8,87.4c1.3,0.2,3.5,0.5,5.8,0.9c1.3,0.2,2.4,1,2.1,2.5c-0.3,1.7-1.7,1.6-2.9,1.5c-2.7-0.3-5.4-0.6-8-1
		c-1.5-0.2-3.8,0.5-3.7-2.1c0.1-2.4,2.3-1.7,3.9-1.8C-221,87.4-220.4,87.4-218.8,87.4z"/>
</g>
<path class="st0" d="M7.9,173.6c3.9-2.2,8-3.8,12.5-3.2c6.9,1,13.5,5.8,11.1,15.7c-0.6,2.6-1.2,5.2-2.4,7.6
	C19.4,189.8,12.2,183.2,7.9,173.6z"/>
<path class="st1" d="M142.5,93.3c-2.8-1.5-4.8-3.8-6.2-6.6c-1.7-3.2-3.9-6-7-7.8c-3.7-2.2-6.4-5.2-8.4-9c-1-1.8-2.3-3.3-4.4-3.9
	c-3.1-1-5.6-0.2-7.5,2.4c-1.6,2.2-2.9,4.5-3.9,7.1c-1.6,4.2-3.3,8.3-4.4,12.6c-1.1,4.3-0.3,6.1,3.4,8.3c3.1,1.9,4.9,4.6,5.9,7.9
	c0.2,0.7,0.4,1.3,0.5,2c0.8,5.6,3.8,9.6,8.8,12.3c0.6,0.3,1.3,0.7,1.6,1.4c10.5-6.8,20.9-14,31.7-20.4c-0.7-0.2-1.2-0.6-1.8-1
	C148.3,96.6,145.4,94.8,142.5,93.3z"/>
<path class="st2" d="M196.5,73.4c-1.1-2.3-3.1-3-5.5-2.9c-1.5,0.1-2.9,0.3-4.3,0.7c-3.5,1-6.8,2.4-10.2,3.8
	c-5.9,2.5-11.6,5.4-17.7,7.4c-0.7,0.2-1.7,1-2.3,0.1c-0.5-0.8,0.5-1.4,0.9-1.9c2.7-3.2,6.1-5.7,9.4-8.2c6.8-5.1,14.3-9.3,20.9-14.9
	c3.6-3,7.2-6.1,8.8-10.8c1.4-4.1-1.8-7.7-6.1-6.9c-3.8,0.7-7.1,2.5-10.4,4.4c-9.1,5.4-17.8,11.6-26.7,17.4c-2.6,1.7-5.2,3.4-8.2,4.7
	c-0.2-1.3,0.5-1.8,1-2.5c3.9-5.2,8.5-10,12.9-14.8c5.3-5.7,10.9-11.1,15.5-17.4c2-2.7,3.9-5.6,4.6-9c0.6-2.7,0.1-5.1-2-6.9
	s-4.3-1.1-6.5,0c-3.4,1.6-6.2,4-8.9,6.6c-8.5,8-16.2,16.9-24.2,25.4c-2,2.1-4,4-6.4,5.6c-0.6,0.4-1.2,1-1.9,0.4
	c-0.6-0.5-0.3-1.3-0.1-2c0.4-1.1,0.8-2.2,1.4-3.2c1.9-3.3,3.8-6.5,5.8-9.7c4.3-6.9,9.5-13.3,13.6-20.4c1.5-2.6,2.8-5.3,2.8-8.5
	c0-2.4-1.1-4.1-3.1-5.2c-2.2-1.2-4.3-1.3-6.3,0.1c-1.3,0.9-2.6,1.9-3.7,3.1c-4.4,4.9-8.2,10.2-11.9,15.6
	c-6.3,9.4-12.5,18.9-18.9,28.2c-2.1,3.1-4.5,6.1-7.9,8c-3.1,1.8-5.3,1-6.7-2.2c-0.6-1.4-1-2.9-0.9-4.5c0-3.4,0.1-6.8,0-10.2
	c-0.2-6.2-2.7-11.5-7.1-15.8c-3.3-3.2-6.4-2.4-8,1.9c-0.3,0.7-0.5,1.5-0.6,2.2c-0.9,4.2-1.2,8.4-1.4,12.6
	c-0.6,12.9,0.9,25.8,0.9,38.8c0,6.6-2,12-6.8,16.7c-15.2,14.7-31.7,27.8-48.2,40.9c-6,4.8-12.2,9.4-18.3,14.1c-1,0.8-2.2,1.7-1.2,3
	c0.7,0.9,0.8,2,1.4,2.9c0.5,4.7,1.5,9.2,3.8,13.4c1.2,0.8,2.2,0,3.2-0.4c5.3-2.2,10.6-2.7,15.5,0.9c2.7,1.9,4.3,4.5,4.2,8
	c-0.1,2.9-0.7,5.6-1.7,8.3c-0.4,1.1-0.7,2.2,0,3.3c5.8,2.5,11.8,3.2,18,2.9c1.1,1.9,2.4,1.7,3.7,0.3c3.5-3.9,7-7.8,10.4-11.8
	c9.5-11,19.1-22,28.6-33c7.3-8.5,14.8-16.7,24.5-22.7c5.4-3.3,10.7-6.7,16-10.1c12.7-8.2,25.2-16.7,38.4-24c5.9-3.3,12-6.3,18-9.5
	c3.1-1.6,6.1-3.3,8.5-5.9C196.8,78.1,197.6,75.9,196.5,73.4z M46.5,138.6c-3.5,1.5-6.2,3.9-7.9,7.3c-0.9,1.8-2.2,3.3-3.4,4.9
	c-2.6,3.2-7.1,5-10.2,3.9c-2.2-0.8-4.1-2.1-5.5-4c-0.4-0.6-0.9-1.1-1.5-1.5c3.1-2.3,6.1-4.8,9.1-7.2c6.7-5.3,13.4-10.5,19.9-16
	c2-1.7,3.8-3.5,5.9-5.1c-0.2,0.8-0.1,1.6-0.1,2.4c0.2,2.1,0.7,4.3,0.5,6.4C52.7,134.2,50.3,137,46.5,138.6z M100.8,133.9
	c-9.2,8.6-17.1,18.4-25.3,27.8c-6.9,7.9-13.9,15.8-20.6,23.9c0.2-1.4,0.1-2.9,0-4.3c-0.3-4.4-1.4-8.8-1.7-13.2
	c-0.3-2.4-0.4-4.7,0-7.1c0.2-3.5,2.1-5.8,4.7-7.8c3.1-2.5,5.6-5.4,7.3-9.1c4.1-9.1,6.3-18.7,8.3-28.4c0.8-3.6-1.2-6.5-3.2-9.3
	c-0.2-0.2-0.4-0.4-0.6-0.5c2.5-2.1,4.8-4.4,6.9-6.8c1.6-1.8,3.1-3.8,3.9-6.2c0.5,0.6,1.3,0.8,2,1.1c3.9,1.7,5.8,4.7,5.7,8.9
	c0.5,2.4,0.3,4.8,0,7.2c0,3.8-0.4,7.6,1.4,11.3c2.6,5.6,7.4,8.3,12.6,10.9c0.3,0.1,0.5,0.2,0.8,0.2
	C102.2,132.9,101.4,133.3,100.8,133.9z M121,120c-0.3-0.7-1-1-1.6-1.4c-5-2.6-8-6.6-8.8-12.3c-0.1-0.7-0.3-1.4-0.5-2
	c-1.1-3.3-2.8-6.1-5.9-7.9c-3.7-2.2-4.5-4-3.4-8.3s2.8-8.5,4.4-12.6c1-2.5,2.3-4.9,3.9-7.1c1.9-2.6,4.4-3.4,7.5-2.4
	c2,0.7,3.4,2.1,4.4,3.9c2,3.8,4.6,6.8,8.4,9c3.1,1.8,5.4,4.6,7,7.8c1.4,2.8,3.4,5.1,6.2,6.6c2.9,1.6,5.7,3.3,8.4,5.3
	c0.6,0.4,1.1,0.8,1.8,1C141.9,106,131.5,113.2,121,120z"/>
<path class="st0" d="M89.2,110.2c0.1,3.2-0.4,6.4,0.8,9.6c1.7,4.3,4.8,7.3,8.8,9.4c1.8,1,3.6,2,5.5,3c-12.8,11.1-22.8,24.7-34,37.2
	c-5.3,5.9-10.5,12-15.8,18c-1-3.8-0.8-7.7-1.4-11.6c-0.4-2.6-1.1-5.1-1-7.7c-0.3-2.5-0.4-4.9,0-7.3c0-3.6,1.9-6.2,4.6-8.1
	c5-3.7,7.9-8.8,9.7-14.5c2.2-7.1,4.3-14.2,5.8-21.5c0.5-2.3,0.3-4.4-0.9-6.4c-0.9-1.4-1.6-3-2.5-4.4c2.2-2.4,4.4-4.7,6.6-7.1
	c1.8-2.1,3.4-4.3,4.5-6.9c4,1.4,7.8,2.9,8.9,7.7c0.2,0.9,0.3,1.8,0.3,2.7C89.6,104.9,89.6,107.6,89.2,110.2z"/>
<path class="st0" d="M121.1,120.9c-1.5-0.9-3.1-1.7-4.6-2.7c-3.3-2.2-5.7-5.1-6.4-9.2c-0.3-1.4-0.7-2.8-1.1-4.2
	c-0.9-3.2-2.6-5.9-5.7-7.5c-3.6-1.8-4.9-4.9-3.9-8.5c2-7.4,4.3-14.8,8.7-21.2c2.7-4,7.5-3.8,10.6-1.9c1.4,0.8,2.4,2,3,3.4
	c1.8,3.9,4.6,6.8,8.3,9c3.1,1.8,5.3,4.4,6.8,7.6c1.6,3.3,4.1,5.7,7.4,7.4c3.5,1.8,6.7,4.1,9.7,6.6c-6.5,4.2-12.9,8.5-19.5,12.7
	C130.1,115.3,125.8,118.4,121.1,120.9z"/>
<path class="st0" d="M53.4,119.6c0.4,3,1,6.1,1,9.1c0.1,4.7-2.1,8.5-6.4,10.3c-4.4,1.9-7.2,5-9.5,9c-1.7,3-3.9,5.5-7.1,7.1
	c-3.3,1.7-6.5,1.6-9.5-0.5c-2.1-1.5-3.9-3.2-5.1-5.5c4.3-4,9.2-7.4,13.8-11.1c7-5.7,14-11.5,21-17.2C52.3,120.3,52.9,120,53.4,119.6
	z"/>
<path class="st3" d="M52.2,160.7c0,2.4,0,4.9,0,7.3C51.5,165.6,51.4,163.2,52.2,160.7z"/>
<path class="st3" d="M89.2,110.2c0-2.7,0-5.3,0-8C90,104.9,89.9,107.6,89.2,110.2z"/>
</svg>
