<?xml version="1.0" encoding="utf-8"?>
<!-- Generator: Adobe Illustrator 22.0.1, SVG Export Plug-In . SVG Version: 6.00 Build 0)  -->
<svg version="1.1" id="Layer_1" xmlns="http://www.w3.org/2000/svg" xmlns:xlink="http://www.w3.org/1999/xlink" x="0px" y="0px"
	 viewBox="0 0 200 200" style="enable-background:new 0 0 200 200;" xml:space="preserve">
<style type="text/css">
	.st0{fill:#B72133;}
	.st1{fill:#BCBCBC;}
</style>
<g>
	<path d="M-209.5,13.5c-9,6.8-18,13.4-27.9,18.9c-2,1.1-3.8,2.6-5.4,4.2c-8.3,7.8-8.4,9.4-1.3,18.3c9.3,11.6,12.4,24.6,9.1,39.3
		c-6.4,28.8-4.3,56.6,8.8,83.4c1.1,2.2,1.8,4.7,2.3,7.1c1.5,8-3.7,14.5-11.8,15.1c-1.4,0.1-3,0.2-4.4-0.1c-13-3-26.1-2.1-39.1,0
		c-9.3,1.4-18.2-2.3-27.5-0.1c-3.5,0.8-6.6-2.3-7-6.5c-0.4-4.1,3-3.5,5.4-4.4c11.6-4,23.2-7.8,34.6-12.4c6.1-2.4,8.9-7.9,8.9-14.5
		c0.1-15.5-4.8-30-10.2-44.1c-6-15.8-12.5-31.3-13.1-48.5c-0.2-5-2.3-9.6-4.7-14.1c-4.8-9.1-4.1-17.7,1.6-26.5
		c5.1-7.9,6-17.6,10.2-25.9c1.5-3.8,5.4-0.4,7.5-2.4c7.9,0,15.8,0,23.8,0c11.5,1.1,23.1,2.1,33.6,7.6C-213.4,9-210,9.7-209.5,13.5z"
		/>
	<path class="st0" d="M-222.9,82.7c-2.6,0.5-3-0.5-3.3-1.5c-0.3-1.2,0.5-1.9,1.5-2.3c3.5-1.3,7-2.5,10.5-3.7c1.3-0.4,2.5-0.2,3,1.3
		c0.3,0.9,0.1,1.8-0.7,2.1C-215.9,80.2-220,81.7-222.9,82.7z"/>
	<path class="st0" d="M-224.6,95.3c3.1,1.9,7,4.3,10.7,6.8c0.4,0.2,0.3,1.6,0,2.2c-0.3,0.7-1,1.5-2,0.9c-3.7-2.2-7.5-4.4-11.2-6.6
		c-0.7-0.5-1-1.3-0.4-2.2C-227,95.7-226.5,95.1-224.6,95.3z"/>
	<path class="st0" d="M-218.8,87.4c1.3,0.2,3.5,0.5,5.8,0.9c1.3,0.2,2.4,1,2.1,2.5c-0.3,1.7-1.7,1.6-2.9,1.5c-2.7-0.3-5.4-0.6-8-1
		c-1.5-0.2-3.8,0.5-3.7-2.1c0.1-2.4,2.3-1.7,3.9-1.8C-221,87.4-220.4,87.4-218.8,87.4z"/>
</g>
<path class="st1" d="M158.1,188c-1.7-3.9-4.5-7-7.6-9.9c-1.1-1.1-2.2-2.2-3.1-3.4c-2.6-3.5-4.6-7.3-6.4-11.2c-2.9-6.4-5.2-13-7-19.7
	c-0.8-2.8-1.5-5.6-2.7-8.3c-2.2-5.1-5.6-9.4-8.8-13.9c-2.9-4.2-5.3-8.5-6.5-13.6c-0.5-2.2,1.2-4.5,1.1-6.7c-0.1-1.6,0.3-3.3,0.4-4.9
	c0.3-3.6,1.1-7,2.1-10.4c1.4-4.8,1.6-9.3,3.2-14c1.7-5,2.9-10,4.1-15.2c1.1-4.8,1.9-9.6,2.7-14.4c0.4-2.6,0.8-5.2,1.2-7.7
	c0.5-2.9,0.9-5.9,1.4-8.8c0.3-2.1,0.7-4.2,1-6.3c0.5-3.5,1.1-6.9,1.6-10.4c0.4-2.6,1-5.1,1.1-7.8c-0.1,0-0.2,0-0.2,0
	c-8.3,0-16.6,0-24.9,0c-9.1,0-18.2,0-27.3,0c-8.7,0-17.4,0-26.1,0c0,0.4,0,0.8-0.2,1.2c1,3.5,1.6,7.1,2.4,10.7
	c1,4.4,1.7,8.8,2.8,13.1c1.2,4.8,2.6,9.6,3.5,14.4c0.5,2.8,1.1,5.6,1.6,8.4c0.1,0.5-0.1,1,0.3,1.5l0,0c0.3,2.4,0.5,4.7,0.8,7.1
	c0,0.7-0.2,1.5,0.2,2.2l0,0c0,2.1,0,4.2-0.2,6.3c-0.2,1.8-0.5,3.6-1.1,5.3c-1.1,3.5-3,6.6-4.6,9.9c-0.5,0.6-0.8,1.2-1,1.9l0,0
	c-0.2,0.2-0.3,0.3-0.5,0.5c-2.2,3.7-4.4,7.4-6.8,10.9c-2.2,3.2-4.3,6.4-6.6,9.5c-2.2,3-4.4,6.1-5.4,9.8c-1.1,4.2-1.6,8.4-0.3,12.7
	c1.7,5.8,5.6,9.7,10.6,12.6c3.1,1.8,6.5,3.1,9.9,4.2c5.6,1.7,10.8,4.2,15.8,7.2c4.9,2.9,9.3,6.3,13.5,10.2c4,3.7,7.2,8.1,10.8,12.2
	c3.9,4.4,8.1,8.5,12.8,12.1c3.5,2.7,7.1,5.1,10.1,8.3c2.4,2.6,5.6,4,8.9,5.1c4.2,1.3,8.5,1.6,12.8,1.5c1.9-0.1,3.7-0.4,5.5-1.1
	C158.4,197,160.2,193,158.1,188z"/>
<path class="st0" d="M102,101.2c0.4,8.6-7.1,15.7-15.1,15.7c-8.5,0.1-15.5-6.9-15.6-15.2c-0.2-8.4,6.6-16,15.7-15.9
	C95.2,86,102.1,92.9,102,101.2z"/>
<path class="st1" d="M99.5,101.4c0.3,7.3-6.2,13.1-12.8,13.1c-7.2,0-13.1-6.1-13.1-13c0.1-7.3,5.8-13.1,13-13.2
	C93.9,88.2,99.8,94.4,99.5,101.4z"/>
<path class="st0" d="M86.7,90.7C81,90.5,76,95,75.9,101.3s4.8,10.8,10.5,10.9c6,0.1,10.8-4.8,10.9-10.6C97.4,95.3,92,90.4,86.7,90.7
	z M86.6,109.7c-4.5,0-8.3-3.6-8.2-8.4c0-4.7,3.9-8.1,8.2-8.2c4.7-0.1,8.5,4.2,8.3,8.3C94.9,106,91.2,109.8,86.6,109.7z"/>
<path class="st1" d="M86.5,93.1c-4.3,0.1-8.2,3.5-8.2,8.2c0,4.8,3.8,8.4,8.2,8.4c4.6,0,8.3-3.7,8.3-8.3C95.1,97.2,91.2,93,86.5,93.1
	z"/>
<path class="st0" d="M86.6,96.5c2.8,0,4.9,2,4.9,4.8c0,2.9-2,5-4.8,5c-2.7,0-4.9-2.3-4.9-5C81.7,98.7,83.8,96.5,86.6,96.5z"/>
</svg>
