<?xml version="1.0" encoding="utf-8"?>
<!-- Generator: Adobe Illustrator 24.0.1, SVG Export Plug-In . SVG Version: 6.00 Build 0)  -->
<svg version="1.1" id="Layer_1" xmlns="http://www.w3.org/2000/svg" xmlns:xlink="http://www.w3.org/1999/xlink" x="0px" y="0px"
	 viewBox="0 0 400 400" style="enable-background:new 0 0 400 400;" xml:space="preserve">
<style type="text/css">
	.st0{fill-rule:evenodd;clip-rule:evenodd;fill:#00A551;}
	.st1{fill-rule:evenodd;clip-rule:evenodd;fill:#F0F7F1;}
	.st2{clip-path:url(#SVGID_2_);}
	.st3{fill-rule:evenodd;clip-rule:evenodd;}
	.st4{fill-rule:evenodd;clip-rule:evenodd;fill:#B3B3B3;}
	.st5{fill-rule:evenodd;clip-rule:evenodd;fill:none;stroke:#2D2E2F;stroke-width:1.0001;stroke-miterlimit:2.6131;}
	.st6{fill-rule:evenodd;clip-rule:evenodd;fill:#808080;}
	.st7{fill-rule:evenodd;clip-rule:evenodd;fill:#999999;}
	.st8{fill-rule:evenodd;clip-rule:evenodd;fill:#E7C0A0;stroke:#2D2E2F;stroke-width:1.0001;stroke-miterlimit:2.6131;}
	.st9{opacity:0.35;fill-rule:evenodd;clip-rule:evenodd;fill:#BEDAE4;}
	.st10{fill-rule:evenodd;clip-rule:evenodd;fill:#BEDAE4;}
	.st11{opacity:0.84;fill-rule:evenodd;clip-rule:evenodd;fill:#7CBFD8;}
	.st12{opacity:0.42;fill-rule:evenodd;clip-rule:evenodd;fill:#7CBFD8;}
	.st13{fill-rule:evenodd;clip-rule:evenodd;fill:#7CBFD8;}
	.st14{fill-rule:evenodd;clip-rule:evenodd;fill:#F5BF91;stroke:#2D2E2F;stroke-width:1.0001;stroke-miterlimit:2.6131;}
	.st15{fill-rule:evenodd;clip-rule:evenodd;fill:#F5BF91;}
	.st16{fill-rule:evenodd;clip-rule:evenodd;fill:#FFFFFF;stroke:#231F20;stroke-width:0.75;stroke-miterlimit:2.6131;}
	.st17{fill-rule:evenodd;clip-rule:evenodd;fill:none;stroke:#231F20;stroke-width:0.75;stroke-miterlimit:2.6131;}
	.st18{clip-path:url(#SVGID_4_);}
	.st19{fill-rule:evenodd;clip-rule:evenodd;fill:#F5C8A4;}
	.st20{fill-rule:evenodd;clip-rule:evenodd;fill:#D98056;}
	.st21{fill-rule:evenodd;clip-rule:evenodd;fill:none;stroke:#2D2E2F;stroke-width:0.5;stroke-miterlimit:2.6131;}
	.st22{fill-rule:evenodd;clip-rule:evenodd;fill:#E9C7B4;stroke:#2D2E2F;stroke-width:0.75;stroke-miterlimit:2.6131;}
	.st23{fill-rule:evenodd;clip-rule:evenodd;fill:#72A4A7;}
	.st24{fill-rule:evenodd;clip-rule:evenodd;fill:#FFFFFF;}
	.st25{fill-rule:evenodd;clip-rule:evenodd;fill:#80BBB9;}
	.st26{fill-rule:evenodd;clip-rule:evenodd;fill:#2D2E2F;}
	.st27{fill-rule:evenodd;clip-rule:evenodd;fill:#BB5459;}
	.st28{fill-rule:evenodd;clip-rule:evenodd;fill:#DD6671;}
	.st29{fill-rule:evenodd;clip-rule:evenodd;fill:#C05C36;}
	.st30{fill-rule:evenodd;clip-rule:evenodd;fill:#EBB44F;}
	.st31{fill-rule:evenodd;clip-rule:evenodd;fill:#EBB44F;stroke:#2D2E2F;stroke-width:1.0001;stroke-miterlimit:2.6131;}
	.st32{fill-rule:evenodd;clip-rule:evenodd;fill:#6E5957;stroke:#2D2E2F;stroke-width:0.75;stroke-miterlimit:2.6131;}
	.st33{fill:#2D2E2F;}
	.st34{font-family:'SakkalMajalla';}
	.st35{font-size:24.7506px;}
	.st36{font-size:13.9793px;}
	.st37{font-size:15.4868px;}
	.st38{fill-rule:evenodd;clip-rule:evenodd;fill:none;stroke:#2D2E2F;stroke-width:0.75;stroke-miterlimit:2.6131;}
	.st39{fill-rule:evenodd;clip-rule:evenodd;fill:none;stroke:#231F20;stroke-width:0.5;stroke-miterlimit:2.6131;}
	.st40{clip-path:url(#SVGID_6_);}
	.st41{fill-rule:evenodd;clip-rule:evenodd;fill:none;stroke:#231F20;stroke-width:0.6253;stroke-miterlimit:2.6131;}
	.st42{fill-rule:evenodd;clip-rule:evenodd;fill:none;stroke:#2D2E2F;stroke-width:0.6253;stroke-miterlimit:2.6131;}
	.st43{fill-rule:evenodd;clip-rule:evenodd;fill:#F6D0B2;}
	.st44{fill-rule:evenodd;clip-rule:evenodd;fill:#6E5957;}
	.st45{fill-rule:evenodd;clip-rule:evenodd;fill:#C4373A;}
	.st46{fill-rule:evenodd;clip-rule:evenodd;fill:#1A1A1A;}
	.st47{fill-rule:evenodd;clip-rule:evenodd;fill:#F5C6A1;}
	.st48{fill-rule:evenodd;clip-rule:evenodd;fill:none;stroke:#231F20;stroke-width:0.625;stroke-miterlimit:2.6131;}
	.st49{fill-rule:evenodd;clip-rule:evenodd;fill:#231F20;}
	.st50{fill-rule:evenodd;clip-rule:evenodd;fill:none;stroke:#231F20;stroke-width:0.6605;stroke-miterlimit:2.6131;}
	.st51{fill-rule:evenodd;clip-rule:evenodd;fill:none;stroke:#231F20;stroke-width:0.7282;stroke-miterlimit:2.6131;}
	.st52{fill-rule:evenodd;clip-rule:evenodd;fill:none;stroke:#231F20;stroke-width:0.6514;stroke-miterlimit:2.6131;}
	.st53{fill-rule:evenodd;clip-rule:evenodd;fill:none;stroke:#231F20;stroke-width:2.6175;stroke-miterlimit:2.6131;}
	.st54{fill-rule:evenodd;clip-rule:evenodd;fill:#EC1C24;}
	.st55{fill-rule:evenodd;clip-rule:evenodd;fill:#FFF1EB;}
	.st56{clip-path:url(#SVGID_8_);}
	.st57{clip-path:url(#SVGID_12_);}
	.st58{fill-rule:evenodd;clip-rule:evenodd;fill:none;stroke:#2D2E2F;stroke-width:0.3297;stroke-miterlimit:2.6131;}
	.st59{fill-rule:evenodd;clip-rule:evenodd;fill:#F8E6A0;}
	.st60{fill-rule:evenodd;clip-rule:evenodd;fill:#69B0D9;}
	.st61{fill-rule:evenodd;clip-rule:evenodd;fill:none;stroke:#2D2E2F;stroke-width:0.6596;stroke-miterlimit:2.6131;}
	.st62{fill-rule:evenodd;clip-rule:evenodd;fill:none;stroke:#2D2E2F;stroke-width:0.2835;stroke-miterlimit:2.6131;}
	.st63{fill-rule:evenodd;clip-rule:evenodd;fill:#F6D0B2;stroke:#2D2E2F;stroke-width:0.2835;stroke-miterlimit:2.6131;}
	.st64{fill-rule:evenodd;clip-rule:evenodd;fill:#C4373A;stroke:#2D2E2F;stroke-width:0.75;stroke-miterlimit:2.6131;}
	.st65{fill-rule:evenodd;clip-rule:evenodd;fill:#1A1A1A;stroke:#2D2E2F;stroke-width:0.5;stroke-miterlimit:2.6131;}
	.st66{fill-rule:evenodd;clip-rule:evenodd;fill:#F6D0B2;stroke:#2D2E2F;stroke-width:1.0001;stroke-miterlimit:2.6131;}
	.st67{fill-rule:evenodd;clip-rule:evenodd;fill:#FFFFFF;stroke:#2D2E2F;stroke-width:0.2835;stroke-miterlimit:2.6131;}
	.st68{fill-rule:evenodd;clip-rule:evenodd;fill:#F4BC99;}
	.st69{fill-rule:evenodd;clip-rule:evenodd;fill:#2D2E2F;stroke:#2D2E2F;stroke-width:0.2835;stroke-miterlimit:2.6131;}
	.st70{fill-rule:evenodd;clip-rule:evenodd;fill:none;stroke:#000000;stroke-width:0.3297;stroke-miterlimit:2.6131;}
	.st71{fill-rule:evenodd;clip-rule:evenodd;fill:none;stroke:#231F20;stroke-width:0.3297;stroke-miterlimit:2.6131;}
	.st72{fill-rule:evenodd;clip-rule:evenodd;fill:none;stroke:#231F20;stroke-width:0.2835;stroke-miterlimit:2.6131;}
</style>
<g>
	<path class="st0" d="M48.9,23h302.1c14.3,0,25.9,11.7,25.9,25.9v302.1c0,14.3-11.7,25.9-25.9,25.9H48.9C34.7,377,23,365.3,23,351.1
		V48.9C23,34.7,34.7,23,48.9,23z"/>
	<path class="st1" d="M53.4,27.4h293.2c14.3,0,25.9,11.7,25.9,25.9v293.2c0,14.3-11.7,25.9-25.9,25.9H53.4
		c-14.3,0-25.9-11.7-25.9-25.9V53.4C27.4,39.1,39.1,27.4,53.4,27.4z"/>
	<g>
		<defs>
			<path id="SVGID_1_" d="M53.4,27.4h293.2c14.3,0,25.9,11.7,25.9,25.9v293.2c0,14.3-11.7,25.9-25.9,25.9H53.4
				c-14.3,0-25.9-11.7-25.9-25.9V53.4C27.4,39.1,39.1,27.4,53.4,27.4z"/>
		</defs>
		<clipPath id="SVGID_2_">
			<use xlink:href="#SVGID_1_"  style="overflow:visible;"/>
		</clipPath>
		<g class="st2">
			<g>
				<g>
					<path class="st3" d="M175.8,156.6l-2.3,21.2L175.8,156.6z"/>
					<path class="st4" d="M221,102.1c0,13,10.2,23.5,22.8,23.5c12.6,0,22.8-10.5,22.8-23.5c0-13-10.2-23.5-22.8-23.5
						C231.2,78.6,221,89.1,221,102.1z"/>
					<path class="st5" d="M221,102.1c0,13,10.2,23.5,22.8,23.5c12.6,0,22.8-10.5,22.8-23.5c0-13-10.2-23.5-22.8-23.5
						C231.2,78.6,221,89.1,221,102.1z"/>
					<path class="st4" d="M198.5,78.9v13.5c-0.3,10-14.9,12.2-14.9,12.2c-14.1,3-17.3,18.6-17.3,18.6V148c11.5,10.5,23,1.1,23,1.1
						s0.8-4.9,0.5-9.5c-0.3-4.6,1.6-6.8,1.6-6.8l7.1-2.4c30.6,13,34.3-12.2,34.3-12.2l8.4-1.9c6.3-1.4,8.1-9.7,8.1-9.7
						c-0.8-15.9-12.6-16.2-12.6-16.2l-14.4,4.1V78.9C222.3,78.9,214.2,84.3,198.5,78.9z"/>
					<path class="st5" d="M198.5,78.9v13.5c-0.3,10-14.9,12.2-14.9,12.2c-14.1,3-17.3,18.6-17.3,18.6V148c11.5,10.5,23,1.1,23,1.1
						s0.8-4.9,0.5-9.5c-0.3-4.6,1.6-6.8,1.6-6.8l7.1-2.4c30.6,13,34.3-12.2,34.3-12.2l8.4-1.9c6.3-1.4,8.1-9.7,8.1-9.7
						c-0.8-15.9-12.6-16.2-12.6-16.2l-14.4,4.1V78.9C222.3,78.9,214.2,84.3,198.5,78.9z"/>
					<path class="st4" d="M216.3,56.7c0,0,17.5,7.8,16.2-7.6c0,0,0.3-6.2-10.5-2.7c0,0-19.1,2.4-24.1,0c-5-2.4-12.3-5.4-15.5-2.4
						c-3.1,3-3.9,14.6,15.7,12.7C198.2,56.7,213.7,57,216.3,56.7z"/>
					<path class="st5" d="M216.3,56.7c0,0,17.5,7.8,16.2-7.6c0,0,0.3-6.2-10.5-2.7c0,0-19.1,2.4-24.1,0c-5-2.4-12.3-5.4-15.5-2.4
						c-3.1,3-3.9,14.6,15.7,12.7C198.2,56.7,213.7,57,216.3,56.7z"/>
					<path class="st6" d="M196.9,76c0,3.1,6,5.5,13.4,5.5c7.4,0,13.4-2.5,13.4-5.5c0-3.1-6-5.5-13.4-5.5
						C202.9,70.5,196.9,73,196.9,76z"/>
					<path class="st5" d="M196.9,76c0,3.1,6,5.5,13.4,5.5c7.4,0,13.4-2.5,13.4-5.5c0-3.1-6-5.5-13.4-5.5
						C202.9,70.5,196.9,73,196.9,76z"/>
					<path class="st7" d="M216.8,74.8c0,0-5.8,7-12,0.8V56.7h11.5L216.8,74.8z"/>
					<path class="st5" d="M216.8,74.8c0,0-5.8,7-12,0.8V56.7h11.5L216.8,74.8z"/>
					<path class="st5" d="M188.7,102.7c0,0,15.4,6.5,9.8,27.7"/>
					<path class="st5" d="M222.3,94.5c0,0,12,4.1,10.5,23.8"/>
					<path class="st8" d="M178.9,166.1l1.4,80L178.9,166.1z"/>
					<path class="st8" d="M170.5,163.3l-3.5,27.4L170.5,163.3z"/>
					<path class="st8" d="M172.6,182l-2.1,49.7L172.6,182z"/>
					<path class="st8" d="M164.9,158.9l-16.8,59.8L164.9,158.9z"/>
					<path class="st8" d="M162.8,203.6l-7.7,46.1L162.8,203.6z"/>
					<path class="st8" d="M166.3,230.3l-1.4,26.7L166.3,230.3z"/>
					<g>
						<path class="st9" d="M176,179.3l-9.8,61.2c0,0-11,21.3,4.3-62.2C170.5,178.2,172.6,170.6,176,179.3z"/>
					</g>
					<path class="st10" d="M170.5,157.3l-4.7,28.3c0,0-2.6,3.1-3-2.5l6.1-27.4C168.9,155.7,170.3,155.3,170.5,157.3z"/>
					<g>
						<path class="st11" d="M170.5,157.3l-4.7,28.3c0,0-1.2,1.1-0.9-1.6L170.5,157.3z"/>
					</g>
					<line class="st5" x1="164.9" y1="261.8" x2="172.8" y2="256.9"/>
					<line class="st5" x1="171.6" y1="261.5" x2="187.1" y2="264.2"/>
					<line class="st5" x1="156.4" y1="256.1" x2="160.3" y2="247.5"/>
					<line class="st5" x1="163.4" y1="266.1" x2="170.2" y2="269.9"/>
					<line class="st5" x1="147.1" y1="245.1" x2="138.2" y2="234.8"/>
					<line class="st5" x1="149.9" y1="252.5" x2="137.5" y2="257.6"/>
					<g>
						<path class="st12" d="M162.2,191.3l-6.6,40c0,0-4.2-5.4-4.9-11.9l8.7-30.3C159.4,189.1,162.5,188.8,162.2,191.3z"/>
					</g>
					<polygon class="st13" points="162.2,191.3 155.6,231.3 153.8,227.7 					"/>
					<g>
						<path class="st12" d="M149.5,236.7c0,0-1.6-5.7-4.7-5.7C144.8,231,142.7,235.4,149.5,236.7z"/>
					</g>
					<g>
						<path class="st12" d="M157.1,257.9c0,0,3.2,4.9,6.2,3.8C163.3,261.8,164,257,157.1,257.9z"/>
					</g>
					<g>
						<path class="st12" d="M148.5,248.1c0,0-8.1-7.3-10.7-2.2c-2.6,5.1,6.2,1,11.8,2.4L148.5,248.1z"/>
					</g>
					<g>
						<path class="st12" d="M151.5,254.2c0,0-7.7,7.7-3,10.9c4.7,3.1,1.5-6.3,3.3-11.9L151.5,254.2z"/>
					</g>
				</g>
				<g>
					<path class="st14" d="M209.8,342.2l7.8-0.2c0,0,1.1-3.1-1.6-3.1c-2.8,0-12-0.5-12-0.5L209.8,342.2z"/>
					<path class="st14" d="M212.2,343.3l10.3,0.7c0,0,1.1-3.1-1.6-3.1c-2.7,0-7.7-0.3-7.7-0.3L212.2,343.3z"/>
					<path class="st15" d="M210.8,344.3l18.7-0.2c0,0,4.4,4.3-8,4.8C221.5,348.9,215.2,352.9,210.8,344.3z"/>
					<path class="st5" d="M210.8,344.3l18.7-0.2c0,0,4.4,4.3-8,4.8C221.5,348.9,215.2,352.9,210.8,344.3z"/>
					<path class="st15" d="M218.8,346.9l19.4-0.5c0,0,9.7,5-8,5.1C230.3,351.5,223.4,356.2,218.8,346.9z"/>
					<path class="st5" d="M218.8,346.9l19.4-0.5c0,0,9.7,5-8,5.1C230.3,351.5,223.4,356.2,218.8,346.9z"/>
				</g>
				<path class="st14" d="M86.4,101.4c6-4.6,25.2,45.4,25.2,54.5c0,0,27.5,90.8,45.1,120.3c17.6,29.5,16.5,38,29.7,44.8
					c13.2,6.8,26.4,19.6,33.8,25.5c7.4,6,20.6,5.1,26.4,5.1c5.8,0,10.7,18.7-14,14.5c0,0-1.9-1.7-5.5-1.7c-3.6,0-20.6,4-37.7-3.1
					c-17-7.1-23.4,6-35.2,6c-11.8,0-27.2-5.1-21.7-20.1c5.5-15,12.4-20.7,0.5-45.4c-11.8-24.7-59-71.9-72-120.3
					c0,0-1.4-20.3-1.6-37.8c-0.2-19.6-5.3-24-6.8-25.1l24.3-18.9L86.4,101.4z"/>
				<path class="st16" d="M111.6,153.5c0,0-13.9,32.3-64.2,26.9l-2.6-9.8c61-2.1-43.1-18.1,55.4-48.2l6,10.3l2.3,6.1l1.7,3.6
					l0.8,7.7L111.6,153.5z"/>
				<path class="st16" d="M107.4,139.5c0,0-2.6-19.2-8.8-31.7c-6.1-12.5-20.6-7.7-22.4-9.6c-2.6-2.9-13.6-6.8-34.9-17.4
					c-6.7-3.3-23.2-20.1-33.9-22.1c-43.9-20-70.1-9.4-68.7-9.1c-14.3-8.6,14.1,58.6,15.5,74.2c1.4,15.6,30,2.9,74.1,29.4
					c0,0,16.5,9.8,16.5,19.7c0,0,18.8,1.7,36.3-7.2C98.6,156.9,107.4,139.5,107.4,139.5z"/>
				<path class="st17" d="M43.8,168.6c0,0-9.4-14.3-5.9-23.3"/>
			</g>
		</g>
	</g>
</g>
<g>
	<path class="st0" d="M48.9,23h302.1c14.3,0,25.9,11.7,25.9,25.9v302.1c0,14.3-11.7,25.9-25.9,25.9H48.9C34.7,377,23,365.3,23,351.1
		V48.9C23,34.7,34.7,23,48.9,23z"/>
	<path class="st1" d="M53.4,27.4h293.2c14.3,0,25.9,11.7,25.9,25.9v293.2c0,14.3-11.7,25.9-25.9,25.9H53.4
		c-14.3,0-25.9-11.7-25.9-25.9V53.4C27.4,39.1,39.1,27.4,53.4,27.4z"/>
	<g>
		<defs>
			<path id="SVGID_3_" d="M53.4,27.4h293.2c14.3,0,25.9,11.7,25.9,25.9v293.2c0,14.3-11.7,25.9-25.9,25.9H53.4
				c-14.3,0-25.9-11.7-25.9-25.9V53.4C27.4,39.1,39.1,27.4,53.4,27.4z"/>
		</defs>
		<clipPath id="SVGID_4_">
			<use xlink:href="#SVGID_3_"  style="overflow:visible;"/>
		</clipPath>
		<g class="st18">
			<g>
				<path class="st16" d="M59,102.9c0,0-5.1,12.6-5.1-1.7C53.8,86.9,72,90.3,43.5,86.6C15.1,83-56,61.8-56,66
					c9.2-39,12-79.8,12-79.8S29.8,11.1,57.3,12c27.5,0.9,31.7,26.6,46.3,28.3c14.6,1.7,12,36.9,12,36.9S94.2,107.2,59,102.9z"/>
				<g>
					<path class="st19" d="M233.1,331.9c-0.5,0-1,0-1.5,0c-37.2,1.1-53.3-4.9-57.7-4.1c-21.8,4.2-20.2-17.6-20.2-17.6
						c9-19.4,4.9-31.7,4.9-31.7c-0.6-29.8-44.8-76.4-59.1-100.4c-17.8-29.8-25.3-70-25.3-70c13.8-26.4,49.4-20.7,49.4-20.7
						c2.3,5.7,21.2,44.2,41.9,113.6c20.7,69.4,53.2,89,59.7,94.8c6.5,5.8,25.4,12.8,36.4,16.8c4.9,1.8,7.2,1.5,8.4,2.7
						c1.4,1.4,0.6,4.1,0.6,4.1s-1.2,3.1-6.1,3.3c0,0,0.9,3.9-3,3.2c0,0,0.4,2.6-3.7,3c0,0,0.2,3.4-4.3,2.8c0,0-1.3,3.4-5.4,2.6
						C243.9,333.4,233.1,331.9,233.1,331.9z"/>
					<path class="st5" d="M233.1,331.9c-0.5,0-1,0-1.5,0c-37.2,1.1-53.3-4.9-57.7-4.1c-21.8,4.2-20.2-17.6-20.2-17.6
						c9-19.4,4.9-31.7,4.9-31.7c-0.6-29.8-44.8-76.4-59.1-100.4c-17.8-29.8-25.3-70-25.3-70c13.8-26.4,49.4-20.7,49.4-20.7
						c2.3,5.7,21.2,44.2,41.9,113.6c20.7,69.4,53.2,89,59.7,94.8c6.5,5.8,25.4,12.8,36.4,16.8c4.9,1.8,7.2,1.5,8.4,2.7
						c1.4,1.4,0.6,4.1,0.6,4.1s-1.2,3.1-6.1,3.3c0,0,0.9,3.9-3,3.2c0,0,0.4,2.6-3.7,3c0,0,0.2,3.4-4.3,2.8c0,0-1.3,3.4-5.4,2.6
						C243.9,333.4,233.1,331.9,233.1,331.9z"/>
					<path class="st20" d="M155.1,217c0,0,2.4-3.5,4.4-3.4c2,0.1,0.1,3.5,0.1,3.5s-2,2.9-4,3.4C153.7,220.8,155.1,217,155.1,217z"/>
					<path class="st21" d="M155.1,217c0,0,2.4-3.5,4.4-3.4c2,0.1,0.1,3.5,0.1,3.5s-2,2.9-4,3.4C153.7,220.8,155.1,217,155.1,217z"/>
					<path class="st22" d="M264.3,322.6c0,0,1.6,0-4.8-2.6L264.3,322.6z"/>
					<path class="st22" d="M261.3,325.8c0,0-0.5-0.6-6.4-2.2L261.3,325.8z"/>
					<path class="st22" d="M257.7,328.8c0,0-2.3-0.9-5.5-1.4L257.7,328.8z"/>
					<path class="st22" d="M253.4,331.6c0,0-0.4-0.7-4.2-1.7L253.4,331.6z"/>
					<path class="st23" d="M107.6,283.8v68c0,0,19.4,14.8,47.6,0v-68.6C155.1,283.3,130.1,271,107.6,283.8z"/>
					<path class="st5" d="M107.6,283.8v68c0,0,19.4,14.8,47.6,0v-68.6C155.1,283.3,130.1,271,107.6,283.8z"/>
					<polygon class="st24" points="107.6,317.6 155,298.9 155.1,327.2 107.6,346.2 					"/>
					<polygon class="st5" points="107.6,317.6 155,298.9 155.1,327.2 107.6,346.2 					"/>
					<path class="st25" d="M147.5,259.9c0,1.5-7.5,2.7-16.7,2.7c-9.2,0-16.7-1.2-16.7-2.7c0-1.5,7.5-2.7,16.7-2.7
						C140,257.2,147.5,258.4,147.5,259.9z"/>
					<path class="st5" d="M147.5,259.9c0,1.5-7.5,2.7-16.7,2.7c-9.2,0-16.7-1.2-16.7-2.7c0-1.5,7.5-2.7,16.7-2.7
						C140,257.2,147.5,258.4,147.5,259.9z"/>
					<path class="st23" d="M114,259.9v8.5c0,0,11.6,5.5,33.4,0v-8.5C147.5,259.9,135.9,266.4,114,259.9z"/>
					<path class="st5" d="M114,259.9v8.5c0,0,11.6,5.5,33.4,0v-8.5C147.5,259.9,135.9,266.4,114,259.9z"/>
					<path class="st26" d="M117.8,270.1l-0.2,9.4c0,0,16.3-3.6,26.5-0.2v-9.2C144.1,270.1,125,272.5,117.8,270.1z"/>
					<path class="st5" d="M117.8,270.1l-0.2,9.4c0,0,16.3-3.6,26.5-0.2v-9.2C144.1,270.1,125,272.5,117.8,270.1z"/>
					<path class="st27" d="M70.7,294.8v57c0,0,16.3,12.4,39.9,0v-57.5C110.6,294.4,89.6,284.1,70.7,294.8z"/>
					<path class="st5" d="M70.7,294.8v57c0,0,16.3,12.4,39.9,0v-57.5C110.6,294.4,89.6,284.1,70.7,294.8z"/>
					<polygon class="st24" points="70.7,323.1 110.5,307.5 110.6,331.2 70.7,347.2 					"/>
					<polygon class="st5" points="70.7,323.1 110.5,307.5 110.6,331.2 70.7,347.2 					"/>
					<path class="st28" d="M104.2,274.8c0,1.3-6.3,2.3-14,2.3s-14-1-14-2.3c0-1.3,6.3-2.3,14-2.3S104.2,273.6,104.2,274.8z"/>
					<path class="st5" d="M104.2,274.8c0,1.3-6.3,2.3-14,2.3s-14-1-14-2.3c0-1.3,6.3-2.3,14-2.3S104.2,273.6,104.2,274.8z"/>
					<path class="st27" d="M76.2,274.8v7.1c0,0,9.7,4.6,28,0v-7.1C104.2,274.8,94.5,280.3,76.2,274.8z"/>
					<path class="st5" d="M76.2,274.8v7.1c0,0,9.7,4.6,28,0v-7.1C104.2,274.8,94.5,280.3,76.2,274.8z"/>
					<path class="st26" d="M79.3,283.4v8.3c0,0,13.4-3.4,22-0.6v-7.7C101.3,283.4,85.3,285.4,79.3,283.4z"/>
					<path class="st5" d="M79.3,283.4v8.3c0,0,13.4-3.4,22-0.6v-7.7C101.3,283.4,85.3,285.4,79.3,283.4z"/>
					<path class="st24" d="M163.3,163.6c0,2.5-2.4,4.4-5.5,4.4c-3,0-5.5-2-5.5-4.4c0-2.5,2.4-4.4,5.5-4.4
						C160.8,159.2,163.3,161.2,163.3,163.6z"/>
					<path class="st5" d="M163.3,163.6c0,2.5-2.4,4.4-5.5,4.4c-3,0-5.5-2-5.5-4.4c0-2.5,2.4-4.4,5.5-4.4
						C160.8,159.2,163.3,161.2,163.3,163.6z"/>
					<path class="st23" d="M156.1,179.8c0,0-6.3,8.6,0.4,8.9C163.2,189.1,158.3,181.3,156.1,179.8z"/>
					<path class="st21" d="M156.1,179.8c0,0-6.3,8.6,0.4,8.9C163.2,189.1,158.3,181.3,156.1,179.8z"/>
					<path class="st23" d="M159.7,196.2c0,0-4.8,6.4,0.3,6.7C165.1,203.2,161.4,197.3,159.7,196.2z"/>
					<path class="st21" d="M159.7,196.2c0,0-4.8,6.4,0.3,6.7C165.1,203.2,161.4,197.3,159.7,196.2z"/>
					<path class="st24" d="M160.3,147.9c0,0,4.4-3.2,6.8,2.8l-4.1,11c0,0-2.8-4.4-8.4-2.3L160.3,147.9z"/>
					<path class="st23" d="M163,161.6l4.1-11c0,0-0.3-1.7-0.6-1.9l-0.3-0.2l-4.4,11.6L163,161.6z"/>
					<path class="st23" d="M154.9,165.1l-0.7,1c0,0,3.7,2.9,7.6-0.7l0.4-1.6c0,0,0.6-1.4-0.9-2.3
						C161.4,161.5,163.4,166.2,154.9,165.1z"/>
					<path class="st29" d="M157.5,221.7c0,0-2.4,3.7,1.1,2.7C162.3,223.5,163.7,217.4,157.5,221.7z"/>
					<path class="st21" d="M157.5,221.7c0,0-2.4,3.7,1.1,2.7C162.3,223.5,163.7,217.4,157.5,221.7z"/>
					<path class="st26" d="M72.6,354.5c0,0-22.8,5.2-12.9,8.2c9.9,3,29.3,2.6,49.5-9C109.2,353.6,87.2,357.5,72.6,354.5z"/>
					<path class="st5" d="M72.6,354.5c0,0-22.8,5.2-12.9,8.2c9.9,3,29.3,2.6,49.5-9C109.2,353.6,87.2,357.5,72.6,354.5z"/>
					<path class="st26" d="M116.5,356.2c0,0-22.8,5.2-12.9,8.2c9.9,3,29.9,0.2,50.1-11.4C153.7,353,130.5,363.5,116.5,356.2z"/>
					<path class="st5" d="M116.5,356.2c0,0-22.8,5.2-12.9,8.2c9.9,3,29.9,0.2,50.1-11.4C153.7,353,130.5,363.5,116.5,356.2z"/>
					<path class="st30" d="M294.9,216.6v20.2l-18.7,16.9v73.1c0,0,30.1,24.7,65.4,0v-76.5L320.8,238v-20.2L294.9,216.6z"/>
					<path class="st5" d="M294.9,216.6v20.2l-18.7,16.9v73.1c0,0,30.1,24.7,65.4,0v-76.5L320.8,238v-20.2L294.9,216.6z"/>
					<rect x="289.6" y="209.8" class="st31" width="35.5" height="9.1"/>
					<polygon class="st24" points="341.6,251.4 276.4,298 276.4,326.2 341.6,284.9 					"/>
					<polygon class="st21" points="341.6,251.4 276.4,298 276.4,326.2 341.6,284.9 					"/>
					<polygon class="st26" points="295.1,219.3 295.1,225.3 320.1,225.3 320.1,219.6 					"/>
					<polygon class="st5" points="295.1,219.3 295.1,225.3 320.1,225.3 320.1,219.6 					"/>
					<path class="st26" d="M276.7,326.8c0,0-35.6,21.2,6,18.5c0,0,37.5-0.1,59.4-18.5C342.1,326.8,310.3,345.7,276.7,326.8z"/>
					<path class="st5" d="M276.7,326.8c0,0-35.6,21.2,6,18.5c0,0,37.5-0.1,59.4-18.5C342.1,326.8,310.3,345.7,276.7,326.8z"/>
					<path class="st24" d="M160,198.5c0,0-1.6,1.7-0.1,1.7C161.4,200.2,160.9,198.8,160,198.5z"/>
					<path class="st24" d="M156.2,183.7c0,0-2.3,2.4-0.2,2.4C158.1,186.1,157.4,184.1,156.2,183.7z"/>
					<path class="st32" d="M250.1,330c0,0-3.4-1-6.9-1L250.1,330z"/>
					<path class="st32" d="M255.5,328.1c0,0-9.1-2.7-12.3-2.7L255.5,328.1z"/>
					<path class="st32" d="M257.5,324.4c0,0-3.7-1.5-9.1-1.7L257.5,324.4z"/>
					<path class="st32" d="M260.9,320.7c0,0-4.2-2.2-8.6-2.2L260.9,320.7z"/>
					<text transform="matrix(0.3581 -0.2555 0.5809 0.814 290.4292 317.0565)" class="st33 st34 st35">IODIN</text>
					<text transform="matrix(0.4733 -0.1782 0.3524 0.9359 75.4368 340.9081)" class="st33 st34 st36">SPIRIT</text>
					<path class="st19" d="M255.5,128.2l-39,3.9c0,0-5.5,1-7,5.1c-1.5,4.1-13.7,15-25.2,17.2c0,0-5.7,0.4-6.9,2.6
						c-1.2,2.1-10.7,10.4-10.3,16.1c0,0-11.4,3.7-10-6.9c0,0,1.1-8.6,5.3-13.9c0,0,6.5-3.6,6.3-11.3c0,0-10.3,0-11.5-1.3l-11.5,0
						c0,0,2.5,4.8,2.7,6.6c0.2,1.8,4.4,7.6,3.5,10.3c0,0-6,8.5-11.5-4.7c-5.5-13.2-7.5-14.3-7.5-14.3s-11.7,13.2-20.2,9.6
						c0,0-5-1.4-2.1-5.9c0,0-7.1,0.8-2.6-5.7c0,0,9.6-6.3,11.5-6.8c0,0-8.3-1.8,0.5-7.1c0,0,7.3-1.2,9.1-2.6
						c1.8-1.5,17.8-8.8,27.2-10c9.4-1.2,35.4-1,43-0.7c0,0,4.4-2.6,11.9-2c7.5,0.6,29.2-6.3,37.6-12.6
						C248.7,93.6,265.2,107.2,255.5,128.2z"/>
					<path class="st5" d="M255.5,128.2l-39,3.9c0,0-5.5,1-7,5.1c-1.5,4.1-13.7,15-25.2,17.2c0,0-5.7,0.4-6.9,2.6
						c-1.2,2.1-10.7,10.4-10.3,16.1c0,0-11.4,3.7-10-6.9c0,0,1.1-8.6,5.3-13.9c0,0,6.5-3.6,6.3-11.3c0,0-10.3,0-11.5-1.3l-11.5,0
						c0,0,2.5,4.8,2.7,6.6c0.2,1.8,4.4,7.6,3.5,10.3c0,0-6,8.5-11.5-4.7c-5.5-13.2-7.5-14.3-7.5-14.3s-11.7,13.2-20.2,9.6
						c0,0-5-1.4-2.1-5.9c0,0-7.1,0.8-2.6-5.7c0,0,9.6-6.3,11.5-6.8c0,0-8.3-1.8,0.5-7.1c0,0,7.3-1.2,9.1-2.6
						c1.8-1.5,17.8-8.8,27.2-10c9.4-1.2,35.4-1,43-0.7c0,0,4.4-2.6,11.9-2c7.5,0.6,29.2-6.3,37.6-12.6
						C248.7,93.6,265.2,107.2,255.5,128.2z"/>
					<path class="st5" d="M168.3,122.3c0,0-21.9,2.6-24.3,3.4c-2.4,0.8-12.9,1.7-11.2,11.7"/>
					<path class="st5" d="M135.5,122.1c-2.2,1.3-12.3,3.2-16.1,6.5l37.6-15.1"/>
					<path class="st24" d="M142.5,157.5c0,0-11,14.8,1.6,14.3c12.6-0.5,11,3.3,12.6-2.7c1.6-6,5.6-16.8,5.6-16.8s-7.9,3.2-10.5,0.9
						C148.3,150,155.7,162.7,142.5,157.5z"/>
					<path class="st5" d="M142.5,157.5c0,0-11,14.8,1.6,14.3c12.6-0.5,11,3.3,12.6-2.7c1.6-6,5.6-16.8,5.6-16.8s-7.9,3.2-10.5,0.9
						C148.3,150,155.7,162.7,142.5,157.5z"/>
					<text transform="matrix(0.3686 -0.144 0.3638 0.9315 120.4012 333.1962)" class="st33 st34 st37">dettol</text>
					<polygon class="st24" points="246.2,93.6 255.4,127.9 272.8,126 260,86.3 					"/>
					<polygon class="st38" points="246.2,93.6 255.4,127.9 272.8,126 260,86.3 					"/>
					<polygon class="st5" points="259.3,83.3 272.8,127.2 299.3,120.5 285.7,74.8 					"/>
					<path class="st39" d="M110.5,141.1c0.3-1.1,13.1-5.1,21.6-11.9"/>
				</g>
				<path class="st16" d="M64.1,114.1c0,0,56.6-14.6,69.5-31.7l-8.6-12.9c-1.3-1.9-12.5,17.4-63.5,32.6h-4.3l4.3,8.6l1.7,3.4H64.1z"
					/>
				<path class="st17" d="M125.1,69.5c0,0-6-6-9.5-5.8"/>
				<path class="st16" d="M115.5,63.7c0,0,0.2,7.3,0.1,13c0,0,7.5-5.6,8.9-7.7l0,0l-4.8-4.6l4.8,4.6l-4.8-4.6L115.5,63.7L115.5,63.7
					z"/>
			</g>
		</g>
	</g>
</g>
<g>
	<path class="st0" d="M48.9,23h302.1c14.3,0,25.9,11.7,25.9,25.9v302.1c0,14.3-11.7,25.9-25.9,25.9H48.9C34.7,377,23,365.3,23,351.1
		V48.9C23,34.7,34.7,23,48.9,23z"/>
	<path class="st1" d="M53.4,27.4h293.2c14.3,0,25.9,11.7,25.9,25.9v293.2c0,14.3-11.7,25.9-25.9,25.9H53.4
		c-14.3,0-25.9-11.7-25.9-25.9V53.4C27.4,39.1,39.1,27.4,53.4,27.4z"/>
	<g>
		<defs>
			<path id="SVGID_5_" d="M53.4,27.4h293.2c14.3,0,25.9,11.7,25.9,25.9v293.2c0,14.3-11.7,25.9-25.9,25.9H53.4
				c-14.3,0-25.9-11.7-25.9-25.9V53.4C27.4,39.1,39.1,27.4,53.4,27.4z"/>
		</defs>
		<clipPath id="SVGID_6_">
			<use xlink:href="#SVGID_5_"  style="overflow:visible;"/>
		</clipPath>
		<g class="st40">
			<g>
				<path class="st41" d="M85.8,171.8c-8.1,4.1-33.3,40.2-33.9,47.1c-0.4,4.3-0.2,17.1-1.8,37.9c-4.7,62.7-20.8,81.3-1.2,121.3
					c0,0,9.1-3.4,25.6-2.9c16.6,0.6,13.5,5.9,53-1.5l12.4,3.2l4.1-67.7l-4.3-37c0,0-1.8,0-9.2-5.6c-7.5-5.6-12.2-8.1-12.2-8.1"/>
				<g>
					<path class="st41" d="M85.8,171.8c0,0-16.7,12.8-32.2,42.2c0,0-2.1,2.7-2,10.6c0.1,8-0.9,35.9-3.7,53.2
						c-2.8,17.3-6.7,35.9-7.2,41.4c-0.5,5.5-5.1,34.6,7.9,58.8c0,0,12.1-5.8,30.5-2.5c18.4,3.3,32,1.3,37.3,0
						c5.3-1.2,9.1-3.3,23.3,1.4c-0.6,0,4-56.5,4.1-69.3c0-12.8-4.3-35.4-4.3-35.4l7.8,4.3c0,0,5.1-12.4,20.1-18.8
						c15-6.5,39-5.1,44-14.4c5-9.3,2.4-4.4,2.4-4.4l-4.1-12.2c0,0-40.7,10.5-50.1,12.3c-9.4,1.8-7.1-3.6-8.1-7.4
						c-1-3.8-0.2-5-8.7-15.3l-3.4-4.9l5.3,0.2c0,0-5.6-1.8-9-11.1c-3.4-9.3-2.6-7.6-2.6-7.6l-9.4-7.8l-31.8-19.2L85.8,171.8z"/>
					<path class="st24" d="M85.8,171.8c0,0-16.7,12.8-32.2,42.2c0,0-2.1,2.7-2,10.6c0.1,8-0.9,35.9-3.7,53.2
						c-2.8,17.3-6.7,35.9-7.2,41.4c-0.5,5.5-5.1,34.6,7.9,58.8c0,0,12.1-5.8,30.5-2.5c18.4,3.3,32,1.3,37.3,0
						c5.3-1.2,9.1-3.3,23.3,1.4c-0.6,0,4-56.5,4.1-69.3c0-12.8-4.3-35.4-4.3-35.4l7.8,4.3c0,0,5.1-12.4,20.1-18.8
						c15-6.5,39-5.1,44-14.4c5-9.3,2.4-4.4,2.4-4.4l-4.1-12.2c0,0-40.7,10.5-50.1,12.3c-9.4,1.8-7.1-3.6-8.1-7.4
						c-1-3.8-0.2-5-8.7-15.3l-3.4-4.9l5.3,0.2c0,0-5.6-1.8-9-11.1c-3.4-9.3-2.6-7.6-2.6-7.6l-9.4-7.8l-31.8-19.2L85.8,171.8z"/>
				</g>
				<path class="st41" d="M149.5,276.5l0.4,11.5c0,0,1.6,0.9,2.4,0.1l0.4-9.8"/>
				<path class="st41" d="M151.4,287.7c4.3,0.1,7.6,4.3,7.4,9.2c-0.2,5-3.8,8.9-8,8.7c-4.3-0.1-7.6-4.3-7.4-9.2
					C143.5,291.4,147.1,287.5,151.4,287.7z"/>
				<g>
					<path class="st42" d="M253.4,372.6l4.8-20.3c0,0,23.6-13.2,28,5.8l-4.2,16.5L253.4,372.6z"/>
					<path class="st43" d="M253.4,372.6l4.8-20.3c0,0,23.6-13.2,28,5.8l-4.2,16.5L253.4,372.6z"/>
				</g>
				<g>
					<path class="st42" d="M321.5,356.8l2.3,18.3l-26.7-0.7l-2.3-17.1C294.8,357.3,311.6,333.7,321.5,356.8z"/>
					<path class="st43" d="M321.5,356.8l2.3,18.3l-26.7-0.7l-2.3-17.1C294.8,357.3,311.6,333.7,321.5,356.8z"/>
				</g>
				<path class="st42" d="M321.5,356.8l2.3,18.3l-26.7-0.7l-2.3-17.1C294.8,357.3,311.6,333.7,321.5,356.8z"/>
				<g>
					<path class="st42" d="M290.5,329.8l-3.4,28.4c0,0,27.1,16.8,45.4-2.6l0.7-39.3C333.1,316.3,314,333.1,290.5,329.8z"/>
					<path class="st44" d="M290.5,329.8l-3.4,28.4c0,0,27.1,16.8,45.4-2.6l0.7-39.3C333.1,316.3,314,333.1,290.5,329.8z"/>
				</g>
				<path class="st42" d="M290.5,329.8l-3.4,28.4c0,0,27.1,16.8,45.4-2.6l0.7-39.3C333.1,316.3,314,333.1,290.5,329.8z"/>
				<g>
					<path class="st42" d="M259.9,309.7l-10.6,44.2c0,0,15.6,14.5,37.8,4.4l3.4-28.4C290.5,329.8,270.4,326.1,259.9,309.7z"/>
					<path class="st44" d="M259.9,309.7l-10.6,44.2c0,0,15.6,14.5,37.8,4.4l3.4-28.4C290.5,329.8,270.4,326.1,259.9,309.7z"/>
				</g>
				<path class="st42" d="M259.9,309.7l-10.6,44.2c0,0,15.6,14.5,37.8,4.4l3.4-28.4C290.5,329.8,270.4,326.1,259.9,309.7z"/>
				<g>
					<path class="st42" d="M259.9,309.7c0,0,24.3,40.4,73.2,6.7c0,0,2.5-55.5,2.8-64c0,0,16-4.6,24.7-5.2c0,0-4.5-8.2-5.3-18.9
						c-0.7-10.7-5.8-27.2-26.1-26.2c0,0-7.6-8.7-13.1-10c0,0,11.9,13.9-10,13.1c-21.9-0.8-20.3-14.8-16.9-13.5c0,0-6.8,0.9-7.5,5.4
						c-0.7,4.5-12.4,2.4-17,2.8c-4.5,0.4-8.1,11.5-13.7,24.8c-5.9,14.3,0.1,9.9-0.4,11.6c0,0,1.7,0.5,5.6,2.7c0,0,9.8,7.4,23,5.2
						L259.9,309.7z"/>
					<path class="st45" d="M259.9,309.7c0,0,24.3,40.4,73.2,6.7c0,0,2.5-55.5,2.8-64c0,0,16-4.6,24.7-5.2c0,0-4.5-8.2-5.3-18.9
						c-0.7-10.7-5.8-27.2-26.1-26.2c0,0-7.6-8.7-13.1-10c0,0,11.9,13.9-10,13.1c-21.9-0.8-20.3-14.8-16.9-13.5c0,0-6.8,0.9-7.5,5.4
						c-0.7,4.5-12.4,2.4-17,2.8c-4.5,0.4-8.1,11.5-13.7,24.8c-5.9,14.3,0.1,9.9-0.4,11.6c0,0,1.7,0.5,5.6,2.7c0,0,9.8,7.4,23,5.2
						L259.9,309.7z"/>
				</g>
				<path class="st42" d="M259.9,309.7c0,0,24.3,40.4,73.2,6.7c0,0,2.5-55.5,2.8-64c0,0,16-4.6,24.7-5.2c0,0-4.5-8.2-5.3-18.9
					c-0.7-10.7-5.8-27.2-26.1-26.2c0,0-7.6-8.7-13.1-10c0,0,11.9,13.9-10,13.1c-21.9-0.8-20.3-14.8-16.9-13.5c0,0-6.8,0.9-7.5,5.4
					c-0.7,4.5-12.4,2.4-17,2.8c-4.5,0.4-8.1,11.5-13.7,24.8c-5.9,14.3,0.1,9.9-0.4,11.6c0,0,1.7,0.5,5.6,2.7c0,0,9.8,7.4,23,5.2
					L259.9,309.7z"/>
				<g>
					<path class="st42" d="M289.3,185.1c0,0,0.7,5.8-1.2,7.1c-1.4,1-3,7.8-3,7.8s13.8,17.6,35.2,4.3l-1.1-16.2
						C319.3,188.1,298.7,190,289.3,185.1z"/>
					<path class="st43" d="M289.3,185.1c0,0,0.7,5.8-1.2,7.1c-1.4,1-3,7.8-3,7.8s13.8,17.6,35.2,4.3l-1.1-16.2
						C319.3,188.1,298.7,190,289.3,185.1z"/>
				</g>
				<path class="st42" d="M289.3,185.1c0,0,0.7,5.8-1.2,7.1c-1.4,1-3,7.8-3,7.8s13.8,17.6,35.2,4.3l-1.1-16.2
					C319.3,188.1,298.7,190,289.3,185.1z"/>
				<g>
					<path class="st42" d="M245.5,322.1c0,0,4.2-26,6.8-34.5c2.6-8.6,5.6-36.2,9.1-45.6c0,0,11,4.5,17.9,2.3l-24.6,78.9L245.5,322.1
						z"/>
					<path class="st19" d="M245.5,322.1c0,0,4.2-26,6.8-34.5c2.6-8.6,5.6-36.2,9.1-45.6c0,0,11,4.5,17.9,2.3l-24.6,78.9L245.5,322.1
						z"/>
				</g>
				<g>
					<path class="st42" d="M282.7,122.2c0,0-6.6,10.7-7.4,16.6c-0.8,6.2-2,12.8-2,12.8s2.2-17.8-6.2-12.7c0,0-5.3,0.9-4.5,11.4
						c0,0,2,8.7,8.9,5.9l0.9-0.3c0,0-1.4,14.4,6.2,22.2c0,0,14.2,15.2,37.1,10.2c0,0,19.3-1.6,25.9-17.6c0,0,2.6-6.3,2.7-12.2
						c0,0,9.3,2.3,8.9-10.5c0,0-1.1-7.6-5.5-7.9c0,0-2.4-1-5.5,6c-2.6,6-1.5,8-1.5,8s-1.6-5.4-1.2-7.6c0.4-2.3-0.5-21.1-2.9-24.7
						c-2.5-3.6-6.8-4-6.8-4l1.5,10.1c0,0-6.7-4.5-8.1-10.6c0,0-5.4,6.2-1.3,9.5c0,0-3.5,1.1-8.7-10.3c0,0-6.8,7.8-2.2,13.6
						c0,0-8.2-2.7-13.1-11.7c0,0-3.6,2.8-3.5,4.7c0,0-3.7-2.7-3.9-5.3c0,0-5.9,2.8-6.9,6.7C283.5,124.6,282.4,124.7,282.7,122.2z"/>
					<path class="st43" d="M282.7,122.2c0,0-6.6,10.7-7.4,16.6c-0.8,6.2-2,12.8-2,12.8s2.2-17.8-6.2-12.7c0,0-5.3,0.9-4.5,11.4
						c0,0,2,8.7,8.9,5.9l0.9-0.3c0,0-1.4,14.4,6.2,22.2c0,0,14.2,15.2,37.1,10.2c0,0,19.3-1.6,25.9-17.6c0,0,2.6-6.3,2.7-12.2
						c0,0,9.3,2.3,8.9-10.5c0,0-1.1-7.6-5.5-7.9c0,0-2.4-1-5.5,6c-2.6,6-1.5,8-1.5,8s-1.6-5.4-1.2-7.6c0.4-2.3-0.5-21.1-2.9-24.7
						c-2.5-3.6-6.8-4-6.8-4l1.5,10.1c0,0-6.7-4.5-8.1-10.6c0,0-5.4,6.2-1.3,9.5c0,0-3.5,1.1-8.7-10.3c0,0-6.8,7.8-2.2,13.6
						c0,0-8.2-2.7-13.1-11.7c0,0-3.6,2.8-3.5,4.7c0,0-3.7-2.7-3.9-5.3c0,0-5.9,2.8-6.9,6.7C283.5,124.6,282.4,124.7,282.7,122.2z"/>
				</g>
				<path class="st42" d="M282.7,122.2c0,0-6.6,10.7-7.4,16.6c-0.8,6.2-2,12.8-2,12.8s2.2-17.8-6.2-12.7c0,0-5.3,0.9-4.5,11.4
					c0,0,2,8.7,8.9,5.9l0.9-0.3c0,0-1.4,14.4,6.2,22.2c0,0,14.2,15.2,37.1,10.2c0,0,19.3-1.6,25.9-17.6c0,0,2.6-6.3,2.7-12.2
					c0,0,9.3,2.3,8.9-10.5c0,0-1.1-7.6-5.5-7.9c0,0-2.4-1-5.5,6c-2.6,6-1.5,8-1.5,8s-1.6-5.4-1.2-7.6c0.4-2.3-0.5-21.1-2.9-24.7
					c-2.5-3.6-6.8-4-6.8-4l1.5,10.1c0,0-6.7-4.5-8.1-10.6c0,0-5.4,6.2-1.3,9.5c0,0-3.5,1.1-8.7-10.3c0,0-6.8,7.8-2.2,13.6
					c0,0-8.2-2.7-13.1-11.7c0,0-3.6,2.8-3.5,4.7c0,0-3.7-2.7-3.9-5.3c0,0-5.9,2.8-6.9,6.7C283.5,124.6,282.4,124.7,282.7,122.2z"/>
				<g>
					<path class="st42" d="M318.1,91.2c0,0,1.5-9.7-30.9-0.5c0,0,0.5,0.1,1.3,1.9c0,0-27.5,5.4-20.4,45.7c0,0,6.3,1.4,5,13.8
						c0,0,2.7-24.8,9.8-28.8l-0.8,4.5c0,0,4.8-6.5,7.2-7.6c0,0,3.2,3.4,3.2,5c0,0,3.5-5.3,4.4-5.6c0,0,3,9.2,16.6,11.8
						c0,0-4.3-7.4-1.4-11.9c0,0,2.8,8,12.1,8.6c0,0-3.1-5.6-1.8-9.2c0,0,3.3,8.6,10.6,10.4c0,0-0.7-7,0-7.9
						c0.6-0.9,4.5,1.7,4.6,15.3c0.1,13.7,3.1,16.8,3.3,18.3c0.2,1.5-0.3-1.5-0.3-1.5s0.1-3.2,2.7-7.8c0,0,4.1-4.7,4.7-2.5
						c0.5,2.1-0.5-2.1-0.5-2.1s8.9-19.4-0.9-34.6c0,0-4.8-9.3-12.6-12.6c0,0,0.8-4.5,6.2-4c0,0-14.9-6.3-21.6,1.1L318.1,91.2z"/>
					<path class="st46" d="M318.1,91.2c0,0,1.5-9.7-30.9-0.5c0,0,0.5,0.1,1.3,1.9c0,0-27.5,5.4-20.4,45.7c0,0,6.3,1.4,5,13.8
						c0,0,2.7-24.8,9.8-28.8l-0.8,4.5c0,0,4.8-6.5,7.2-7.6c0,0,3.2,3.4,3.2,5c0,0,3.5-5.3,4.4-5.6c0,0,3,9.2,16.6,11.8
						c0,0-4.3-7.4-1.4-11.9c0,0,2.8,8,12.1,8.6c0,0-3.1-5.6-1.8-9.2c0,0,3.3,8.6,10.6,10.4c0,0-0.7-7,0-7.9
						c0.6-0.9,4.5,1.7,4.6,15.3c0.1,13.7,3.1,16.8,3.3,18.3c0.2,1.5-0.3-1.5-0.3-1.5s0.1-3.2,2.7-7.8c0,0,4.1-4.7,4.7-2.5
						c0.5,2.1-0.5-2.1-0.5-2.1s8.9-19.4-0.9-34.6c0,0-4.8-9.3-12.6-12.6c0,0,0.8-4.5,6.2-4c0,0-14.9-6.3-21.6,1.1L318.1,91.2z"/>
				</g>
				<g>
					<path class="st42" d="M351.4,248.9c0,0-11.3,1.4-15.5,3.4l2.8,16.8c0,0-38.6,11.8-62,4.3l-4.7-3.7c0,0-12.6,1.4-16.3-3.3
						c0,0-2.9,4-0.7,5.2c0,0-3.7,1.9-0.6,3.6c0,0-2.8,2.8-1,4.3c0.3-0.7-2.7,0.5-1.8,2.8c0,0,3,2.4,6.4,2.5c0,0,7.5,2,14.7-1.2
						l4.3-0.3c0.5-1.1,36.8,7.9,57.1-0.5c0,0,11.6-1.8,15.3-4.7c3.7-2.9,5.2-26.2,4.4-29.9L351.4,248.9z"/>
					<path class="st43" d="M351.4,248.9c0,0-11.3,1.4-15.5,3.4l2.8,16.8c0,0-38.6,11.8-62,4.3l-4.7-3.7c0,0-12.6,1.4-16.3-3.3
						c0,0-2.9,4-0.7,5.2c0,0-3.7,1.9-0.6,3.6c0,0-2.8,2.8-1,4.3c0.3-0.7-2.7,0.5-1.8,2.8c0,0,3,2.4,6.4,2.5c0,0,7.5,2,14.7-1.2
						l4.3-0.3c0.5-1.1,36.8,7.9,57.1-0.5c0,0,11.6-1.8,15.3-4.7c3.7-2.9,5.2-26.2,4.4-29.9L351.4,248.9z"/>
				</g>
				<path class="st42" d="M351.4,248.9c0,0-11.3,1.4-15.5,3.4l2.8,16.8c0,0-38.6,11.8-62,4.3l-4.7-3.7c0,0-12.6,1.4-16.3-3.3
					c0,0-2.9,4-0.7,5.2c0,0-3.7,1.9-0.6,3.6c0,0-2.8,2.8-1,4.3c0,0-2.9,0.2-1.4,3.1c0,0,2.7,2.1,6.1,2.2c0,0,7.5,2,14.7-1.2l4.3-0.3
					c0.5-1.1,36.8,7.9,57.1-0.5c0,0,11.6-1.8,15.3-4.7c3.7-2.9,5.2-26.2,4.4-29.9L351.4,248.9z"/>
				<path class="st42" d="M281.6,197.1c0,0-1.1,9.5,6.1,11.9"/>
				<path class="st42" d="M329.2,202.1c0,0-0.5,5-6.6,8.1"/>
				<line class="st42" x1="279.2" y1="244.2" x2="282.3" y2="235.5"/>
				<line class="st42" x1="335.9" y1="254.4" x2="337.1" y2="245.6"/>
				<path class="st42" d="M288.7,173.9c0,0,16.2-11,31.4,3.5"/>
				<path class="st42" d="M312.2,162.9c-7.7,4-15.1-0.8-15.1-0.8"/>
				<path class="st42" d="M299,173.9c0,0,5.2-1.6,7.6,0.3"/>
				<path class="st42" d="M287.8,171.4c0,0-1.7,4.2,1.4,4.6"/>
				<path class="st42" d="M322.3,175c0,0,0.1,4.6-4.1,3.8"/>
				<path class="st42" d="M269.5,142.8c0,0-4.8,7.1,2.4,11.7c1.2,0.8,0.5,1.5,0.5,1.5"/>
				<path class="st42" d="M348.4,146.6c0,0-1.3,11.2-4,12"/>
				<g>
					<path class="st42" d="M252.2,340.1c0,0-0.9-3.1-3.8-1.8c-2.9,1.3-6.2,5.3-8.4,4.6c0,0-3.4-1.2-0.1-3.5l3.6-3.2
						c0,0-8.4,3.8-10.1,3c-1.7-0.8-3.6-1.9-1.3-3c0,0-5.7,0.8-6.3-1.5c-0.6-2.3,1.8-1.6,4.1-1.8c2.3-0.1,3.3-0.7,3.3-0.7l2.1,0.3
						c0,0-3.1-1.1-4.2-1.4c-1.1-0.3-2.4-0.2-3.3,0c-0.9,0.2-4.4,0.5-5.1-1.3c0,0,0.6-1.5,2.7-1.2c2.1,0.3,2.5-0.2,3.4-0.5
						c0.9-0.2,5.3,1.6,7.3,1.6c2,0.1,5-3.1,8-3.3c0,0,0.1-1.2,0.7-2.6c0.1-0.2,0.2-0.4,0.2-0.6c0.8-1.7,7.3-3.5,9.8,0.2
						c0,0,1,2.8,0.6,5.3c0,0,1.4,4.2,0.9,6.7c-0.6,2.5,0.6,4.6,1.6,5.2c1,0.6,3.3,1.3,2.3,2.3c-1,1-4.6,3.8-7.3-1.5L252.2,340.1z"/>
					<path class="st47" d="M252.2,340.1c0,0-0.9-3.1-3.8-1.8c-2.9,1.3-6.2,5.3-8.4,4.6c0,0-3.4-1.2-0.1-3.5l3.6-3.2
						c0,0-8.4,3.8-10.1,3c-1.7-0.8-3.6-1.9-1.3-3c0,0-5.7,0.8-6.3-1.5c-0.6-2.3,1.8-1.6,4.1-1.8c2.3-0.1,3.3-0.7,3.3-0.7l2.1,0.3
						c0,0-3.1-1.1-4.2-1.4c-1.1-0.3-2.4-0.2-3.3,0c-0.9,0.2-4.4,0.5-5.1-1.3c0,0,0.6-1.5,2.7-1.2c2.1,0.3,2.5-0.2,3.4-0.5
						c0.9-0.2,5.3,1.6,7.3,1.6c2,0.1,5-3.1,8-3.3c0,0,0.1-1.2,0.7-2.6c0.1-0.2,0.2-0.4,0.2-0.6c0.8-1.7,7.3-3.5,9.8,0.2
						c0,0,1,2.8,0.6,5.3c0,0,1.4,4.2,0.9,6.7c-0.6,2.5,0.6,4.6,1.6,5.2c1,0.6,3.3,1.3,2.3,2.3c-1,1-4.6,3.8-7.3-1.5L252.2,340.1z"/>
				</g>
				<g>
					<path class="st42" d="M231.5,336.2c0,0,5.8-0.6,7.8-1.8L231.5,336.2z"/>
					<path class="st47" d="M231.5,336.2c0,0,5.8-0.6,7.8-1.8L231.5,336.2z"/>
				</g>
				<g>
					<path class="st42" d="M244.1,326.5c0,0,1.7-5.8,1.7-6.8L244.1,326.5z"/>
					<path class="st47" d="M244.1,326.5c0,0,1.7-5.8,1.7-6.8L244.1,326.5z"/>
				</g>
				<g>
					<path class="st42" d="M245,327.1c0,0,0.3-4.1,2.5-11.6l7.9,3l-2.2,6.3L245,327.1z"/>
					<path class="st47" d="M245,327.1c0,0,0.3-4.1,2.5-11.6l7.9,3l-2.2,6.3L245,327.1z"/>
				</g>
				<g>
					<path class="st42" d="M290.9,153.9c0,0-5.3-3.5-0.4-8.4c0,0,1.4-0.6,5.1-0.2c3.8,0.4,4.4,6.1-1.2,8.8
						C294.4,154.1,292.3,155,290.9,153.9z"/>
					<path class="st24" d="M290.9,153.9c0,0-5.3-3.5-0.4-8.4c0,0,1.4-0.6,5.1-0.2c3.8,0.4,4.4,6.1-1.2,8.8
						C294.4,154.1,292.3,155,290.9,153.9z"/>
				</g>
				<path class="st42" d="M290.9,153.9c0,0-5.3-3.5-0.4-8.4c0,0,1.4-0.6,5.1-0.2c3.8,0.4,4.4,6.1-1.2,8.8
					C294.4,154.1,292.3,155,290.9,153.9z"/>
				<g>
					<path class="st42" d="M316.8,155.4c0,0-5.3-3.5-0.4-8.4c0,0,3.5-2.1,5.1-0.2c1.6,1.9,4.1,6.5-1.8,8.5
						C319.7,155.3,318.2,156.5,316.8,155.4z"/>
					<path class="st24" d="M316.8,155.4c0,0-5.3-3.5-0.4-8.4c0,0,3.5-2.1,5.1-0.2c1.6,1.9,4.1,6.5-1.8,8.5
						C319.7,155.3,318.2,156.5,316.8,155.4z"/>
				</g>
				<path class="st42" d="M316.8,155.4c0,0-5.3-3.5-0.4-8.4c0,0,3.5-2.1,5.1-0.2c1.6,1.9,4.1,6.5-1.8,8.5
					C319.7,155.3,318.2,156.5,316.8,155.4z"/>
				<g>
					<path class="st42" d="M317.5,151.8c0,0.8-0.7,1.5-1.6,1.5c-0.8,0-1.5-0.7-1.5-1.6c0-0.8,0.7-1.5,1.6-1.5
						C316.8,150.3,317.5,151,317.5,151.8z"/>
					<path class="st26" d="M317.5,151.8c0,0.8-0.7,1.5-1.6,1.5c-0.8,0-1.5-0.7-1.5-1.6c0-0.8,0.7-1.5,1.6-1.5
						C316.8,150.3,317.5,151,317.5,151.8z"/>
				</g>
				<path class="st42" d="M317.5,151.8c0,0.8-0.7,1.5-1.6,1.5c-0.8,0-1.5-0.7-1.5-1.6c0-0.8,0.7-1.5,1.6-1.5
					C316.8,150.3,317.5,151,317.5,151.8z"/>
				<g>
					<path class="st42" d="M292,150.4c0,0.8-0.7,1.5-1.6,1.5c-0.8,0-1.5-0.7-1.5-1.6c0-0.8,0.7-1.5,1.6-1.5
						C291.4,148.8,292.1,149.5,292,150.4z"/>
					<path class="st26" d="M292,150.4c0,0.8-0.7,1.5-1.6,1.5c-0.8,0-1.5-0.7-1.5-1.6c0-0.8,0.7-1.5,1.6-1.5
						C291.4,148.8,292.1,149.5,292,150.4z"/>
				</g>
				<path class="st42" d="M292,150.4c0,0.8-0.7,1.5-1.6,1.5c-0.8,0-1.5-0.7-1.5-1.6c0-0.8,0.7-1.5,1.6-1.5
					C291.4,148.8,292.1,149.5,292,150.4z"/>
				<g>
					<path class="st42" d="M315.8,151.4c0,0.3-0.3,0.5-0.5,0.5c-0.3,0-0.5-0.3-0.5-0.5c0-0.3,0.3-0.5,0.5-0.5
						C315.6,150.8,315.8,151.1,315.8,151.4z"/>
					<path class="st24" d="M315.8,151.4c0,0.3-0.3,0.5-0.5,0.5c-0.3,0-0.5-0.3-0.5-0.5c0-0.3,0.3-0.5,0.5-0.5
						C315.6,150.8,315.8,151.1,315.8,151.4z"/>
				</g>
				<g>
					<path class="st42" d="M291,150.9c0,0.3-0.3,0.5-0.5,0.5c-0.3,0-0.5-0.3-0.5-0.5c0-0.3,0.3-0.5,0.5-0.5
						C290.8,150.3,291,150.6,291,150.9z"/>
					<path class="st24" d="M291,150.9c0,0.3-0.3,0.5-0.5,0.5c-0.3,0-0.5-0.3-0.5-0.5c0-0.3,0.3-0.5,0.5-0.5
						C290.8,150.3,291,150.6,291,150.9z"/>
				</g>
				<g>
					<path class="st42" d="M298.3,150l0.8-6L298.3,150z"/>
					<path class="st24" d="M298.3,150l0.8-6L298.3,150z"/>
				</g>
				<path class="st42" d="M296.5,135c0,0,8.7,2.7,14.9,0.2c6.2-2.5,6.6,0.8,6.6,0.8"/>
				<g>
					<path class="st42" d="M286.3,141.7c0,0,5.3-3,9.4-1.9L286.3,141.7z"/>
					<path class="st43" d="M286.3,141.7c0,0,5.3-3,9.4-1.9L286.3,141.7z"/>
				</g>
				<g>
					<path class="st42" d="M317.4,142.2c0,0,6.1,0.9,8.6,4.2L317.4,142.2z"/>
					<path class="st43" d="M317.4,142.2c0,0,6.1,0.9,8.6,4.2L317.4,142.2z"/>
				</g>
				<g>
					<path class="st42" d="M288.9,148c0,0,3.8,2.1,9.2,0.5c0,0,0.3-2.7-3-3.2C291.8,144.9,289.5,145.1,288.9,148z"/>
					<path class="st43" d="M288.9,148c0,0,3.8,2.1,9.2,0.5c0,0,0.3-2.7-3-3.2C291.8,144.9,289.5,145.1,288.9,148z"/>
				</g>
				<path class="st42" d="M288.9,148c0,0,3.8,2.1,9.2,0.5c0,0,0.3-2.7-3-3.2C291.8,144.9,289.5,145.1,288.9,148z"/>
				<g>
					<path class="st42" d="M314.8,149.8c0,0,4.9,1,8.1,0.1c0,0-0.4-2.3-1.8-3.4c0,0-2.9-1.4-4.7,0.4
						C316.3,147,314.8,148.3,314.8,149.8z"/>
					<path class="st43" d="M314.8,149.8c0,0,4.9,1,8.1,0.1c0,0-0.4-2.3-1.8-3.4c0,0-2.9-1.4-4.7,0.4
						C316.3,147,314.8,148.3,314.8,149.8z"/>
				</g>
				<path class="st42" d="M314.8,149.8c0,0,4.9,1,8.1,0.1c0,0-0.4-2.3-1.8-3.4c0,0-2.9-1.4-4.7,0.4
					C316.3,147,314.8,148.3,314.8,149.8z"/>
				<path class="st42" d="M320.1,156.8c0,0,4.6-0.4,5.2-5.9"/>
				<path class="st42" d="M287.8,152.5c0,0,2,4.6,6.7,2.5"/>
				<path class="st42" d="M292.3,148.8c0,0-1.5-1.3-0.6-2.6"/>
				<path class="st42" d="M290.1,148.3c0,0-2.7-1.3-2.3-3"/>
				<path class="st42" d="M319.3,149.7c0,0,3-0.6,3-2.4"/>
				<path class="st42" d="M321.8,149.7c0,0,2.4-0.8,2.7-2.1"/>
				<path class="st41" d="M54.4,212.7c0,0-3.1,5-2.7,12c0.4,7-0.4,23.2-1.2,27c-0.8,3.7-2.3,33.8-5.2,43.6c0,0-4.7,21.3-5,30
					c-0.3,8.7-1.7,32,7.4,49.2l1.2,2.6l0.6,1.2c0,0,8.4-5.9,35-1.9c0,0,9.5,3.3,32.9-0.6c0,0,8.9-2.3,10.7-1.9
					c1.9,0.5,12.2,3.3,12.2,3.3l4-72.9l-3.7-32.1c0,0,6,3.9,6.9,4.2c0.9,0.4,6.1,3.1,13.8,2.4c0,0,18.4-2.3,33.1-7.9
					c14.7-5.7,24.3-8.6,32.7-16.7c0,0-4.9-11-11.8-18.2l-1.2,0.4l-4.2-9.9L161,238.5c0,0-8,3.1-8.8-3c-0.9-6-1.2-8.7-5.7-14.6
					c-4.6-5.9-7.1-9.6-7.1-9.6l5.3,0.2c0,0-6-1.9-9-11.1c-3-9.2-2.6-7.6-2.6-7.6l-9.4-7.8l-31.8-19.2c0,0-4.4,3.6-6,5.9"/>
				<g>
					<path class="st48" d="M136.9,176.2c0,0-12.8,6.5-17.4,13.4c0,0-12.8-5.1-27.6-23.7c0,0,4.8,0.5,6.4-9.5l1.2-0.2l2.7-2.8l20,0.7
						c0,0,3.3,7.1,4.1,8c0.8,0.9,6,1.9,6.8,4.6C133.8,169.3,136.9,176.2,136.9,176.2z"/>
					<path class="st19" d="M136.9,176.2c0,0-12.8,6.5-17.4,13.4c0,0-12.8-5.1-27.6-23.7c0,0,4.8,0.5,6.4-9.5l1.2-0.2l2.7-2.8l20,0.7
						c0,0,3.3,7.1,4.1,8c0.8,0.9,6,1.9,6.8,4.6C133.8,169.3,136.9,176.2,136.9,176.2z"/>
				</g>
				<g>
					<path class="st42" d="M209.8,226.6c0,0,5.2-1.1,6.9-3c1.7-1.9,1.5-6,4.5-8.3c3-2.3,8.4-2.6,12.6-4.6l4.2-2c0,0-0.3,4-3.3,6.1
						c0,0,4,8,3.9,9.1c-0.1,1.2-4.3,7.5-8.6,10.2c-4.3,2.7-8.2,4.4-8.2,4.4l-3.6-0.1l-4.5-2.1l-0.3-1L209.8,226.6z"/>
					<path class="st43" d="M209.8,226.6c0,0,5.2-1.1,6.9-3c1.7-1.9,1.5-6,4.5-8.3c3-2.3,8.4-2.6,12.6-4.6l4.2-2c0,0-0.3,4-3.3,6.1
						c0,0,4,8,3.9,9.1c-0.1,1.2-4.3,7.5-8.6,10.2c-4.3,2.7-8.2,4.4-8.2,4.4l-3.6-0.1l-4.5-2.1l-0.3-1L209.8,226.6z"/>
				</g>
				<path class="st42" d="M209.8,226.6c0,0,5.2-1.1,6.9-3c1.7-1.9,1.5-6,4.5-8.3c3-2.3,8.4-2.6,12.6-4.6l4.2-2c0,0-0.3,4-3.3,6.1
					c0,0,4,8,3.9,9.1c-0.1,1.2-4.3,7.5-8.6,10.2c-4.3,2.7-8.2,4.4-8.2,4.4l-3.6-0.1l-4.5-2.1l-0.3-1L209.8,226.6z"/>
				<g>
					<path class="st42" d="M91.9,165.9c0,0-5.7,4.9-6,5.9c-0.3,1,10.7,18.7,27.5,32.9l7.7-14.1C121.1,190.5,99.1,177.7,91.9,165.9z"
						/>
					<path class="st24" d="M91.9,165.9c0,0-5.7,4.9-6,5.9c-0.3,1,10.7,18.7,27.5,32.9l7.7-14.1C121.1,190.5,99.1,177.7,91.9,165.9z"
						/>
				</g>
				<path class="st42" d="M91.9,165.9c0,0-5.7,4.9-6,5.9c-0.3,1,15.2,24.4,31.9,38.6l4.6-11l3.7-6
					C126.1,193.4,99.1,177.7,91.9,165.9z"/>
				<g>
					<path class="st42" d="M255.1,218.6c0,0,5.9,3.6,0.6,7.6c0,0,4.8,3.2-0.1,5.6c0,0,1.9,4.4-1.5,6.7c-3.4,2.3-6.6,7.6-17.2,8.4
						c0,0-9,2.2-10.3,5.9c0,0-7.5-12.9-8.9-14.8c0,0,4.1-1.7,6-3.4c1.9-1.7-3.9-11.4,3.5-14.5c7.4-3.1,11-9.5,11-9.5s5.7,1.1,1.6,8
						c0,0,10-2.7,12.5-4.7L255.1,218.6z"/>
					<path class="st43" d="M255.1,218.6c0,0,5.9,3.6,0.6,7.6c0,0,4.8,3.2-0.1,5.6c0,0,1.9,4.4-1.5,6.7c-3.4,2.3-6.6,7.6-17.2,8.4
						c0,0-9,2.2-10.3,5.9c0,0-7.5-12.9-8.9-14.8c0,0,4.1-1.7,6-3.4c1.9-1.7-3.9-11.4,3.5-14.5c7.4-3.1,11-9.5,11-9.5s5.7,1.1,1.6,8
						c0,0,10-2.7,12.5-4.7L255.1,218.6z"/>
				</g>
				<g>
					<path class="st42" d="M255.6,226.2l-8.3,0.6L255.6,226.2z"/>
					<path class="st43" d="M255.6,226.2l-8.3,0.6L255.6,226.2z"/>
				</g>
				<g>
					<path class="st42" d="M255.5,231.8l-7,1.7L255.5,231.8z"/>
					<path class="st43" d="M255.5,231.8l-7,1.7L255.5,231.8z"/>
				</g>
				<g>
					<path class="st42" d="M253.2,214c-3.7,1-10.8-1-7.3-4c1.3-1.1,9.8,1.1,9.8,1.1s4.5,1.8-0.6,7.7l-10.8,5.4L253.2,214z"/>
					<path class="st43" d="M253.2,214c-3.7,1-10.8-1-7.3-4c1.3-1.1,9.8,1.1,9.8,1.1s4.5,1.8-0.6,7.7l-10.8,5.4L253.2,214z"/>
				</g>
				<line class="st42" x1="241.5" y1="184.6" x2="239.8" y2="205.8"/>
				<path class="st42" d="M246.5,184.3c0,0.6-1.3,0.9-2.7,0.8c-1.5-0.1-2.6-0.7-2.6-1.2c0-0.6,1.3-0.9,2.7-0.8
					C245.4,183.2,246.6,183.8,246.5,184.3z"/>
				<path class="st42" d="M242.8,183l2.1-33.5c0,0,1.9-0.9,1.7,0.1c-0.3,1-1.7,33.7-1.7,33.7"/>
				<polyline class="st42" points="245,211.2 245.5,205.9 239,205.6 238.5,210.7 				"/>
				<line class="st42" x1="245" y1="212.3" x2="244.6" y2="217.1"/>
				<path class="st42" d="M241.5,184.6c0,0,1.4,1.5,4.9,0.4l-1.6,20.4l-0.2,0.4"/>
				<path class="st42" d="M213.5,236.8l-3.8-10.2c-0.1,1.2-47.6,11.7-47.6,11.7"/>
				<path class="st42" d="M228.1,218.2c0,0,1.5-0.2,2.7-0.1"/>
				<path class="st42" d="M241,192.4c0,0,2.7,1.1,4.6-0.3"/>
				<g>
					<path class="st42" d="M158.9,256.5l56.2-20.5c0,0,6.9,8.5,9.6,13.6c0,0,2.9,4.2,2.5,5L189,272.7l-20.1,5.1
						c0,0-11.8,1.4-14.8,0.9c-11.8-5.4-8.2-3.5-8.2-3.5s2-20.6,7.6-19.2C159.2,257.2,158.9,256.5,158.9,256.5z"/>
					<path class="st24" d="M158.9,256.5l56.2-20.5c0,0,6.9,8.5,9.6,13.6c0,0,2.9,4.2,2.5,5L189,272.7l-20.1,5.1
						c0,0-11.8,1.4-14.8,0.9c-11.8-5.4-8.2-3.5-8.2-3.5s2-20.6,7.6-19.2C159.2,257.2,158.9,256.5,158.9,256.5z"/>
				</g>
				<path class="st42" d="M209.1,239.4c0,0,9.7,14.5,10.2,21.2"/>
				<line class="st42" x1="203.3" y1="228" x2="209.1" y2="239.4"/>
				<path class="st41" d="M117.8,210.3c7.7,1.6,11.7,0.1,17.4,19.8c1.7,6,16.7,23.3,18.5,23.9"/>
				<g>
					<path class="st41" d="M128.6,95.3c0,0,5.3-21-11.6-21c-17,0-41.1-10.8-50.6,8.4c-9.5,19.2-1.5,19-8.6,26.2
						c-7.1,7.2,18.3,39.3,18.2,42.9c-0.1,3.6,12.8,7.6,12.8,7.6l10.6-3.3l21-41.1l2.1-17.8L128.6,95.3z"/>
					<path class="st49" d="M128.6,95.3c0,0,5.3-21-11.6-21c-17,0-41.1-10.8-50.6,8.4c-9.5,19.2-1.5,19-8.6,26.2
						c-7.1,7.2,18.3,39.3,18.2,42.9c-0.1,3.6,12.8,7.6,12.8,7.6l10.6-3.3l21-41.1l2.1-17.8L128.6,95.3z"/>
				</g>
				<g>
					<path class="st50" d="M122.9,92.3c0,0,13.8,4.9,20,19.6c0,0,0.8,5.3,2.4,6.7c1.6,1.4-0.2,4.8-2.3,7.4c-2.1,2.6,6.3,8,9.8,11.8
						c0,0,6.3,6.1-1.8,8.3c0,0-4.3,0.1-3.8,1.5c0.4,1.4,0.9,2.7,0.9,2.7l1,2.4c0,0-0.9,1.4-5.5,2.5c0,0,6,1.2,4.2,5.1
						c0,0-2.4,2.9-0.9,5.6c1.6,2.7,2.8,13.9-14.5,9.5c-17.3-4.4-27.4-7.7-29.9-11.4c-2.6-3.7-3.1-8-3.1-8s-4.9-1.2-7.8-3.7
						c-2.9-2.5-14.2-17.6-2.7-21.4c0,0,2.9-2.9,10.6,4.7l8-1.1c0,0-7.3-15.4-8.1-17.9c-0.8-2.5,5.5-9.3-1.7-15.5l0,0l15.7-3.9
						l-15.7,3.9l15.7-3.9L122.9,92.3L122.9,92.3z"/>
					<path class="st19" d="M122.9,92.3c0,0,13.8,4.9,20,19.6c0,0,0.8,5.3,2.4,6.7c1.6,1.4-0.2,4.8-2.3,7.4c-2.1,2.6,6.3,8,9.8,11.8
						c0,0,6.3,6.1-1.8,8.3c0,0-4.3,0.1-3.8,1.5c0.4,1.4,0.9,2.7,0.9,2.7l1,2.4c0,0-0.9,1.4-5.5,2.5c0,0,6,1.2,4.2,5.1
						c0,0-2.4,2.9-0.9,5.6c1.6,2.7,2.8,13.9-14.5,9.5c-17.3-4.4-27.4-7.7-29.9-11.4c-2.6-3.7-3.1-8-3.1-8s-4.9-1.2-7.8-3.7
						c-2.9-2.5-14.2-17.6-2.7-21.4c0,0,2.9-2.9,10.6,4.7l8-1.1c0,0-7.3-15.4-8.1-17.9c-0.8-2.5,5.5-9.3-1.7-15.5l0,0l15.7-3.9
						l-15.7,3.9l15.7-3.9L122.9,92.3L122.9,92.3z"/>
				</g>
				<g>
					<path class="st48" d="M132,133.3c-3.6,2,5.1,4.4,12.1,2.6l-0.5-0.2l-1.9-3.5l1.9,3.4l-1.9-3.4
						C140.5,124.5,138.4,129.8,132,133.3z"/>
					<path class="st24" d="M132,133.3c-3.6,2,5.1,4.4,12.1,2.6l-0.5-0.2l-1.9-3.5l1.9,3.4l-1.9-3.4
						C140.5,124.5,138.4,129.8,132,133.3z"/>
				</g>
				<path class="st41" d="M147.4,276.5c0,0-47.8-24.6-58.3-47.6"/>
				<polyline class="st48" points="123.7,185 133.1,192.8 125.6,208.2 120.1,204.9 				"/>
				<path class="st48" d="M133.1,192.8c0,0,3.8,15.8,11.6,18.7c0,0-13.5,0.7-17.9-5.7l5.1-10.6"/>
				<path class="st48" d="M139.3,211.3c5.9,9.8,11.9,12.6,12.4,21.4c0.5,8.1,3.3,7.1,13.3,4.9"/>
				<path class="st41" d="M153.7,254c0,0-1.8,0.5,4.4-1c6.2-1.5,15.7,0.5,24.5-1.8c8.8-2.3,26.5-11.8,26.5-11.8"/>
				<path class="st41" d="M147.4,276.5c0,0,6.3,2.5,9.8,2.6c3.5,0.1,27.8-1.9,62-18.5"/>
				<path class="st41" d="M209.1,239.4l6-3.3c0,0,10.2,13.6,11.8,18.2l-7.7,6.3"/>
				<g>
					<polygon class="st41" points="250.7,220 243.6,224.2 243.2,223 245.8,219 249.2,216.7 255,212.8 254.1,216 					"/>
					<path class="st43" d="M250.7,220l-7.1,4.2l-0.4-1.2l2.6-4l3.3-2.3l5.8-3.9l-0.9,3.2L250.7,220z"/>
				</g>
				<path class="st48" d="M91.9,135.5c0,0-3.5,6.4,6.8,15.7"/>
				<g>
					<path class="st51" d="M142.2,119.6c0,0-11.3,3.3-13,5.3c-1.7,2-1.8,5.7-1.8,5.7s2.2-5.4,6.7-6.3c4.5-0.9,7.9-1.2,9.6-2.5
						C145.5,120.4,142.2,119.6,142.2,119.6z"/>
					<path class="st49" d="M142.2,119.6c0,0-11.3,3.3-13,5.3c-1.7,2-1.8,5.7-1.8,5.7s2.2-5.4,6.7-6.3c4.5-0.9,7.9-1.2,9.6-2.5
						C145.5,120.4,142.2,119.6,142.2,119.6z"/>
				</g>
				<path class="st41" d="M145.2,136.9c0,0-5,2.3-10.6,0.5"/>
				<path class="st41" d="M140.2,114.7c0,0,0.7,3.3-6.7,3.9"/>
				<path class="st41" d="M128,133.9c1.4,0.1,7.2-4.8,9.8-6.2"/>
				<path class="st41" d="M254.7,271.5c0,0,3,1.8,7.1,1.9"/>
				<path class="st48" d="M254.5,275.3c0,0,2.4,1.2,6.4,1.3"/>
				<path class="st41" d="M253.5,279.6c0,0,2.4,1,6.5,1.1"/>
				<g>
					<path class="st52" d="M139.1,131.3c0,0-0.6-4.8,2.5-2.3c0,0,4.6,8.2,0.2,6.8l0,0l-2-0.5l2,0.5l-2-0.5L139.1,131.3L139.1,131.3z
						"/>
					<path class="st49" d="M139.1,131.3c0,0-0.6-4.8,2.5-2.3c0,0,4.6,8.2,0.2,6.8l0,0l-2-0.5l2,0.5l-2-0.5L139.1,131.3L139.1,131.3z
						"/>
				</g>
				<g>
					<path class="st53" d="M141.9,131.4c-0.2-0.2-0.4,0-0.4,0.5c0,0.4,0.2,0.9,0.4,1.1c0.2,0.2,0.4,0,0.4-0.5
						C142.4,132.1,142.2,131.6,141.9,131.4z"/>
					<path class="st24" d="M141.9,131.4c-0.2-0.2-0.4,0-0.4,0.5c0,0.4,0.2,0.9,0.4,1.1c0.2,0.2,0.4,0,0.4-0.5
						C142.4,132.1,142.2,131.6,141.9,131.4z"/>
				</g>
				<path class="st41" d="M141.7,144.1c0,0-0.7,5,5.5,3"/>
				<path class="st48" d="M147.7,160.2c0,0-2.6,2-4.9-0.6"/>
				<path class="st41" d="M100.3,305.2c0,0,13.9,4.2,28.5,2.6"/>
				<path class="st41" d="M98.7,256.1c-8.4,6.2-4.1,24.4-4.1,24.4s-7.4,2.2-3.5,5.6c4,3.4,6.6-0.6,5.9-5.5c0,0-5.7-25.5,12.2-24.1
					c0,0,13.8,1.3,13.2,19.2c0,0-2.8,9.7,0.5,9.8c3.3,0.1,6.6-4.3,2.6-4.8c0,0,0-17-3.8-19.6C114.8,256.1,107.8,249.4,98.7,256.1z"
					/>
				<path class="st41" d="M120.1,204.9c0,0,3.6,6.2,1,5.8"/>
				<path class="st41" d="M124.4,207.6c0,0,0.2,0.8-0.5,3.7"/>
			</g>
		</g>
	</g>
</g>
<g>
	<path class="st54" d="M48.9,23h302.1c14.3,0,26,11.7,26,25.9v302.1c0,14.3-11.7,25.9-26,25.9H48.9C34.7,377,23,365.3,23,351.1V48.9
		C23,34.7,34.7,23,48.9,23z"/>
	<path class="st55" d="M53.3,27.3h293.4c14.3,0,25.9,11.7,25.9,25.9v293.4c0,14.3-11.7,25.9-25.9,25.9H53.3
		c-14.3,0-25.9-11.7-25.9-25.9V53.3C27.3,39,39,27.3,53.3,27.3z"/>
	<g>
		<defs>
			<path id="SVGID_7_" d="M53.3,27.3h293.4c14.3,0,25.9,11.7,25.9,25.9v293.4c0,14.3-11.7,25.9-25.9,25.9H53.3
				c-14.3,0-25.9-11.7-25.9-25.9V53.3C27.3,39,39,27.3,53.3,27.3z"/>
		</defs>
		<clipPath id="SVGID_8_">
			<use xlink:href="#SVGID_7_"  style="overflow:visible;"/>
		</clipPath>
		<g class="st56">
			<g>
				<defs>
					<rect id="SVGID_9_" x="41.4" y="38.4" width="301" height="367.2"/>
				</defs>
				<clipPath id="SVGID_10_">
					<use xlink:href="#SVGID_9_"  style="overflow:visible;"/>
				</clipPath>
				<g style="clip-path:url(#SVGID_10_);">
					
						<image style="overflow:visible;" width="411" height="501" xlink:href="A096CB5.jpg"  transform="matrix(0.7325 0 0 0.7328 41.413 38.4445)">
					</image>
				</g>
			</g>
		</g>
	</g>
</g>
<g>
	<path class="st54" d="M48.9,23h302.1c14.3,0,25.9,11.7,25.9,25.9v302.1c0,14.3-11.7,25.9-25.9,25.9H48.9
		C34.7,377,23,365.3,23,351.1V48.9C23,34.7,34.7,23,48.9,23z"/>
	<path class="st55" d="M53.3,27.3h293.4c14.3,0,26,11.7,26,25.9v293.4c0,14.3-11.7,25.9-26,25.9H53.3c-14.3,0-26-11.7-26-25.9V53.3
		C27.3,39,39,27.3,53.3,27.3z"/>
	<g>
		<defs>
			<path id="SVGID_11_" d="M53.3,27.3h293.4c14.3,0,26,11.7,26,25.9v293.4c0,14.3-11.7,25.9-26,25.9H53.3c-14.3,0-26-11.7-26-25.9
				V53.3C27.3,39,39,27.3,53.3,27.3z"/>
		</defs>
		<clipPath id="SVGID_12_">
			<use xlink:href="#SVGID_11_"  style="overflow:visible;"/>
		</clipPath>
		<g class="st57">
			<g>
				<path class="st43" d="M220.6,305.5c0,0,17,14.5,21.8,18.1c5.3,4,8,5.9,11.1,7.3c3.1,1.3,17.8,8,29.8,16c0,0,7.6,3.6,12.4,1.3
					c0,0,2.7,2.2,0.9,4.9c0,0,1.8,1.8-1.8,2.2c0,0-12.9,0.9-15.1-1.3c-2.2-2.2-34.7-19.6-34.7-19.6l-22.7-15.6l-10.2-8
					C212.1,310.8,219.2,305.1,220.6,305.5z"/>
				<path class="st58" d="M220.6,305.5c0,0,17,14.5,21.8,18.1c5.3,4,8,5.9,11.1,7.3c3.1,1.3,17.8,8,29.8,16c0,0,7.6,3.6,12.4,1.3
					c0,0,2.7,2.2,0.9,4.9c0,0,1.8,1.8-1.8,2.2c0,0-12.9,0.9-15.1-1.3c-2.2-2.2-34.7-19.6-34.7-19.6l-22.7-15.6l-10.2-8
					C212.1,310.8,219.2,305.1,220.6,305.5z"/>
				<path class="st59" d="M289.6,267.3c0,0,3,22.5,4.7,24.9c1.8,2.4-1.8-2.4-1.8-2.4s1.8,7.7-9.2,5.6c-11-2.1-19.3,4.1-19.3,4.1
					s5-4.8,4.3-10.5c-0.7-5.8-10.2-25-10.8-25.9c-0.6-0.9,2.7-6.5,2.7-6.5s16.6-2.4,17.5-2.1c0.9,0.3,13.3,6.5,13.3,6.5
					S289.3,263.4,289.6,267.3z"/>
				<path class="st59" d="M221.9,162.7c0,0-6.3-14.5-10.3-14.6c-3.9-0.1-23.9,6.6-31.1,11.5c-7.1,4.9-8.4,5.8-8,9.8
					c0.4,4,0,32.9,0,32.9s1.8,24-0.4,28.9c0.8,10.8-0.6,22.3,2.1,23.3c0,0,9.7-7.5,26.1-6.7L221.9,162.7z"/>
				<path class="st59" d="M176,245.6c9.2-10.7,24.9-5,24.9-5l-0.7,7.1c-12.1-1.4-26.3,7.1-26.3,7.1c-5.5-7.8,1.4-23.5-2.1-28
					l1.4-59.9c7.1-14.6,38.4-18.9,38.4-18.9c-32.5,5.4-38.4,18.9-38.4,18.9l-1.1,64.2c-0.2,13.3,3,24.8,1.8,23.7
					c4-6.1,26.3-7.1,26.3-7.1l20.3,26.1c-1.8-7.6,5.5-7.9,5.5-7.9c-4.3,11.7,3.4,12.7,3.4,12.7l4.9-1.8c5.3-6.2,22.8,0.6,22.8,0.6
					l2.1-1.5c11.1-5.8,16-27.6,16-27.6c9.3-1.8,28.5,0,28.5,0c13.3-26.7-1.8-59.6-1.8-59.6c-6.7-17.3-11.1-39.1-11.1-39.1
					c-9.8-12.9-29.8-8.9-29.8-8.9l-0.4,1.8c-35.1,28.5-48.5,3.6-48.5,3.6L176,245.6z"/>
				<path class="st60" d="M143.9,216.4c0,0,12.6-4.6,22-5.6c0,0-3.2-13.4-4.4-24.9c-1.2-11.5-4.7-25.3-26.7-23.5
					c0,0-8.5-9.1-14.6-10.3c0,0,5.8,11.4-12.7,11c-23.8-0.6-18.2-11.5-14.6-10.3c0,0-9.4,1.2-10,6c-0.6,4.9,6,13.1,1.2,13.7
					c-4.9,0.6-4.6,9.1-10.1,23.7c-5.9,15.7-3.7,5.9-4.1,7.7c0,0-0.1,2,4.1,4.1c0,0-6.2,4.6,8.1,1.8l-5.7,38.2L143.9,216.4z"/>
				<path class="st46" d="M231.7,66.2c0,0,1.5,5.8-13.4,14.1c0,0,2.1-4,2.4-8.5c0,0-20.9,6.6-20,16.3c0,0-0.5,16.3,0.2,17.5
					c0.7,1.2,0,0,0,0S185.5,92,189.2,84c3.7-8-5.5-34,20.3-37.8c8.4-1.2,19.4-2.7,25.7-1.2c6.2,1.4,18.8,8.9,21.9,25.4
					c1.2,6.1-3,24.4-3,24.4s-2.5-8.1-3.2-11.5c-0.8-3.4-11.5-9.8-10.9-10.8C240.1,72.4,228.6,72.2,231.7,66.2z"/>
				<g>
					<path class="st61" d="M199.2,105.4c8,38.1,40,37.3,48.7,20.9c0,0,6-4.9,6.2-21.2c0,0,2.7,8.5,6.9,0.1c5-10.3-5.2-24.5-6.2-12.2
						c0,0-3.4-6-4.4-11.3c-1-5.3-1.9-13.3-11.1-11.1c0,0-7,2.6-8.4-2.6c0,0,1.9,4.1-12.6,12.3c0,0,2.2-4.5,2.4-8.5
						c0,0-22.6,9.5-21,16.2c0,0,0.1,2.9,0.3,8.4c0.2,5.5-0.5,7.3-0.5,7.3s-6.1-10.3-7.6-0.2c-0.8,5.5,3.6,18.4,10.6,14.7
						L199.2,105.4z"/>
					<path class="st43" d="M199.2,105.4c8,38.1,40,37.3,48.7,20.9c0,0,6-4.9,6.2-21.2c0,0,2.7,8.5,6.9,0.1c5-10.3-5.2-24.5-6.2-12.2
						c0,0-3.4-6-4.4-11.3c-1-5.3-1.9-13.3-11.1-11.1c0,0-7,2.6-8.4-2.6c0,0,1.9,4.1-12.6,12.3c0,0,2.2-4.5,2.4-8.5
						c0,0-22.6,9.5-21,16.2c0,0,0.1,2.9,0.3,8.4c0.2,5.5-0.5,7.3-0.5,7.3s-6.1-10.3-7.6-0.2c-0.8,5.5,3.6,18.4,10.6,14.7
						L199.2,105.4z"/>
				</g>
				<path class="st58" d="M219.4,138.2c0,0-16.4,11.4,3.6,16.4c0,0,12.1,7.8,34.2-8.5"/>
				<line class="st62" x1="202.5" y1="224.7" x2="199.5" y2="186.5"/>
				<path class="st58" d="M205.2,191.5c0,0,2.1-6.4,17.1-6.4"/>
				<path class="st58" d="M200.9,204.3c0,0,11.4-10.7,22.8-9.2"/>
				<path class="st58" d="M257.8,139.6c0,0,31.3,0,33.4,12.1c2.1,12.1,15.7,52.7,15.7,52.7s6.4,29.9-2.8,45.5c0,0-21.3-4.3-29.9,0
					l0.7-7.8c0,0,10.7-6.4,25.6-0.7"/>
				<path class="st58" d="M276.4,234.9c0,0,9.2-10,24.9-1.4"/>
				<path class="st58" d="M277.1,222.8c0,0,0-18.5-2.8-30.6c-2.8-12.1-0.7-24.2-0.7-24.2"/>
				<path class="st58" d="M202.3,224.3c0,0,0,35.6,0,49.8"/>
				<path class="st43" d="M200.2,247.7c0,0,20.2,24.6,25.2,38.1l-9.3,8.9c0,0-7.3-5-39.4-40.6C176.7,254.1,185.3,244.2,200.2,247.7z
					"/>
				<path class="st58" d="M200.2,247.7c0,0,20.2,24.6,25.2,38.1l-9.3,8.9c0,0-7.3-5-39.4-40.6C176.7,254.1,185.3,244.2,200.2,247.7z
					"/>
				<path class="st43" d="M238.9,290.1c0,0-0.7,0.1-12.5,5.3c-5.4,2.4-10.3,7.1-2.1,6l16.5-4.7c0,0,0.6,3.6,3.5,3.6
					c0,0-1.4,3.6,2.8,3.2c0,0,0.7,4.3,4.3,2.5c0,0,14.2-0.4,17.1-17.1c0,0,28.8-27.7,34.1-39.1c0,0-15.1-4.3-28.4,0
					c0,0-5.7,24.2-17.1,27.8c0,0-12.1-4.3-17.8-2.8c-5.7,1.4-10,7.8-14.9,5c0,0,4.3,10.7,13.5,3.6c0,0,5-0.6,5.4,1.2
					C243.7,286.3,242.5,289.1,238.9,290.1z"/>
				<path class="st58" d="M238.9,290.1c0,0-0.7,0.1-12.5,5.3c-5.4,2.4-10.3,7.1-2.1,6l16.5-4.7c0,0,0.6,3.6,3.5,3.6
					c0,0-1.4,3.6,2.8,3.2c0,0,0.7,4.3,4.3,2.5c0,0,14.2-0.4,17.1-17.1c0,0,28.8-27.7,34.1-39.1c0,0-15.1-4.3-28.4,0
					c0,0-5.7,24.2-17.1,27.8c0,0-12.1-4.3-17.8-2.8c-5.7,1.4-10,7.8-14.9,5c0,0,4.3,10.7,13.5,3.6c0,0,5-0.6,5.4,1.2
					C243.7,286.3,242.5,289.1,238.9,290.1z"/>
				<g>
					<path class="st61" d="M240.8,296.8c0,0,5.9-2.1,8.4-6L240.8,296.8z"/>
					<path class="st43" d="M240.8,296.8c0,0,5.9-2.1,8.4-6L240.8,296.8z"/>
				</g>
				<g>
					<path class="st61" d="M244.2,300.4c0,0,8.5-3.2,9.2-6.4L244.2,300.4z"/>
					<path class="st43" d="M244.2,300.4c0,0,8.5-3.2,9.2-6.4L244.2,300.4z"/>
				</g>
				<g>
					<path class="st61" d="M247.1,303.6c0,0,7.1-1.4,11.4-6L247.1,303.6z"/>
					<path class="st43" d="M247.1,303.6c0,0,7.1-1.4,11.4-6L247.1,303.6z"/>
				</g>
				<path class="st63" d="M195.2,316.1c0,0-28.6-17.2-31.5-22.5l-41.7,8.5c0,0,1.2-11.3-4-31.9l45.5-3c0,0,12.1-2.8,18.5,4.6
					c0,0,4.5,5.7,13.4,11L195.2,316.1z"/>
				<path class="st43" d="M112.6,282l51.6-6.9c0,0,12.1-2.8,18.5,4.6c6.5,7.4,51.5,40.6,63.9,50.5c0,0,9.2,7.3,11,8.4l1.8,1.1
					c0,0-2,8.1-7.9,10.2L195.9,324c0,0-28.6-16.7-31.5-22L118,313.9C118,313.9,117.7,302.6,112.6,282z"/>
				<path class="st58" d="M112.6,282l51.6-6.9c0,0,12.1-2.8,18.5,4.6c6.5,7.4,51.5,40.6,63.9,50.5c0,0,9.2,7.3,11,8.4l1.8,1.1
					c0,0-2,8.1-7.9,10.2L195.9,324c0,0-28.6-17.2-31.5-22.5l-24.3,7.2l-23.7,5.2C116.3,313.9,117.7,302.6,112.6,282z"/>
				<path class="st44" d="M117.4,301.2c0,0-2.5-28.5-2-35.8l-37.9-11c0,0-4.2,16.4-6.1,29.3c-2,13.8,1,27.2,12.8,31
					c13.3,4.3,36.9,5.3,36.9,5.3L117.4,301.2z"/>
				<path class="st58" d="M117.4,301.2c0,0-2.5-28.5-2-35.8l-37.9-11c0,0-4.2,16.4-6.1,29.3c-2,13.8,1,27.2,12.8,31
					c13.3,4.3,36.9,5.3,36.9,5.3L117.4,301.2z"/>
				<path class="st64" d="M76.5,203.4l-2-20.6L76.5,203.4z"/>
				<path class="st60" d="M86.1,155.3c0,0-19.2,7.5-20.9,16.5c-1.6,9.1-6.1,51.3-6.1,51.3s26.1,1.1,34-6.1l-4.9-33.7l0.7-17.8
					L86.1,155.3z"/>
				<path class="st60" d="M80.2,236.5l-2.6,17.9l-1.2,7.6c0,0,20.7,7.3,30.4-2.8L80.2,236.5z"/>
				<path class="st60" d="M119.9,263c-8.9,5.4-22.1-6.1-30.9-4.9c-8.7,1.2,0.6-7.4,0.6-7.4s-8.4-14.7,3.5-25.9
					c11.9-11.2,39-20,39-20l15.8,2.9c0,0,0,25.3,3,31.2c0,0-0.3,5-3,9.1c-2.7,4.2,2-0.5,2.7,5.2c0.7,5.7,0.2,13.5,0.2,13.5l-0.5,2
					l-24.9,4.2l-11.6-1.2l-5.4-7.1l0.5-5.2L119.9,263z"/>
				<g>
					<path class="st61" d="M115.9,266.9c0,0-18.4-16.7-29.6-28.4l-0.5-17.7c0,0-13.1,3.7-16.8,2.5v18.2c0,0,10.1,16.3,47.6,39.4
						L115.9,266.9z"/>
					<path class="st43" d="M115.9,266.9c0,0-18.4-16.7-29.6-28.4l-0.5-17.7c0,0-13.1,3.7-16.8,2.5v18.2c0,0,10.1,16.3,47.6,39.4
						L115.9,266.9z"/>
				</g>
				<path class="st58" d="M150.3,238.4c0,0-8.4-12.3-21.2-12.8"/>
				<line class="st58" x1="85.8" y1="220.7" x2="83.3" y2="186.3"/>
				<g>
					<path class="st58" d="M103.7,272.5l-8.8-3L103.7,272.5z"/>
					<path class="st43" d="M103.7,272.5l-8.8-3L103.7,272.5z"/>
				</g>
				<path class="st58" d="M147.8,248c0,0-7.2,12.7-13.8,15.3"/>
				<g>
					<path class="st61" d="M147.2,216.1c0,0,3.6,39.6,10.2,50.3l0.7,1.1c0,0,5.9-0.8,10.6-1c0,0-0.5-46.5-4.8-55.7
						C163.9,210.8,148.2,212.9,147.2,216.1z"/>
					<path class="st43" d="M147.2,216.1c0,0,3.6,39.6,10.2,50.3l0.7,1.1c0,0,5.9-0.8,10.6-1c0,0-0.5-46.5-4.8-55.7
						C163.9,210.8,148.2,212.9,147.2,216.1z"/>
				</g>
				<path class="st58" d="M147.2,216.1c0,0,3.6,39.6,10.2,50.3l0.7,1.1c0,0,5.9-0.8,10.6-1c0,0-0.5-46.5-4.8-55.7
					C163.9,210.8,148.2,212.9,147.2,216.1z"/>
				<g>
					<path class="st61" d="M136.7,306.8c0,0,2.3,4.9-1.6,4.4c0,0-4.1-6-5.8-8.5c-1.8-2.5-9.5-15.3-10.6-19.8c0,0-3-2.9-7.1-5.4
						c0,0,0-2.4,0.9-7.1L136.7,306.8z"/>
					<path class="st43" d="M136.7,306.8c0,0,2.3,4.9-1.6,4.4c0,0-4.1-6-5.8-8.5c-1.8-2.5-9.5-15.3-10.6-19.8c0,0-3-2.9-7.1-5.4
						c0,0,0-2.4,0.9-7.1L136.7,306.8z"/>
				</g>
				<g>
					<path class="st61" d="M114.4,265.3c2.3,2.1,4.7,4.1,10.8,4.7c1.6,0.2,4.7,0,11.4,3.4c0,0,4.5,2.4,7.5,2.9c0,0,2.1,0.4,3.2,0.3
						l2.8-0.3c0,0,2.1,3-1,4.5c0,0-5.3,1.4-7.4,0.1c-2.1-1.3-2.8-0.3-2.8-0.3s-0.9,1.3-0.5,2.9c0.4,1.6,1.7,6.3,2.1,7.6
						c0.5,1.3,1.5,5,2.4,6.3c0.9,1.2,4,7.9,0.6,9.1l-16.8-23.9L114.4,265.3z"/>
					<path class="st43" d="M114.4,265.3c2.3,2.1,4.7,4.1,10.8,4.7c1.6,0.2,4.7,0,11.4,3.4c0,0,4.5,2.4,7.5,2.9c0,0,2.1,0.4,3.2,0.3
						l2.8-0.3c0,0,2.1,3-1,4.5c0,0-5.3,1.4-7.4,0.1c-2.1-1.3-2.8-0.3-2.8-0.3s-0.9,1.3-0.5,2.9c0.4,1.6,1.7,6.3,2.1,7.6
						c0.5,1.3,1.5,5,2.4,6.3c0.9,1.2,4,7.9,0.6,9.1l-16.8-23.9L114.4,265.3z"/>
				</g>
				<g>
					<path class="st58" d="M147.2,216.1l-2.6-21L147.2,216.1z"/>
					<path class="st43" d="M147.2,216.1l-2.6-21L147.2,216.1z"/>
				</g>
				<g>
					<path class="st61" d="M212,331.5c22.9,10.7,31.9,14.9,32.8,20.5c0,0,1.2,3.9,2.2,5.2c1,1.4,1.4,2.5,2.5,3
						c1,0.5,1.5,0.9,1.5,0.9s4.5,1,8.6,1.1c4.1,0.1,9.9,4.1,13.2,6.6c3.3,2.4,7.9,1.2,9,0.9c1.1-0.3,4.5,2.3,7.1,1.3
						c0,0,1.6-1.8-0.5-3.1c0,0,5.1,3.5,6.7,2.3c1.6-1.2,2.4-2.3-0.3-3.1c0,0,6,3.9,6-0.9c0,0,6.2,0.9,5.4-3c0,0,4.1-2.2,0.7-4.2
						c0,0-1.6-0.9-5.7-1.2c-4.1-0.3-8.5-2.8-11.9-4.6c-3.4-1.8-9.2-5.7-15.1-8.9c-5.9-3.2-23-11.1-30.9-16.5L212,331.5z"/>
					<path class="st43" d="M212,331.5c22.9,10.7,31.9,14.9,32.8,20.5c0,0,1.2,3.9,2.2,5.2c1,1.4,1.4,2.5,2.5,3
						c1,0.5,1.5,0.9,1.5,0.9s4.5,1,8.6,1.1c4.1,0.1,9.9,4.1,13.2,6.6c3.3,2.4,7.9,1.2,9,0.9c1.1-0.3,4.5,2.3,7.1,1.3
						c0,0,1.6-1.8-0.5-3.1c0,0,5.1,3.5,6.7,2.3c1.6-1.2,2.4-2.3-0.3-3.1c0,0,6,3.9,6-0.9c0,0,6.2,0.9,5.4-3c0,0,4.1-2.2,0.7-4.2
						c0,0-1.6-0.9-5.7-1.2c-4.1-0.3-8.5-2.8-11.9-4.6c-3.4-1.8-9.2-5.7-15.1-8.9c-5.9-3.2-23-11.1-30.9-16.5L212,331.5z"/>
				</g>
				<g>
					<path class="st61" d="M289.5,368.4c0,0-2.3-1.1-3.1-1.3L289.5,368.4z"/>
					<path class="st43" d="M289.5,368.4c0,0-2.3-1.1-3.1-1.3L289.5,368.4z"/>
				</g>
				<g>
					<path class="st61" d="M295.3,367.3l-4.1-2L295.3,367.3z"/>
					<path class="st43" d="M295.3,367.3l-4.1-2L295.3,367.3z"/>
				</g>
				<g>
					<path class="st61" d="M301.6,366.5c0,0-4.7-2.8-6.2-3.3L301.6,366.5z"/>
					<path class="st43" d="M301.6,366.5c0,0-4.7-2.8-6.2-3.3L301.6,366.5z"/>
				</g>
				<g>
					<path class="st61" d="M306.2,363.4c0,0-5.2-1.6-6.8-1.8L306.2,363.4z"/>
					<path class="st43" d="M306.2,363.4c0,0-5.2-1.6-6.8-1.8L306.2,363.4z"/>
				</g>
				<path class="st58" d="M120.9,152.3c0,0,14.2,7.2,14.4,12.3"/>
				<path class="st58" d="M91.2,160c-2.5-6,0-7.3,0-7.3s-7.1,0.1-7.9,6.1c0,0,4.2,11.8,27.4,10.3"/>
				<path class="st61" d="M126.7,161.2c0,0-0.3,1-3.4,3.6"/>
				<path class="st44" d="M150.3,268.7l-0.1,7.6c0,0-3.6,1-7-0.2c0,0-7.6-3-10.1-4.4L150.3,268.7z"/>
				<path class="st62" d="M150.3,268.7l-0.1,7.6c0,0-3.6,1-7-0.2c0,0-7.6-3-10.1-4.4L150.3,268.7z"/>
				<path class="st58" d="M87.3,311.6c0,0-6.8-24.6,8.9-37.6"/>
				<path class="st58" d="M94.4,270.7c0,0-10.1,3.9-11.6,7.1"/>
				<path class="st43" d="M114.1,266.4c0,0,1.6,0.7,5.9,3c4.3,2.2,6.8,6.2,6.8,6.2l16.6,30.8l-23.1-24.2l-0.3,1.5
					c0,0-3.7-3.7-5.2-4.9c-1.5-1.2-4.6-8.9-4.6-8.9L114.1,266.4z"/>
				<path class="st65" d="M88.8,88.5l-0.6,3.9c0,0,4.3-5.7,6.6-6.8c0,0,3.2,2.9,3.2,4.2c0,0,3.2-4.7,4-5c0,0,3.2,7.8,16.1,9.7
					c0,0-1.8-5.7,0.7-9.7c2.4,36.2,3.8,6.4,9.3,6.5c0,0,1.1-3.1,2.3-6.2c0,0-9.3,11.1,5.8,10.5c0,0,0.3-2.3,0.9-3.1
					c0.6-0.8,3.4-5.9,4,5.9c0.6,11.7,2.2,16.7,2.7,14.6c0.2-1.2-0.6-1.5-0.6-1.5c0.5,1.3,0.8,0.3,1.5-0.3c0,0,3.3-1.8,5.9-8.6
					c0.7-1.8,3-7.9,3-7.9s4.7-9.9-5-22.7c0,0-4.9-7.8-12.3-10.4L88.8,88.5z"/>
				<path class="st65" d="M136.1,61.7c0,0-27.1-16.6-55.1,0.5c0,0,11.2-1.8,12-0.3c0,0-36.3,6.3-14.1,50.2L136.1,61.7z"/>
				<g>
					<path class="st61" d="M80.8,120.5c-4.4,29,28.1,31.8,28.1,31.8s20.7,3.8,28.1-14.7c0,0,3-5.4,4.4-10.8
						c2.5-9.5,2.6-17.2,2.6-17.2l2.4-10.9c0.7-2-2.8-5.6-6-6.8c-4.2-1.6-5.5-4.8-5.5-4.8l-0.3,9.5c0,0-5.3-5.2-5.6-11
						c0,0-5.9,4.8-2.7,8.5c0,0-3.4,0.4-6.2-10.9c0,0-7.4,6.1-4.2,12.1c0,0-7-3.8-9.9-12.8c0,0-3.7,2-3.9,3.8c0,0-2.9-3.1-2.7-5.5
						c0,0-7.2,3.2-8.8,6.6c0,0,0.5-1.6,1.1-3.9c0,0-7.7,8.8-9.4,14l-2,6.5c0,0-1.9-1.8-5.7,2.1c-3.9,3.9-3.4,21.4,5.5,17.5
						L80.8,120.5z"/>
					<path class="st43" d="M80.8,120.5c-4.4,29,28.1,31.8,28.1,31.8s20.7,3.8,28.1-14.7c0,0,3-5.4,4.4-10.8
						c2.5-9.5,2.6-17.2,2.6-17.2l2.4-10.9c0.7-2-2.8-5.6-6-6.8c-4.2-1.6-5.5-4.8-5.5-4.8l-0.3,9.5c0,0-5.3-5.2-5.6-11
						c0,0-5.9,4.8-2.7,8.5c0,0-3.4,0.4-6.2-10.9c0,0-7.4,6.1-4.2,12.1c0,0-7-3.8-9.9-12.8c0,0-3.7,2-3.9,3.8c0,0-2.9-3.1-2.7-5.5
						c0,0-7.2,3.2-8.8,6.6c0,0,0.5-1.6,1.1-3.9c0,0-7.7,8.8-9.4,14l-2,6.5c0,0-1.9-1.8-5.7,2.1c-3.9,3.9-3.4,21.4,5.5,17.5
						L80.8,120.5z"/>
				</g>
				<g>
					<path class="st61" d="M102.2,139.3c0,0,7.9-9.2,24.5-1.1L102.2,139.3z"/>
					<path class="st43" d="M102.2,139.3c0,0,7.9-9.2,24.5-1.1L102.2,139.3z"/>
				</g>
				<path class="st66" d="M108.5,139.9c0,0,3.4-3.7,8-0.3L108.5,139.9z"/>
				<path class="st24" d="M128.8,116.7c0,0-5.3-3.2-0.7-8.2c0,0,3.4-2.1,5-0.4c1.6,1.8,6.9,6.2-1.3,9
					C131.7,117.1,130.2,117.8,128.8,116.7z"/>
				<path class="st62" d="M128.8,116.7c0,0-5.3-3.2-0.7-8.2c0,0,3.4-2.1,5-0.4c1.6,1.8,6.9,6.2-1.3,9
					C131.7,117.1,130.2,117.8,128.8,116.7z"/>
				<path class="st26" d="M131.8,115.6c0,0.8-0.7,1.5-1.5,1.5c-0.8,0-1.5-0.7-1.5-1.5c0-0.8,0.7-1.5,1.5-1.5
					C131.1,114.2,131.8,114.8,131.8,115.6z"/>
				<path class="st61" d="M131.8,115.6c0,0.8-0.7,1.5-1.5,1.5c-0.8,0-1.5-0.7-1.5-1.5c0-0.8,0.7-1.5,1.5-1.5
					C131.1,114.2,131.8,114.8,131.8,115.6z"/>
				<path class="st24" d="M131.1,116.1c0,0.3-0.2,0.5-0.5,0.5c-0.3,0-0.5-0.2-0.5-0.5c0-0.3,0.2-0.5,0.5-0.5
					C130.8,115.5,131.1,115.8,131.1,116.1z"/>
				<path class="st24" d="M100.1,116.5c0,0-9.2-4.1-0.7-8.2c0,0,3.4-2.1,5-0.4c1.6,1.8,4.6,6.7-1.1,8.8
					C103.3,116.8,101.6,117.6,100.1,116.5z"/>
				<path class="st58" d="M100.1,116.5c0,0-9.2-4.1-0.7-8.2c0,0,3.4-2.1,5-0.4c1.6,1.8,4.6,6.7-1.1,8.8
					C103.3,116.8,101.6,117.6,100.1,116.5z"/>
				<path class="st26" d="M103.1,114.8c0,0.8-0.7,1.5-1.5,1.5c-0.8,0-1.5-0.7-1.5-1.5c0-0.8,0.7-1.5,1.5-1.5
					C102.5,113.3,103.1,114,103.1,114.8z"/>
				<path class="st58" d="M103.1,114.8c0,0.8-0.7,1.5-1.5,1.5c-0.8,0-1.5-0.7-1.5-1.5c0-0.8,0.7-1.5,1.5-1.5
					C102.5,113.3,103.1,114,103.1,114.8z"/>
				<path class="st24" d="M102.2,115.4c0,0.3-0.2,0.5-0.5,0.5c-0.3,0-0.5-0.2-0.5-0.5c0-0.3,0.2-0.5,0.5-0.5
					C101.9,114.9,102.2,115.1,102.2,115.4z"/>
				<g>
					<path class="st61" d="M119.2,111.3c0,0-0.4,12.9,1.8,14.2c0,0-3.6,7.1-13.3,1.8L119.2,111.3z"/>
					<path class="st43" d="M119.2,111.3c0,0-0.4,12.9,1.8,14.2c0,0-3.6,7.1-13.3,1.8L119.2,111.3z"/>
				</g>
				<path class="st43" d="M96,111.9c0,0,6.1,2.4,10.7,0c0,0-1.3-4.8-5.1-4.8C101.5,107.2,96.1,108.4,96,111.9z"/>
				<path class="st58" d="M96,111.9c0,0,6.1,2.4,10.7,0c0,0-1.3-4.8-5.1-4.8C101.5,107.2,96.1,108.4,96,111.9z"/>
				<path class="st43" d="M126.3,111.6c0,0,4,3.6,9.7,0.7c0,0-2.3-4.6-4.8-4.8C131.2,107.5,126.6,108.1,126.3,111.6z"/>
				<path class="st58" d="M126.3,111.6c0,0,4,3.6,9.7,0.7c0,0-2.3-4.6-4.8-4.8C131.2,107.5,126.6,108.1,126.3,111.6z"/>
				<path class="st58" d="M94.3,110.1c0,0-1,5.2,4.3,7.2c0.2,0.1,0.4,0.1,0.6,0.2"/>
				<path class="st58" d="M127.2,117.5c0,0,4,3.7,8.9-1.3"/>
				<path class="st58" d="M100,112.7c0,0,2.5-1.6,1.9-3.3"/>
				<path class="st58" d="M101.9,113.1c0,0,2.3-0.9,2.5-2.2"/>
				<path class="st58" d="M132.5,113c0,0,1.5-1,1.2-2.1"/>
				<path class="st58" d="M130.1,113.1c0,0,2.7-1.3,2.2-3"/>
				<path class="st58" d="M135.1,104.5c0,0-6.8-3.6-11-2.1"/>
				<path class="st58" d="M105.4,102.4c0,0-5.3-3.9-11.6-1.2"/>
				<path class="st67" d="M181.9,314.6c0,0,13.6-7.4,16-21.9l14.5,11.9c0,0-9.5,15.4-17.2,19L181.9,314.6z"/>
				<g>
					<path class="st61" d="M213.3,296.8l7.1,4.1c0,0,4.1,2.4-3.6,5.9L213.3,296.8z"/>
					<path class="st24" d="M213.3,296.8l7.1,4.1c0,0,4.1,2.4-3.6,5.9L213.3,296.8z"/>
				</g>
				<path class="st58" d="M211.6,148.1c0,0-33.7,6.6-37.7,17.3c-4,10.7,0,42.2-0.9,63.1c-0.9,20.9-3.1,24.6,3.8,25.6"/>
				<g>
					<path class="st61" d="M197.9,292.7c0,0-6-3.9-1.8-13.5c4.2-9.6-2.9-14.4-2.9-14.4s7.3,0,7.6,6c0.2,6,0,14.2,2.9,16.2
						c2.9,2-1,7.5,6.2,6.9c5.6-0.4,3,5,12.9-8.2c3.1-4.2-6.2-13.7-1.5-17.9c0,0,3-2.4,4.7-1.8c1.8,0.6,1.7,5.1,10,13.1
						c8.3,8-9.4,18.3-20.6,17.4c-11.3-0.9-4.4,5.9-4.4,5.9L197.9,292.7z"/>
					<path class="st24" d="M197.9,292.7c0,0-6-3.9-1.8-13.5c4.2-9.6-2.9-14.4-2.9-14.4s7.3,0,7.6,6c0.2,6,0,14.2,2.9,16.2
						c2.9,2-1,7.5,6.2,6.9c5.6-0.4,3,5,12.9-8.2c3.1-4.2-6.2-13.7-1.5-17.9c0,0,3-2.4,4.7-1.8c1.8,0.6,1.7,5.1,10,13.1
						c8.3,8-9.4,18.3-20.6,17.4c-11.3-0.9-4.4,5.9-4.4,5.9L197.9,292.7z"/>
				</g>
				<path class="st62" d="M195.2,106c0,0,3.8,0.7,4.9,4.2"/>
				<path class="st62" d="M257.7,102.2c0,0-1.3-5.3,1.6-6.4"/>
				<path class="st62" d="M253.9,142.7l-3.3-4.7c-2.7-3-2.7-11.6-2.7-11.6"/>
				<g>
					<path class="st61" d="M89.4,145.4c0,0,2.9,3.5,1.4,7.2L89.4,145.4z"/>
					<path class="st68" d="M89.4,145.4c0,0,2.9,3.5,1.4,7.2L89.4,145.4z"/>
				</g>
				<path class="st43" d="M212.1,286.8c0,0-4.9-1.3-3.6,5.3c0,0,3.6,7.6,8.9,6.7c0,0,4.9-0.9,1.8-4
					C216.1,291.7,211.2,289.9,212.1,286.8z"/>
				<path class="st58" d="M212.1,286.8c0,0-4.9-1.3-3.6,5.3c0,0,3.6,7.6,8.9,6.7c0,0,4.9-0.9,1.8-4
					C216.1,291.7,211.2,289.9,212.1,286.8z"/>
				<path class="st43" d="M215.2,282.4c0,0-4.9-1.3-3.6,5.3c0,0,3.6,7.6,8.9,6.7c0,0,4.9-0.9,1.8-4
					C219.2,287.3,214.4,285.5,215.2,282.4z"/>
				<path class="st58" d="M215.2,282.4c0,0-4.9-1.3-3.6,5.3c0,0,3.6,7.6,8.9,6.7c0,0,4.9-0.9,1.8-4
					C219.2,287.3,214.4,285.5,215.2,282.4z"/>
				<path class="st43" d="M220.1,279.3c0,0-4.9-1.3-3.6,5.3c0,0,3.6,7.6,8.9,6.7c0,0,4.9-0.9,1.8-4
					C224.1,284.2,221.9,281.7,220.1,279.3z"/>
				<path class="st58" d="M220.1,279.3c0,0-4.9-1.3-3.6,5.3c0,0,3.6,7.6,8.9,6.7c0,0,4.9-0.9,1.8-4
					C224.1,284.2,221.9,281.7,220.1,279.3z"/>
				<path class="st58" d="M289.6,267.3c0,0,2.4,20.4,3.3,21.3c0.9,0.9,1.5,8-9.5,6.8c-11-1.2-15.7,2.1-17.8,3.6"/>
				<path class="st58" d="M277.5,233.2c0,0,2.1-6.5-1.2-11.3c-3.3-4.7-2.4-9.8-3.3-13"/>
				<path class="st58" d="M202.2,245c0,0-3.9-4.7-18.7-2.4"/>
				<path class="st58" d="M78.8,107c0,0-3.8,5.8-1.8,11.6"/>
				<path class="st24" d="M205.5,103.4c0,0,2.7-5.9,12-3.1c0,0-0.9,4.2-7.9,4.2L205.5,103.4z"/>
				<path class="st62" d="M205.5,103.4c0,0,2.7-5.9,12-3.1c0,0-0.9,4.2-7.9,4.2L205.5,103.4z"/>
				<path class="st24" d="M227.8,99.1c0,0,2.2-6,11.5-3.3c0,0-0.6,4.3-7.4,4.3L227.8,99.1z"/>
				<path class="st62" d="M227.8,99.1c0,0,2.2-6,11.5-3.3c0,0-0.6,4.3-7.4,4.3L227.8,99.1z"/>
				<path class="st69" d="M213.2,102.8c0,1-0.7,1.7-1.7,1.7c-0.9,0-1.7-0.8-1.7-1.7c0-1,0.7-1.7,1.7-1.7
					C212.5,101,213.2,101.8,213.2,102.8z"/>
				<path class="st26" d="M235.8,97.7c0,1.2-1,2.2-2.2,2.2s-2.2-1-2.2-2.2c0-1.2,1-2.2,2.2-2.2S235.8,96.4,235.8,97.7z"/>
				<path class="st24" d="M234.2,98.8c0,0.4-0.3,0.7-0.7,0.7c-0.4,0-0.7-0.3-0.7-0.7c0-0.4,0.3-0.7,0.7-0.7
					C233.9,98.1,234.2,98.4,234.2,98.8z"/>
				<circle class="st24" cx="211.4" cy="103.4" r="0.7"/>
				<path class="st62" d="M220.2,119.3c0,0,14.3,4.9,20.3-8.5"/>
				<path class="st62" d="M224,112.6c0,0,4.7,2.1,6.6-1.2"/>
				<path class="st62" d="M218.6,98.1c0,0-8.2-2.7-13.6,2.7"/>
				<path class="st62" d="M227,95.4c0,0,4.9-4.9,12.2-1.1"/>
				<path class="st62" d="M229,121.2c0,0,3.3,2.7,6.9-2.7"/>
				<path class="st43" d="M206.7,102.8c0,0,6.7-0.7,10.2-2.4C216.8,100.3,208.4,97.8,206.7,102.8z"/>
				<path class="st62" d="M206.7,102.8c0,0,6.7-0.7,10.2-2.4C216.8,100.3,208.4,97.8,206.7,102.8z"/>
				<path class="st43" d="M228.2,98.7c0,0,7.4-1.1,10.8-2.9C239,95.9,230,93.7,228.2,98.7z"/>
				<path class="st62" d="M228.2,98.7c0,0,7.4-1.1,10.8-2.9C239,95.9,230,93.7,228.2,98.7z"/>
				<path class="st63" d="M296.6,353.1c0,0-2.2,0.7-4.4,0.3L296.6,353.1z"/>
				<path class="st43" d="M90.2,145.7c0,0,2.7,6.1-0.1,7.4c0,0-4.9,5.4,4.7,8.3c9.6,2.9,23.8,3.9,26-4.6c0,0,0.1-3.3-0.7-4.3
					c-0.8-1,0-0.5,0-0.5S100.2,153.9,90.2,145.7z"/>
				<path class="st58" d="M90.2,145.7c0,0,2.7,6.1-0.1,7.4c0,0-4.9,5.4,4.7,8.3c9.6,2.9,23.8,3.9,26-4.6c0,0,0.1-3.3-0.7-4.3
					c-0.8-1,0-0.5,0-0.5S100.2,153.9,90.2,145.7z"/>
				<g>
					<path class="st58" d="M247.3,128.4c0,0-7,13.3-26.7,7.1c-0.2-0.1-0.4-0.1-0.6-0.2c0,0,3.9,2.8-0.6,10.2c-0.1,0.2,0,0.9-0.1,1
						c0,0,10.9,20.7,38.6-7.1c0,0,0.3-3.7-8.2-1.5L247.3,128.4z"/>
					<path class="st43" d="M247.3,128.4c0,0-7,13.3-26.7,7.1c-0.2-0.1-0.4-0.1-0.6-0.2c0,0,3.9,2.8-0.6,10.2c-0.1,0.2,0,0.9-0.1,1
						c0,0,10.9,20.7,38.6-7.1c0,0,0.3-3.7-8.2-1.5L247.3,128.4z"/>
				</g>
				<path class="st62" d="M214.9,92.1c0,0-9-0.6-11.1,2.3"/>
				<path class="st62" d="M227.1,90.3c0,0,5.9-5,11.6-1.8"/>
				<path class="st60" d="M147.4,249.5c0,0,3.6-0.3,3.1,3.7c-0.5,4,0.7,13.8,3.4,14.1c0,0-5.3,1.2-10.4,1.2c-5,0-7.1-1.5-7.1-1.5
					S147.4,253.3,147.4,249.5z"/>
				<path class="st58" d="M147.4,249.5c0,0,3-0.4,3,2.6c0,3,0,13.3,3.6,15.2"/>
				<g>
					<path class="st61" d="M119.4,312.8c0,0,3.1,17.1,5.1-0.4l-0.4-1.1L119.4,312.8z"/>
					<path class="st43" d="M119.4,312.8c0,0,3.1,17.1,5.1-0.4l-0.4-1.1L119.4,312.8z"/>
				</g>
				<path class="st58" d="M119.8,312.7c0,0,2.8,17.2,4.8-0.3l-0.1-0.3L119.8,312.7z"/>
				<g>
					<path class="st61" d="M292.9,288.6h56.2H292.9z"/>
					<path class="st24" d="M292.9,288.6h56.2H292.9z"/>
				</g>
				<polygon class="st61" points="323.3,288.4 323.3,264.4 342,264.4 342,288 				"/>
				<path class="st58" d="M83.4,156.5c0,0-15.3,7.3-17.6,13.5c-2.4,6.2-6.6,53.2-6.6,53.2s9.1,0.2,16,0.2"/>
				<polyline class="st5" points="323.3,264.4 327.1,262 346.5,262.2 342,264.4 				"/>
				<polyline class="st5" points="342,288 346,287.6 346,262.6 				"/>
				<path class="st26" d="M338.2,263c0,0.3-1.5,0.5-3.3,0.5c-1.8,0-3.3-0.2-3.3-0.5c0-0.3,1.5-0.5,3.3-0.5
					C336.7,262.5,338.2,262.7,338.2,263z"/>
				<path class="st5" d="M338.2,263c0,0.3-1.5,0.5-3.3,0.5c-1.8,0-3.3-0.2-3.3-0.5c0-0.3,1.5-0.5,3.3-0.5
					C336.7,262.5,338.2,262.7,338.2,263z"/>
				<g>
					<path class="st70" d="M123,320.2H71.9H123z"/>
					<path class="st3" d="M123,320.2H71.9H123z"/>
				</g>
				<path class="st43" d="M107,127.6c0,0,1.1-1,2.7-0.5c1.6,0.5,12.3-16.4,9.4-20.2c-2.9-3.8-7.8,5.3-7.8,5.3l-5.9,12.5L107,127.6z"
					/>
				<path class="st43" d="M100.7,141.6c0,0,1.4-5.2,17.7-4.7c0,0,14,0.5,10.8,4.9c0,0-14.5,3.8-21.5,2.9
					C100.7,143.8,100.7,141.6,100.7,141.6z"/>
				<path class="st71" d="M109.5,139c0,0,6.3-2.2,10.2-0.4"/>
				<path class="st43" d="M244.4,328.5c0,0-3.5-2.3-7.6-3.9c-4.1-1.6-21.9-0.2-21.9-0.2l-6.2,3.2c0,0,1.4,5,21.7,9.6l12.3-1.6
					L244.4,328.5z"/>
				<line class="st39" x1="141.2" y1="307.9" x2="130.5" y2="290.6"/>
				<path class="st39" d="M143.4,306.5c0,0-7.1-15.7-9.8-19.4"/>
				<path class="st43" d="M124.4,290.8c0,0-9.5-11.3-1.9-10.1c7.6,1.1,0.6-0.1,0.6-0.1s5.9,12.7,6.2,13.4c0.3,0.7-2.5,2.7-3.1,1.6
					C125.7,294.4,124.4,290.8,124.4,290.8z"/>
				<path class="st39" d="M137.1,307.9c0,0,2.5,3.6,4.3,0.4"/>
				<path class="st43" d="M141.2,307.9c0,0,0.9,0.5,1.6,0.1c0.4-0.2,0.9-0.5,0.3-2c0,0-1.6-1-1.6-0.1
					C141.5,306.8,141.2,307.9,141.2,307.9z"/>
				<path class="st43" d="M137.1,307c0,0,0.8,2.8,2,2.6c1.2-0.2,2.8-0.8,1-2.9l-1.4-0.6L137.1,307z"/>
				<path class="st43" d="M105.8,272.3c0,0.7,9.3,7,12.3,8.9c3.1,1.9,0.4-6.1,0.4-6.1l-7.1-4.9L105.8,272.3z"/>
				<path class="st72" d="M135.2,162.3c0,0,13.1-1.2,19.7,5.7c0,0,4.4,4.8,5.4,10.8c1,6.1,2.7,19.9,3.8,23.5c1,3.6,1.6,8.4,1.6,8.4
					l-1.2,0.2"/>
			</g>
		</g>
	</g>
</g>
</svg>
