<?xml version="1.0" encoding="utf-8"?>
<!-- Generator: Adobe Illustrator 22.0.1, SVG Export Plug-In . SVG Version: 6.00 Build 0)  -->
<svg version="1.1" id="Layer_1" xmlns="http://www.w3.org/2000/svg" xmlns:xlink="http://www.w3.org/1999/xlink" x="0px" y="0px"
	 viewBox="0 0 512 512" style="enable-background:new 0 0 512 512;" xml:space="preserve">
<style type="text/css">
	.st0{fill:#F58C46;}
	.st1{fill:#EBA34B;}
	.st2{fill:#EBC9A0;}
	.st3{fill:#4B3F4E;}
	.st4{fill:#D99365;}
	.st5{fill:#6E4848;}
	.st6{fill:#747B81;}
	.st7{fill:#C5D2D8;}
	.st8{fill:#97ABB1;}
	.st9{fill:#495259;}
	.st10{fill:#E2181B;}
	.st11{fill:#B81328;}
	.st12{fill:#B0BDC3;}
	.st13{fill:#8D9BA0;}
</style>
<path class="st0" d="M365.7,132.1c-2.4-1.7-5.5,1.2-3.9,3.7c13.5,20.9,38.8,70.2-5.1,97.1l13.8,25.6c12.8-8,35-26.9,35-55.4
	C405.5,179.4,389.9,149.1,365.7,132.1z"/>
<path class="st1" d="M381.7,332.6c-5.7-7.8-8.7-17.2-8.7-26.8v-36.3c0-30.1-22.8-55.3-52.7-58.3l-134.1-12.7
	c-7.4-0.7-14.1-4.5-18.5-10.5l-5.9-8.1l-0.7-0.5c2.6-8.9,1.3-19.5-2.4-27.2c-6.2-12.8-28.3-39.8-50.4-39.8H90.8
	c-9.9,0-19.5,3.8-26.8,10.6l-16.4,15.4L6.9,149.9c-3.3,0.9-5.3,4.2-4.7,7.5L4.7,169c1.1,5.6,5.7,9.8,11.2,10.5l1.4,8.5
	c0.9,4.8,4.4,8.7,9.1,10.1c9.6,3,27.1,7.3,46.5,7.1c3.2,0,5.8,2.3,6,5.4c0.4,8.9,2,22.6,6.9,38.2l7.1,19.5
	c5.2,12.5,12.4,27.2,22,43.4c30.5,51.4,30.5,100,30.5,100l-18.8,9.4c-4.4,2.2-7.2,6.7-7.2,11.6v5c0,3.6,2.9,6.5,6.5,6.5h33.6
	c6.8,0,12.4-5.2,13-11.9l8.4-101.8c34.7,9.6,91.7,2.9,119.1-10.4c27.9,39.2,66.7,47.2,66.7,47.2v44.5l-24.4,9.7
	c-4.9,2-8.2,6.8-8.2,12.1v4.2c0,3.6,2.9,6.5,6.5,6.5h34.3c6.4,0,11.9-4.7,12.9-11.1l11-74.1c0.2-1.7-0.2-3.4-1.2-4.8L381.7,332.6z"
	/>
<path class="st2" d="M85.7,248.7l7.1,19.5c5.2,12.5,12.4,27.2,22,43.4c5,8.5,9.2,16.9,12.7,25c-5.1-21.4-13.1-45.9-17.6-60.4
	c-9.8-31.7-7-66.7-7.7-81.3c-0.8-17.5-22-16.9-27.9-15.3l-57.3,6l0.4,2.3c0.9,4.8,4.4,8.7,9.1,10.1c9.6,3,27.1,7.3,46.5,7.1
	c3.2,0,5.8,2.3,6,5.4C79.3,219.4,80.9,233.1,85.7,248.7z"/>
<path class="st0" d="M158.7,152.3c-4.2-8.6-15.6-23.8-29.4-32.7c-9.8-6.3-23-1.9-27,9.1l-0.1,0.2c-1.8,4.9-1.1,10.2,1.1,14.9
	c8.1,16.8,4.7,49.2,30.9,52C163.7,199,166.6,168.8,158.7,152.3z"/>
<path class="st3" d="M73.8,151.5c-3.6,0-6.5-2.9-6.5-6.5c0-3.6,2.9-6.5,6.5-6.5h0.1c3.6,0,6.5,2.9,6.5,6.5
	C80.3,148.6,77.4,151.5,73.8,151.5z"/>
<path class="st2" d="M299.8,320.1c-3.4-5.4-6.1-10.8-8-15.1c-2.1-4.8-7.3-7.5-12.4-6.4c-30.7,6.7-62.9,2.2-81.3-1.7
	c-8.1-1.7-15.8,4.2-16.2,12.5l-1.1,21.2C215.5,340.1,272.4,333.3,299.8,320.1z"/>
<path class="st4" d="M70,172.7c-10.6,2.8-29.5,5.2-54,6.8l1.4,8.5c0.3,1.6,1,3,1.8,4.4c0.2,0,0.5,0,0.7,0c19.3-1.3,40.3-3.5,53.5-7
	c3.5-0.9,5.5-4.5,4.6-8C77.1,173.8,73.5,171.7,70,172.7z"/>
<path class="st3" d="M6,181.3l2,9.6c0.4,0,0.9,0.1,1.3,0.1c6.3,0,11.5-4.8,11.5-10.7c0-3.3-1.6-6.1-4.1-8.1l-6.2,1.7
	C7.4,174.8,5.4,178,6,181.3z"/>
<path class="st5" d="M85.8,255.4c-2.8,0-5.2-2.1-5.8-5.1c-0.7-3.5,1.4-7,4.7-7.7c0.5-0.1,46.1-11.1,84.7-54.1
	c2.3-2.6,6.2-2.7,8.6-0.2c2.4,2.5,2.5,6.6,0.2,9.2c-41.3,46-88.9,57.4-90.9,57.9C86.7,255.4,86.3,255.4,85.8,255.4z"/>
<path class="st0" d="M83.5,279.4L83.5,279.4c-5.4,0-9.8-4.4-9.8-9.8v-6.5c0-5.4,4.4-9.8,9.8-9.8l0,0c5.4,0,9.8,4.4,9.8,9.8v6.5
	C93.2,275.1,88.9,279.4,83.5,279.4z"/>
<g>
	<path class="st6" d="M398.9,184.9l-48,45.2l44.3-48.8c0.9-1,2.6-1.1,3.6-0.2c1,0.9,1.1,2.6,0.2,3.6
		C399,184.8,398.9,184.9,398.9,184.9z"/>
	<path class="st7" d="M397.3,175l-8.5,8.7c-2.1,2.2-2.1,5.7,0.1,7.8l0,0c2.2,2.1,5.7,2.1,7.8-0.1l8.5-8.7"/>
	<path class="st8" d="M388.8,191.5c0.5,0.5,1.1,0.9,1.8,1.2c-0.9-2-0.5-4.4,1.1-6.1l8.5-8.7l-3-3l-8.5,8.7
		C386.6,185.9,386.7,189.4,388.8,191.5z"/>
	
		<rect x="469.1" y="85" transform="matrix(0.7003 -0.7138 0.7138 0.7003 79.0954 374.4252)" class="st6" width="32.8" height="15.9"/>
	<g>
		
			<rect x="472.4" y="93" transform="matrix(0.7003 -0.7138 0.7138 0.7003 71.1049 371.2476)" class="st9" width="10.6" height="15.9"/>
		
			<rect x="466.3" y="86.2" transform="matrix(0.7003 -0.7138 0.7138 0.7003 80.2335 371.5612)" class="st9" width="32.8" height="8"/>
	</g>
	<path class="st8" d="M396.8,157.6l64.3-65.5l25.8,25.3l-64.3,65.5c-7,7.1-18.4,7.2-25.5,0.2l0,0C390,176.2,389.9,164.7,396.8,157.6
		z"/>
	<polyline class="st7" points="443.4,141 442.5,136.8 470.4,108.4 483.3,121 455.4,149.4 451.2,148.6 	"/>
	<path class="st10" d="M385.9,168.8l43.8-44.6l25.8,25.3L411.7,194c-0.9,1-2.5,1-3.4,0l-22.3-21.9
		C385,171.2,384.9,169.7,385.9,168.8z"/>
	<path class="st11" d="M385.9,168.8l42.1-42.9l7.4,7.2l-43.8,44.6l-5.6-5.5C385,171.2,384.9,169.7,385.9,168.8z"/>
	<path class="st12" d="M448.1,82.9l3.6-3.7c0.9-1,2.5-1,3.4,0l44.7,43.8c1,0.9,1,2.5,0,3.4l-3.6,3.7c-0.9,1-2.5,1-3.4,0l-44.7-43.8
		C447.2,85.4,447.2,83.9,448.1,82.9z"/>
	<path class="st13" d="M448.1,82.9l3.6-3.7c0.9-1,2.5-1,3.4,0l18.4,18.1l-7,7.1l-18.4-18.1C447.2,85.4,447.2,83.9,448.1,82.9z"/>
	
		<rect x="442.5" y="112.1" transform="matrix(0.7003 -0.7138 0.7138 0.7003 51.797 363.5725)" class="st9" width="32.8" height="15.9"/>
	<g>
		
			<rect x="445.4" y="118.9" transform="matrix(0.7003 -0.7138 0.7138 0.7003 50.6591 366.4354)" class="st6" width="32.8" height="8"/>
		
			<rect x="439.5" y="117.1" transform="matrix(0.7003 -0.7138 0.7138 0.7003 36.6314 357.5382)" class="st6" width="9.4" height="36.1"/>
	</g>
	<polygon class="st9" points="435.3,133.1 441.8,126.2 434.6,119.2 428,125.8 	"/>
	<path class="st6" d="M484.1,71l2.7-2.7c1.1-1.1,3-1.2,4.1,0l19.2,18.9c1.1,1.1,1.2,3,0,4.1l-2.7,2.7c-1.1,1.1-3,1.2-4.1,0
		l-19.2-18.9C483,74,483,72.2,484.1,71z"/>
	<path class="st9" d="M484.2,75.1l4.8,4.7c-1.1-1.1-1.2-3,0-4.1l2.7-2.7c1.1-1.1,3-1.2,4.1,0l-4.8-4.7c-1.1-1.1-3-1.1-4.1,0
		l-2.7,2.7C483,72.2,483,74,484.2,75.1z"/>
</g>
</svg>
