<?xml version="1.0" encoding="utf-8"?>
<!-- Generator: Adobe Illustrator 22.0.1, SVG Export Plug-In . SVG Version: 6.00 Build 0)  -->
<svg version="1.1" id="Layer_1" xmlns="http://www.w3.org/2000/svg" xmlns:xlink="http://www.w3.org/1999/xlink" x="0px" y="0px"
	 viewBox="0 0 200 200" style="enable-background:new 0 0 200 200;" xml:space="preserve">
<style type="text/css">
	.st0{fill:#B72133;}
	.st1{fill:#BCBCBC;}
</style>
<path d="M-410.9,46.8c10.8-2.5,20.6-6.6,27.3-16c0.6-0.8,3.3-1.2,4.1-0.6c2.7,2.2,5.9,4.5,7.1,7.6c7.8,18.7,15.1,37.5,22.5,56.4
	c3.3,8.3,0.2,14.6-8.6,17.1c-12.5,3.5-25.1,6.9-37.7,10.1c-6.2,1.6-12.2-1.8-14-7.4c-2.1-6.5,0.9-12.9,7.5-14.9
	c8.6-2.6,17.3-4.8,26.6-7.3c-1.5-3.9-2.7-7.3-4-10.8c-0.3,0-0.6,0.1-0.9,0.1c0,3.2,0,6.4,0,10.1c-6.8,1.8-13.3,3.6-19.7,5.4
	c-8.8,2.4-13.4,9-11.5,16.8c1.8,7.5,9.4,11.5,18,9.3c4.2-1,8.4-2.2,14.3-3.7c0,18.8-0.4,36.9,0.1,54.9c0.8,33.3,2.1,66.5,3.3,99.8
	c0.2,6.2-0.1,12.2-5.3,16.5c-4.5,3.8-9.9,4.6-15.3,2.3c-5.9-2.4-8.8-7.3-9.3-13.6c-1-13.4-1.9-26.8-2.9-40.2
	c-1.5-20.2-3-40.3-5.6-60.6c-0.7,9.1-1.5,18.2-2.1,27.3c-1.7,24.6-3.3,49.2-5,73.8c-0.6,8.9-7,14.7-15.4,14.4
	c-8.2-0.3-14.5-6.4-14.2-14.8c1.6-52.5,3.3-105,5.1-158.2c4.9,0.8,9.7,1.7,14.5,2.5c8,1.3,14.5-3,16-10.8c1.4-7-3.3-13.8-10.9-15.5
	c-6-1.4-12.1-2.5-18.2-3.7c-0.3-0.1-0.6-0.5-1.2-0.9c0-5.7,0-11.6,0-17.5c-0.4-0.1-0.7-0.2-1.1-0.4c-2.8,6-5.5,12-8.6,18.7
	c9.8,2,18.9,3.8,28.1,5.6c7.4,1.5,11.6,7.1,10.3,13.6c-1.4,7-7.5,10.7-15.1,9.2c-13.6-2.6-27.1-5.2-40.7-7.8
	c-10-1.9-13.8-9-9.6-18.1c8.8-19.1,17.6-38.2,26.5-57.3c1.1-2.3,2.5-4.7,4.3-6.3c3-2.6,5.9-3.3,9.1,0.7c4.4,5.5,9.6,10.2,17.2,11.1
	C-420.9,44.6-415.9,45.7-410.9,46.8z"/>
<path d="M-410.9,46.8c-5-1.1-10-2.2-15-3.2c-13.4-6.4-21.6-16.4-21.8-31.7c-0.3-18,13.6-30.9,27.3-33.3c18.6-3.3,35.5,9.3,39,25.7
	c3.6,16.8-5.8,33.7-22.1,39.3C-406,44.4-408.4,45.7-410.9,46.8z"/>
<path class="st0" d="M-456.4,153c-4.2,7.6-8.5,15-12.7,22.4c-0.1,0-0.1,0-0.2,0c0.3-1.7,0.6-3.4,0.8-5.1c0.6-3.6,1.2-7.2,1.8-10.7
	c0.1-0.6,0.1-0.9-0.6-0.6c-2.4,0.6-4.7,1.3-7.1,1.8c-0.3,0.1-0.5,0.1-0.9,0.2c4.7-7.8,9.3-15.4,13.8-23c0.1,0,0.1,0,0.2,0.1
	c-0.4,2-0.8,4-1.2,6c-0.6,3.1-1.3,6.4-2,9.5c-0.1,0.6-0.1,0.8,0.6,0.6c2.1-0.5,4.2-0.8,6.4-1.2C-457.2,153.1-456.9,153.1-456.4,153z
	"/>
<path class="st0" d="M-477.9,134.4c-3.6,4.2-7.2,8.3-10.8,12.6c2.7,0.9,5.2,1.8,7.8,2.9c-7.4,4.4-14.6,8.8-21.9,13.2l-0.1-0.1
	c3.5-4.3,6.9-8.7,10.5-13c-3-0.8-5.8-1.6-8.9-2.4C-493.3,143.1-485.6,138.8-477.9,134.4C-478,134.4-477.9,134.4-477.9,134.4z"/>
<path class="st0" d="M-490.2,117.3c1.8,2.2,3.4,4.3,5.3,6.6c-8.6-0.1-17-0.2-25.4-0.3c0-0.1,0-0.1-0.1-0.2
	c5.2-1.8,10.3-3.7,15.6-5.6c-2.1-2.2-4.2-4.4-6.3-6.7c9,0.4,17.6,0.7,26.4,1.1c0,0.1,0,0.1,0,0.2C-479.8,114-485,115.6-490.2,117.3z
	"/>
<g>
	<path class="st1" d="M94.2,200c-0.3-0.1-0.6-0.3-0.9-0.4c-7.8-2-12.2-8.9-10.6-16.7c3.3-16.4,6.7-32.7,10.1-49.1
		c0.2-1.1,0.1-1.7-0.8-2.5c-13.1-10.9-26.1-21.8-39.1-32.7c-2.9-2.4-6.2-4.5-9.1-7c-4.9-4.3-7.9-9.6-7.7-16.4
		c0.2-4.2,1.3-8.1,3.4-11.7c7.2-12.3,15.5-23.7,26.4-33c6.4-5.4,12.8-10.7,20.3-14.5c8.6-4.3,17.4-4.5,25.9,0.6
		c1.6,1,2.2,1.9,1.8,4.1c-1.3,8,0.6,15.2,5.5,21.7c0.6,0.8,1.1,1.9,1.2,3c0.9,13,1.7,26,2.5,39c0.6,9.4,1.2,18.8,1.8,28.3
		c0.1,2.1,0,4.1-0.1,6.2c0,0.6-0.5,1.3-0.6,1.6c-2.1-2.4-4.3-4.7-6.3-7c-0.3-0.3-0.5-0.8-0.5-1.2c-2.2-21.8-4.4-43.6-6.7-65.4
		c-0.5-5.2-1.1-10.4-1.6-15.5c-0.7-6.6-6.3-11.1-12.9-10.4c-6.1,0.6-10.6,6.4-9.9,12.8c1.1,10.2,2.2,20.4,3.2,30.7
		c0.1,0.8-0.4,1.9-1,2.5c-4.3,4.8-8.7,9.4-13.2,14.3c4.8,4,9.3,8,13.9,11.6c2.6,2,4,4.2,4.1,7.6c0.1,4.2,0.8,8.4,1.3,12.6
		c0.7,5.1,4.4,9.1,9.1,10c5.2,0.9,9.9-1.3,12.5-6c0.2-0.3,0.3-0.6,0.5-0.9c4.2,2.4,6.6,8.2,5.6,13.5c-2.8,14-5.7,28-8.6,42
		c-1,4.7-2.2,9.4-2.9,14.1c-1.1,7.4-4.7,12.5-12.2,14.4C97.1,200,95.7,200,94.2,200z"/>
	<path class="st1" d="M50.3,99.9c2.8,2.3,5.6,4.6,8.4,7c9.4,7.8,18.7,15.8,28.2,23.5c2.2,1.8,2.9,3.8,2.5,6.3
		c-0.4,2.3-1,4.8-2.1,6.8c-9.3,16.2-18.8,32.2-28.2,48.3c-3.2,5.5-8.6,8-14.7,7.1c-5.4-0.8-9.8-5-11.2-10.5c-1-3.9-0.2-7.6,1.9-11
		c7.9-13.3,15.6-26.7,23.5-40c1.3-2.2,1.6-4,0.8-6.5c-3.2-9.8-6.1-19.6-9.1-29.4c-0.1-0.4-0.2-0.9-0.3-1.3
		C50,100,50.1,99.9,50.3,99.9z"/>
	<path class="st1" d="M105.9,120.3c-4.7,0-8.4-3.4-8.9-8.2c-1.5-14-2.9-27.9-4.4-41.9c-1.2-11.9-2.5-23.8-3.7-35.7
		c-0.2-2.3-0.3-4.5,0.9-6.6c1.8-3.2,5.5-5.2,8.9-4.7c4,0.6,7.1,3.4,7.6,7.3c0.8,5.7,1.3,11.5,1.9,17.2c1.5,14.5,3,29.1,4.6,43.6
		c0.7,6.5,1.4,12.9,2,19.4C115.3,115.9,111,120.4,105.9,120.3z"/>
	<path class="st1" d="M156,4.8c-3.5-2.6-7.6-3.9-11.8-4.8c-2.1,0-4.2,0-6.3,0c-0.3,0.1-0.6,0.3-0.9,0.4
		c-13.5,2.5-22.7,14.8-20.9,27.8c1.9,13.9,13.7,23.2,27.7,21.9c10.1-0.9,18.7-8.4,21.5-18.6C168.1,21.7,164.2,10.8,156,4.8z"/>
</g>
</svg>
