<?xml version="1.0" encoding="utf-8"?>
<!-- Generator: Adobe Illustrator 22.0.1, SVG Export Plug-In . SVG Version: 6.00 Build 0)  -->
<svg version="1.1" id="Layer_1" xmlns="http://www.w3.org/2000/svg" xmlns:xlink="http://www.w3.org/1999/xlink" x="0px" y="0px"
	 viewBox="0 0 200 200" style="enable-background:new 0 0 200 200;" xml:space="preserve">
<style type="text/css">
	.st0{fill:#B72133;}
	.st1{fill:#BCBCBC;}
</style>
<path d="M-410.9,46.8c10.8-2.5,20.6-6.6,27.3-16c0.6-0.8,3.3-1.2,4.1-0.6c2.7,2.2,5.9,4.5,7.1,7.6c7.8,18.7,15.1,37.5,22.5,56.4
	c3.3,8.3,0.2,14.6-8.6,17.1c-12.5,3.5-25.1,6.9-37.7,10.1c-6.2,1.6-12.2-1.8-14-7.4c-2.1-6.5,0.9-12.9,7.5-14.9
	c8.6-2.6,17.3-4.8,26.6-7.3c-1.5-3.9-2.7-7.3-4-10.8c-0.3,0-0.6,0.1-0.9,0.1c0,3.2,0,6.4,0,10.1c-6.8,1.8-13.3,3.6-19.7,5.4
	c-8.8,2.4-13.4,9-11.5,16.8c1.8,7.5,9.4,11.5,18,9.3c4.2-1,8.4-2.2,14.3-3.7c0,18.8-0.4,36.9,0.1,54.9c0.8,33.3,2.1,66.5,3.3,99.8
	c0.2,6.2-0.1,12.2-5.3,16.5c-4.5,3.8-9.9,4.6-15.3,2.3c-5.9-2.4-8.8-7.3-9.3-13.6c-1-13.4-1.9-26.8-2.9-40.2
	c-1.5-20.2-3-40.3-5.6-60.6c-0.7,9.1-1.5,18.2-2.1,27.3c-1.7,24.6-3.3,49.2-5,73.8c-0.6,8.9-7,14.7-15.4,14.4
	c-8.2-0.3-14.5-6.4-14.2-14.8c1.6-52.5,3.3-105,5.1-158.2c4.9,0.8,9.7,1.7,14.5,2.5c8,1.3,14.5-3,16-10.8c1.4-7-3.3-13.8-10.9-15.5
	c-6-1.4-12.1-2.5-18.2-3.7c-0.3-0.1-0.6-0.5-1.2-0.9c0-5.7,0-11.6,0-17.5c-0.4-0.1-0.7-0.2-1.1-0.4c-2.8,6-5.5,12-8.6,18.7
	c9.8,2,18.9,3.8,28.1,5.6c7.4,1.5,11.6,7.1,10.3,13.6c-1.4,7-7.5,10.7-15.1,9.2c-13.6-2.6-27.1-5.2-40.7-7.8
	c-10-1.9-13.8-9-9.6-18.1c8.8-19.1,17.6-38.2,26.5-57.3c1.1-2.3,2.5-4.7,4.3-6.3c3-2.6,5.9-3.3,9.1,0.7c4.4,5.5,9.6,10.2,17.2,11.1
	C-420.9,44.6-415.9,45.7-410.9,46.8z"/>
<path d="M-410.9,46.8c-5-1.1-10-2.2-15-3.2c-13.4-6.4-21.6-16.4-21.8-31.7c-0.3-18,13.6-30.9,27.3-33.3c18.6-3.3,35.5,9.3,39,25.7
	c3.6,16.8-5.8,33.7-22.1,39.3C-406,44.4-408.4,45.7-410.9,46.8z"/>
<path class="st0" d="M-456.4,153c-4.2,7.6-8.5,15-12.7,22.4c-0.1,0-0.1,0-0.2,0c0.3-1.7,0.6-3.4,0.8-5.1c0.6-3.6,1.2-7.2,1.8-10.7
	c0.1-0.6,0.1-0.9-0.6-0.6c-2.4,0.6-4.7,1.3-7.1,1.8c-0.3,0.1-0.5,0.1-0.9,0.2c4.7-7.8,9.3-15.4,13.8-23c0.1,0,0.1,0,0.2,0.1
	c-0.4,2-0.8,4-1.2,6c-0.6,3.1-1.3,6.4-2,9.5c-0.1,0.6-0.1,0.8,0.6,0.6c2.1-0.5,4.2-0.8,6.4-1.2C-457.2,153.1-456.9,153.1-456.4,153z
	"/>
<path class="st0" d="M-477.9,134.4c-3.6,4.2-7.2,8.3-10.8,12.6c2.7,0.9,5.2,1.8,7.8,2.9c-7.4,4.4-14.6,8.8-21.9,13.2l-0.1-0.1
	c3.5-4.3,6.9-8.7,10.5-13c-3-0.8-5.8-1.6-8.9-2.4C-493.3,143.1-485.6,138.8-477.9,134.4C-478,134.4-477.9,134.4-477.9,134.4z"/>
<path class="st0" d="M-490.2,117.3c1.8,2.2,3.4,4.3,5.3,6.6c-8.6-0.1-17-0.2-25.4-0.3c0-0.1,0-0.1-0.1-0.2
	c5.2-1.8,10.3-3.7,15.6-5.6c-2.1-2.2-4.2-4.4-6.3-6.7c9,0.4,17.6,0.7,26.4,1.1c0,0.1,0,0.1,0,0.2C-479.8,114-485,115.6-490.2,117.3z
	"/>
<path class="st0" d="M138,41.4c5.6-6.6,11.3-13.1,16.9-19.5c0.1,0,0.1,0,0.2,0c-0.6,1.6-1.2,3.2-1.8,4.8c-1.3,3.4-2.6,6.8-3.9,10.1
	c-0.2,0.6-0.3,0.9,0.5,0.8c2.5-0.2,4.9-0.4,7.3-0.4c0.3,0,0.5,0,0.9,0C152,43.9,146,50.5,140,57c-0.1,0-0.1,0-0.2-0.1
	c0.8-1.9,1.6-3.7,2.3-5.7c1.2-3,2.5-6,3.8-8.9c0.2-0.6,0.3-0.8-0.5-0.8c-2.2,0-4.3,0-6.5-0.1C138.7,41.4,138.4,41.4,138,41.4z"/>
<path class="st0" d="M155.4,63.7c4.3-3.4,8.7-6.7,13-10.2c-2.4-1.4-4.7-2.8-7.1-4.3c8.1-2.9,16-5.8,24-8.7l0.1,0.1
	c-4.3,3.6-8.5,7.2-12.9,10.7c2.7,1.4,5.4,2.7,8.2,4.1C172.2,58.2,163.8,61,155.4,63.7C155.4,63.8,155.4,63.7,155.4,63.7z"/>
<path class="st0" d="M164.2,83c-1.3-2.5-2.5-4.9-3.9-7.5c8.4,1.8,16.6,3.5,24.8,5.2c0,0.1,0,0.1,0.1,0.2c-5.4,0.8-10.9,1.6-16.4,2.5
	c1.7,2.6,3.2,5.2,4.8,7.8c-8.7-2.1-17.1-4.2-25.7-6.2c0-0.1,0-0.1,0-0.2C153.3,84.2,158.7,83.6,164.2,83z"/>
<g>
	<path class="st1" d="M65.4,396.7c-3.7-2.3-7.8-4.2-11.1-7.1c-4.1-3.7-5.3-9-5.3-14.5c0-39.1,0-78.3,0.1-117.4c0-1.3,0.7-3,1.6-3.9
		c4.5-4.3,6.1-9.4,5.8-15.5c-1.4-26.5-2.2-53.1,0.5-79.6c0.6-6.2,1.6-12.5,2.5-18.7c0.4-2.6-0.2-3.8-3.6-3c-1,7.1-2.2,14.4-2.9,21.7
		c-2.3,25.1-2,50.2-0.6,75.4c0.1,2.5,0.4,5,0.2,7.5c-0.5,7-6.4,12.5-13.4,12.5c-6.8,0-12.9-5.2-13.3-12
		c-2.2-37.4-3.3-74.9,4.3-111.9c2.1-10.3,6.3-20.2,10.2-30c1.6-4,4.9-7.5,7.9-10.7c4.3-4.5,9.7-6.8,16.2-6.6
		C73.3,83.2,82,83,91.1,83c0.2,7.1,4.7,11.3,9.2,15.5c12.5,11.6,25,23.2,37.3,35c1.4,1.3,2.4,3.8,2.4,5.7
		c0.1,77.7,0,155.4,0.2,233.1c0,12.2-4.9,20.1-16.1,24.5c-3.1,0-6.1,0-9.2,0c-12.3-4.2-16.7-13.1-16.6-25.8
		c0.3-46.8,0.1-93.6,0.1-140.3c0-2.1,0-4.1,0-6.3c-2.8,0-5.1,0-7.8,0c0,4.5,0,8.8,0,13.1c0,45.7,0,91.3,0.1,137
		c0,6.2-1.4,11.8-6,15.9c-2.9,2.6-6.7,4.3-10.1,6.4C71.6,396.7,68.5,396.7,65.4,396.7z"/>
	<path class="st1" d="M56.8,38.9C56.8,17.9,73.7,1,94.6,1s37.9,17,37.9,37.8c0,20.9-16.9,37.8-37.8,37.8
		C73.6,76.7,56.8,59.9,56.8,38.9z M95.6,69.5c8.5-0.7,16.2-3.1,21.8-9.5c1.6-1.8,3-5.3,2.3-7.4c-0.7-2-4-4.1-6.3-4.3
		c-9.8-1.1-18.5,2.1-25.1,9.5c-4.7,5.2-2.7,10,4.2,11.3C93.5,69.3,94.7,69.4,95.6,69.5z"/>
	<path class="st1" d="M136.4,84.8c8.9,1.2,16,5.6,22.1,11.8c9.1,9.2,14,20.8,17.3,33c1.4,5.3-1,9.9-5.3,13.2
		c-4.6,3.4-9.6,3.5-14.6,0.8c-2.1-1.1-3.9-2.7-5.7-4.3c-16.9-15.7-33.8-31.4-50.7-47.1c-3.3-3-4.8-6.7-4.6-10.4
		c8.2-2.6,15.9-5.1,24.5-7.8c10,9.4,20.8,19.6,31.7,29.8c0.5-0.3,1-0.6,1.4-0.9c-0.9-1.9-1.4-4.1-2.7-5.5
		C145.5,93.1,140.9,89,136.4,84.8z"/>
</g>
</svg>
