<?xml version="1.0" encoding="utf-8"?>
<!-- Generator: Adobe Illustrator 22.0.1, SVG Export Plug-In . SVG Version: 6.00 Build 0)  -->
<svg version="1.1" id="Layer_1" xmlns="http://www.w3.org/2000/svg" xmlns:xlink="http://www.w3.org/1999/xlink" x="0px" y="0px"
	 viewBox="0 0 200 200" style="enable-background:new 0 0 200 200;" xml:space="preserve">
<style type="text/css">
	.st0{fill:#B72133;}
	.st1{fill:#58595B;}
	.st2{fill:#FEFEFE;}
	.st3{fill:#BCBCBC;}
</style>
<g>
	<path d="M-209.5,13.5c-9,6.8-18,13.4-27.9,18.9c-2,1.1-3.8,2.6-5.4,4.2c-8.3,7.8-8.4,9.4-1.3,18.3c9.3,11.6,12.4,24.6,9.1,39.3
		c-6.4,28.8-4.3,56.6,8.8,83.4c1.1,2.2,1.8,4.7,2.3,7.1c1.5,8-3.7,14.5-11.8,15.1c-1.4,0.1-3,0.2-4.4-0.1c-13-3-26.1-2.1-39.1,0
		c-9.3,1.4-18.2-2.3-27.5-0.1c-3.5,0.8-6.6-2.3-7-6.5c-0.4-4.1,3-3.5,5.4-4.4c11.6-4,23.2-7.8,34.6-12.4c6.1-2.4,8.9-7.9,8.9-14.5
		c0.1-15.5-4.8-30-10.2-44.1c-6-15.8-12.5-31.3-13.1-48.5c-0.2-5-2.3-9.6-4.7-14.1c-4.8-9.1-4.1-17.7,1.6-26.5
		c5.1-7.9,6-17.6,10.2-25.9c1.5-3.8,5.4-0.4,7.5-2.4c7.9,0,15.8,0,23.8,0c11.5,1.1,23.1,2.1,33.6,7.6C-213.4,9-210,9.7-209.5,13.5z"
		/>
	<path class="st0" d="M-222.9,82.7c-2.6,0.5-3-0.5-3.3-1.5c-0.3-1.2,0.5-1.9,1.5-2.3c3.5-1.3,7-2.5,10.5-3.7c1.3-0.4,2.5-0.2,3,1.3
		c0.3,0.9,0.1,1.8-0.7,2.1C-215.9,80.2-220,81.7-222.9,82.7z"/>
	<path class="st0" d="M-224.6,95.3c3.1,1.9,7,4.3,10.7,6.8c0.4,0.2,0.3,1.6,0,2.2c-0.3,0.7-1,1.5-2,0.9c-3.7-2.2-7.5-4.4-11.2-6.6
		c-0.7-0.5-1-1.3-0.4-2.2C-227,95.7-226.5,95.1-224.6,95.3z"/>
	<path class="st0" d="M-218.8,87.4c1.3,0.2,3.5,0.5,5.8,0.9c1.3,0.2,2.4,1,2.1,2.5c-0.3,1.7-1.7,1.6-2.9,1.5c-2.7-0.3-5.4-0.6-8-1
		c-1.5-0.2-3.8,0.5-3.7-2.1c0.1-2.4,2.3-1.7,3.9-1.8C-221,87.4-220.4,87.4-218.8,87.4z"/>
</g>
<path class="st1" d="M-488.9,509.7c-9.7-0.1-18.2-3-24.8-10.5c-4.4-5-6.9-11-8.2-17.5c-0.2-1.2-0.5-2.5-0.5-3.7c0-1-0.5-1.2-1.4-1.3
	c-1.4-0.1-2.6-0.6-3.8-1.3c-2-1.2-3.2-2.9-3.6-5.2c-0.6-3.2-1.1-6.4-0.4-9.7c0.4-1.7,1.1-3.2,2.6-4.2c0.6-0.4,1.1-0.5,1.7,0.1
	c2,1.9,4.3,2.3,6.5,1.1c2.2-1.1,3.2-3.4,3-6.1c-0.6-5.4-0.8-10.8,0.3-16.2c0.3-1.4,0.7-2.8,1.5-4.1c1.5-2.4,3.6-3,6.1-1.5
	c5.5,3.2,11.1,6,17.1,8.1c4.2,1.4,8.4,2.7,12.9,2.4c4.3-0.2,8.5-1,12.1-3.6c0.7-0.5,0.9-0.3,1.3,0.3c2.5,3.9,4.6,7.9,5.4,12.5
	c0.2,1.2,0.3,2.5,0.3,3.7c0,2.4,1.1,4.1,3.2,5.1c2.2,1,4.2,0.6,6-1c1.4-1.2,2.8-1,3.9,0.5s1.4,3.3,1.5,5.1c0.1,2.7-0.2,5.3-0.9,7.9
	c-0.8,3.2-3.6,5.6-7.2,5.9c-1,0.1-1.4,0.4-1.5,1.5c-0.9,7.8-3.4,15-8.7,21c-5,5.7-11.4,8.9-18.9,10
	C-485.1,509.5-487,509.7-488.9,509.7z"/>
<path class="st1" d="M-522.9,443.8c0,2.6,0.1,5.3,0.4,7.9c0,0.2,0,0.4,0.1,0.6c0,0.5,0,0.9-0.5,1.1s-0.8-0.1-1.2-0.4
	c-1.6-1.9-3.2-3.9-4.4-6.1c-6.2-10.9-7.2-22.3-3.4-34.1c2.9-9,9.6-14,18.8-15.7c1.6-0.3,3.3-0.5,4.9-0.4c0.6,0,1.1-0.2,1.5-0.6
	c4.6-4.4,10-7.5,16.3-8.7c7.6-1.5,14.9-0.1,21.7,3.3c11.2,5.7,18.2,14.7,20.5,27.2c1.2,6.9,0.6,13.8-1,20.6
	c-1.1,4.9-2.8,9.7-4.9,14.3c-0.1,0.2-0.2,0.4-0.3,0.6c-0.2,0.5-0.6,0.8-1.1,0.7c-0.6-0.1-0.6-0.6-0.6-1.1c0-2.1-0.2-4.2-0.7-6.3
	c-1.4-5.4-4.1-10.1-7.3-14.6c-0.9-1.2-1.9-1.5-3.4-0.9c-0.9,0.4-1.7,0.8-2.5,1.3c-4.9,3.2-10.2,3.7-15.8,2.5
	c-6.6-1.4-12.7-4.3-18.6-7.4c-1.2-0.6-2.3-1.3-3.4-1.9c-4.5-2.6-9.4-1.4-12.2,3.1c-1.8,2.8-2.5,6-2.9,9.2
	C-522.9,439.8-522.9,441.8-522.9,443.8z"/>
<path class="st2" d="M-490.1,487.9c5.1,0.1,9.4,1.9,13,5.4c1.2,1.1,1.2,2.6,0.3,3.6c-1,1-2.4,0.9-3.5-0.1c-5.7-5.3-13.8-5.4-19.5,0
	c-1.2,1.1-2.6,1.1-3.6,0.1c-0.9-1-0.8-2.4,0.3-3.5C-499.5,489.8-495.1,488-490.1,487.9z"/>
<path class="st2" d="M-476,458.8c1.3,0.8,2.5,1.5,3.7,2.2c1.4,0.8,1.8,2.2,1.1,3.4c-0.7,1.2-2.1,1.5-3.5,0.7
	c-2.1-1.2-4.2-2.4-6.2-3.7c-2-1.2-2.1-3.7-0.1-5c3.2-2.1,6.5-4.2,9.8-6.3c1.2-0.8,2.5-0.5,3.3,0.6s0.5,2.5-0.7,3.3
	C-471,455.7-473.4,457.2-476,458.8z"/>
<path class="st2" d="M-503.9,458.8c-2.4-1.5-4.7-3-7.1-4.5c-0.6-0.4-1.2-0.9-1.3-1.7c-0.2-1,0.1-1.9,0.9-2.5c0.9-0.6,1.8-0.6,2.7,0
	c2.5,1.6,5.1,3.2,7.6,4.9c0.7,0.5,1.5,0.9,2.2,1.4c1.9,1.3,1.9,3.7-0.1,5c-2.1,1.3-4.3,2.6-6.5,3.8c-1.2,0.7-2.6,0.3-3.2-0.8
	c-0.7-1.1-0.4-2.5,0.8-3.2C-506.6,460.4-505.3,459.6-503.9,458.8z"/>
<path class="st3" d="M104.1,69.8c10.8-2.5,20.6-6.6,27.3-16c0.6-0.8,3.3-1.2,4.1-0.6c2.7,2.2,5.9,4.5,7.1,7.6
	c7.8,18.7,15.1,37.5,22.5,56.4c3.3,8.3,0.2,14.6-8.6,17.1c-12.5,3.5-25.1,6.9-37.7,10.1c-6.2,1.6-12.2-1.8-14-7.4
	c-2.1-6.5,0.9-12.9,7.5-14.9c8.6-2.6,17.3-4.8,26.6-7.3c-1.5-3.9-2.7-7.3-4-10.8c-0.3,0-0.6,0.1-0.9,0.1c0,3.2,0,6.4,0,10.1
	c-6.8,1.8-13.3,3.6-19.7,5.4c-8.8,2.4-13.4,9-11.5,16.8c1.8,7.5,9.4,11.5,18,9.3c4.2-1,8.4-2.2,14.3-3.7c0,18.8-0.4,36.9,0.1,54.9
	c0.8,33.3,2.1,66.5,3.3,99.8c0.2,6.2-0.1,12.2-5.3,16.5c-4.5,3.8-9.9,4.6-15.3,2.3c-5.9-2.4-8.8-7.3-9.3-13.6
	c-1-13.4-1.9-26.8-2.9-40.2c-1.5-20.2-3-40.3-5.6-60.6c-0.7,9.1-1.5,18.2-2.1,27.3c-1.7,24.6-3.3,49.2-5,73.8
	c-0.6,8.9-7,14.7-15.4,14.4c-8.2-0.3-14.5-6.4-14.2-14.8c1.6-52.5,3.3-105,5.1-158.2c4.9,0.8,9.7,1.7,14.5,2.5c8,1.3,14.5-3,16-10.8
	c1.4-7-3.3-13.8-10.9-15.5c-6-1.4-12.1-2.5-18.2-3.7c-0.3-0.1-0.6-0.5-1.2-0.9c0-5.7,0-11.6,0-17.5c-0.4-0.1-0.7-0.2-1.1-0.4
	c-2.8,6-5.5,12-8.6,18.7c9.8,2,18.9,3.8,28.1,5.6c7.4,1.5,11.6,7.1,10.3,13.6c-1.4,7-7.5,10.7-15.1,9.2c-13.6-2.6-27.1-5.2-40.7-7.8
	c-10-1.9-13.8-9-9.6-18.1c8.8-19.1,17.6-38.2,26.5-57.3c1.1-2.3,2.5-4.7,4.3-6.3c3-2.6,5.9-3.3,9.1,0.7c4.4,5.5,9.6,10.2,17.2,11.1
	C94.1,67.6,99.1,68.7,104.1,69.8z"/>
<path class="st3" d="M104.1,69.8c-5-1.1-10-2.2-15-3.2c-13.4-6.4-21.6-16.4-21.8-31.7C67,16.8,80.9,3.9,94.6,1.5
	c18.6-3.3,35.5,9.3,39,25.7c3.6,16.8-5.8,33.7-22.1,39.3C109,67.4,106.6,68.7,104.1,69.8z"/>
<path class="st0" d="M58.6,176c-4.2,7.6-8.5,15-12.7,22.4c-0.1,0-0.1,0-0.2,0c0.3-1.7,0.6-3.4,0.8-5.1c0.6-3.6,1.2-7.2,1.8-10.7
	c0.1-0.6,0.1-0.9-0.6-0.6c-2.4,0.6-4.7,1.3-7.1,1.8c-0.3,0.1-0.5,0.1-0.9,0.2c4.7-7.8,9.3-15.4,13.8-23c0.1,0,0.1,0,0.2,0.1
	c-0.4,2-0.8,4-1.2,6c-0.6,3.1-1.3,6.4-2,9.5c-0.1,0.6-0.1,0.8,0.6,0.6c2.1-0.5,4.2-0.8,6.4-1.2C57.8,176.1,58.1,176.1,58.6,176z"/>
<path class="st0" d="M37.1,157.4c-3.6,4.2-7.2,8.3-10.8,12.6c2.7,0.9,5.2,1.8,7.8,2.9c-7.4,4.4-14.6,8.8-21.9,13.2l-0.1-0.1
	c3.5-4.3,6.9-8.7,10.5-13c-3-0.8-5.8-1.6-8.9-2.4C21.7,166.1,29.4,161.8,37.1,157.4C37,157.4,37.1,157.4,37.1,157.4z"/>
<path class="st0" d="M24.8,140.3c1.8,2.2,3.4,4.3,5.3,6.6c-8.6-0.1-17-0.2-25.4-0.3c0-0.1,0-0.1-0.1-0.2c5.2-1.8,10.3-3.7,15.6-5.6
	c-2.1-2.2-4.2-4.4-6.3-6.7c9,0.4,17.6,0.7,26.4,1.1c0,0.1,0,0.1,0,0.2C35.2,137,30,138.6,24.8,140.3z"/>
<g>
	<path class="st0" d="M150.4,158.1c4.5,7.6,9.1,15.1,13.8,22.7c-0.4,0.3-0.6,0.1-0.8,0c-2.4-0.6-4.7-1.2-7.1-1.8
		c-0.6-0.2-0.7-0.1-0.6,0.6c0.9,5.3,1.8,10.4,2.8,15.7c0,0.1,0,0.2,0,0.5c-4.3-7.7-8.5-15.1-12.8-22.7c2.2,0.4,4.3,0.7,6.4,1.1
		c1.8,0.4,1.8,0.4,1.5-1.5c-1-4.7-1.9-9.3-3-14C150.4,158.4,150.4,158.3,150.4,158.1C150.3,158.1,150.3,158.1,150.4,158.1z"/>
	<path class="st0" d="M169.8,169.9c2.7-1,5.3-1.9,7.8-2.9c-3.6-4.2-7.2-8.4-10.8-12.6l0.1-0.1c7.7,4.3,15.4,8.7,23.3,13.1
		c-3,0.8-5.9,1.7-8.9,2.4c3.5,4.4,7,8.8,10.5,13.1c0,0.1-0.1,0.1-0.1,0.2C184.5,178.7,177.2,174.3,169.8,169.9z"/>
	<path class="st0" d="M190,131c-2.2,2.3-4.2,4.5-6.4,6.7c5.4,1.9,10.5,3.8,15.7,5.6c0,0.1,0,0.1,0,0.2c-8.4,0.1-16.8,0.2-25.4,0.3
		c1.6-2,3.1-3.9,4.6-5.7c0.7-0.8,0.7-0.8-0.4-1.2c-4.6-1.5-9.2-3-13.8-4.4c-0.3-0.1-0.5-0.1-0.7-0.4
		C172.4,131.7,181.1,131.4,190,131z"/>
</g>
</svg>
