<?xml version="1.0" encoding="utf-8"?>
<!-- Generator: Adobe Illustrator 22.0.1, SVG Export Plug-In . SVG Version: 6.00 Build 0)  -->
<svg version="1.1" id="Layer_1" xmlns="http://www.w3.org/2000/svg" xmlns:xlink="http://www.w3.org/1999/xlink" x="0px" y="0px"
	 viewBox="0 0 200 200" style="enable-background:new 0 0 200 200;" xml:space="preserve">
<style type="text/css">
	.st0{fill:#B72133;}
	.st1{fill:#BCBCBC;}
</style>
<path d="M-410.9,46.8c10.8-2.5,20.6-6.6,27.3-16c0.6-0.8,3.3-1.2,4.1-0.6c2.7,2.2,5.9,4.5,7.1,7.6c7.8,18.7,15.1,37.5,22.5,56.4
	c3.3,8.3,0.2,14.6-8.6,17.1c-12.5,3.5-25.1,6.9-37.7,10.1c-6.2,1.6-12.2-1.8-14-7.4c-2.1-6.5,0.9-12.9,7.5-14.9
	c8.6-2.6,17.3-4.8,26.6-7.3c-1.5-3.9-2.7-7.3-4-10.8c-0.3,0-0.6,0.1-0.9,0.1c0,3.2,0,6.4,0,10.1c-6.8,1.8-13.3,3.6-19.7,5.4
	c-8.8,2.4-13.4,9-11.5,16.8c1.8,7.5,9.4,11.5,18,9.3c4.2-1,8.4-2.2,14.3-3.7c0,18.8-0.4,36.9,0.1,54.9c0.8,33.3,2.1,66.5,3.3,99.8
	c0.2,6.2-0.1,12.2-5.3,16.5c-4.5,3.8-9.9,4.6-15.3,2.3c-5.9-2.4-8.8-7.3-9.3-13.6c-1-13.4-1.9-26.8-2.9-40.2
	c-1.5-20.2-3-40.3-5.6-60.6c-0.7,9.1-1.5,18.2-2.1,27.3c-1.7,24.6-3.3,49.2-5,73.8c-0.6,8.9-7,14.7-15.4,14.4
	c-8.2-0.3-14.5-6.4-14.2-14.8c1.6-52.5,3.3-105,5.1-158.2c4.9,0.8,9.7,1.7,14.5,2.5c8,1.3,14.5-3,16-10.8c1.4-7-3.3-13.8-10.9-15.5
	c-6-1.4-12.1-2.5-18.2-3.7c-0.3-0.1-0.6-0.5-1.2-0.9c0-5.7,0-11.6,0-17.5c-0.4-0.1-0.7-0.2-1.1-0.4c-2.8,6-5.5,12-8.6,18.7
	c9.8,2,18.9,3.8,28.1,5.6c7.4,1.5,11.6,7.1,10.3,13.6c-1.4,7-7.5,10.7-15.1,9.2c-13.6-2.6-27.1-5.2-40.7-7.8
	c-10-1.9-13.8-9-9.6-18.1c8.8-19.1,17.6-38.2,26.5-57.3c1.1-2.3,2.5-4.7,4.3-6.3c3-2.6,5.9-3.3,9.1,0.7c4.4,5.5,9.6,10.2,17.2,11.1
	C-420.9,44.6-415.9,45.7-410.9,46.8z"/>
<path d="M-410.9,46.8c-5-1.1-10-2.2-15-3.2c-13.4-6.4-21.6-16.4-21.8-31.7c-0.3-18,13.6-30.9,27.3-33.3c18.6-3.3,35.5,9.3,39,25.7
	c3.6,16.8-5.8,33.7-22.1,39.3C-406,44.4-408.4,45.7-410.9,46.8z"/>
<path class="st0" d="M-456.4,153c-4.2,7.6-8.5,15-12.7,22.4c-0.1,0-0.1,0-0.2,0c0.3-1.7,0.6-3.4,0.8-5.1c0.6-3.6,1.2-7.2,1.8-10.7
	c0.1-0.6,0.1-0.9-0.6-0.6c-2.4,0.6-4.7,1.3-7.1,1.8c-0.3,0.1-0.5,0.1-0.9,0.2c4.7-7.8,9.3-15.4,13.8-23c0.1,0,0.1,0,0.2,0.1
	c-0.4,2-0.8,4-1.2,6c-0.6,3.1-1.3,6.4-2,9.5c-0.1,0.6-0.1,0.8,0.6,0.6c2.1-0.5,4.2-0.8,6.4-1.2C-457.2,153.1-456.9,153.1-456.4,153z
	"/>
<path class="st0" d="M-477.9,134.4c-3.6,4.2-7.2,8.3-10.8,12.6c2.7,0.9,5.2,1.8,7.8,2.9c-7.4,4.4-14.6,8.8-21.9,13.2l-0.1-0.1
	c3.5-4.3,6.9-8.7,10.5-13c-3-0.8-5.8-1.6-8.9-2.4C-493.3,143.1-485.6,138.8-477.9,134.4C-478,134.4-477.9,134.4-477.9,134.4z"/>
<path class="st0" d="M-490.2,117.3c1.8,2.2,3.4,4.3,5.3,6.6c-8.6-0.1-17-0.2-25.4-0.3c0-0.1,0-0.1-0.1-0.2
	c5.2-1.8,10.3-3.7,15.6-5.6c-2.1-2.2-4.2-4.4-6.3-6.7c9,0.4,17.6,0.7,26.4,1.1c0,0.1,0,0.1,0,0.2C-479.8,114-485,115.6-490.2,117.3z
	"/>
<path class="st1" d="M47.4,396.6c-1.2-0.6-2.6-1-3.8-1.6c-11.3-4.6-16.3-17.1-10.9-28.6c6.9-15.3,12.7-31,16.9-47.2
	c7.9-32.4,10.3-65.1,4.2-98.1c-3-13.9-7.1-27.8-9.3-42.1c-2-12.9-2.2-25.8-3.2-38.9c0-0.8,0-1.4,0-3.2c-5.6,7.7-8.7,15.3-10.7,23.2
	c-5.2,21-0.8,40.5,9.5,59c2,3.8,3.4,7.3,2.4,11.7c-1.4,5.4-5.8,9.3-10.9,10.1c-6.2,0.8-10.9-1.4-13.9-6.7
	c-6.9-11.9-12.3-24.8-14.5-38.5c-5.6-34.1,3.6-63.7,28-88.3c7.9-7.9,17.1-14.3,28.6-16.1c3.8-0.6,7.9,0,11.7,0.6
	c1.2,0.2,2.6,1.8,3.4,3.2c12.5,20,37.7,26,57.6,13.3c2.6-1.6,4-1,5.8,0.6c7.3,6.4,14.7,12.7,21.8,19.1c0.2-0.2,0.6-0.4,0.8-0.6
	c-0.4-1-0.6-2-1.2-2.8c-4.4-8.5-8.9-17.3-13.5-25.8c-1-2-1-3.4-0.2-5.6c1.8-4.4,3.4-8.7,4.6-13.3c0.6-2.2,1.4-3,3.4-3.4
	c5.2-1,10.9,0.8,13.7,5.6c9.5,16.5,18.9,33.2,24.2,51.4c1.4,4.8,2.2,10.1,1.6,15.1c-1.4,11.1-11.1,17.9-21.8,15.1
	c-6-1.6-11.7-4.8-17.5-7.7c-3.6-1.8-6.6-4.4-9.7-6.7c-3.2-2.4-6.2-4.8-9.5-7.3c-7.1,12.5-11.3,25.6-10.9,39.9
	c0.6,17.7,5,34.3,13.1,50c19.9,38.5,31,79,30.8,122.5c0,7.7-0.6,15.5-1.4,23.2c-1,8.9-6,15.1-14.3,18.1c-0.8,0.4-1.6,0.6-2.4,1
	c-2.6,0-5.2,0-7.7,0c-0.4-0.2-0.6-0.4-1-0.6c-11.9-3.6-17.5-12.1-16.1-24.2c0.6-4.8,0.8-9.7,1-14.5c0.8-32.8-6.4-63.7-19.9-93.5
	c-2-4.4-4.2-8.5-6.2-12.9c-0.8,1.4-0.8,2.6-0.8,3.8c0.6,43.7-8.7,85-26,124.9c-3.6,8.3-8.5,14.7-17.7,17.1
	C52.4,396.6,50,396.6,47.4,396.6z"/>
<path class="st0" d="M197.7,54.6c-3.6,4.6-7.9,6.4-15.5,6.6c-1.2-2.2-0.4-3,2-3.4c2.6-0.4,5.2-1.2,7.7-2c2.4-1,3-3,1.2-5
	c-2.2-2.2-4.6-4.6-7.3-6c-6.2-3.4-12.7-6.6-20.2-10.3c1.6-0.6,3-1.8,3.6-1.4c7.5,3.8,15.3,7.5,22.6,11.9c2.4,1.4,4,4.4,6,6.7
	C197.7,52.6,197.7,53.6,197.7,54.6z"/>
<path class="st1" d="M109.9,111.6c-15.1,0-28.6-8.9-34.7-22.8c-6-13.7-2.8-30.2,7.5-40.9c1.6-1.8,3-2,5.4-1.4
	c17.9,4.4,35.7,8.7,53.6,12.5c3,0.6,4,1.8,4.8,4.4C153.2,87.5,135.3,111.4,109.9,111.6z"/>
<path class="st1" d="M142.5,55.6c-18.3-2.6-35.9-6.9-53.4-12.5C104.4,30.2,133.3,35.7,142.5,55.6z"/>
<path class="st0" d="M66.4,14.9c-4.6,0.6-8.9,1-13.1,2c-2,0.4-5,2-5,3.2c0,1.8,1.6,4.4,3.2,5.6c6,3.8,12.1,7.1,18.3,10.3
	c3.6,1.8,7.3,2.8,10.9,4.4c0.8,0.4,1.2,1.6,1.6,2.4c-1,0.2-2.2,1-2.8,0.6c-9.7-4.6-19.7-9.1-29.2-14.3c-3.4-1.8-6.7-5-5.8-9.5
	c1-4.8,5.6-5.6,9.5-6.6c3.2-0.6,6.6-0.8,9.9-1.2C66.4,11.9,66.4,12.1,66.4,14.9z"/>
<path class="st0" d="M95,16.7c1.2-1,2.2-2.4,2.8-2.2c15.1,2.8,30.2,5.8,45.5,8.9c-0.6,2-0.8,2.8-1,3.4
	C126.8,23.4,111.5,20.3,95,16.7z"/>
<path class="st0" d="M91.3,11.1c-3.8,2.2-5.2,5.4-4.2,9.5c-3.2-2.6-6.4-3.2-9.9-1c1.4-4,1-7.1-2.4-9.9c4.2,0.2,7.1-1,8.7-6.4
	C84.7,8.3,86.7,11.1,91.3,11.1z"/>
<path class="st0" d="M159,35.7c-2.8-3.6-6.2-4-10.1-2.6c2.4-3.6,2.2-6.7-0.6-10.1c4.2,0.8,7.1-0.2,9.3-4c0.4,4.2,2.2,6.7,6.6,7.7
	C160.5,28.8,158.4,31.2,159,35.7z"/>
<path class="st0" d="M161.3,56.8c4.4-0.2,6.6-2.2,7.7-7.3c1.8,4.8,4,7.1,8.5,6.7c-3,2.8-4.8,5.8-2.8,9.9c-3.8-2.8-6.7-2.4-10.7,1
	C165.5,62.3,164.9,59.2,161.3,56.8z"/>
<path class="st0" d="M49.4,43.7c4.8,1.8,7.9,1.4,10.5-3c0.4,4.6,1,8.1,5.8,8.9c-3.8,1.8-6.7,3.6-6.2,8.5c-2.6-3.6-5.8-5-9.9-3.6
	C52.5,51.2,52.5,47.8,49.4,43.7z"/>
<path class="st0" d="M147.4,56.6c3.2,0.4,6.2,0.8,9.1,1c0.8,3-0.4,3.2-2.6,3.2C147.4,60.2,147,60,147.4,56.6z"/>
</svg>
