<?xml version="1.0" encoding="utf-8"?>
<!-- Generator: Adobe Illustrator 22.0.1, SVG Export Plug-In . SVG Version: 6.00 Build 0)  -->
<svg version="1.1" id="Layer_1" xmlns="http://www.w3.org/2000/svg" xmlns:xlink="http://www.w3.org/1999/xlink" x="0px" y="0px"
	 viewBox="0 0 200 200" style="enable-background:new 0 0 200 200;" xml:space="preserve">
<style type="text/css">
	.st0{fill:#B72133;}
	.st1{fill:#BCBCBC;}
</style>
<g>
	<path d="M-209.5,13.5c-9,6.8-18,13.4-27.9,18.9c-2,1.1-3.8,2.6-5.4,4.2c-8.3,7.8-8.4,9.4-1.3,18.3c9.3,11.6,12.4,24.6,9.1,39.3
		c-6.4,28.8-4.3,56.6,8.8,83.4c1.1,2.2,1.8,4.7,2.3,7.1c1.5,8-3.7,14.5-11.8,15.1c-1.4,0.1-3,0.2-4.4-0.1c-13-3-26.1-2.1-39.1,0
		c-9.3,1.4-18.2-2.3-27.5-0.1c-3.5,0.8-6.6-2.3-7-6.5c-0.4-4.1,3-3.5,5.4-4.4c11.6-4,23.2-7.8,34.6-12.4c6.1-2.4,8.9-7.9,8.9-14.5
		c0.1-15.5-4.8-30-10.2-44.1c-6-15.8-12.5-31.3-13.1-48.5c-0.2-5-2.3-9.6-4.7-14.1c-4.8-9.1-4.1-17.7,1.6-26.5
		c5.1-7.9,6-17.6,10.2-25.9c1.5-3.8,5.4-0.4,7.5-2.4c7.9,0,15.8,0,23.8,0c11.5,1.1,23.1,2.1,33.6,7.6C-213.4,9-210,9.7-209.5,13.5z"
		/>
	<path class="st0" d="M-222.9,82.7c-2.6,0.5-3-0.5-3.3-1.5c-0.3-1.2,0.5-1.9,1.5-2.3c3.5-1.3,7-2.5,10.5-3.7c1.3-0.4,2.5-0.2,3,1.3
		c0.3,0.9,0.1,1.8-0.7,2.1C-215.9,80.2-220,81.7-222.9,82.7z"/>
	<path class="st0" d="M-224.6,95.3c3.1,1.9,7,4.3,10.7,6.8c0.4,0.2,0.3,1.6,0,2.2c-0.3,0.7-1,1.5-2,0.9c-3.7-2.2-7.5-4.4-11.2-6.6
		c-0.7-0.5-1-1.3-0.4-2.2C-227,95.7-226.5,95.1-224.6,95.3z"/>
	<path class="st0" d="M-218.8,87.4c1.3,0.2,3.5,0.5,5.8,0.9c1.3,0.2,2.4,1,2.1,2.5c-0.3,1.7-1.7,1.6-2.9,1.5c-2.7-0.3-5.4-0.6-8-1
		c-1.5-0.2-3.8,0.5-3.7-2.1c0.1-2.4,2.3-1.7,3.9-1.8C-221,87.4-220.4,87.4-218.8,87.4z"/>
</g>
<path class="st1" d="M104.8,75c0.6-2.4-0.3-4.7-1.2-6.7c-5.2-11.9,2.7-20.5,7.7-29.5c2.4-4.3,8.2-2.3,12.4-1.9
	c8.7,0.8,17.4,2.8,26.1,3.2c6,0.3,9.8,3.2,13.2,7.3c8.9,10.8,19.7,19.4,31.8,26.3c3.6,2.1,5,4.3,4.9,8.4c-0.3,8.4-0.2,16.8,0,25.2
	c0.1,3.7-1,4.4-4.4,2.7c-4.8-2.3-10-3.3-15.3-2.8c-9.4,0.8-18.2-2-28-5c6.3,8.6,14,14,21,20.1c7.9,6.9,15.9,13.6,23.8,20.6
	c2.6,2.3,4.2,18.3,2.4,21c-1.2,1.7-3,1.3-4.6,1.4c-12.8,0-25.7-0.1-38.5,0.1c-4.2,0-7-2.3-9.9-4.8c-9.9-8.6-16.7-19.9-25.5-29.5
	c-4.4-4.8-9.6-6.3-15.8-6.1c-7.3,0.2-14.8,0.8-22-0.1c-14.5-1.8-27.7,3.7-41.3,6.7c-3.9,0.9-7.8,1.6-11.7,2.1c-2.3,0.3-4.9,0-5.4-3
	c-0.5-2.5,1.3-3.9,3.3-4.7c7.4-2.9,14.8-5.8,22.2-8.6c1.2-0.4,2.4-0.7,3.6-1.1c1.7-0.7,4.2-1.4,3.5-3.6c-0.7-2.3-3.1-1.2-4.9-0.9
	c-8.7,1.4-17,3.9-24.9,8.2c-3.8,2.1-7.9,3.9-12.5,3.8c-2.1,0-4.3,0.1-5.3-2.4c-0.9-2.4,0.4-4.1,1.9-5.6c3.2-3.2,7.7-4.3,11.4-6.5
	c1-0.6,2.5-0.8,2.8-2.9c-6.8,0.1-12.2,4.2-18.4,5.6c-2.9,0.6-5.8,0.7-6.7-2.7c-0.9-2.9-0.5-5.9,2.9-7.4c1.3-0.6,2.6-1.4,4-1.9
	c2.3-0.9,3.5-1.6,1.4-4.2c-2.1-2.5,0-4.8,1.7-6.7c4.9-5.7,11-10.2,17.9-12.5c23.7-7.8,47.7-11.2,71.9-1.2c-0.1,0.6-0.4,1.1-0.9,1.6
	c5.5-3.4,6.9,2,9.8,4.4c6.2-1.6,12.3-1.2,18.4,0.6c3.8-1.7,7.7-1,11.7-0.5c2.5,0.3,6,1,6.8-2.7c0.6-3-2-4.3-4.3-5.4
	c-2.1-1-4.2-2-6.2-3.1c-7.9-4.4-10.9-3.5-14.8,4.4c-0.7,1.5-1.1,3.2-2.4,4.3c-2.8,0.5-4.8,3-7.8,2.8C107.1,80.9,106.1,77.8,104.8,75
	z"/>
<path class="st0" d="M117.6,78.1c-2.7,0.5-4.5,3.5-7.6,3c-1.7-2-3.5-4.1-5.2-6.1c-1.6-0.6-3.1-0.1-4.6,0.4c-2.7,3.5-5.8,1.6-9.3-0.6
	c1.7,4,4.3,6.3,6.7,4.5c5.6-4.3,8.1-0.8,10.9,3l0,0c1.2,1.1,2.7,1.6,4,0.7c4.1-2.7,7-2.1,9.8,2c1.8,2.7,4.6,2.4,7.1,0.6
	C123.6,86.1,122.5,79.1,117.6,78.1z"/>
<path class="st0" d="M116.4,81.9c-2.7,0.5-4.5,3.5-7.6,3c-1.7-2-3.5-4.1-5.2-6.1c-1.6-0.6-3.1-0.1-4.6,0.4c-2.7,3.5-5.8,1.6-9.3-0.6
	c1.7,4,4.3,6.3,6.7,4.5c5.6-4.3,8.1-0.8,10.9,3l0,0c1.2,1.1,2.7,1.6,4,0.7c4.1-2.7,7-2.1,9.8,2c1.8,2.7,4.6,2.4,7.1,0.6
	C122.3,89.8,121.2,82.9,116.4,81.9z"/>
</svg>
