<?xml version="1.0" encoding="utf-8"?>
<!-- Generator: Adobe Illustrator 22.0.1, SVG Export Plug-In . SVG Version: 6.00 Build 0)  -->
<svg version="1.1" id="Layer_1" xmlns="http://www.w3.org/2000/svg" xmlns:xlink="http://www.w3.org/1999/xlink" x="0px" y="0px"
	 viewBox="0 0 512 512" style="enable-background:new 0 0 512 512;" xml:space="preserve">
<style type="text/css">
	.st0{fill:#F58C46;}
	.st1{fill:#EBA34B;}
	.st2{fill:#EBC9A0;}
	.st3{fill:#4B3F4E;}
	.st4{fill:#D99365;}
	.st5{fill:#6E4848;}
	.st6{fill-rule:evenodd;clip-rule:evenodd;fill:#FFDBA7;}
	.st7{fill-rule:evenodd;clip-rule:evenodd;fill:#FFEFD9;}
</style>
<g>
	<path class="st0" d="M387.6,189.3c-2-1.4-4.5,0.9-3.2,3c11,17,31.6,57.2-4.2,79l11.3,20.9C402,285.6,420,270.3,420,247
		C420,227.8,407.3,203.2,387.6,189.3z"/>
	<path class="st1" d="M400.6,352.5c-4.6-6.3-7.1-14-7.1-21.8v-29.5c0-24.5-18.6-45-42.9-47.4l-109.1-10.4c-6-0.6-11.5-3.7-15.1-8.6
		l-4.8-6.6l-0.6-0.4c2.1-7.2,1.1-15.9-1.9-22.1c-5-10.4-23-32.4-41-32.4h-14.2c-8.1,0-15.9,3.1-21.8,8.6l-13.3,12.5l-33.2,9.3
		c-2.7,0.7-4.3,3.4-3.8,6.1l2,9.4c0.9,4.6,4.6,8,9.2,8.5l1.1,6.9c0.8,3.9,3.6,7.1,7.4,8.3c7.8,2.4,22.1,6,37.8,5.7
		c2.6,0,4.7,1.8,4.9,4.4c0.4,7.2,1.6,18.4,5.6,31.1l5.7,15.9c4.2,10.2,10.1,22.2,17.9,35.3c24.8,41.8,24.8,81.4,24.8,81.4l-15.3,7.7
		c-3.6,1.8-5.9,5.5-5.9,9.5v4c0,2.9,2.4,5.3,5.3,5.3h27.3c5.5,0,10.1-4.2,10.6-9.7l6.9-82.9c28.3,7.8,74.6,2.3,96.9-8.5
		c22.7,31.9,54.3,38.4,54.3,38.4v36.2l-19.8,7.9c-4,1.6-6.7,5.5-6.7,9.8v3.4c0,2.9,2.4,5.3,5.3,5.3H395c5.2,0,9.7-3.8,10.5-9
		l8.9-60.3c0.2-1.4-0.1-2.8-1-3.9L400.6,352.5z"/>
	<path class="st2" d="M159.7,284.2l5.7,15.9c4.2,10.2,10.1,22.2,17.9,35.3c4.1,6.9,7.5,13.8,10.3,20.4
		c-4.2-17.4-10.7-37.4-14.3-49.2c-7.9-25.8-5.7-54.3-6.3-66.2c-0.7-14.2-17.9-13.8-22.7-12.5l-46.6,4.9l0.3,1.8
		c0.8,3.9,3.6,7.1,7.4,8.3c7.8,2.4,22.1,6,37.8,5.7c2.6,0,4.7,1.8,4.9,4.4C154.5,260.4,155.7,271.6,159.7,284.2z"/>
	<path class="st0" d="M219.1,205.8c-3.4-7-12.7-19.3-23.9-26.6c-8-5.2-18.7-1.5-21.9,7.4l-0.1,0.1c-1.4,4-0.9,8.3,0.9,12.1
		c6.6,13.7,3.8,40,25.1,42.4C223.1,243.8,225.6,219.2,219.1,205.8z"/>
	<path class="st3" d="M150,205.1c-2.9,0-5.3-2.4-5.3-5.3c0-2.9,2.3-5.3,5.3-5.3h0.1c2.9,0,5.3,2.4,5.3,5.3
		C155.3,202.7,152.9,205.1,150,205.1z"/>
	<path class="st2" d="M334,342.3c-2.8-4.4-5-8.8-6.5-12.3c-1.7-3.9-5.9-6.1-10.1-5.2c-25,5.5-51.2,1.8-66.2-1.4
		c-6.6-1.4-12.8,3.4-13.2,10.1l-0.9,17.2C265.3,358.6,311.6,353.1,334,342.3z"/>
	<path class="st4" d="M146.9,222.4c-8.6,2.3-24,4.2-44,5.5l1.1,6.9c0.3,1.3,0.8,2.5,1.5,3.6c0.2,0,0.4,0,0.6,0
		c15.7-1.1,32.8-2.9,43.5-5.7c2.8-0.8,4.5-3.7,3.7-6.5C152.7,223.3,149.7,221.6,146.9,222.4z"/>
	<path class="st3" d="M94.8,229.4l1.7,7.8c0.4,0,0.7,0.1,1.1,0.1c5.2,0,9.3-3.9,9.3-8.7c0-2.7-1.3-5-3.3-6.6l-5,1.4
		C96,224.1,94.3,226.7,94.8,229.4z"/>
	<path class="st5" d="M159.8,289.7c-2.3,0-4.3-1.7-4.8-4.2c-0.6-2.8,1.1-5.7,3.8-6.3c0.4-0.1,37.5-9.1,68.9-44.1
		c1.9-2.1,5-2.2,7-0.2c2,2,2,5.4,0.1,7.5c-33.6,37.4-72.4,46.7-74,47.1C160.5,289.6,160.2,289.7,159.8,289.7z"/>
	<path class="st0" d="M157.9,309.2L157.9,309.2c-4.4,0-7.9-3.6-7.9-7.9V296c0-4.4,3.6-7.9,7.9-7.9l0,0c4.4,0,7.9,3.6,7.9,7.9v5.3
		C165.8,305.7,162.3,309.2,157.9,309.2z"/>
</g>
<g>
	<path class="st6" d="M49.5,448.4c38.9,11.8,67.3,24,104.5,40.5c53.3,7.9,89.5,12,142.1,23.7c36.5-15,78-31.5,115.4-44.5
		c30.8-10.7,57.9-18.1,85.8-29.8c4.9-2.1,9.8-4.6,14.8-7.5V328.6c-12.8,10.3-25.8,20.6-39.6,31.1c-85.5-32.1-92.5-34.9-178.1-1.7
		c-27.8,7.8-102.9-9.6-100.4,20c1.9,23,39.2,16.1,73.6,16.9c27.1,2.7,54.4-4.4,34.1,22.1c-13.8,18-28.5,17.4-59.7,29.7
		c-31-2.5-49.5-6.6-86.9,2.5C94.6,428.9,72.9,423.8,49.5,448.4z"/>
	<path class="st7" d="M221.9,390.7l-15.1-1.3c-4.2-0.4-7.3-4-6.9-8.2l0.7-8.6c0.4-4.2,4-7.3,8.2-6.9L224,367c4.2,0.4,7.3,4,6.9,8.2
		l-0.7,8.6C229.7,388,226.1,391.1,221.9,390.7z"/>
</g>
<g>
	<path class="st6" d="M465.7,71.1C427.1,58.4,399,45.6,362.2,28.3c-53.1-9.1-89.2-14-141.5-26.8c-36.8,14.2-78.6,29.7-116.4,42
		c-31,10-58.3,16.8-86.4,27.9C11.7,73.8,5.5,77-1,80.7v101.2c13.5-10.5,27.4-20.9,42-31.5c84.8,34,91.7,37,178,5.6
		c27.9-7.2,102.7,11.8,100.8-17.8c-1.4-23-38.8-16.9-73.2-18.5c-27-3.3-54.5,3.2-33.7-22.8c14.2-17.7,28.8-16.8,60.4-28.4
		c31,3.2,49.3,7.7,86.9-0.6C420.2,89.5,441.7,95.1,465.7,71.1z"/>
	<path class="st7" d="M292.1,124.9l15.1,1.6c4.1,0.5,7.2,4.2,6.7,8.4l-0.9,8.6c-0.5,4.2-4.2,7.2-8.3,6.7l-15.1-1.6
		c-4.1-0.4-7.2-4.2-6.7-8.3l0.9-8.6C284.2,127.5,287.9,124.4,292.1,124.9z"/>
</g>
</svg>
