<?xml version="1.0" encoding="utf-8"?>
<!-- Generator: Adobe Illustrator 22.0.1, SVG Export Plug-In . SVG Version: 6.00 Build 0)  -->
<svg version="1.1" id="Layer_1" xmlns="http://www.w3.org/2000/svg" xmlns:xlink="http://www.w3.org/1999/xlink" x="0px" y="0px"
	 viewBox="0 0 512 512" style="enable-background:new 0 0 512 512;" xml:space="preserve">
<style type="text/css">
	.st0{fill:#B1D665;}
	.st1{fill:#CC7E36;}
	.st2{fill:#F89655;}
	.st3{fill:#4A4B4D;}
	.st4{opacity:0.3;}
	.st5{clip-path:url(#SVGID_2_);}
	.st6{fill:#5D6162;}
	.st7{fill:#505656;}
	.st8{fill:#85674D;}
	.st9{fill:#A58A6C;}
	.st10{fill:#5CA09F;}
	.st11{fill:#87CCC9;}
	.st12{fill:#5A6A8C;}
	.st13{fill:#095B73;}
	.st14{fill:#E3E8E4;}
	.st15{fill:#BA692A;}
	.st16{fill:#707676;}
	.st17{fill:#5E6263;}
	.st18{fill:#C4AA90;}
	.st19{opacity:0.2;}
	.st20{fill:#CD7F37;}
	.st21{fill:#112129;}
</style>
<g>
	<g>
		<g>
			<path class="st0" d="M79.4,509.6c-16.1,2.9-34.2,3.7-47.3-6.1c-13.1-9.8-15.1-33.9-0.3-40.9c-16.1-7.2-30.6-22.1-30.1-39.7
				c0.5-17.6,22.9-32.7,36.8-21.9c-7.1-20.5-13.7-45-0.7-62.3c12.9-17.1,37.9-17.8,59.3-16.9c-9.9-23.3-2-52.9,18.1-68.3
				c20.1-15.4,50.7-15.2,70.6,0.4c5.8-15.9,29.2-18.6,43-8.8c13.8,9.8,19.8,27.1,23.8,43.6c16.6,69.2,9.9,141.6,3.2,212.4"/>
		</g>
		<g>
			<path class="st0" d="M448.9,511.8c21.7,0,36-1.5,49-12.8c5.5-4.8,11.7-9.6,13.6-16.6c1.9-7-1.2-15.9-8.2-18.1
				c4.2-1.6,5.9-6.7,6.2-11.2c0.8-10.3-2.6-21.3-10.6-27.7c-8.1-6.4-21-6.7-28.1,0.8c4.6-5.7,2-14.8-3.6-19.6
				c-5.6-4.8-13.2-6.3-20.4-7.5c-4.5-0.8-9.1-1.5-13.6-1.1c-6.1,0.5-11.9,2.8-17.1,6c-12.7,7.8-22,21-25.1,35.6
				c-3.1,14.6,0,30.4,8.4,42.8c5.4,7.9,15,14.9,24,11.7"/>
		</g>
		<g>
			<rect x="168.8" y="336.5" class="st1" width="280.1" height="175.3"/>
		</g>
		<g>
			<g>
				<rect x="431" y="467.5" class="st2" width="17.9" height="6.2"/>
			</g>
		</g>
		<g>
			<polygon class="st3" points="465.1,336.5 478,349.4 478,360.8 96.3,360.8 96.3,349.4 180.5,330.4 			"/>
		</g>
		<g class="st4">
			<g>
				<polygon class="st3" points="436.9,339.4 448.9,352.3 448.9,363.7 96.3,363.7 96.3,352.3 174.1,333.3 				"/>
			</g>
		</g>
		<g>
			<defs>
				<polygon id="SVGID_1_" points="130.7,292.5 188.9,226.2 394.5,226.2 478,349.4 96.3,349.4 				"/>
			</defs>
			<clipPath id="SVGID_2_">
				<use xlink:href="#SVGID_1_"  style="overflow:visible;"/>
			</clipPath>
			<g class="st5">
				<polygon class="st6" points="130.7,292.5 188.9,226.2 394.5,226.2 478,349.4 96.3,349.4 				"/>
			</g>
			<g class="st5">
				<g>
					<g>
						<g>
							<g>
								<path class="st6" d="M118.4,403.4c0,0,5.1,20.5,21.2,20.8c16.1,0.3,22.2-12.8,23.8-20.6l-17.7-9.4L118.4,403.4z"/>
							</g>
						</g>
						<g>
							<g>
								<path class="st7" d="M140.1,424.9c-0.2,0-0.4,0-0.5,0c-16.4-0.3-21.8-21.1-21.9-21.3l-0.2-0.6l28.2-9.6l18.4,9.8l-0.1,0.5
									C161.9,414,154.6,424.9,140.1,424.9z M119.2,403.9c1,3.4,6.6,19.4,20.4,19.6c0.2,0,0.3,0,0.5,0c16.8,0,21.5-15.3,22.4-19.6
									l-17-9L119.2,403.9z"/>
							</g>
						</g>
					</g>
					<g>
						<g>
							<g>
								<path class="st6" d="M163.4,403.4c0,0,5.1,20.5,21.2,20.8c16.1,0.3,22.2-12.8,23.8-20.6l-17.7-9.4L163.4,403.4z"/>
							</g>
						</g>
						<g>
							<g>
								<path class="st7" d="M185.1,424.9c-0.2,0-0.4,0-0.5,0c-16.4-0.3-21.8-21.1-21.9-21.3l-0.2-0.6l28.2-9.6l18.4,9.8l-0.1,0.5
									C207,414,199.6,424.9,185.1,424.9z M164.2,403.9c1,3.4,6.6,19.4,20.4,19.6c0.2,0,0.3,0,0.5,0c16.8,0,21.5-15.3,22.4-19.6
									l-17-9L164.2,403.9z"/>
							</g>
						</g>
					</g>
					<g>
						<g>
							<g>
								<path class="st6" d="M208.4,403.4c0,0,5.1,20.5,21.2,20.8c16.1,0.3,22.2-12.8,23.8-20.6l-17.7-9.4L208.4,403.4z"/>
							</g>
						</g>
						<g>
							<g>
								<path class="st7" d="M230.2,424.9c-0.2,0-0.4,0-0.5,0c-16.4-0.3-21.8-21.1-21.9-21.3l-0.2-0.6l28.2-9.6l18.4,9.8l-0.1,0.5
									C252,414,244.6,424.9,230.2,424.9z M209.2,403.9c1,3.4,6.6,19.4,20.4,19.6c0.2,0,0.3,0,0.5,0c16.8,0,21.5-15.3,22.4-19.6
									l-17-9L209.2,403.9z"/>
							</g>
						</g>
					</g>
					<g>
						<g>
							<g>
								<path class="st6" d="M253.4,403.4c0,0,5.1,20.5,21.2,20.8c16.1,0.3,22.2-12.8,23.8-20.6l-17.7-9.4L253.4,403.4z"/>
							</g>
						</g>
						<g>
							<g>
								<path class="st7" d="M275.2,424.9c-0.2,0-0.4,0-0.5,0c-16.4-0.3-21.9-21.1-21.9-21.3l-0.2-0.6l28.2-9.6l18.4,9.8l-0.1,0.5
									C297,414,289.6,424.9,275.2,424.9z M254.2,403.9c1,3.4,6.6,19.4,20.4,19.6c0.2,0,0.3,0,0.5,0c16.8,0,21.5-15.3,22.4-19.6
									l-17-9L254.2,403.9z"/>
							</g>
						</g>
					</g>
					<g>
						<g>
							<g>
								<path class="st6" d="M298.4,403.4c0,0,5.1,20.5,21.2,20.8c16.1,0.3,22.2-12.8,23.8-20.6l-17.7-9.4L298.4,403.4z"/>
							</g>
						</g>
						<g>
							<g>
								<path class="st7" d="M320.2,424.9c-0.2,0-0.4,0-0.5,0c-16.4-0.3-21.9-21.1-21.9-21.3l-0.2-0.6l28.2-9.6l18.4,9.8l-0.1,0.5
									C342,414,334.6,424.9,320.2,424.9z M299.2,403.9c1,3.4,6.6,19.4,20.4,19.6c0.2,0,0.3,0,0.5,0c16.8,0,21.5-15.3,22.4-19.6
									l-17-9L299.2,403.9z"/>
							</g>
						</g>
					</g>
					<g>
						<g>
							<g>
								<path class="st6" d="M343.4,403.4c0,0,5.1,20.5,21.2,20.8c16.1,0.3,22.2-12.8,23.8-20.6l-17.7-9.4L343.4,403.4z"/>
							</g>
						</g>
						<g>
							<g>
								<path class="st7" d="M365.2,424.9c-0.2,0-0.4,0-0.5,0c-16.4-0.3-21.9-21.1-21.9-21.3l-0.2-0.6l28.2-9.6l18.4,9.8l-0.1,0.5
									C387,414,379.6,424.9,365.2,424.9z M344.3,403.9c1,3.4,6.6,19.4,20.4,19.6c0.2,0,0.3,0,0.5,0c16.8,0,21.5-15.3,22.4-19.6
									l-17-9L344.3,403.9z"/>
							</g>
						</g>
					</g>
					<g>
						<g>
							<g>
								<path class="st6" d="M388.4,403.4c0,0,5.1,20.5,21.2,20.8c16.1,0.3,22.2-12.8,23.8-20.6l-17.7-9.4L388.4,403.4z"/>
							</g>
						</g>
						<g>
							<g>
								<path class="st7" d="M410.2,424.9c-0.2,0-0.4,0-0.5,0c-16.5-0.3-21.9-21.1-21.9-21.3l-0.2-0.6l28.2-9.6l18.4,9.8l-0.1,0.5
									C432,414,424.7,424.9,410.2,424.9z M389.3,403.9c1,3.4,6.6,19.4,20.4,19.6c0.2,0,0.3,0,0.5,0c16.8,0,21.5-15.3,22.4-19.6
									l-17-9L389.3,403.9z"/>
							</g>
						</g>
					</g>
					<g>
						<g>
							<g>
								<path class="st6" d="M433.4,403.4c0,0,5.1,20.5,21.2,20.8c16.1,0.3,22.2-12.8,23.8-20.6l-17.7-9.4L433.4,403.4z"/>
							</g>
						</g>
						<g>
							<g>
								<path class="st7" d="M455.2,424.9c-0.2,0-0.4,0-0.5,0c-16.5-0.3-21.9-21.1-21.9-21.3l-0.2-0.6l28.2-9.6l18.4,9.8l-0.1,0.5
									C477,414,469.7,424.9,455.2,424.9z M434.3,403.9c1,3.4,6.6,19.4,20.4,19.6c0.2,0,0.3,0,0.5,0c16.8,0,21.5-15.3,22.4-19.6
									l-17-9L434.3,403.9z"/>
							</g>
						</g>
					</g>
				</g>
				<g>
					<g>
						<g>
							<g>
								<path class="st6" d="M95.8,388.4c0,0,5.1,20.5,21.2,20.8c16.1,0.3,22.2-12.8,23.8-20.6l-17.7-9.4L95.8,388.4z"/>
							</g>
						</g>
						<g>
							<g>
								<path class="st7" d="M117.6,409.8c-0.2,0-0.4,0-0.5,0c-16.4-0.3-21.8-21.1-21.9-21.3l-0.2-0.6l28.2-9.6l18.4,9.8l-0.1,0.5
									C139.4,399,132.1,409.8,117.6,409.8z M96.7,388.8c1,3.4,6.6,19.4,20.4,19.6c0.2,0,0.3,0,0.5,0c16.8,0,21.5-15.3,22.4-19.6
									l-17-9L96.7,388.8z"/>
							</g>
						</g>
					</g>
					<g>
						<g>
							<g>
								<path class="st6" d="M140.9,388.4c0,0,5.1,20.5,21.2,20.8c16.1,0.3,22.2-12.8,23.8-20.6l-17.7-9.4L140.9,388.4z"/>
							</g>
						</g>
						<g>
							<g>
								<path class="st7" d="M162.6,409.8c-0.2,0-0.4,0-0.5,0c-16.4-0.3-21.8-21.1-21.9-21.3l-0.2-0.6l28.2-9.6l18.4,9.8l-0.1,0.5
									C184.5,399,177.1,409.8,162.6,409.8z M141.7,388.8c1,3.4,6.6,19.4,20.4,19.6c0.2,0,0.3,0,0.5,0c16.8,0,21.5-15.3,22.4-19.6
									l-17-9L141.7,388.8z"/>
							</g>
						</g>
					</g>
					<g>
						<g>
							<g>
								<path class="st6" d="M185.9,388.4c0,0,5.1,20.5,21.2,20.8c16.1,0.3,22.2-12.8,23.8-20.6l-17.7-9.4L185.9,388.4z"/>
							</g>
						</g>
						<g>
							<g>
								<path class="st7" d="M207.6,409.8c-0.2,0-0.4,0-0.5,0c-16.4-0.3-21.8-21.1-21.9-21.3l-0.2-0.6l28.2-9.6l18.4,9.8l-0.1,0.5
									C229.5,399,222.1,409.8,207.6,409.8z M186.7,388.8c1,3.4,6.6,19.4,20.4,19.6c0.2,0,0.3,0,0.5,0c16.8,0,21.5-15.3,22.4-19.6
									l-17-9L186.7,388.8z"/>
							</g>
						</g>
					</g>
					<g>
						<g>
							<g>
								<path class="st6" d="M230.9,388.4c0,0,5.1,20.5,21.2,20.8c16.1,0.3,22.2-12.8,23.8-20.6l-17.7-9.4L230.9,388.4z"/>
							</g>
						</g>
						<g>
							<g>
								<path class="st7" d="M252.7,409.8c-0.2,0-0.4,0-0.5,0c-16.4-0.3-21.9-21.1-21.9-21.3l-0.2-0.6l28.2-9.6l18.4,9.8l-0.1,0.5
									C274.5,399,267.1,409.8,252.7,409.8z M231.7,388.8c1,3.4,6.6,19.4,20.4,19.6c0.2,0,0.3,0,0.5,0c16.8,0,21.5-15.3,22.4-19.6
									l-17-9L231.7,388.8z"/>
							</g>
						</g>
					</g>
					<g>
						<g>
							<g>
								<path class="st6" d="M275.9,388.4c0,0,5.1,20.5,21.2,20.8c16.1,0.3,22.2-12.8,23.8-20.6l-17.7-9.4L275.9,388.4z"/>
							</g>
						</g>
						<g>
							<g>
								<path class="st7" d="M297.7,409.8c-0.2,0-0.4,0-0.5,0c-16.4-0.3-21.9-21.1-21.9-21.3l-0.2-0.6l28.2-9.6l18.4,9.8l-0.1,0.5
									C319.5,399,312.1,409.8,297.7,409.8z M276.7,388.8c1,3.4,6.6,19.4,20.4,19.6c0.2,0,0.3,0,0.5,0c16.8,0,21.5-15.3,22.4-19.6
									l-17-9L276.7,388.8z"/>
							</g>
						</g>
					</g>
					<g>
						<g>
							<g>
								<path class="st6" d="M320.9,388.4c0,0,5.1,20.5,21.2,20.8c16.1,0.3,22.2-12.8,23.8-20.6l-17.7-9.4L320.9,388.4z"/>
							</g>
						</g>
						<g>
							<g>
								<path class="st7" d="M342.7,409.8c-0.2,0-0.4,0-0.5,0c-16.4-0.3-21.9-21.1-21.9-21.3l-0.2-0.6l28.2-9.6l18.4,9.8l-0.1,0.5
									C364.5,399,357.1,409.8,342.7,409.8z M321.8,388.8c1,3.4,6.6,19.4,20.4,19.6c0.2,0,0.3,0,0.5,0c16.8,0,21.5-15.3,22.4-19.6
									l-17-9L321.8,388.8z"/>
							</g>
						</g>
					</g>
					<g>
						<g>
							<g>
								<path class="st6" d="M365.9,388.4c0,0,5.1,20.5,21.2,20.8c16.1,0.3,22.2-12.8,23.8-20.6l-17.7-9.4L365.9,388.4z"/>
							</g>
						</g>
						<g>
							<g>
								<path class="st7" d="M387.7,409.8c-0.2,0-0.4,0-0.5,0c-16.5-0.3-21.9-21.1-21.9-21.3l-0.2-0.6l28.2-9.6l18.4,9.8l-0.1,0.5
									C409.5,399,402.1,409.8,387.7,409.8z M366.8,388.8c1,3.4,6.6,19.4,20.4,19.6c0.2,0,0.3,0,0.5,0c16.8,0,21.5-15.3,22.4-19.6
									l-17-9L366.8,388.8z"/>
							</g>
						</g>
					</g>
					<g>
						<g>
							<g>
								<path class="st6" d="M410.9,388.4c0,0,5.1,20.5,21.2,20.8c16.1,0.3,22.2-12.8,23.8-20.6l-17.7-9.4L410.9,388.4z"/>
							</g>
						</g>
						<g>
							<g>
								<path class="st7" d="M432.7,409.8c-0.2,0-0.4,0-0.5,0c-16.5-0.3-21.9-21.1-21.9-21.3l-0.2-0.6l28.2-9.6l18.4,9.8l-0.1,0.5
									C454.5,399,447.2,409.8,432.7,409.8z M411.8,388.8c1,3.4,6.6,19.4,20.4,19.6c0.2,0,0.3,0,0.5,0c16.8,0,21.5-15.3,22.4-19.6
									l-17-9L411.8,388.8z"/>
							</g>
						</g>
					</g>
				</g>
				<g>
					<g>
						<g>
							<g>
								<path class="st6" d="M118.4,373.4c0,0,5.1,20.5,21.2,20.8c16.1,0.3,22.2-12.8,23.8-20.6l-17.7-9.4L118.4,373.4z"/>
							</g>
						</g>
						<g>
							<g>
								<path class="st7" d="M140.1,394.8c-0.2,0-0.4,0-0.5,0c-16.4-0.3-21.8-21.1-21.9-21.3l-0.2-0.6l28.2-9.6l18.4,9.8l-0.1,0.5
									C161.9,383.9,154.6,394.8,140.1,394.8z M119.2,373.8c1,3.4,6.6,19.4,20.4,19.6c17.3,0.4,22-15.3,23-19.6l-17-9L119.2,373.8z
									"/>
							</g>
						</g>
					</g>
					<g>
						<g>
							<g>
								<path class="st6" d="M163.4,373.4c0,0,5.1,20.5,21.2,20.8c16.1,0.3,22.2-12.8,23.8-20.6l-17.7-9.4L163.4,373.4z"/>
							</g>
						</g>
						<g>
							<g>
								<path class="st7" d="M185.1,394.8c-0.2,0-0.4,0-0.5,0c-16.4-0.3-21.8-21.1-21.9-21.3l-0.2-0.6l28.2-9.6l18.4,9.8l-0.1,0.5
									C207,383.9,199.6,394.8,185.1,394.8z M164.2,373.8c1,3.4,6.6,19.4,20.4,19.6c0.2,0,0.3,0,0.5,0c16.8,0,21.5-15.3,22.4-19.6
									l-17-9L164.2,373.8z"/>
							</g>
						</g>
					</g>
					<g>
						<g>
							<g>
								<path class="st6" d="M208.4,373.4c0,0,5.1,20.5,21.2,20.8c16.1,0.3,22.2-12.8,23.8-20.6l-17.7-9.4L208.4,373.4z"/>
							</g>
						</g>
						<g>
							<g>
								<path class="st7" d="M230.2,394.8c-0.2,0-0.4,0-0.5,0c-16.4-0.3-21.8-21.1-21.9-21.3l-0.2-0.6l28.2-9.6l18.4,9.8l-0.1,0.5
									C252,383.9,244.6,394.8,230.2,394.8z M209.2,373.8c1,3.4,6.6,19.4,20.4,19.6c0.2,0,0.3,0,0.5,0c16.8,0,21.5-15.3,22.4-19.6
									l-17-9L209.2,373.8z"/>
							</g>
						</g>
					</g>
					<g>
						<g>
							<g>
								<path class="st6" d="M253.4,373.4c0,0,5.1,20.5,21.2,20.8c16.1,0.3,22.2-12.8,23.8-20.6l-17.7-9.4L253.4,373.4z"/>
							</g>
						</g>
						<g>
							<g>
								<path class="st7" d="M275.2,394.8c-0.2,0-0.4,0-0.5,0c-16.4-0.3-21.9-21.1-21.9-21.3l-0.2-0.6l28.2-9.6l18.4,9.8l-0.1,0.5
									C297,383.9,289.6,394.8,275.2,394.8z M254.2,373.8c1,3.4,6.6,19.4,20.4,19.6c0.2,0,0.3,0,0.5,0c16.8,0,21.5-15.3,22.4-19.6
									l-17-9L254.2,373.8z"/>
							</g>
						</g>
					</g>
					<g>
						<g>
							<g>
								<path class="st6" d="M298.4,373.4c0,0,5.1,20.5,21.2,20.8c16.1,0.3,22.2-12.8,23.8-20.6l-17.7-9.4L298.4,373.4z"/>
							</g>
						</g>
						<g>
							<g>
								<path class="st7" d="M320.2,394.8c-0.2,0-0.4,0-0.5,0c-16.4-0.3-21.9-21.1-21.9-21.3l-0.2-0.6l28.2-9.6l18.4,9.8l-0.1,0.5
									C342,383.9,334.6,394.8,320.2,394.8z M299.2,373.8c1,3.4,6.6,19.4,20.4,19.6c0.2,0,0.3,0,0.5,0c16.8,0,21.5-15.3,22.4-19.6
									l-17-9L299.2,373.8z"/>
							</g>
						</g>
					</g>
					<g>
						<g>
							<g>
								<path class="st6" d="M343.4,373.4c0,0,5.1,20.5,21.2,20.8c16.1,0.3,22.2-12.8,23.8-20.6l-17.7-9.4L343.4,373.4z"/>
							</g>
						</g>
						<g>
							<g>
								<path class="st7" d="M365.2,394.8c-0.2,0-0.4,0-0.5,0c-16.4-0.3-21.9-21.1-21.9-21.3l-0.2-0.6l28.2-9.6l18.4,9.8l-0.1,0.5
									C387,383.9,379.6,394.8,365.2,394.8z M344.3,373.8c1,3.4,6.6,19.4,20.4,19.6c0.2,0,0.3,0,0.5,0c16.8,0,21.5-15.3,22.4-19.6
									l-17-9L344.3,373.8z"/>
							</g>
						</g>
					</g>
					<g>
						<g>
							<g>
								<path class="st6" d="M388.4,373.4c0,0,5.1,20.5,21.2,20.8c16.1,0.3,22.2-12.8,23.8-20.6l-17.7-9.4L388.4,373.4z"/>
							</g>
						</g>
						<g>
							<g>
								<path class="st7" d="M410.2,394.8c-0.2,0-0.4,0-0.5,0c-16.5-0.3-21.9-21.1-21.9-21.3l-0.2-0.6l28.2-9.6l18.4,9.8l-0.1,0.5
									C432,383.9,424.7,394.8,410.2,394.8z M389.3,373.8c1,3.4,6.6,19.4,20.4,19.6c0.2,0,0.3,0,0.5,0c16.8,0,21.5-15.3,22.4-19.6
									l-17-9L389.3,373.8z"/>
							</g>
						</g>
					</g>
					<g>
						<g>
							<g>
								<path class="st6" d="M433.4,373.4c0,0,5.1,20.5,21.2,20.8c16.1,0.3,22.2-12.8,23.8-20.6l-17.7-9.4L433.4,373.4z"/>
							</g>
						</g>
						<g>
							<g>
								<path class="st7" d="M455.2,394.8c-0.2,0-0.4,0-0.5,0c-16.5-0.3-21.9-21.1-21.9-21.3l-0.2-0.6l28.2-9.6l18.4,9.8l-0.1,0.5
									C477,383.9,469.7,394.8,455.2,394.8z M434.3,373.8c1,3.4,6.6,19.4,20.4,19.6c0.2,0,0.3,0,0.5,0c16.8,0,21.5-15.3,22.4-19.6
									l-17-9L434.3,373.8z"/>
							</g>
						</g>
					</g>
				</g>
				<g>
					<g>
						<g>
							<g>
								<path class="st6" d="M95.8,358.3c0,0,5.1,20.5,21.2,20.8c16.1,0.3,22.2-12.8,23.8-20.6l-17.7-9.4L95.8,358.3z"/>
							</g>
						</g>
						<g>
							<g>
								<path class="st7" d="M117.6,379.8c-0.2,0-0.4,0-0.5,0c-16.4-0.3-21.8-21.1-21.9-21.3l-0.2-0.6l28.2-9.6l18.4,9.8l-0.1,0.5
									C139.4,368.9,132.1,379.8,117.6,379.8z M96.7,358.8c1,3.4,6.6,19.4,20.4,19.6c0.2,0,0.3,0,0.5,0c16.8,0,21.5-15.3,22.4-19.6
									l-17-9L96.7,358.8z"/>
							</g>
						</g>
					</g>
					<g>
						<g>
							<g>
								<path class="st6" d="M140.9,358.3c0,0,5.1,20.5,21.2,20.8c16.1,0.3,22.2-12.8,23.8-20.6l-17.7-9.4L140.9,358.3z"/>
							</g>
						</g>
						<g>
							<g>
								<path class="st7" d="M162.6,379.8c-0.2,0-0.4,0-0.5,0c-16.4-0.3-21.8-21.1-21.9-21.3l-0.2-0.6l28.2-9.6l18.4,9.8l-0.1,0.5
									C184.5,368.9,177.1,379.8,162.6,379.8z M141.7,358.8c1,3.4,6.6,19.4,20.4,19.6c0.2,0,0.3,0,0.5,0
									c16.8,0,21.5-15.3,22.4-19.6l-17-9L141.7,358.8z"/>
							</g>
						</g>
					</g>
					<g>
						<g>
							<g>
								<path class="st6" d="M185.9,358.3c0,0,5.1,20.5,21.2,20.8c16.1,0.3,22.2-12.8,23.8-20.6l-17.7-9.4L185.9,358.3z"/>
							</g>
						</g>
						<g>
							<g>
								<path class="st7" d="M207.6,379.8c-0.2,0-0.4,0-0.5,0c-16.4-0.3-21.8-21.1-21.9-21.3l-0.2-0.6l28.2-9.6l18.4,9.8l-0.1,0.5
									C229.5,368.9,222.1,379.8,207.6,379.8z M186.7,358.8c1,3.4,6.6,19.4,20.4,19.6c0.2,0,0.3,0,0.5,0
									c16.8,0,21.5-15.3,22.4-19.6l-17-9L186.7,358.8z"/>
							</g>
						</g>
					</g>
					<g>
						<g>
							<g>
								<path class="st6" d="M230.9,358.3c0,0,5.1,20.5,21.2,20.8c16.1,0.3,22.2-12.8,23.8-20.6l-17.7-9.4L230.9,358.3z"/>
							</g>
						</g>
						<g>
							<g>
								<path class="st7" d="M252.7,379.8c-0.2,0-0.4,0-0.5,0c-16.4-0.3-21.9-21.1-21.9-21.3l-0.2-0.6l28.2-9.6l18.4,9.8l-0.1,0.5
									C274.5,368.9,267.1,379.8,252.7,379.8z M231.7,358.8c1,3.4,6.6,19.4,20.4,19.6c0.2,0,0.3,0,0.5,0
									c16.8,0,21.5-15.3,22.4-19.6l-17-9L231.7,358.8z"/>
							</g>
						</g>
					</g>
					<g>
						<g>
							<g>
								<path class="st6" d="M275.9,358.3c0,0,5.1,20.5,21.2,20.8c16.1,0.3,22.2-12.8,23.8-20.6l-17.7-9.4L275.9,358.3z"/>
							</g>
						</g>
						<g>
							<g>
								<path class="st7" d="M297.7,379.8c-0.2,0-0.4,0-0.5,0c-16.4-0.3-21.9-21.1-21.9-21.3l-0.2-0.6l28.2-9.6l18.4,9.8l-0.1,0.5
									C319.5,368.9,312.1,379.8,297.7,379.8z M276.7,358.8c1,3.4,6.6,19.4,20.4,19.6c0.2,0,0.3,0,0.5,0
									c16.8,0,21.5-15.3,22.4-19.6l-17-9L276.7,358.8z"/>
							</g>
						</g>
					</g>
					<g>
						<g>
							<g>
								<path class="st6" d="M320.9,358.3c0,0,5.1,20.5,21.2,20.8c16.1,0.3,22.2-12.8,23.8-20.6l-17.7-9.4L320.9,358.3z"/>
							</g>
						</g>
						<g>
							<g>
								<path class="st7" d="M342.7,379.8c-0.2,0-0.4,0-0.5,0c-16.4-0.3-21.9-21.1-21.9-21.3l-0.2-0.6l28.2-9.6l18.4,9.8l-0.1,0.5
									C364.5,368.9,357.1,379.8,342.7,379.8z M321.8,358.8c1,3.4,6.6,19.4,20.4,19.6c0.2,0,0.3,0,0.5,0
									c16.8,0,21.5-15.3,22.4-19.6l-17-9L321.8,358.8z"/>
							</g>
						</g>
					</g>
					<g>
						<g>
							<g>
								<path class="st6" d="M365.9,358.3c0,0,5.1,20.5,21.2,20.8c16.1,0.3,22.2-12.8,23.8-20.6l-17.7-9.4L365.9,358.3z"/>
							</g>
						</g>
						<g>
							<g>
								<path class="st7" d="M387.7,379.8c-0.2,0-0.4,0-0.5,0c-16.5-0.3-21.9-21.1-21.9-21.3l-0.2-0.6l28.2-9.6l18.4,9.8l-0.1,0.5
									C409.5,368.9,402.1,379.8,387.7,379.8z M366.8,358.8c1,3.4,6.6,19.4,20.4,19.6c0.2,0,0.3,0,0.5,0
									c16.8,0,21.5-15.3,22.4-19.6l-17-9L366.8,358.8z"/>
							</g>
						</g>
					</g>
					<g>
						<g>
							<g>
								<path class="st6" d="M410.9,358.3c0,0,5.1,20.5,21.2,20.8c16.1,0.3,22.2-12.8,23.8-20.6l-17.7-9.4L410.9,358.3z"/>
							</g>
						</g>
						<g>
							<g>
								<path class="st7" d="M432.7,379.8c-0.2,0-0.4,0-0.5,0c-16.5-0.3-21.9-21.1-21.9-21.3l-0.2-0.6l28.2-9.6l18.4,9.8l-0.1,0.5
									C454.5,368.9,447.2,379.8,432.7,379.8z M411.8,358.8c1,3.4,6.6,19.4,20.4,19.6c0.2,0,0.3,0,0.5,0
									c16.8,0,21.5-15.3,22.4-19.6l-17-9L411.8,358.8z"/>
							</g>
						</g>
					</g>
				</g>
				<g>
					<g>
						<g>
							<g>
								<path class="st6" d="M118.4,343.3c0,0,5.1,20.5,21.2,20.8c16.1,0.3,22.2-12.8,23.8-20.6l-17.7-9.4L118.4,343.3z"/>
							</g>
						</g>
						<g>
							<g>
								<path class="st7" d="M140.1,364.8c-0.2,0-0.4,0-0.5,0c-16.4-0.3-21.8-21.1-21.9-21.3l-0.2-0.6l28.2-9.6l18.4,9.8l-0.1,0.5
									C161.9,353.9,154.6,364.8,140.1,364.8z M119.2,343.8c1,3.4,6.6,19.4,20.4,19.6c17.3,0.4,22-15.3,23-19.6l-17-9L119.2,343.8z
									"/>
							</g>
						</g>
					</g>
					<g>
						<g>
							<g>
								<path class="st6" d="M163.4,343.3c0,0,5.1,20.5,21.2,20.8c16.1,0.3,22.2-12.8,23.8-20.6l-17.7-9.4L163.4,343.3z"/>
							</g>
						</g>
						<g>
							<g>
								<path class="st7" d="M185.1,364.8c-0.2,0-0.4,0-0.5,0c-16.4-0.3-21.8-21.1-21.9-21.3l-0.2-0.6l28.2-9.6l18.4,9.8l-0.1,0.5
									C207,353.9,199.6,364.8,185.1,364.8z M164.2,343.8c1,3.4,6.6,19.4,20.4,19.6c0.2,0,0.3,0,0.5,0c16.8,0,21.5-15.3,22.4-19.6
									l-17-9L164.2,343.8z"/>
							</g>
						</g>
					</g>
					<g>
						<g>
							<g>
								<path class="st6" d="M208.4,343.3c0,0,5.1,20.5,21.2,20.8c16.1,0.3,22.2-12.8,23.8-20.6l-17.7-9.4L208.4,343.3z"/>
							</g>
						</g>
						<g>
							<g>
								<path class="st7" d="M230.2,364.8c-0.2,0-0.4,0-0.5,0c-16.4-0.3-21.8-21.1-21.9-21.3l-0.2-0.6l28.2-9.6l18.4,9.8l-0.1,0.5
									C252,353.9,244.6,364.8,230.2,364.8z M209.2,343.8c1,3.4,6.6,19.4,20.4,19.6c0.2,0,0.3,0,0.5,0c16.8,0,21.5-15.3,22.4-19.6
									l-17-9L209.2,343.8z"/>
							</g>
						</g>
					</g>
					<g>
						<g>
							<g>
								<path class="st6" d="M253.4,343.3c0,0,5.1,20.5,21.2,20.8c16.1,0.3,22.2-12.8,23.8-20.6l-17.7-9.4L253.4,343.3z"/>
							</g>
						</g>
						<g>
							<g>
								<path class="st7" d="M275.2,364.8c-0.2,0-0.4,0-0.5,0c-16.4-0.3-21.9-21.1-21.9-21.3l-0.2-0.6l28.2-9.6l18.4,9.8l-0.1,0.5
									C297,353.9,289.6,364.8,275.2,364.8z M254.2,343.8c1,3.4,6.6,19.4,20.4,19.6c0.2,0,0.3,0,0.5,0c16.8,0,21.5-15.3,22.4-19.6
									l-17-9L254.2,343.8z"/>
							</g>
						</g>
					</g>
					<g>
						<g>
							<g>
								<path class="st6" d="M298.4,343.3c0,0,5.1,20.5,21.2,20.8c16.1,0.3,22.2-12.8,23.8-20.6l-17.7-9.4L298.4,343.3z"/>
							</g>
						</g>
						<g>
							<g>
								<path class="st7" d="M320.2,364.8c-0.2,0-0.4,0-0.5,0c-16.4-0.3-21.9-21.1-21.9-21.3l-0.2-0.6l28.2-9.6l18.4,9.8l-0.1,0.5
									C342,353.9,334.6,364.8,320.2,364.8z M299.2,343.8c1,3.4,6.6,19.4,20.4,19.6c0.2,0,0.3,0,0.5,0c16.8,0,21.5-15.3,22.4-19.6
									l-17-9L299.2,343.8z"/>
							</g>
						</g>
					</g>
					<g>
						<g>
							<g>
								<path class="st6" d="M343.4,343.3c0,0,5.1,20.5,21.2,20.8c16.1,0.3,22.2-12.8,23.8-20.6l-17.7-9.4L343.4,343.3z"/>
							</g>
						</g>
						<g>
							<g>
								<path class="st7" d="M365.2,364.8c-0.2,0-0.4,0-0.5,0c-16.4-0.3-21.9-21.1-21.9-21.3l-0.2-0.6l28.2-9.6l18.4,9.8l-0.1,0.5
									C387,353.9,379.6,364.8,365.2,364.8z M344.3,343.8c1,3.4,6.6,19.4,20.4,19.6c0.2,0,0.3,0,0.5,0c16.8,0,21.5-15.3,22.4-19.6
									l-17-9L344.3,343.8z"/>
							</g>
						</g>
					</g>
					<g>
						<g>
							<g>
								<path class="st6" d="M388.4,343.3c0,0,5.1,20.5,21.2,20.8c16.1,0.3,22.2-12.8,23.8-20.6l-17.7-9.4L388.4,343.3z"/>
							</g>
						</g>
						<g>
							<g>
								<path class="st7" d="M410.2,364.8c-0.2,0-0.4,0-0.5,0c-16.5-0.3-21.9-21.1-21.9-21.3l-0.2-0.6l28.2-9.6l18.4,9.8l-0.1,0.5
									C432,353.9,424.7,364.8,410.2,364.8z M389.3,343.8c1,3.4,6.6,19.4,20.4,19.6c0.2,0,0.3,0,0.5,0c16.8,0,21.5-15.3,22.4-19.6
									l-17-9L389.3,343.8z"/>
							</g>
						</g>
					</g>
					<g>
						<g>
							<g>
								<path class="st6" d="M433.4,343.3c0,0,5.1,20.5,21.2,20.8c16.1,0.3,22.2-12.8,23.8-20.6l-17.7-9.4L433.4,343.3z"/>
							</g>
						</g>
						<g>
							<g>
								<path class="st7" d="M455.2,364.8c-0.2,0-0.4,0-0.5,0c-16.5-0.3-21.9-21.1-21.9-21.3l-0.2-0.6l28.2-9.6l18.4,9.8l-0.1,0.5
									C477,353.9,469.7,364.8,455.2,364.8z M434.3,343.8c1,3.4,6.6,19.4,20.4,19.6c0.2,0,0.3,0,0.5,0c16.8,0,21.5-15.3,22.4-19.6
									l-17-9L434.3,343.8z"/>
							</g>
						</g>
					</g>
				</g>
				<g>
					<g>
						<g>
							<g>
								<path class="st6" d="M95.8,328.3c0,0,5.1,20.5,21.2,20.8c16.1,0.3,22.2-12.8,23.8-20.6l-17.7-9.4L95.8,328.3z"/>
							</g>
						</g>
						<g>
							<g>
								<path class="st7" d="M117.6,349.7c-0.2,0-0.4,0-0.5,0c-16.4-0.3-21.8-21.1-21.9-21.3l-0.2-0.6l28.2-9.6l18.4,9.8l-0.1,0.5
									C139.4,338.9,132.1,349.7,117.6,349.7z M96.7,328.7c1,3.4,6.6,19.4,20.4,19.6c0.2,0,0.3,0,0.5,0c16.8,0,21.5-15.3,22.4-19.6
									l-17-9L96.7,328.7z"/>
							</g>
						</g>
					</g>
					<g>
						<g>
							<g>
								<path class="st6" d="M140.9,328.3c0,0,5.1,20.5,21.2,20.8c16.1,0.3,22.2-12.8,23.8-20.6l-17.7-9.4L140.9,328.3z"/>
							</g>
						</g>
						<g>
							<g>
								<path class="st7" d="M162.6,349.7c-0.2,0-0.4,0-0.5,0c-16.4-0.3-21.8-21.1-21.9-21.3l-0.2-0.6l28.2-9.6l18.4,9.8l-0.1,0.5
									C184.5,338.9,177.1,349.7,162.6,349.7z M141.7,328.7c1,3.4,6.6,19.4,20.4,19.6c0.2,0,0.3,0,0.5,0
									c16.8,0,21.5-15.3,22.4-19.6l-17-9L141.7,328.7z"/>
							</g>
						</g>
					</g>
					<g>
						<g>
							<g>
								<path class="st6" d="M185.9,328.3c0,0,5.1,20.5,21.2,20.8c16.1,0.3,22.2-12.8,23.8-20.6l-17.7-9.4L185.9,328.3z"/>
							</g>
						</g>
						<g>
							<g>
								<path class="st7" d="M207.6,349.7c-0.2,0-0.4,0-0.5,0c-16.4-0.3-21.8-21.1-21.9-21.3l-0.2-0.6l28.2-9.6l18.4,9.8l-0.1,0.5
									C229.5,338.9,222.1,349.7,207.6,349.7z M186.7,328.7c1,3.4,6.6,19.4,20.4,19.6c0.2,0,0.3,0,0.5,0
									c16.8,0,21.5-15.3,22.4-19.6l-17-9L186.7,328.7z"/>
							</g>
						</g>
					</g>
					<g>
						<g>
							<g>
								<path class="st6" d="M230.9,328.3c0,0,5.1,20.5,21.2,20.8c16.1,0.3,22.2-12.8,23.8-20.6l-17.7-9.4L230.9,328.3z"/>
							</g>
						</g>
						<g>
							<g>
								<path class="st7" d="M252.7,349.7c-0.2,0-0.4,0-0.5,0c-16.4-0.3-21.9-21.1-21.9-21.3l-0.2-0.6l28.2-9.6l18.4,9.8l-0.1,0.5
									C274.5,338.9,267.1,349.7,252.7,349.7z M231.7,328.7c1,3.4,6.6,19.4,20.4,19.6c0.2,0,0.3,0,0.5,0
									c16.8,0,21.5-15.3,22.4-19.6l-17-9L231.7,328.7z"/>
							</g>
						</g>
					</g>
					<g>
						<g>
							<g>
								<path class="st6" d="M275.9,328.3c0,0,5.1,20.5,21.2,20.8c16.1,0.3,22.2-12.8,23.8-20.6l-17.7-9.4L275.9,328.3z"/>
							</g>
						</g>
						<g>
							<g>
								<path class="st7" d="M297.7,349.7c-0.2,0-0.4,0-0.5,0c-16.4-0.3-21.9-21.1-21.9-21.3l-0.2-0.6l28.2-9.6l18.4,9.8l-0.1,0.5
									C319.5,338.9,312.1,349.7,297.7,349.7z M276.7,328.7c1,3.4,6.6,19.4,20.4,19.6c0.2,0,0.3,0,0.5,0
									c16.8,0,21.5-15.3,22.4-19.6l-17-9L276.7,328.7z"/>
							</g>
						</g>
					</g>
					<g>
						<g>
							<g>
								<path class="st6" d="M320.9,328.3c0,0,5.1,20.5,21.2,20.8c16.1,0.3,22.2-12.8,23.8-20.6l-17.7-9.4L320.9,328.3z"/>
							</g>
						</g>
						<g>
							<g>
								<path class="st7" d="M342.7,349.7c-0.2,0-0.4,0-0.5,0c-16.4-0.3-21.9-21.1-21.9-21.3l-0.2-0.6l28.2-9.6l18.4,9.8l-0.1,0.5
									C364.5,338.9,357.1,349.7,342.7,349.7z M321.8,328.7c1,3.4,6.6,19.4,20.4,19.6c0.2,0,0.3,0,0.5,0
									c16.8,0,21.5-15.3,22.4-19.6l-17-9L321.8,328.7z"/>
							</g>
						</g>
					</g>
					<g>
						<g>
							<g>
								<path class="st6" d="M365.9,328.3c0,0,5.1,20.5,21.2,20.8c16.1,0.3,22.2-12.8,23.8-20.6l-17.7-9.4L365.9,328.3z"/>
							</g>
						</g>
						<g>
							<g>
								<path class="st7" d="M387.7,349.7c-0.2,0-0.4,0-0.5,0c-16.5-0.3-21.9-21.1-21.9-21.3l-0.2-0.6l28.2-9.6l18.4,9.8l-0.1,0.5
									C409.5,338.9,402.1,349.7,387.7,349.7z M366.8,328.7c1,3.4,6.6,19.4,20.4,19.6c0.2,0,0.3,0,0.5,0
									c16.8,0,21.5-15.3,22.4-19.6l-17-9L366.8,328.7z"/>
							</g>
						</g>
					</g>
					<g>
						<g>
							<g>
								<path class="st6" d="M410.9,328.3c0,0,5.1,20.5,21.2,20.8c16.1,0.3,22.2-12.8,23.8-20.6l-17.7-9.4L410.9,328.3z"/>
							</g>
						</g>
						<g>
							<g>
								<path class="st7" d="M432.7,349.7c-0.2,0-0.4,0-0.5,0c-16.5-0.3-21.9-21.1-21.9-21.3l-0.2-0.6l28.2-9.6l18.4,9.8l-0.1,0.5
									C454.5,338.9,447.2,349.7,432.7,349.7z M411.8,328.7c1,3.4,6.6,19.4,20.4,19.6c0.2,0,0.3,0,0.5,0
									c16.8,0,21.5-15.3,22.4-19.6l-17-9L411.8,328.7z"/>
							</g>
						</g>
					</g>
				</g>
				<g>
					<g>
						<g>
							<g>
								<path class="st6" d="M118.4,313.3c0,0,5.1,20.5,21.2,20.8c16.1,0.3,22.2-12.8,23.8-20.6l-17.7-9.4L118.4,313.3z"/>
							</g>
						</g>
						<g>
							<g>
								<path class="st7" d="M140.1,334.7c-0.2,0-0.4,0-0.5,0c-16.4-0.3-21.8-21.1-21.9-21.3l-0.2-0.6l28.2-9.6l18.4,9.8l-0.1,0.5
									C161.9,323.8,154.6,334.7,140.1,334.7z M119.2,313.7c1,3.4,6.6,19.4,20.4,19.6c0.2,0,0.4,0,0.5,0
									c16.8,0,21.5-15.3,22.4-19.6l-17-9L119.2,313.7z"/>
							</g>
						</g>
					</g>
					<g>
						<g>
							<g>
								<path class="st6" d="M163.4,313.3c0,0,5.1,20.5,21.2,20.8c16.1,0.3,22.2-12.8,23.8-20.6l-17.7-9.4L163.4,313.3z"/>
							</g>
						</g>
						<g>
							<g>
								<path class="st7" d="M185.1,334.7c-0.2,0-0.4,0-0.5,0c-16.4-0.3-21.8-21.1-21.9-21.3l-0.2-0.6l28.2-9.6l18.4,9.8l-0.1,0.5
									C207,323.8,199.6,334.7,185.1,334.7z M164.2,313.7c1,3.4,6.6,19.4,20.4,19.6c0.2,0,0.4,0,0.5,0c16.8,0,21.5-15.3,22.4-19.6
									l-17-9L164.2,313.7z"/>
							</g>
						</g>
					</g>
					<g>
						<g>
							<g>
								<path class="st6" d="M208.4,313.3c0,0,5.1,20.5,21.2,20.8c16.1,0.3,22.2-12.8,23.8-20.6l-17.7-9.4L208.4,313.3z"/>
							</g>
						</g>
						<g>
							<g>
								<path class="st7" d="M230.2,334.7c-0.2,0-0.4,0-0.5,0c-16.4-0.3-21.8-21.1-21.9-21.3l-0.2-0.6l28.2-9.6l18.4,9.8l-0.1,0.5
									C252,323.8,244.6,334.7,230.2,334.7z M209.2,313.7c1,3.4,6.6,19.4,20.4,19.6c0.2,0,0.4,0,0.5,0c16.8,0,21.5-15.3,22.4-19.6
									l-17-9L209.2,313.7z"/>
							</g>
						</g>
					</g>
					<g>
						<g>
							<g>
								<path class="st6" d="M253.4,313.3c0,0,5.1,20.5,21.2,20.8c16.1,0.3,22.2-12.8,23.8-20.6l-17.7-9.4L253.4,313.3z"/>
							</g>
						</g>
						<g>
							<g>
								<path class="st7" d="M275.2,334.7c-0.2,0-0.4,0-0.5,0c-16.4-0.3-21.9-21.1-21.9-21.3l-0.2-0.6l28.2-9.6l18.4,9.8l-0.1,0.5
									C297,323.8,289.6,334.7,275.2,334.7z M254.2,313.7c1,3.4,6.6,19.4,20.4,19.6c0.2,0,0.4,0,0.5,0c16.8,0,21.5-15.3,22.4-19.6
									l-17-9L254.2,313.7z"/>
							</g>
						</g>
					</g>
					<g>
						<g>
							<g>
								<path class="st6" d="M298.4,313.3c0,0,5.1,20.5,21.2,20.8c16.1,0.3,22.2-12.8,23.8-20.6l-17.7-9.4L298.4,313.3z"/>
							</g>
						</g>
						<g>
							<g>
								<path class="st7" d="M320.2,334.7c-0.2,0-0.4,0-0.5,0c-16.4-0.3-21.9-21.1-21.9-21.3l-0.2-0.6l28.2-9.6l18.4,9.8l-0.1,0.5
									C342,323.8,334.6,334.7,320.2,334.7z M299.2,313.7c1,3.4,6.6,19.4,20.4,19.6c0.2,0,0.4,0,0.5,0c16.8,0,21.5-15.3,22.4-19.6
									l-17-9L299.2,313.7z"/>
							</g>
						</g>
					</g>
					<g>
						<g>
							<g>
								<path class="st6" d="M343.4,313.3c0,0,5.1,20.5,21.2,20.8c16.1,0.3,22.2-12.8,23.8-20.6l-17.7-9.4L343.4,313.3z"/>
							</g>
						</g>
						<g>
							<g>
								<path class="st7" d="M365.2,334.7c-0.2,0-0.4,0-0.5,0c-16.4-0.3-21.9-21.1-21.9-21.3l-0.2-0.6l28.2-9.6l18.4,9.8l-0.1,0.5
									C387,323.8,379.6,334.7,365.2,334.7z M344.3,313.7c1,3.4,6.6,19.4,20.4,19.6c0.2,0,0.4,0,0.5,0c16.8,0,21.5-15.3,22.4-19.6
									l-17-9L344.3,313.7z"/>
							</g>
						</g>
					</g>
					<g>
						<g>
							<g>
								<path class="st6" d="M388.4,313.3c0,0,5.1,20.5,21.2,20.8c16.1,0.3,22.2-12.8,23.8-20.6l-17.7-9.4L388.4,313.3z"/>
							</g>
						</g>
						<g>
							<g>
								<path class="st7" d="M410.2,334.7c-0.2,0-0.4,0-0.5,0c-16.5-0.3-21.9-21.1-21.9-21.3l-0.2-0.6l28.2-9.6l18.4,9.8l-0.1,0.5
									C432,323.8,424.7,334.7,410.2,334.7z M389.3,313.7c1,3.4,6.6,19.4,20.4,19.6c0.2,0,0.4,0,0.5,0c16.8,0,21.5-15.3,22.4-19.6
									l-17-9L389.3,313.7z"/>
							</g>
						</g>
					</g>
					<g>
						<g>
							<g>
								<path class="st6" d="M433.4,313.3c0,0,5.1,20.5,21.2,20.8c16.1,0.3,22.2-12.8,23.8-20.6l-17.7-9.4L433.4,313.3z"/>
							</g>
						</g>
						<g>
							<g>
								<path class="st7" d="M455.2,334.7c-0.2,0-0.4,0-0.5,0c-16.5-0.3-21.9-21.1-21.9-21.3l-0.2-0.6l28.2-9.6l18.4,9.8l-0.1,0.5
									C477,323.8,469.7,334.7,455.2,334.7z M434.3,313.7c1,3.4,6.6,19.4,20.4,19.6c0.2,0,0.4,0,0.5,0c16.8,0,21.5-15.3,22.4-19.6
									l-17-9L434.3,313.7z"/>
							</g>
						</g>
					</g>
				</g>
				<g>
					<g>
						<g>
							<g>
								<path class="st6" d="M95.8,298.2c0,0,5.1,20.5,21.2,20.8c16.1,0.3,22.2-12.8,23.8-20.6l-17.7-9.4L95.8,298.2z"/>
							</g>
						</g>
						<g>
							<g>
								<path class="st7" d="M117.6,319.7c-0.2,0-0.4,0-0.5,0c-16.4-0.3-21.8-21.1-21.9-21.3l-0.2-0.6l28.2-9.6l18.4,9.8l-0.1,0.5
									C139.4,308.8,132.1,319.7,117.6,319.7z M96.7,298.7c1,3.4,6.6,19.4,20.4,19.6c0.2,0,0.3,0,0.5,0c16.8,0,21.5-15.3,22.4-19.6
									l-17-9L96.7,298.7z"/>
							</g>
						</g>
					</g>
					<g>
						<g>
							<g>
								<path class="st6" d="M140.9,298.2c0,0,5.1,20.5,21.2,20.8c16.1,0.3,22.2-12.8,23.8-20.6l-17.7-9.4L140.9,298.2z"/>
							</g>
						</g>
						<g>
							<g>
								<path class="st7" d="M162.6,319.7c-0.2,0-0.4,0-0.5,0c-16.4-0.3-21.8-21.1-21.9-21.3l-0.2-0.6l28.2-9.6l18.4,9.8l-0.1,0.5
									C184.5,308.8,177.1,319.7,162.6,319.7z M141.7,298.7c1,3.4,6.6,19.4,20.4,19.6c0.2,0,0.3,0,0.5,0
									c16.8,0,21.5-15.3,22.4-19.6l-17-9L141.7,298.7z"/>
							</g>
						</g>
					</g>
					<g>
						<g>
							<g>
								<path class="st6" d="M185.9,298.2c0,0,5.1,20.5,21.2,20.8c16.1,0.3,22.2-12.8,23.8-20.6l-17.7-9.4L185.9,298.2z"/>
							</g>
						</g>
						<g>
							<g>
								<path class="st7" d="M207.6,319.7c-0.2,0-0.4,0-0.5,0c-16.4-0.3-21.8-21.1-21.9-21.3l-0.2-0.6l28.2-9.6l18.4,9.8l-0.1,0.5
									C229.5,308.8,222.1,319.7,207.6,319.7z M186.7,298.7c1,3.4,6.6,19.4,20.4,19.6c0.2,0,0.3,0,0.5,0
									c16.8,0,21.5-15.3,22.4-19.6l-17-9L186.7,298.7z"/>
							</g>
						</g>
					</g>
					<g>
						<g>
							<g>
								<path class="st6" d="M230.9,298.2c0,0,5.1,20.5,21.2,20.8c16.1,0.3,22.2-12.8,23.8-20.6l-17.7-9.4L230.9,298.2z"/>
							</g>
						</g>
						<g>
							<g>
								<path class="st7" d="M252.7,319.7c-0.2,0-0.4,0-0.5,0c-16.4-0.3-21.9-21.1-21.9-21.3l-0.2-0.6l28.2-9.6l18.4,9.8l-0.1,0.5
									C274.5,308.8,267.1,319.7,252.7,319.7z M231.7,298.7c1,3.4,6.6,19.4,20.4,19.6c0.2,0,0.3,0,0.5,0
									c16.8,0,21.5-15.3,22.4-19.6l-17-9L231.7,298.7z"/>
							</g>
						</g>
					</g>
					<g>
						<g>
							<g>
								<path class="st6" d="M275.9,298.2c0,0,5.1,20.5,21.2,20.8c16.1,0.3,22.2-12.8,23.8-20.6l-17.7-9.4L275.9,298.2z"/>
							</g>
						</g>
						<g>
							<g>
								<path class="st7" d="M297.7,319.7c-0.2,0-0.4,0-0.5,0c-16.4-0.3-21.9-21.1-21.9-21.3l-0.2-0.6l28.2-9.6l18.4,9.8l-0.1,0.5
									C319.5,308.8,312.1,319.7,297.7,319.7z M276.7,298.7c1,3.4,6.6,19.4,20.4,19.6c0.2,0,0.3,0,0.5,0
									c16.8,0,21.5-15.3,22.4-19.6l-17-9L276.7,298.7z"/>
							</g>
						</g>
					</g>
					<g>
						<g>
							<g>
								<path class="st6" d="M320.9,298.2c0,0,5.1,20.5,21.2,20.8c16.1,0.3,22.2-12.8,23.8-20.6l-17.7-9.4L320.9,298.2z"/>
							</g>
						</g>
						<g>
							<g>
								<path class="st7" d="M342.7,319.7c-0.2,0-0.4,0-0.5,0c-16.4-0.3-21.9-21.1-21.9-21.3l-0.2-0.6l28.2-9.6l18.4,9.8l-0.1,0.5
									C364.5,308.8,357.1,319.7,342.7,319.7z M321.8,298.7c1,3.4,6.6,19.4,20.4,19.6c0.2,0,0.3,0,0.5,0
									c16.8,0,21.5-15.3,22.4-19.6l-17-9L321.8,298.7z"/>
							</g>
						</g>
					</g>
					<g>
						<g>
							<g>
								<path class="st6" d="M365.9,298.2c0,0,5.1,20.5,21.2,20.8c16.1,0.3,22.2-12.8,23.8-20.6l-17.7-9.4L365.9,298.2z"/>
							</g>
						</g>
						<g>
							<g>
								<path class="st7" d="M387.7,319.7c-0.2,0-0.4,0-0.5,0c-16.5-0.3-21.9-21.1-21.9-21.3l-0.2-0.6l28.2-9.6l18.4,9.8l-0.1,0.5
									C409.5,308.8,402.1,319.7,387.7,319.7z M366.8,298.7c1,3.4,6.6,19.4,20.4,19.6c0.2,0,0.3,0,0.5,0
									c16.8,0,21.5-15.3,22.4-19.6l-17-9L366.8,298.7z"/>
							</g>
						</g>
					</g>
					<g>
						<g>
							<g>
								<path class="st6" d="M410.9,298.2c0,0,5.1,20.5,21.2,20.8c16.1,0.3,22.2-12.8,23.8-20.6l-17.7-9.4L410.9,298.2z"/>
							</g>
						</g>
						<g>
							<g>
								<path class="st7" d="M432.7,319.7c-0.2,0-0.4,0-0.5,0c-16.5-0.3-21.9-21.1-21.9-21.3l-0.2-0.6l28.2-9.6l18.4,9.8l-0.1,0.5
									C454.5,308.8,447.2,319.7,432.7,319.7z M411.8,298.7c1,3.4,6.6,19.4,20.4,19.6c0.2,0,0.3,0,0.5,0
									c16.8,0,21.5-15.3,22.4-19.6l-17-9L411.8,298.7z"/>
							</g>
						</g>
					</g>
				</g>
				<g>
					<g>
						<g>
							<g>
								<path class="st6" d="M118.4,283.2c0,0,5.1,20.5,21.2,20.8c16.1,0.3,22.2-12.8,23.8-20.6l-17.7-9.4L118.4,283.2z"/>
							</g>
						</g>
						<g>
							<g>
								<path class="st7" d="M140.1,304.7c-0.2,0-0.4,0-0.5,0c-16.4-0.3-21.8-21.1-21.9-21.3l-0.2-0.6l28.2-9.6l18.4,9.8l-0.1,0.5
									C161.9,293.8,154.6,304.7,140.1,304.7z M119.2,283.7c1,3.4,6.6,19.4,20.4,19.6c0.2,0,0.3,0,0.5,0
									c16.8,0,21.5-15.3,22.4-19.6l-17-9L119.2,283.7z"/>
							</g>
						</g>
					</g>
					<g>
						<g>
							<g>
								<path class="st6" d="M163.4,283.2c0,0,5.1,20.5,21.2,20.8c16.1,0.3,22.2-12.8,23.8-20.6l-17.7-9.4L163.4,283.2z"/>
							</g>
						</g>
						<g>
							<g>
								<path class="st7" d="M185.1,304.7c-0.2,0-0.4,0-0.5,0c-16.4-0.3-21.8-21.1-21.9-21.3l-0.2-0.6l28.2-9.6l18.4,9.8l-0.1,0.5
									C207,293.8,199.6,304.7,185.1,304.7z M164.2,283.7c1,3.4,6.6,19.4,20.4,19.6c0.2,0,0.3,0,0.5,0c16.8,0,21.5-15.3,22.4-19.6
									l-17-9L164.2,283.7z"/>
							</g>
						</g>
					</g>
					<g>
						<g>
							<g>
								<path class="st6" d="M208.4,283.2c0,0,5.1,20.5,21.2,20.8c16.1,0.3,22.2-12.8,23.8-20.6l-17.7-9.4L208.4,283.2z"/>
							</g>
						</g>
						<g>
							<g>
								<path class="st7" d="M230.2,304.7c-0.2,0-0.4,0-0.5,0c-16.4-0.3-21.8-21.1-21.9-21.3l-0.2-0.6l28.2-9.6l18.4,9.8l-0.1,0.5
									C252,293.8,244.6,304.7,230.2,304.7z M209.2,283.7c1,3.4,6.6,19.4,20.4,19.6c0.2,0,0.3,0,0.5,0c16.8,0,21.5-15.3,22.4-19.6
									l-17-9L209.2,283.7z"/>
							</g>
						</g>
					</g>
					<g>
						<g>
							<g>
								<path class="st6" d="M253.4,283.2c0,0,5.1,20.5,21.2,20.8c16.1,0.3,22.2-12.8,23.8-20.6l-17.7-9.4L253.4,283.2z"/>
							</g>
						</g>
						<g>
							<g>
								<path class="st7" d="M275.2,304.7c-0.2,0-0.4,0-0.5,0c-16.4-0.3-21.9-21.1-21.9-21.3l-0.2-0.6l28.2-9.6l18.4,9.8l-0.1,0.5
									C297,293.8,289.6,304.7,275.2,304.7z M254.2,283.7c1,3.4,6.6,19.4,20.4,19.6c0.2,0,0.3,0,0.5,0c16.8,0,21.5-15.3,22.4-19.6
									l-17-9L254.2,283.7z"/>
							</g>
						</g>
					</g>
					<g>
						<g>
							<g>
								<path class="st6" d="M298.4,283.2c0,0,5.1,20.5,21.2,20.8c16.1,0.3,22.2-12.8,23.8-20.6l-17.7-9.4L298.4,283.2z"/>
							</g>
						</g>
						<g>
							<g>
								<path class="st7" d="M320.2,304.7c-0.2,0-0.4,0-0.5,0c-16.4-0.3-21.9-21.1-21.9-21.3l-0.2-0.6l28.2-9.6l18.4,9.8l-0.1,0.5
									C342,293.8,334.6,304.7,320.2,304.7z M299.2,283.7c1,3.4,6.6,19.4,20.4,19.6c0.2,0,0.3,0,0.5,0c16.8,0,21.5-15.3,22.4-19.6
									l-17-9L299.2,283.7z"/>
							</g>
						</g>
					</g>
					<g>
						<g>
							<g>
								<path class="st6" d="M343.4,283.2c0,0,5.1,20.5,21.2,20.8c16.1,0.3,22.2-12.8,23.8-20.6l-17.7-9.4L343.4,283.2z"/>
							</g>
						</g>
						<g>
							<g>
								<path class="st7" d="M365.2,304.7c-0.2,0-0.4,0-0.5,0c-16.4-0.3-21.9-21.1-21.9-21.3l-0.2-0.6l28.2-9.6l18.4,9.8l-0.1,0.5
									C387,293.8,379.6,304.7,365.2,304.7z M344.3,283.7c1,3.4,6.6,19.4,20.4,19.6c0.2,0,0.3,0,0.5,0c16.8,0,21.5-15.3,22.4-19.6
									l-17-9L344.3,283.7z"/>
							</g>
						</g>
					</g>
					<g>
						<g>
							<g>
								<path class="st6" d="M388.4,283.2c0,0,5.1,20.5,21.2,20.8c16.1,0.3,22.2-12.8,23.8-20.6l-17.7-9.4L388.4,283.2z"/>
							</g>
						</g>
						<g>
							<g>
								<path class="st7" d="M410.2,304.7c-0.2,0-0.4,0-0.5,0c-16.5-0.3-21.9-21.1-21.9-21.3l-0.2-0.6l28.2-9.6l18.4,9.8l-0.1,0.5
									C432,293.8,424.7,304.7,410.2,304.7z M389.3,283.7c1,3.4,6.6,19.4,20.4,19.6c0.2,0,0.3,0,0.5,0c16.8,0,21.5-15.3,22.4-19.6
									l-17-9L389.3,283.7z"/>
							</g>
						</g>
					</g>
					<g>
						<g>
							<g>
								<path class="st6" d="M433.4,283.2c0,0,5.1,20.5,21.2,20.8c16.1,0.3,22.2-12.8,23.8-20.6l-17.7-9.4L433.4,283.2z"/>
							</g>
						</g>
						<g>
							<g>
								<path class="st7" d="M455.2,304.7c-0.2,0-0.4,0-0.5,0c-16.5-0.3-21.9-21.1-21.9-21.3l-0.2-0.6l28.2-9.6l18.4,9.8l-0.1,0.5
									C477,293.8,469.7,304.7,455.2,304.7z M434.3,283.7c1,3.4,6.6,19.4,20.4,19.6c0.2,0,0.3,0,0.5,0c16.8,0,21.5-15.3,22.4-19.6
									l-17-9L434.3,283.7z"/>
							</g>
						</g>
					</g>
				</g>
				<g>
					<g>
						<g>
							<g>
								<path class="st6" d="M95.8,268.2c0,0,5.1,20.5,21.2,20.8c16.1,0.3,22.2-12.8,23.8-20.6l-17.7-9.4L95.8,268.2z"/>
							</g>
						</g>
						<g>
							<g>
								<path class="st7" d="M117.6,289.6c-0.2,0-0.4,0-0.5,0c-16.4-0.3-21.8-21.1-21.9-21.3l-0.2-0.6l28.2-9.6l18.4,9.8l-0.1,0.5
									C139.4,278.8,132.1,289.6,117.6,289.6z M96.7,268.6c1,3.4,6.6,19.4,20.4,19.6c17.3,0.4,22-15.3,23-19.6l-17-9L96.7,268.6z"
									/>
							</g>
						</g>
					</g>
					<g>
						<g>
							<g>
								<path class="st6" d="M140.9,268.2c0,0,5.1,20.5,21.2,20.8c16.1,0.3,22.2-12.8,23.8-20.6l-17.7-9.4L140.9,268.2z"/>
							</g>
						</g>
						<g>
							<g>
								<path class="st7" d="M162.6,289.6c-0.2,0-0.4,0-0.5,0c-16.4-0.3-21.8-21.1-21.9-21.3l-0.2-0.6l28.2-9.6l18.4,9.8l-0.1,0.5
									C184.5,278.8,177.1,289.6,162.6,289.6z M141.7,268.6c1,3.4,6.6,19.4,20.4,19.6c17.3,0.4,22-15.3,23-19.6l-17-9L141.7,268.6z
									"/>
							</g>
						</g>
					</g>
					<g>
						<g>
							<g>
								<path class="st6" d="M185.9,268.2c0,0,5.1,20.5,21.2,20.8c16.1,0.3,22.2-12.8,23.8-20.6l-17.7-9.4L185.9,268.2z"/>
							</g>
						</g>
						<g>
							<g>
								<path class="st7" d="M207.6,289.6c-0.2,0-0.4,0-0.5,0c-16.4-0.3-21.8-21.1-21.9-21.3l-0.2-0.6l28.2-9.6l18.4,9.8l-0.1,0.5
									C229.5,278.8,222.1,289.6,207.6,289.6z M186.7,268.6c1,3.4,6.6,19.4,20.4,19.6c0.2,0,0.3,0,0.5,0
									c16.8,0,21.5-15.3,22.4-19.6l-17-9L186.7,268.6z"/>
							</g>
						</g>
					</g>
					<g>
						<g>
							<g>
								<path class="st6" d="M230.9,268.2c0,0,5.1,20.5,21.2,20.8c16.1,0.3,22.2-12.8,23.8-20.6l-17.7-9.4L230.9,268.2z"/>
							</g>
						</g>
						<g>
							<g>
								<path class="st7" d="M252.7,289.6c-0.2,0-0.4,0-0.5,0c-16.4-0.3-21.9-21.1-21.9-21.3l-0.2-0.6l28.2-9.6l18.4,9.8l-0.1,0.5
									C274.5,278.8,267.1,289.6,252.7,289.6z M231.7,268.6c1,3.4,6.6,19.4,20.4,19.6c0.2,0,0.3,0,0.5,0
									c16.8,0,21.5-15.3,22.4-19.6l-17-9L231.7,268.6z"/>
							</g>
						</g>
					</g>
					<g>
						<g>
							<g>
								<path class="st6" d="M275.9,268.2c0,0,5.1,20.5,21.2,20.8c16.1,0.3,22.2-12.8,23.8-20.6l-17.7-9.4L275.9,268.2z"/>
							</g>
						</g>
						<g>
							<g>
								<path class="st7" d="M297.7,289.6c-0.2,0-0.4,0-0.5,0c-16.4-0.3-21.9-21.1-21.9-21.3l-0.2-0.6l28.2-9.6l18.4,9.8l-0.1,0.5
									C319.5,278.8,312.1,289.6,297.7,289.6z M276.7,268.6c1,3.4,6.6,19.4,20.4,19.6c0.2,0,0.3,0,0.5,0
									c16.8,0,21.5-15.3,22.4-19.6l-17-9L276.7,268.6z"/>
							</g>
						</g>
					</g>
					<g>
						<g>
							<g>
								<path class="st6" d="M320.9,268.2c0,0,5.1,20.5,21.2,20.8c16.1,0.3,22.2-12.8,23.8-20.6l-17.7-9.4L320.9,268.2z"/>
							</g>
						</g>
						<g>
							<g>
								<path class="st7" d="M342.7,289.6c-0.2,0-0.4,0-0.5,0c-16.4-0.3-21.9-21.1-21.9-21.3l-0.2-0.6l28.2-9.6l18.4,9.8l-0.1,0.5
									C364.5,278.8,357.1,289.6,342.7,289.6z M321.8,268.6c1,3.4,6.6,19.4,20.4,19.6c0.2,0,0.3,0,0.5,0
									c16.8,0,21.5-15.3,22.4-19.6l-17-9L321.8,268.6z"/>
							</g>
						</g>
					</g>
					<g>
						<g>
							<g>
								<path class="st6" d="M365.9,268.2c0,0,5.1,20.5,21.2,20.8c16.1,0.3,22.2-12.8,23.8-20.6l-17.7-9.4L365.9,268.2z"/>
							</g>
						</g>
						<g>
							<g>
								<path class="st7" d="M387.7,289.6c-0.2,0-0.4,0-0.5,0c-16.5-0.3-21.9-21.1-21.9-21.3l-0.2-0.6l28.2-9.6l18.4,9.8l-0.1,0.5
									C409.5,278.8,402.1,289.6,387.7,289.6z M366.8,268.6c1,3.4,6.6,19.4,20.4,19.6c0.2,0,0.3,0,0.5,0
									c16.8,0,21.5-15.3,22.4-19.6l-17-9L366.8,268.6z"/>
							</g>
						</g>
					</g>
					<g>
						<g>
							<g>
								<path class="st6" d="M410.9,268.2c0,0,5.1,20.5,21.2,20.8c16.1,0.3,22.2-12.8,23.8-20.6l-17.7-9.4L410.9,268.2z"/>
							</g>
						</g>
						<g>
							<g>
								<path class="st7" d="M432.7,289.6c-0.2,0-0.4,0-0.5,0c-16.5-0.3-21.9-21.1-21.9-21.3l-0.2-0.6l28.2-9.6l18.4,9.8l-0.1,0.5
									C454.5,278.8,447.2,289.6,432.7,289.6z M411.8,268.6c1,3.4,6.6,19.4,20.4,19.6c0.2,0,0.3,0,0.5,0
									c16.8,0,21.5-15.3,22.4-19.6l-17-9L411.8,268.6z"/>
							</g>
						</g>
					</g>
				</g>
				<g>
					<g>
						<g>
							<g>
								<path class="st6" d="M118.4,253.2c0,0,5.1,20.5,21.2,20.8c16.1,0.3,22.2-12.8,23.8-20.6l-17.7-9.4L118.4,253.2z"/>
							</g>
						</g>
						<g>
							<g>
								<path class="st7" d="M140.1,274.6c-0.2,0-0.4,0-0.5,0c-16.4-0.3-21.8-21.1-21.9-21.3l-0.2-0.6l28.2-9.6l18.4,9.8l-0.1,0.5
									C161.9,263.7,154.6,274.6,140.1,274.6z M119.2,253.6c1,3.4,6.6,19.4,20.4,19.6c17.3,0.4,22-15.3,23-19.6l-17-9L119.2,253.6z
									"/>
							</g>
						</g>
					</g>
					<g>
						<g>
							<g>
								<path class="st6" d="M163.4,253.2c0,0,5.1,20.5,21.2,20.8c16.1,0.3,22.2-12.8,23.8-20.6l-17.7-9.4L163.4,253.2z"/>
							</g>
						</g>
						<g>
							<g>
								<path class="st7" d="M185.1,274.6c-0.2,0-0.4,0-0.5,0c-16.4-0.3-21.8-21.1-21.9-21.3l-0.2-0.6l28.2-9.6l18.4,9.8l-0.1,0.5
									C207,263.7,199.6,274.6,185.1,274.6z M164.2,253.6c1,3.4,6.6,19.4,20.4,19.6c0.2,0,0.3,0,0.5,0c16.8,0,21.5-15.3,22.4-19.6
									l-17-9L164.2,253.6z"/>
							</g>
						</g>
					</g>
					<g>
						<g>
							<g>
								<path class="st6" d="M208.4,253.2c0,0,5.1,20.5,21.2,20.8c16.1,0.3,22.2-12.8,23.8-20.6l-17.7-9.4L208.4,253.2z"/>
							</g>
						</g>
						<g>
							<g>
								<path class="st7" d="M230.2,274.6c-0.2,0-0.4,0-0.5,0c-16.4-0.3-21.8-21.1-21.9-21.3l-0.2-0.6l28.2-9.6l18.4,9.8l-0.1,0.5
									C252,263.7,244.6,274.6,230.2,274.6z M209.2,253.6c1,3.4,6.6,19.4,20.4,19.6c0.2,0,0.3,0,0.5,0c16.8,0,21.5-15.3,22.4-19.6
									l-17-9L209.2,253.6z"/>
							</g>
						</g>
					</g>
					<g>
						<g>
							<g>
								<path class="st6" d="M253.4,253.2c0,0,5.1,20.5,21.2,20.8c16.1,0.3,22.2-12.8,23.8-20.6l-17.7-9.4L253.4,253.2z"/>
							</g>
						</g>
						<g>
							<g>
								<path class="st7" d="M275.2,274.6c-0.2,0-0.4,0-0.5,0c-16.4-0.3-21.9-21.1-21.9-21.3l-0.2-0.6l28.2-9.6l18.4,9.8l-0.1,0.5
									C297,263.7,289.6,274.6,275.2,274.6z M254.2,253.6c1,3.4,6.6,19.4,20.4,19.6c0.2,0,0.3,0,0.5,0c16.8,0,21.5-15.3,22.4-19.6
									l-17-9L254.2,253.6z"/>
							</g>
						</g>
					</g>
					<g>
						<g>
							<g>
								<path class="st6" d="M298.4,253.2c0,0,5.1,20.5,21.2,20.8c16.1,0.3,22.2-12.8,23.8-20.6l-17.7-9.4L298.4,253.2z"/>
							</g>
						</g>
						<g>
							<g>
								<path class="st7" d="M320.2,274.6c-0.2,0-0.4,0-0.5,0c-16.4-0.3-21.9-21.1-21.9-21.3l-0.2-0.6l28.2-9.6l18.4,9.8l-0.1,0.5
									C342,263.7,334.6,274.6,320.2,274.6z M299.2,253.6c1,3.4,6.6,19.4,20.4,19.6c0.2,0,0.3,0,0.5,0c16.8,0,21.5-15.3,22.4-19.6
									l-17-9L299.2,253.6z"/>
							</g>
						</g>
					</g>
					<g>
						<g>
							<g>
								<path class="st6" d="M343.4,253.2c0,0,5.1,20.5,21.2,20.8c16.1,0.3,22.2-12.8,23.8-20.6l-17.7-9.4L343.4,253.2z"/>
							</g>
						</g>
						<g>
							<g>
								<path class="st7" d="M365.2,274.6c-0.2,0-0.4,0-0.5,0c-16.4-0.3-21.9-21.1-21.9-21.3l-0.2-0.6l28.2-9.6l18.4,9.8l-0.1,0.5
									C387,263.7,379.6,274.6,365.2,274.6z M344.3,253.6c1,3.4,6.6,19.4,20.4,19.6c0.2,0,0.3,0,0.5,0c16.8,0,21.5-15.3,22.4-19.6
									l-17-9L344.3,253.6z"/>
							</g>
						</g>
					</g>
					<g>
						<g>
							<g>
								<path class="st6" d="M388.4,253.2c0,0,5.1,20.5,21.2,20.8c16.1,0.3,22.2-12.8,23.8-20.6l-17.7-9.4L388.4,253.2z"/>
							</g>
						</g>
						<g>
							<g>
								<path class="st7" d="M410.2,274.6c-0.2,0-0.4,0-0.5,0c-16.5-0.3-21.9-21.1-21.9-21.3l-0.2-0.6l28.2-9.6l18.4,9.8l-0.1,0.5
									C432,263.7,424.7,274.6,410.2,274.6z M389.3,253.6c1,3.4,6.6,19.4,20.4,19.6c0.2,0,0.3,0,0.5,0c16.8,0,21.5-15.3,22.4-19.6
									l-17-9L389.3,253.6z"/>
							</g>
						</g>
					</g>
					<g>
						<g>
							<g>
								<path class="st6" d="M433.4,253.2c0,0,5.1,20.5,21.2,20.8c16.1,0.3,22.2-12.8,23.8-20.6l-17.7-9.4L433.4,253.2z"/>
							</g>
						</g>
						<g>
							<g>
								<path class="st7" d="M455.2,274.6c-0.2,0-0.4,0-0.5,0c-16.5-0.3-21.9-21.1-21.9-21.3l-0.2-0.6l28.2-9.6l18.4,9.8l-0.1,0.5
									C477,263.7,469.7,274.6,455.2,274.6z M434.3,253.6c1,3.4,6.6,19.4,20.4,19.6c0.2,0,0.3,0,0.5,0c16.8,0,21.5-15.3,22.4-19.6
									l-17-9L434.3,253.6z"/>
							</g>
						</g>
					</g>
				</g>
				<g>
					<g>
						<g>
							<g>
								<path class="st6" d="M95.8,238.1c0,0,5.1,20.5,21.2,20.8c16.1,0.3,22.2-12.8,23.8-20.6l-17.7-9.4L95.8,238.1z"/>
							</g>
						</g>
						<g>
							<g>
								<path class="st7" d="M117.6,259.6c-0.2,0-0.4,0-0.5,0c-16.4-0.3-21.8-21.1-21.9-21.3l-0.2-0.6l28.2-9.6l18.4,9.8l-0.1,0.5
									C139.4,248.7,132.1,259.6,117.6,259.6z M96.7,238.6c1,3.4,6.6,19.4,20.4,19.6c0.2,0,0.3,0,0.5,0c16.8,0,21.5-15.3,22.4-19.6
									l-17-9L96.7,238.6z"/>
							</g>
						</g>
					</g>
					<g>
						<g>
							<g>
								<path class="st6" d="M140.9,238.1c0,0,5.1,20.5,21.2,20.8c16.1,0.3,22.2-12.8,23.8-20.6l-17.7-9.4L140.9,238.1z"/>
							</g>
						</g>
						<g>
							<g>
								<path class="st7" d="M162.6,259.6c-0.2,0-0.4,0-0.5,0c-16.4-0.3-21.8-21.1-21.9-21.3l-0.2-0.6l28.2-9.6l18.4,9.8l-0.1,0.5
									C184.5,248.7,177.1,259.6,162.6,259.6z M141.7,238.6c1,3.4,6.6,19.4,20.4,19.6c0.2,0,0.3,0,0.5,0
									c16.8,0,21.5-15.3,22.4-19.6l-17-9L141.7,238.6z"/>
							</g>
						</g>
					</g>
					<g>
						<g>
							<g>
								<path class="st6" d="M185.9,238.1c0,0,5.1,20.5,21.2,20.8c16.1,0.3,22.2-12.8,23.8-20.6l-17.7-9.4L185.9,238.1z"/>
							</g>
						</g>
						<g>
							<g>
								<path class="st7" d="M207.6,259.6c-0.2,0-0.4,0-0.5,0c-16.4-0.3-21.8-21.1-21.9-21.3l-0.2-0.6l28.2-9.6l18.4,9.8l-0.1,0.5
									C229.5,248.7,222.1,259.6,207.6,259.6z M186.7,238.6c1,3.4,6.6,19.4,20.4,19.6c0.2,0,0.3,0,0.5,0
									c16.8,0,21.5-15.3,22.4-19.6l-17-9L186.7,238.6z"/>
							</g>
						</g>
					</g>
					<g>
						<g>
							<g>
								<path class="st6" d="M230.9,238.1c0,0,5.1,20.5,21.2,20.8c16.1,0.3,22.2-12.8,23.8-20.6l-17.7-9.4L230.9,238.1z"/>
							</g>
						</g>
						<g>
							<g>
								<path class="st7" d="M252.7,259.6c-0.2,0-0.4,0-0.5,0c-16.4-0.3-21.9-21.1-21.9-21.3l-0.2-0.6l28.2-9.6l18.4,9.8l-0.1,0.5
									C274.5,248.7,267.1,259.6,252.7,259.6z M231.7,238.6c1,3.4,6.6,19.4,20.4,19.6c0.2,0,0.3,0,0.5,0
									c16.8,0,21.5-15.3,22.4-19.6l-17-9L231.7,238.6z"/>
							</g>
						</g>
					</g>
					<g>
						<g>
							<g>
								<path class="st6" d="M275.9,238.1c0,0,5.1,20.5,21.2,20.8c16.1,0.3,22.2-12.8,23.8-20.6l-17.7-9.4L275.9,238.1z"/>
							</g>
						</g>
						<g>
							<g>
								<path class="st7" d="M297.7,259.6c-0.2,0-0.4,0-0.5,0c-16.4-0.3-21.9-21.1-21.9-21.3l-0.2-0.6l28.2-9.6l18.4,9.8l-0.1,0.5
									C319.5,248.7,312.1,259.6,297.7,259.6z M276.7,238.6c1,3.4,6.6,19.4,20.4,19.6c0.2,0,0.3,0,0.5,0
									c16.8,0,21.5-15.3,22.4-19.6l-17-9L276.7,238.6z"/>
							</g>
						</g>
					</g>
					<g>
						<g>
							<g>
								<path class="st6" d="M320.9,238.1c0,0,5.1,20.5,21.2,20.8c16.1,0.3,22.2-12.8,23.8-20.6l-17.7-9.4L320.9,238.1z"/>
							</g>
						</g>
						<g>
							<g>
								<path class="st7" d="M342.7,259.6c-0.2,0-0.4,0-0.5,0c-16.4-0.3-21.9-21.1-21.9-21.3l-0.2-0.6l28.2-9.6l18.4,9.8l-0.1,0.5
									C364.5,248.7,357.1,259.6,342.7,259.6z M321.8,238.6c1,3.4,6.6,19.4,20.4,19.6c0.2,0,0.3,0,0.5,0
									c16.8,0,21.5-15.3,22.4-19.6l-17-9L321.8,238.6z"/>
							</g>
						</g>
					</g>
					<g>
						<g>
							<g>
								<path class="st6" d="M365.9,238.1c0,0,5.1,20.5,21.2,20.8c16.1,0.3,22.2-12.8,23.8-20.6l-17.7-9.4L365.9,238.1z"/>
							</g>
						</g>
						<g>
							<g>
								<path class="st7" d="M387.7,259.6c-0.2,0-0.4,0-0.5,0c-16.5-0.3-21.9-21.1-21.9-21.3l-0.2-0.6l28.2-9.6l18.4,9.8l-0.1,0.5
									C409.5,248.7,402.1,259.6,387.7,259.6z M366.8,238.6c1,3.4,6.6,19.4,20.4,19.6c0.2,0,0.3,0,0.5,0
									c16.8,0,21.5-15.3,22.4-19.6l-17-9L366.8,238.6z"/>
							</g>
						</g>
					</g>
					<g>
						<g>
							<g>
								<path class="st6" d="M410.9,238.1c0,0,5.1,20.5,21.2,20.8c16.1,0.3,22.2-12.8,23.8-20.6l-17.7-9.4L410.9,238.1z"/>
							</g>
						</g>
						<g>
							<g>
								<path class="st7" d="M432.7,259.6c-0.2,0-0.4,0-0.5,0c-16.5-0.3-21.9-21.1-21.9-21.3l-0.2-0.6l28.2-9.6l18.4,9.8l-0.1,0.5
									C454.5,248.7,447.2,259.6,432.7,259.6z M411.8,238.6c1,3.4,6.6,19.4,20.4,19.6c0.2,0,0.3,0,0.5,0
									c16.8,0,21.5-15.3,22.4-19.6l-17-9L411.8,238.6z"/>
							</g>
						</g>
					</g>
				</g>
				<g>
					<g>
						<g>
							<g>
								<path class="st6" d="M118.4,223.1c0,0,5.1,20.5,21.2,20.8c16.1,0.3,22.2-12.8,23.8-20.6l-17.7-9.4L118.4,223.1z"/>
							</g>
						</g>
						<g>
							<g>
								<path class="st7" d="M140.1,244.6c-0.2,0-0.4,0-0.5,0c-16.4-0.3-21.8-21.1-21.9-21.3l-0.2-0.6l28.2-9.6l18.4,9.8l-0.1,0.5
									C161.9,233.7,154.6,244.6,140.1,244.6z M119.2,223.6c1,3.4,6.6,19.4,20.4,19.6c0.2,0,0.3,0,0.5,0
									c16.8,0,21.5-15.3,22.4-19.6l-17-9L119.2,223.6z"/>
							</g>
						</g>
					</g>
					<g>
						<g>
							<g>
								<path class="st6" d="M163.4,223.1c0,0,5.1,20.5,21.2,20.8c16.1,0.3,22.2-12.8,23.8-20.6l-17.7-9.4L163.4,223.1z"/>
							</g>
						</g>
						<g>
							<g>
								<path class="st7" d="M185.1,244.6c-0.2,0-0.4,0-0.5,0c-16.4-0.3-21.8-21.1-21.9-21.3l-0.2-0.6l28.2-9.6l18.4,9.8l-0.1,0.5
									C207,233.7,199.6,244.6,185.1,244.6z M164.2,223.6c1,3.4,6.6,19.4,20.4,19.6c0.2,0,0.3,0,0.5,0c16.8,0,21.5-15.3,22.4-19.6
									l-17-9L164.2,223.6z"/>
							</g>
						</g>
					</g>
					<g>
						<g>
							<g>
								<path class="st6" d="M208.4,223.1c0,0,5.1,20.5,21.2,20.8c16.1,0.3,22.2-12.8,23.8-20.6l-17.7-9.4L208.4,223.1z"/>
							</g>
						</g>
						<g>
							<g>
								<path class="st7" d="M230.2,244.6c-0.2,0-0.4,0-0.5,0c-16.4-0.3-21.8-21.1-21.9-21.3l-0.2-0.6l28.2-9.6l18.4,9.8l-0.1,0.5
									C252,233.7,244.6,244.6,230.2,244.6z M209.2,223.6c1,3.4,6.6,19.4,20.4,19.6c0.2,0,0.3,0,0.5,0c16.8,0,21.5-15.3,22.4-19.6
									l-17-9L209.2,223.6z"/>
							</g>
						</g>
					</g>
					<g>
						<g>
							<g>
								<path class="st6" d="M253.4,223.1c0,0,5.1,20.5,21.2,20.8s22.2-12.8,23.8-20.6l-17.7-9.4L253.4,223.1z"/>
							</g>
						</g>
						<g>
							<g>
								<path class="st7" d="M275.2,244.6c-0.2,0-0.4,0-0.5,0c-16.4-0.3-21.9-21.1-21.9-21.3l-0.2-0.6l28.2-9.6l18.4,9.8l-0.1,0.5
									C297,233.7,289.6,244.6,275.2,244.6z M254.2,223.6c1,3.4,6.6,19.4,20.4,19.6c0.2,0,0.3,0,0.5,0c16.8,0,21.5-15.3,22.4-19.6
									l-17-9L254.2,223.6z"/>
							</g>
						</g>
					</g>
					<g>
						<g>
							<g>
								<path class="st6" d="M298.4,223.1c0,0,5.1,20.5,21.2,20.8s22.2-12.8,23.8-20.6l-17.7-9.4L298.4,223.1z"/>
							</g>
						</g>
						<g>
							<g>
								<path class="st7" d="M320.2,244.6c-0.2,0-0.4,0-0.5,0c-16.4-0.3-21.9-21.1-21.9-21.3l-0.2-0.6l28.2-9.6l18.4,9.8l-0.1,0.5
									C342,233.7,334.6,244.6,320.2,244.6z M299.2,223.6c1,3.4,6.6,19.4,20.4,19.6c0.2,0,0.3,0,0.5,0c16.8,0,21.5-15.3,22.4-19.6
									l-17-9L299.2,223.6z"/>
							</g>
						</g>
					</g>
					<g>
						<g>
							<g>
								<path class="st6" d="M343.4,223.1c0,0,5.1,20.5,21.2,20.8c16.1,0.3,22.2-12.8,23.8-20.6l-17.7-9.4L343.4,223.1z"/>
							</g>
						</g>
						<g>
							<g>
								<path class="st7" d="M365.2,244.6c-0.2,0-0.4,0-0.5,0c-16.4-0.3-21.9-21.1-21.9-21.3l-0.2-0.6l28.2-9.6l18.4,9.8l-0.1,0.5
									C387,233.7,379.6,244.6,365.2,244.6z M344.3,223.6c1,3.4,6.6,19.4,20.4,19.6c0.2,0,0.3,0,0.5,0c16.8,0,21.5-15.3,22.4-19.6
									l-17-9L344.3,223.6z"/>
							</g>
						</g>
					</g>
					<g>
						<g>
							<g>
								<path class="st6" d="M388.4,223.1c0,0,5.1,20.5,21.2,20.8c16.1,0.3,22.2-12.8,23.8-20.6l-17.7-9.4L388.4,223.1z"/>
							</g>
						</g>
						<g>
							<g>
								<path class="st7" d="M410.2,244.6c-0.2,0-0.4,0-0.5,0c-16.5-0.3-21.9-21.1-21.9-21.3l-0.2-0.6l28.2-9.6l18.4,9.8l-0.1,0.5
									C432,233.7,424.7,244.6,410.2,244.6z M389.3,223.6c1,3.4,6.6,19.4,20.4,19.6c0.2,0,0.3,0,0.5,0c16.8,0,21.5-15.3,22.4-19.6
									l-17-9L389.3,223.6z"/>
							</g>
						</g>
					</g>
					<g>
						<g>
							<g>
								<path class="st6" d="M433.4,223.1c0,0,5.1,20.5,21.2,20.8c16.1,0.3,22.2-12.8,23.8-20.6l-17.7-9.4L433.4,223.1z"/>
							</g>
						</g>
						<g>
							<g>
								<path class="st7" d="M455.2,244.6c-0.2,0-0.4,0-0.5,0c-16.5-0.3-21.9-21.1-21.9-21.3l-0.2-0.6l28.2-9.6l18.4,9.8l-0.1,0.5
									C477,233.7,469.7,244.6,455.2,244.6z M434.3,223.6c1,3.4,6.6,19.4,20.4,19.6c0.2,0,0.3,0,0.5,0c16.8,0,21.5-15.3,22.4-19.6
									l-17-9L434.3,223.6z"/>
							</g>
						</g>
					</g>
				</g>
				<g>
					<g>
						<g>
							<g>
								<path class="st6" d="M95.8,208.1c0,0,5.1,20.5,21.2,20.8c16.1,0.3,22.2-12.8,23.8-20.6l-17.7-9.4L95.8,208.1z"/>
							</g>
						</g>
						<g>
							<g>
								<path class="st7" d="M117.6,229.5c-0.2,0-0.4,0-0.5,0c-16.4-0.3-21.8-21.1-21.9-21.3l-0.2-0.6l28.2-9.6l18.4,9.8l-0.1,0.5
									C139.4,218.7,132.1,229.5,117.6,229.5z M96.7,208.5c1,3.4,6.6,19.4,20.4,19.6c0.2,0,0.3,0,0.5,0c16.8,0,21.5-15.3,22.4-19.6
									l-17-9L96.7,208.5z"/>
							</g>
						</g>
					</g>
					<g>
						<g>
							<g>
								<path class="st6" d="M140.9,208.1c0,0,5.1,20.5,21.2,20.8c16.1,0.3,22.2-12.8,23.8-20.6l-17.7-9.4L140.9,208.1z"/>
							</g>
						</g>
						<g>
							<g>
								<path class="st7" d="M162.6,229.5c-0.2,0-0.4,0-0.5,0c-16.4-0.3-21.8-21.1-21.9-21.3l-0.2-0.6l28.2-9.6l18.4,9.8l-0.1,0.5
									C184.5,218.7,177.1,229.5,162.6,229.5z M141.7,208.5c1,3.4,6.6,19.4,20.4,19.6c0.2,0,0.3,0,0.5,0
									c16.8,0,21.5-15.3,22.4-19.6l-17-9L141.7,208.5z"/>
							</g>
						</g>
					</g>
					<g>
						<g>
							<g>
								<path class="st6" d="M185.9,208.1c0,0,5.1,20.5,21.2,20.8c16.1,0.3,22.2-12.8,23.8-20.6l-17.7-9.4L185.9,208.1z"/>
							</g>
						</g>
						<g>
							<g>
								<path class="st7" d="M207.6,229.5c-0.2,0-0.4,0-0.5,0c-16.4-0.3-21.8-21.1-21.9-21.3l-0.2-0.6l28.2-9.6l18.4,9.8l-0.1,0.5
									C229.5,218.7,222.1,229.5,207.6,229.5z M186.7,208.5c1,3.4,6.6,19.4,20.4,19.6c0.2,0,0.3,0,0.5,0
									c16.8,0,21.5-15.3,22.4-19.6l-17-9L186.7,208.5z"/>
							</g>
						</g>
					</g>
					<g>
						<g>
							<g>
								<path class="st6" d="M230.9,208.1c0,0,5.1,20.5,21.2,20.8c16.1,0.3,22.2-12.8,23.8-20.6l-17.7-9.4L230.9,208.1z"/>
							</g>
						</g>
						<g>
							<g>
								<path class="st7" d="M252.7,229.5c-0.2,0-0.4,0-0.5,0c-16.4-0.3-21.9-21.1-21.9-21.3l-0.2-0.6l28.2-9.6l18.4,9.8l-0.1,0.5
									C274.5,218.7,267.1,229.5,252.7,229.5z M231.7,208.5c1,3.4,6.6,19.4,20.4,19.6c0.2,0,0.3,0,0.5,0
									c16.8,0,21.5-15.3,22.4-19.6l-17-9L231.7,208.5z"/>
							</g>
						</g>
					</g>
					<g>
						<g>
							<g>
								<path class="st6" d="M275.9,208.1c0,0,5.1,20.5,21.2,20.8c16.1,0.3,22.2-12.8,23.8-20.6l-17.7-9.4L275.9,208.1z"/>
							</g>
						</g>
						<g>
							<g>
								<path class="st7" d="M297.7,229.5c-0.2,0-0.4,0-0.5,0c-16.4-0.3-21.9-21.1-21.9-21.3l-0.2-0.6l28.2-9.6l18.4,9.8l-0.1,0.5
									C319.5,218.7,312.1,229.5,297.7,229.5z M276.7,208.5c1,3.4,6.6,19.4,20.4,19.6c0.2,0,0.3,0,0.5,0
									c16.8,0,21.5-15.3,22.4-19.6l-17-9L276.7,208.5z"/>
							</g>
						</g>
					</g>
					<g>
						<g>
							<g>
								<path class="st6" d="M320.9,208.1c0,0,5.1,20.5,21.2,20.8c16.1,0.3,22.2-12.8,23.8-20.6l-17.7-9.4L320.9,208.1z"/>
							</g>
						</g>
						<g>
							<g>
								<path class="st7" d="M342.7,229.5c-0.2,0-0.4,0-0.5,0c-16.4-0.3-21.9-21.1-21.9-21.3l-0.2-0.6l28.2-9.6l18.4,9.8l-0.1,0.5
									C364.5,218.7,357.1,229.5,342.7,229.5z M321.8,208.5c1,3.4,6.6,19.4,20.4,19.6c0.2,0,0.3,0,0.5,0
									c16.8,0,21.5-15.3,22.4-19.6l-17-9L321.8,208.5z"/>
							</g>
						</g>
					</g>
					<g>
						<g>
							<g>
								<path class="st6" d="M365.9,208.1c0,0,5.1,20.5,21.2,20.8c16.1,0.3,22.2-12.8,23.8-20.6l-17.7-9.4L365.9,208.1z"/>
							</g>
						</g>
						<g>
							<g>
								<path class="st7" d="M387.7,229.5c-0.2,0-0.4,0-0.5,0c-16.5-0.3-21.9-21.1-21.9-21.3l-0.2-0.6l28.2-9.6l18.4,9.8l-0.1,0.5
									C409.5,218.7,402.1,229.5,387.7,229.5z M366.8,208.5c1,3.4,6.6,19.4,20.4,19.6c0.2,0,0.3,0,0.5,0
									c16.8,0,21.5-15.3,22.4-19.6l-17-9L366.8,208.5z"/>
							</g>
						</g>
					</g>
					<g>
						<g>
							<g>
								<path class="st6" d="M410.9,208.1c0,0,5.1,20.5,21.2,20.8c16.1,0.3,22.2-12.8,23.8-20.6l-17.7-9.4L410.9,208.1z"/>
							</g>
						</g>
						<g>
							<g>
								<path class="st7" d="M432.7,229.5c-0.2,0-0.4,0-0.5,0c-16.5-0.3-21.9-21.1-21.9-21.3l-0.2-0.6l28.2-9.6l18.4,9.8l-0.1,0.5
									C454.5,218.7,447.2,229.5,432.7,229.5z M411.8,208.5c1,3.4,6.6,19.4,20.4,19.6c0.2,0,0.3,0,0.5,0
									c16.8,0,21.5-15.3,22.4-19.6l-17-9L411.8,208.5z"/>
							</g>
						</g>
					</g>
				</g>
				<g>
					<g>
						<g>
							<g>
								<path class="st6" d="M118.4,193.1c0,0,5.1,20.5,21.2,20.8c16.1,0.3,22.2-12.8,23.8-20.6l-17.7-9.4L118.4,193.1z"/>
							</g>
						</g>
						<g>
							<g>
								<path class="st7" d="M140.1,214.5c-0.2,0-0.4,0-0.5,0c-16.4-0.3-21.8-21.1-21.9-21.3l-0.2-0.6l28.2-9.6l18.4,9.8l-0.1,0.5
									C161.9,203.6,154.6,214.5,140.1,214.5z M119.2,193.5c1,3.4,6.6,19.4,20.4,19.6c0.2,0,0.3,0,0.5,0
									c16.8,0,21.5-15.3,22.4-19.6l-17-9L119.2,193.5z"/>
							</g>
						</g>
					</g>
					<g>
						<g>
							<g>
								<path class="st6" d="M163.4,193.1c0,0,5.1,20.5,21.2,20.8c16.1,0.3,22.2-12.8,23.8-20.6l-17.7-9.4L163.4,193.1z"/>
							</g>
						</g>
						<g>
							<g>
								<path class="st7" d="M185.1,214.5c-0.2,0-0.4,0-0.5,0c-16.4-0.3-21.8-21.1-21.9-21.3l-0.2-0.6l28.2-9.6l18.4,9.8l-0.1,0.5
									C207,203.6,199.6,214.5,185.1,214.5z M164.2,193.5c1,3.4,6.6,19.4,20.4,19.6c0.2,0,0.3,0,0.5,0c16.8,0,21.5-15.3,22.4-19.6
									l-17-9L164.2,193.5z"/>
							</g>
						</g>
					</g>
					<g>
						<g>
							<g>
								<path class="st6" d="M208.4,193.1c0,0,5.1,20.5,21.2,20.8c16.1,0.3,22.2-12.8,23.8-20.6l-17.7-9.4L208.4,193.1z"/>
							</g>
						</g>
						<g>
							<g>
								<path class="st7" d="M230.2,214.5c-0.2,0-0.4,0-0.5,0c-16.4-0.3-21.8-21.1-21.9-21.3l-0.2-0.6l28.2-9.6l18.4,9.8l-0.1,0.5
									C252,203.6,244.6,214.5,230.2,214.5z M209.2,193.5c1,3.4,6.6,19.4,20.4,19.6c0.2,0,0.3,0,0.5,0c16.8,0,21.5-15.3,22.4-19.6
									l-17-9L209.2,193.5z"/>
							</g>
						</g>
					</g>
					<g>
						<g>
							<g>
								<path class="st6" d="M253.4,193.1c0,0,5.1,20.5,21.2,20.8c16.1,0.3,22.2-12.8,23.8-20.6l-17.7-9.4L253.4,193.1z"/>
							</g>
						</g>
						<g>
							<g>
								<path class="st7" d="M275.2,214.5c-0.2,0-0.4,0-0.5,0c-16.4-0.3-21.9-21.1-21.9-21.3l-0.2-0.6l28.2-9.6l18.4,9.8l-0.1,0.5
									C297,203.6,289.6,214.5,275.2,214.5z M254.2,193.5c1,3.4,6.6,19.4,20.4,19.6c0.2,0,0.3,0,0.5,0c16.8,0,21.5-15.3,22.4-19.6
									l-17-9L254.2,193.5z"/>
							</g>
						</g>
					</g>
					<g>
						<g>
							<g>
								<path class="st6" d="M298.4,193.1c0,0,5.1,20.5,21.2,20.8c16.1,0.3,22.2-12.8,23.8-20.6l-17.7-9.4L298.4,193.1z"/>
							</g>
						</g>
						<g>
							<g>
								<path class="st7" d="M320.2,214.5c-0.2,0-0.4,0-0.5,0c-16.4-0.3-21.9-21.1-21.9-21.3l-0.2-0.6l28.2-9.6l18.4,9.8l-0.1,0.5
									C342,203.6,334.6,214.5,320.2,214.5z M299.2,193.5c1,3.4,6.6,19.4,20.4,19.6c0.2,0,0.3,0,0.5,0c16.8,0,21.5-15.3,22.4-19.6
									l-17-9L299.2,193.5z"/>
							</g>
						</g>
					</g>
					<g>
						<g>
							<g>
								<path class="st6" d="M343.4,193.1c0,0,5.1,20.5,21.2,20.8c16.1,0.3,22.2-12.8,23.8-20.6l-17.7-9.4L343.4,193.1z"/>
							</g>
						</g>
						<g>
							<g>
								<path class="st7" d="M365.2,214.5c-0.2,0-0.4,0-0.5,0c-16.4-0.3-21.9-21.1-21.9-21.3l-0.2-0.6l28.2-9.6l18.4,9.8l-0.1,0.5
									C387,203.6,379.6,214.5,365.2,214.5z M344.3,193.5c1,3.4,6.6,19.4,20.4,19.6c0.2,0,0.3,0,0.5,0c16.8,0,21.5-15.3,22.4-19.6
									l-17-9L344.3,193.5z"/>
							</g>
						</g>
					</g>
					<g>
						<g>
							<g>
								<path class="st6" d="M388.4,193.1c0,0,5.1,20.5,21.2,20.8c16.1,0.3,22.2-12.8,23.8-20.6l-17.7-9.4L388.4,193.1z"/>
							</g>
						</g>
						<g>
							<g>
								<path class="st7" d="M410.2,214.5c-0.2,0-0.4,0-0.5,0c-16.5-0.3-21.9-21.1-21.9-21.3l-0.2-0.6l28.2-9.6l18.4,9.8l-0.1,0.5
									C432,203.6,424.7,214.5,410.2,214.5z M389.3,193.5c1,3.4,6.6,19.4,20.4,19.6c0.2,0,0.3,0,0.5,0c16.8,0,21.5-15.3,22.4-19.6
									l-17-9L389.3,193.5z"/>
							</g>
						</g>
					</g>
					<g>
						<g>
							<g>
								<path class="st6" d="M433.4,193.1c0,0,5.1,20.5,21.2,20.8c16.1,0.3,22.2-12.8,23.8-20.6l-17.7-9.4L433.4,193.1z"/>
							</g>
						</g>
						<g>
							<g>
								<path class="st7" d="M455.2,214.5c-0.2,0-0.4,0-0.5,0c-16.5-0.3-21.9-21.1-21.9-21.3l-0.2-0.6l28.2-9.6l18.4,9.8l-0.1,0.5
									C477,203.6,469.7,214.5,455.2,214.5z M434.3,193.5c1,3.4,6.6,19.4,20.4,19.6c0.2,0,0.3,0,0.5,0c16.8,0,21.5-15.3,22.4-19.6
									l-17-9L434.3,193.5z"/>
							</g>
						</g>
					</g>
				</g>
				<g>
					<g>
						<g>
							<g>
								<path class="st6" d="M95.8,182.2c0,0,5.1,20.5,21.2,20.8c16.1,0.3,22.2-12.8,23.8-20.6l-17.7-9.4L95.8,182.2z"/>
							</g>
						</g>
						<g>
							<g>
								<path class="st7" d="M117.6,203.7c-0.2,0-0.4,0-0.5,0c-16.4-0.3-21.8-21.1-21.9-21.3l-0.2-0.6l28.2-9.6l18.4,9.8l-0.1,0.5
									C139.4,192.8,132.1,203.7,117.6,203.7z M96.7,182.7c1,3.4,6.6,19.4,20.4,19.6c0.2,0,0.3,0,0.5,0c16.8,0,21.5-15.3,22.4-19.6
									l-17-9L96.7,182.7z"/>
							</g>
						</g>
					</g>
					<g>
						<g>
							<g>
								<path class="st6" d="M140.9,182.2c0,0,5.1,20.5,21.2,20.8c16.1,0.3,22.2-12.8,23.8-20.6l-17.7-9.4L140.9,182.2z"/>
							</g>
						</g>
						<g>
							<g>
								<path class="st7" d="M162.6,203.7c-0.2,0-0.4,0-0.5,0c-16.4-0.3-21.8-21.1-21.9-21.3l-0.2-0.6l28.2-9.6l18.4,9.8l-0.1,0.5
									C184.5,192.8,177.1,203.7,162.6,203.7z M141.7,182.7c1,3.4,6.6,19.4,20.4,19.6c0.2,0,0.3,0,0.5,0
									c16.8,0,21.5-15.3,22.4-19.6l-17-9L141.7,182.7z"/>
							</g>
						</g>
					</g>
					<g>
						<g>
							<g>
								<path class="st6" d="M185.9,182.2c0,0,5.1,20.5,21.2,20.8c16.1,0.3,22.2-12.8,23.8-20.6l-17.7-9.4L185.9,182.2z"/>
							</g>
						</g>
						<g>
							<g>
								<path class="st7" d="M207.6,203.7c-0.2,0-0.4,0-0.5,0c-16.4-0.3-21.8-21.1-21.9-21.3l-0.2-0.6l28.2-9.6l18.4,9.8l-0.1,0.5
									C229.5,192.8,222.1,203.7,207.6,203.7z M186.7,182.7c1,3.4,6.6,19.4,20.4,19.6c0.2,0,0.3,0,0.5,0
									c16.8,0,21.5-15.3,22.4-19.6l-17-9L186.7,182.7z"/>
							</g>
						</g>
					</g>
					<g>
						<g>
							<g>
								<path class="st6" d="M230.9,182.2c0,0,5.1,20.5,21.2,20.8c16.1,0.3,22.2-12.8,23.8-20.6l-17.7-9.4L230.9,182.2z"/>
							</g>
						</g>
						<g>
							<g>
								<path class="st7" d="M252.7,203.7c-0.2,0-0.4,0-0.5,0c-16.4-0.3-21.9-21.1-21.9-21.3l-0.2-0.6l28.2-9.6l18.4,9.8l-0.1,0.5
									C274.5,192.8,267.1,203.7,252.7,203.7z M231.7,182.7c1,3.4,6.6,19.4,20.4,19.6c0.2,0,0.3,0,0.5,0
									c16.8,0,21.5-15.3,22.4-19.6l-17-9L231.7,182.7z"/>
							</g>
						</g>
					</g>
					<g>
						<g>
							<g>
								<path class="st6" d="M275.9,182.2c0,0,5.1,20.5,21.2,20.8c16.1,0.3,22.2-12.8,23.8-20.6l-17.7-9.4L275.9,182.2z"/>
							</g>
						</g>
						<g>
							<g>
								<path class="st7" d="M297.7,203.7c-0.2,0-0.4,0-0.5,0c-16.4-0.3-21.9-21.1-21.9-21.3l-0.2-0.6l28.2-9.6l18.4,9.8l-0.1,0.5
									C319.5,192.8,312.1,203.7,297.7,203.7z M276.7,182.7c1,3.4,6.6,19.4,20.4,19.6c0.2,0,0.3,0,0.5,0
									c16.8,0,21.5-15.3,22.4-19.6l-17-9L276.7,182.7z"/>
							</g>
						</g>
					</g>
					<g>
						<g>
							<g>
								<path class="st6" d="M320.9,182.2c0,0,5.1,20.5,21.2,20.8c16.1,0.3,22.2-12.8,23.8-20.6l-17.7-9.4L320.9,182.2z"/>
							</g>
						</g>
						<g>
							<g>
								<path class="st7" d="M342.7,203.7c-0.2,0-0.4,0-0.5,0c-16.4-0.3-21.9-21.1-21.9-21.3l-0.2-0.6l28.2-9.6l18.4,9.8l-0.1,0.5
									C364.5,192.8,357.1,203.7,342.7,203.7z M321.8,182.7c1,3.4,6.6,19.4,20.4,19.6c0.2,0,0.3,0,0.5,0
									c16.8,0,21.5-15.3,22.4-19.6l-17-9L321.8,182.7z"/>
							</g>
						</g>
					</g>
					<g>
						<g>
							<g>
								<path class="st6" d="M365.9,182.2c0,0,5.1,20.5,21.2,20.8c16.1,0.3,22.2-12.8,23.8-20.6l-17.7-9.4L365.9,182.2z"/>
							</g>
						</g>
						<g>
							<g>
								<path class="st7" d="M387.7,203.7c-0.2,0-0.4,0-0.5,0c-16.5-0.3-21.9-21.1-21.9-21.3l-0.2-0.6l28.2-9.6l18.4,9.8l-0.1,0.5
									C409.5,192.8,402.1,203.7,387.7,203.7z M366.8,182.7c1,3.4,6.6,19.4,20.4,19.6c0.2,0,0.3,0,0.5,0
									c16.8,0,21.5-15.3,22.4-19.6l-17-9L366.8,182.7z"/>
							</g>
						</g>
					</g>
					<g>
						<g>
							<g>
								<path class="st6" d="M410.9,182.2c0,0,5.1,20.5,21.2,20.8c16.1,0.3,22.2-12.8,23.8-20.6l-17.7-9.4L410.9,182.2z"/>
							</g>
						</g>
						<g>
							<g>
								<path class="st7" d="M432.7,203.7c-0.2,0-0.4,0-0.5,0c-16.5-0.3-21.9-21.1-21.9-21.3l-0.2-0.6l28.2-9.6l18.4,9.8l-0.1,0.5
									C454.5,192.8,447.2,203.7,432.7,203.7z M411.8,182.7c1,3.4,6.6,19.4,20.4,19.6c0.2,0,0.3,0,0.5,0
									c16.8,0,21.5-15.3,22.4-19.6l-17-9L411.8,182.7z"/>
							</g>
						</g>
					</g>
				</g>
			</g>
		</g>
		<g>
			<polygon class="st2" points="181.3,511.8 64.7,511.8 64.7,341.5 123,283.8 181.3,349.4 			"/>
		</g>
		<g class="st4">
			<g>
				<polyline class="st3" points="64.4,347.1 124,283.8 181.3,349.4 181.3,360.8 124.4,294.9 64.7,355.2 64.7,346.1 				"/>
			</g>
		</g>
		<g>
			<path class="st3" d="M191.8,352.5L127.2,279c-1.5-1.7-4.2-1.8-5.8-0.2L49,352.6c-1.5,1.5-1.5,3.9,0,5.4l0,0
				c1.6,1.6,4.1,1.6,5.6,0l67-67.2c1.6-1.6,4.3-1.5,5.8,0.2l58.2,66.6c1.4,1.6,3.8,2,5.4,0.7C193.1,356.9,193.3,354.2,191.8,352.5z"
				/>
		</g>
		<g>
			<rect x="202" y="390.2" class="st8" width="57.5" height="102.7"/>
		</g>
		<g>
			<rect x="205" y="393.5" class="st9" width="50.7" height="96.6"/>
		</g>
		<g>
			<g>
				<g>
					<rect x="322.7" y="382.2" class="st10" width="78" height="64.7"/>
				</g>
			</g>
			<g>
				<g>
					<g>
						<path class="st11" d="M344.2,416.4c-0.1,0-0.2,0-0.3-0.1c-0.1-0.1-0.1-0.4,0-0.5l8.6-8.4c0.1-0.1,0.4-0.1,0.5,0
							c0.1,0.1,0.1,0.4,0,0.5l-8.6,8.4C344.4,416.4,344.3,416.4,344.2,416.4z"/>
					</g>
				</g>
				<g>
					<g>
						<path class="st11" d="M354.8,417.9c-0.1,0-0.2,0-0.3-0.1c-0.1-0.1-0.1-0.4,0-0.5l8.6-8.4c0.1-0.1,0.4-0.1,0.5,0
							c0.1,0.1,0.1,0.4,0,0.5l-8.6,8.4C355,417.8,354.9,417.9,354.8,417.9z"/>
					</g>
				</g>
				<g>
					<g>
						<path class="st11" d="M340.3,425c-0.1,0-0.2,0-0.3-0.1c-0.1-0.1-0.1-0.4,0-0.5l27.2-24.3c0.1-0.1,0.4-0.1,0.5,0
							c0.1,0.1,0.1,0.4,0,0.5l-27.2,24.3C340.5,424.9,340.4,425,340.3,425z"/>
					</g>
				</g>
			</g>
			<g>
				<g>
					<g>
						<path class="st11" d="M384,442.1c-0.1,0-0.2,0-0.3-0.1c-0.1-0.1-0.1-0.4,0-0.5l8.6-8.4c0.1-0.1,0.4-0.1,0.5,0
							c0.1,0.1,0.1,0.4,0,0.5l-8.6,8.4C384.1,442.1,384.1,442.1,384,442.1z"/>
					</g>
				</g>
				<g>
					<g>
						<path class="st11" d="M370.6,439.6c-0.1,0-0.2,0-0.3-0.1c-0.1-0.1-0.1-0.4,0-0.5l27.2-24.3c0.1-0.1,0.4-0.1,0.5,0
							c0.1,0.1,0.1,0.4,0,0.5l-27.2,24.3C370.8,439.6,370.7,439.6,370.6,439.6z"/>
					</g>
				</g>
			</g>
			<g>
				<g>
					<g>
						<g>
							<rect x="345.9" y="382.2" class="st12" width="2.6" height="64.7"/>
						</g>
					</g>
				</g>
				<g>
					<g>
						<g>
							<rect x="374.9" y="382.2" class="st12" width="2.6" height="64.7"/>
						</g>
					</g>
				</g>
			</g>
			<g>
				<path class="st13" d="M403.1,453.3h-82.8c-1.2,0-2.2-1-2.2-2.2v-1.9c0-1.2,1-2.2,2.2-2.2h82.8c1.2,0,2.2,1,2.2,2.2v1.9
					C405.4,452.3,404.4,453.3,403.1,453.3z"/>
			</g>
		</g>
		<g>
			<g>
				<g>
					<rect x="322.7" y="413.5" class="st12" width="78" height="2.2"/>
				</g>
			</g>
		</g>
		<g>
			<rect x="287.2" y="360.8" class="st14" width="9.5" height="139.1"/>
		</g>
		<g>
			<rect x="426.8" y="360.8" class="st14" width="9.5" height="139.1"/>
		</g>
		<g>
			<rect x="291.9" y="460.2" class="st14" width="139.7" height="7.3"/>
		</g>
		<g>
			<g>
				<rect x="308.3" y="463.9" class="st14" width="5.6" height="38.1"/>
			</g>
			<g>
				<rect x="333.6" y="463.9" class="st14" width="5.6" height="38.1"/>
			</g>
			<g>
				<rect x="358.9" y="463.9" class="st14" width="5.6" height="38.1"/>
			</g>
			<g>
				<rect x="384.2" y="463.9" class="st14" width="5.6" height="38.1"/>
			</g>
			<g>
				<rect x="409.5" y="463.9" class="st14" width="5.6" height="38.1"/>
			</g>
		</g>
		<g>
			<rect x="280.4" y="499.9" class="st15" width="168.5" height="11.9"/>
		</g>
		<g>
			<path class="st1" d="M102.3,356.5c0-14.9,9.2-27,20.6-27c11.4,0,20.6,12.1,20.6,27"/>
			<path class="st15" d="M145,356.5h-2.8c0-14.1-8.6-25.6-19.3-25.6c-10.6,0-19.3,11.5-19.3,25.6H101c0-15.7,9.9-28.4,22-28.4
				C135.1,328,145,340.8,145,356.5z"/>
		</g>
		<g>
			<path class="st14" d="M300.3,366.5h-16.8c-1.6,0-2.8-1.3-2.8-2.8l0,0c0-1.6,1.3-2.8,2.8-2.8h16.8c1.6,0,2.8,1.3,2.8,2.8l0,0
				C303.2,365.2,301.9,366.5,300.3,366.5z"/>
		</g>
		<g>
			<path class="st14" d="M440,366.5h-16.8c-1.6,0-2.8-1.3-2.8-2.8l0,0c0-1.6,1.3-2.8,2.8-2.8H440c1.6,0,2.8,1.3,2.8,2.8l0,0
				C442.8,365.2,441.5,366.5,440,366.5z"/>
		</g>
		<g>
			<path class="st14" d="M300.3,499.9h-16.8c-1.6,0-2.8-1.3-2.8-2.8l0,0c0-1.6,1.3-2.8,2.8-2.8h16.8c1.6,0,2.8,1.3,2.8,2.8l0,0
				C303.2,498.6,301.9,499.9,300.3,499.9z"/>
		</g>
		<g>
			<path class="st14" d="M440,499.9h-16.8c-1.6,0-2.8-1.3-2.8-2.8l0,0c0-1.6,1.3-2.8,2.8-2.8H440c1.6,0,2.8,1.3,2.8,2.8l0,0
				C442.8,498.6,441.5,499.9,440,499.9z"/>
		</g>
		<g>
			<rect x="181.3" y="492.9" class="st6" width="99.4" height="5.3"/>
		</g>
		<g>
			<rect x="181.3" y="498.2" class="st16" width="99.4" height="5.3"/>
		</g>
		<g>
			<rect x="181.3" y="503.5" class="st17" width="99.4" height="5.3"/>
		</g>
		<g>
			<rect x="181.3" y="508.8" class="st16" width="99.4" height="3"/>
		</g>
		<g>
			<g>
				<g>
					<path class="st18" d="M215.4,432.1c-0.1,0-0.1,0-0.2-0.1c-0.1-0.1-0.1-0.2,0-0.3l5.7-5.6c0.1-0.1,0.2-0.1,0.3,0
						c0.1,0.1,0.1,0.2,0,0.3l-5.7,5.6C215.5,432,215.4,432.1,215.4,432.1z"/>
				</g>
			</g>
			<g>
				<g>
					<path class="st18" d="M225,434.1c-0.1,0-0.1,0-0.2-0.1c-0.1-0.1-0.1-0.2,0-0.3l5.7-5.6c0.1-0.1,0.2-0.1,0.3,0
						c0.1,0.1,0.1,0.2,0,0.3l-5.7,5.6C225.2,434,225.1,434.1,225,434.1z"/>
				</g>
			</g>
			<g>
				<g>
					<path class="st18" d="M221.9,479.5c-0.1,0-0.1,0-0.2-0.1c-0.1-0.1-0.1-0.2,0-0.3l5.7-5.6c0.1-0.1,0.2-0.1,0.3,0
						c0.1,0.1,0.1,0.2,0,0.3l-5.7,5.6C222.1,479.4,222,479.5,221.9,479.5z"/>
				</g>
			</g>
			<g>
				<g>
					<path class="st18" d="M212.9,440.3c-0.1,0-0.1,0-0.2-0.1c-0.1-0.1-0.1-0.2,0-0.3l19.7-19.5c0.1-0.1,0.2-0.1,0.3,0
						c0.1,0.1,0.1,0.2,0,0.3l-19.7,19.5C213,440.3,213,440.3,212.9,440.3z"/>
				</g>
			</g>
		</g>
		<g class="st19">
			<g>
				<polyline class="st3" points="181.3,383.8 64.7,383.8 64.8,368.5 181.3,368.1 				"/>
			</g>
		</g>
		<g>
			<rect x="92.6" y="407.4" class="st10" width="60.7" height="75.5"/>
		</g>
		<g>
			<path class="st15" d="M181.3,382.2H64.6c-1.7,0-3.2-1.4-3.2-3.2v-9.4c0-1.7,1.4-3.2,3.2-3.2h116.7c1.7,0,3.2,1.4,3.2,3.2v9.4
				C184.5,380.8,183.1,382.2,181.3,382.2z"/>
		</g>
		<g>
			<g>
				<rect x="64.7" y="393.5" class="st20" width="11.9" height="6.2"/>
			</g>
		</g>
		<g>
			<g>
				<rect x="70.6" y="402.6" class="st20" width="11.9" height="6.2"/>
			</g>
		</g>
		<g>
			<g>
				<rect x="159.8" y="500.4" class="st20" width="11.9" height="6.2"/>
			</g>
		</g>
		<g>
			<g>
				<rect x="168.8" y="492.4" class="st20" width="11.9" height="6.2"/>
			</g>
		</g>
		<g>
			<g>
				<rect x="232.8" y="372.4" class="st2" width="11.9" height="6.2"/>
			</g>
		</g>
		<g>
			<g>
				<rect x="249.7" y="379.1" class="st2" width="11.9" height="6.2"/>
			</g>
		</g>
		<g>
			<g>
				<rect x="442.9" y="387.1" class="st2" width="5.9" height="6.2"/>
			</g>
		</g>
		<g>
			<g>
				<rect x="442.9" y="476.4" class="st2" width="5.9" height="6.2"/>
			</g>
		</g>
		<g>
			<g>
				<rect x="91.6" y="495.5" class="st20" width="11.9" height="6.2"/>
			</g>
		</g>
		<g>
			<g>
				<g>
					<path class="st11" d="M111,446.2c-0.1,0-0.2,0-0.3-0.1c-0.1-0.1-0.1-0.4,0-0.5l8.6-8.4c0.1-0.1,0.4-0.1,0.5,0s0.1,0.4,0,0.5
						l-8.6,8.4C111.1,446.1,111,446.2,111,446.2z"/>
				</g>
			</g>
			<g>
				<g>
					<path class="st11" d="M121.5,447.6c-0.1,0-0.2,0-0.3-0.1c-0.1-0.1-0.1-0.4,0-0.5l8.6-8.4c0.1-0.1,0.4-0.1,0.5,0
						c0.1,0.1,0.1,0.4,0,0.5l-8.6,8.4C121.7,447.6,121.6,447.6,121.5,447.6z"/>
				</g>
			</g>
			<g>
				<g>
					<path class="st11" d="M107,454.7c-0.1,0-0.2,0-0.3-0.1c-0.1-0.1-0.1-0.4,0-0.5l27.2-24.3c0.1-0.1,0.4-0.1,0.5,0
						c0.1,0.1,0.1,0.4,0,0.5l-27.2,24.3C107.2,454.6,107.1,454.7,107,454.7z"/>
				</g>
			</g>
		</g>
		<g>
			<g>
				<g>
					<rect x="121.7" y="407.4" class="st12" width="2.6" height="79.1"/>
				</g>
			</g>
		</g>
		<g>
			<g>
				<g>
					<g>
						<rect x="92.8" y="431.2" class="st12" width="60.5" height="2.6"/>
					</g>
				</g>
			</g>
			<g>
				<g>
					<g>
						<rect x="92.8" y="456.5" class="st12" width="60.5" height="2.6"/>
					</g>
				</g>
			</g>
		</g>
		<g>
			<path class="st13" d="M152.6,490.1H93.4c-2,0-3.6-1.6-3.6-3.6l0,0c0-2,1.6-3.6,3.6-3.6h59.2c2,0,3.6,1.6,3.6,3.6l0,0
				C156.2,488.5,154.6,490.1,152.6,490.1z"/>
		</g>
		<g>
			<path class="st15" d="M146.4,361.4H99.6c-1.2,0-2.1-0.9-2.1-2.1v-2c0-1.2,0.9-2.1,2.1-2.1h46.8c1.2,0,2.1,0.9,2.1,2.1v2
				C148.5,360.5,147.6,361.4,146.4,361.4z"/>
		</g>
	</g>
	<path class="st21" d="M102.3,215.1c1.2-0.2,2.2,0.1,3.2,0.8c0.1-2.9,2-5.3,4.8-6.2c1.4-0.4,2.7-0.4,4.1,0.2
		c1.3,0.5,2.3,1.5,2.9,2.9c1-1.8,2.4-3.1,4.3-3.4c1.6-0.2,3.3-0.4,4.9-0.1c5.2,0.7,9,3.7,11.9,8c0.1,0.1,0.2,0.3,0.4,0.6
		c-0.3-1.7-1.3-3.5-2.9-5.2c-3.4-3.8-7.4-6.6-11.9-8.9c-8.4-4.4-17.3-6.4-26.8-4.9c-1.9,0.3-3.9,0.2-5.3,2c-0.3,0.4-0.4,0.6-0.2,1
		c0.7,2,1.4,4,2,6c0.7,2.5,0.6,5-1,7.3c-0.3,0.5-0.7,0.9-1,1.2c0.6,0.7,1.1,1.3,1.7,2c-1-0.3-1.8-0.6-2.5-0.9
		c-0.2-0.1-0.5-0.4-0.5-0.6c-0.3-1.1-0.9-1.8-2-2.2c-0.8-0.3-1.5-0.5-2.5-0.9c0.6,1.6,1.2,3.1,1.8,4.7c-0.2,0.1-0.4,0.3-0.8,0.5
		c-0.7-1.9-2.4-2.6-3.9-3.4c0.1,0.9,0.1,1.8,0.2,2.6c0.1,1.1,0.5,2,1.6,2.5c0.2,0.1,0.3,0.2,0.4,0.4c0.3,0.9,0.5,1.7,0.7,2.6
		c0,0-0.1,0.1-0.1,0.1c-0.5-0.7-0.9-1.5-1.4-2.3c-0.1,0-0.3,0.1-0.4,0.1c-1.8,0.6-3.5,0.6-5.3,0c-2.3-0.8-4.2-2.1-5.9-3.9
		c-1-1-1.8-2.2-2.8-3.4c-0.9,1.1-1.9,2.1-2.7,3.2c-1.9,2.7-2.9,5.8-3.6,9.1c-0.8,4.3-1.2,8.6,0,12.8c1.6,5.6,4.5,10.6,8.6,14.7
		c0.3,0.3,0.8,0.4,1.2,0.6c0.1-0.1,0.1-0.2,0.2-0.2c-0.2-0.3-0.4-0.7-0.6-1c-1.3-2.2-2.3-4.5-2.1-7.1c0.1-1.7,0.7-3.1,2.4-3.8
		c0.5-0.2,1-0.2,1.5-0.3c-1-1.1-1.6-2.3-1.9-3.7c-0.6-3.2,1.5-5.6,4.8-5.5c0.7,0,1.4,0.3,2.1,0.4c-0.8-3.5,2.2-6.5,5.7-5.5
		c1.5,0.4,2.9,1.3,4.2,1.9c-0.5,1.2-1,2.4-1.6,3.6c0.1,0,0.2,0.1,0.3,0.1c0.4-0.6,0.8-1.1,1.3-1.9c0.1,0.7,0.1,1.1,0.2,1.7
		c0.3-0.6,0.6-1,0.9-1.6c0.3,0.6,0.5,0.9,0.7,1.3c0,0,0.1,0,0.1-0.1c0.1-0.9,0.1-1.9,0.2-2.9c1,0,1.8,0,2.7,0c0.5,0,0.8-0.1,1-0.7
		c0.2-0.7,0.6-1.4,0.9-2.1c0.2-0.5,0.4-0.6,0.9-0.4c0.7,0.2,1.4,0.5,2.3,0.7c-0.4-0.5-0.7-0.9-1-1.4c0.7-0.1,1.2-0.2,1.9-0.3
		c-0.5-0.3-0.9-0.5-1.5-0.7c0.9-0.3,1.6-0.5,2.3-0.7c0-0.1,0-0.2,0-0.3c-1.3,0.1-2.6,0.2-3.9,0.4c0-1,0.1-2.1,0-3.2
		c-0.2-1.3,0.2-2.4,0.9-3.4C99.2,216.5,100.4,215.3,102.3,215.1z"/>
	<g>
		<g>
			<path class="st21" d="M447.6,211.7c6.6-6,9.8-15.5,8.1-24.3c7.9-7.3,17.8-12.6,28.1-15.5c-7.1,4-11,13-9,20.9
				c-2.5,2-5.4,4.4-7.2,7.1c-1.8,2.7-2.8,6.1-1.8,9.2c-5.7,0.9-11.5,4.5-14.8,9.3C450.6,216.4,448.8,213.3,447.6,211.7z"/>
		</g>
		<path class="st21" d="M440.7,210.1c2.7-1.2,6-0.4,8.6,1.1c2.6,1.5,4.9,3.6,7.5,5.2c4.6,2.8,10.3,3.9,15.6,2.9
			c-5.7,2.8-11,5.6-17.3,6.2c-6,0.6-12.5-1.1-16.3-5.8C437.9,217.2,438.1,213.3,440.7,210.1z"/>
		<path class="st21" d="M443.8,211.7c0.2-7.6-3.7-15.1-10.1-19.2c0.2-9.1,2.7-18.3,7.1-26.3c-1.7,6.7,1.5,14.3,7.4,17.8
			c-0.2,2.7-0.5,5.9,0.1,8.5c0.6,2.7,2.1,5.3,4.5,6.5c-2.8,4-4,9.7-3,14.5C448.4,212.6,445.4,211.9,443.8,211.7z"/>
		<path class="st21" d="M443.8,209.6c-1.1,0-2,0.3-2.9-0.3c0.2-1.7,0.8-3.6,1.9-4.9c-1.5,0.4-2.9,1.5-3.7,2.9
			c-0.8-0.6-1.6-0.9-2.9-0.8c0.2-1.2,0.6-2.3,1.4-3.2c-1.1,0.4-2,1.2-2.7,2.1c-0.7,0.9-1.2,2-1.7,3c-0.2,0.5-0.5,1-0.7,1.5
			c-0.9,2-1.3,4.4-0.4,6.4c0.8,1.9,2.7,3.1,4.6,3.8c1.9,0.6,4,0.7,6.1,0.7c0.2-2.8,0.4-5.5,0.6-8.3
			C443.4,211.6,444.5,209.9,443.8,209.6z"/>
	</g>
	<g>
		<path class="st21" d="M298.1,205.9c-1.2,8.7-10.5,6.3-10.5,6.3s2.1-1.5,2.1-2.6c0-1.1,0.3-1.4,0.5-1.5c0.2-0.1,1.9-0.6,2.4-1
			c0.5-0.4-0.6-1.8-1.4-1.4c-0.8,0.4-1.4,0.9-2,1c-0.3,0.1-0.9-0.6-1.6-0.9c-0.7-0.3-1.6-0.3-1.8-0.5c-0.3-0.5-0.4-1.3-0.6-2.1
			c-0.2-0.9-2-0.7-2-0.1c0,0.6,0.8,2.2,0.9,2.4c0.1,0.2,0.1,0.7-0.7,1.4c-0.8,0.7-0.4,3.3-0.4,3.3s-8.1-5-2.7-11.9
			c-12.2-3.6-16.1,5-16.1,5s10.8-1.8,9.3,7.5c7.3,0.9,7.9,9.5,7.9,9.5s6.6-5.5,12.3-0.8c5.7-7.5,11.9,1.5,11.9,1.5
			S309.1,212.2,298.1,205.9z"/>
		<g>
			<path class="st21" d="M285.9,208.1c-0.1,0.1-0.3,0.1-0.5,0c-0.2-0.1-0.4-0.3-0.3-0.4c0.1-0.1,0.3-0.1,0.5,0
				C285.8,207.8,286,208,285.9,208.1z"/>
			<path class="st21" d="M287.8,208.8c-0.1,0.1-0.3,0.1-0.5,0c-0.2-0.1-0.4-0.3-0.3-0.4c0.1-0.1,0.3-0.1,0.5,0
				C287.7,208.5,287.9,208.7,287.8,208.8z"/>
		</g>
	</g>
</g>
</svg>
