<?xml version="1.0" encoding="utf-8"?>
<!-- Generator: Adobe Illustrator 22.0.1, SVG Export Plug-In . SVG Version: 6.00 Build 0)  -->
<svg version="1.1" id="Layer_1" xmlns="http://www.w3.org/2000/svg" xmlns:xlink="http://www.w3.org/1999/xlink" x="0px" y="0px"
	 viewBox="0 0 200 200" style="enable-background:new 0 0 200 200;" xml:space="preserve">
<style type="text/css">
	.st0{fill:#80AF4A;}
	.st1{fill:#719D41;}
	.st2{fill:#7FAF4A;}
	.st3{fill:#F9C190;}
	.st4{fill:#A5C9DE;}
	.st5{fill:#C7F5F3;}
	.st6{fill:#B3E0F0;}
	.st7{fill:#AF9B55;}
	.st8{fill:#F0B686;}
	.st9{fill:#D2EABA;}
	.st10{fill:#95725A;}
	.st11{fill:#61902D;}
	.st12{fill:#6B953D;}
	.st13{fill:#8B732E;}
	.st14{fill:#FEFEFE;}
	.st15{fill:#D5C98D;}
	.st16{fill:#8B742E;}
	.st17{fill:#648E2D;}
	.st18{fill:#618F2D;}
	.st19{fill:#62902D;}
	.st20{fill:#FAAF3B;}
	.st21{fill:#D1EAB9;}
	.st22{fill:#4F6772;}
	.st23{fill:#FBFCFC;}
	.st24{fill:#F9FBFB;}
	.st25{fill:#FCFDFC;}
	.st26{fill:#FCFDFD;}
	.st27{fill:#FCFCFD;}
	.st28{fill:#FCFCFC;}
	.st29{fill:#FBFCFB;}
	.st30{fill:#FAFCFB;}
	.st31{fill:#FCFCFB;}
	.st32{fill:#627982;}
	.st33{fill:#5E767E;}
	.st34{fill:#FAFBFB;}
	.st35{fill:#5C737B;}
	.st36{fill:#F8FAFA;}
	.st37{fill:#F9FAFA;}
	.st38{fill:#5B737B;}
	.st39{fill:#5B7179;}
	.st40{fill:#5B717A;}
	.st41{fill:#F8FAF9;}
	.st42{fill:#5A7179;}
	.st43{fill:#FBFBFC;}
	.st44{fill:#FAFCFC;}
	.st45{fill:#5C737A;}
	.st46{fill:#FBFBFB;}
	.st47{fill:#5D737A;}
	.st48{fill:#69818C;}
	.st49{fill:#566E75;}
	.st50{fill:#556E75;}
	.st51{fill:#F7F9F9;}
	.st52{fill:#F9FBFC;}
	.st53{fill:#F8F9FA;}
	.st54{fill:#F6F9F9;}
	.st55{fill:#FAFBFA;}
	.st56{fill:#F7FAFB;}
	.st57{fill:#6D8591;}
	.st58{fill:#6F8995;}
	.st59{fill:#5C727A;}
	.st60{fill:#5D727A;}
	.st61{fill:#5C717A;}
	.st62{fill:#79929F;}
	.st63{fill:#F4F9F9;}
	.st64{fill:#78929F;}
	.st65{fill:#7991A0;}
	.st66{fill:#F2F7F9;}
	.st67{fill:#F9FBFA;}
	.st68{fill:#7792A0;}
	.st69{fill:#78919E;}
	.st70{fill:#F7FAFA;}
	.st71{fill:#78909E;}
	.st72{fill:#708995;}
	.st73{fill:#F8FBFB;}
	.st74{fill:#77919F;}
	.st75{fill:#FBFDFC;}
	.st76{fill:#F8FBFA;}
	.st77{fill:#7A929F;}
	.st78{fill:#7B92A1;}
	.st79{fill:#7B94A1;}
	.st80{fill:#79919F;}
	.st81{fill:#78919F;}
	.st82{fill:#7A93A1;}
	.st83{fill:#7994A1;}
	.st84{fill:#7A93A0;}
	.st85{fill:#EFF5F9;}
	.st86{fill:#728C9A;}
	.st87{fill:#F2F5F8;}
	.st88{fill:#7992A0;}
	.st89{fill:#7892A0;}
	.st90{fill:#EEF5F8;}
	.st91{fill:#EDF4F7;}
	.st92{fill:#F0F6F8;}
	.st93{fill:#F6F8F8;}
	.st94{fill:#EBF1F5;}
	.st95{fill:#F6FAFB;}
	.st96{fill:#F6F9FA;}
	.st97{fill:#EEF4F8;}
	.st98{fill:#F6FAFA;}
	.st99{fill:#7C95A4;}
	.st100{fill:#7B95A3;}
	.st101{fill:#7A93A2;}
	.st102{fill:#7B93A0;}
	.st103{fill:#7A92A1;}
	.st104{fill:#77909D;}
	.st105{fill:#758E9C;}
	.st106{fill:#76909D;}
	.st107{fill:#534741;}
	.st108{fill:#546C75;}
	.st109{fill:#586F77;}
	.st110{fill:#719E42;}
	.st111{fill:#FBFDFD;}
	.st112{fill:#729E43;}
	.st113{fill:#5A7278;}
	.st114{fill:#5A7178;}
	.st115{fill:#5B7279;}
	.st116{fill:#576E75;}
	.st117{fill:#FBFBFA;}
	.st118{fill:#F8F9F9;}
	.st119{fill:#576E76;}
	.st120{fill:#586F76;}
	.st121{fill:#FAFBFC;}
	.st122{fill:#456168;}
	.st123{fill:#456268;}
	.st124{fill:#597178;}
	.st125{fill:#FBFCFD;}
	.st126{fill:#F9FBF8;}
	.st127{fill:#709D42;}
	.st128{fill:#719D42;}
	.st129{fill:#F9F9F9;}
	.st130{fill:#F7F9FA;}
	.st131{fill:#4F6672;}
	.st132{fill:#466169;}
	.st133{fill:#455E6C;}
	.st134{fill:#445D6B;}
	.st135{fill:#59727C;}
	.st136{fill:#455F6A;}
	.st137{fill:#60767D;}
	.st138{fill:#5F757B;}
	.st139{fill:#5E757D;}
	.st140{fill:#445D6A;}
	.st141{fill:#5E747B;}
	.st142{fill:#455E6B;}
	.st143{fill:#455F6C;}
	.st144{fill:#4E6772;}
	.st145{fill:#F9FCFC;}
	.st146{fill:#F6FAF9;}
	.st147{fill:#4E6773;}
	.st148{fill:#506974;}
	.st149{fill:#719E43;}
	.st150{fill:#556B73;}
	.st151{fill:#445F6B;}
	.st152{fill:#4F6875;}
	.st153{fill:#4E6872;}
	.st154{fill:#4A636F;}
	.st155{fill:#5B727E;}
	.st156{fill:#415B69;}
	.st157{fill:#4B656F;}
	.st158{fill:#4D6771;}
	.st159{fill:#425C69;}
	.st160{fill:#5B727D;}
	.st161{fill:#546A77;}
	.st162{fill:#77A150;}
	.st163{fill:#526F77;}
	.st164{fill:#566D74;}
	.st165{fill:#435A69;}
	.st166{fill:#687F84;}
	.st167{fill:#617780;}
	.st168{fill:#475F6C;}
	.st169{fill:#4A646E;}
	.st170{fill:#5B737A;}
	.st171{fill:#466366;}
	.st172{fill:#466167;}
	.st173{fill:#709D40;}
	.st174{fill:#709C41;}
	.st175{fill:#709D41;}
	.st176{fill:#75929A;}
	.st177{fill:#719D44;}
	.st178{fill:#719E45;}
	.st179{fill:#F9FBFD;}
	.st180{fill:#435B69;}
	.st181{fill:#77919E;}
	.st182{fill:#7790A0;}
	.st183{fill:#76909E;}
	.st184{fill:#79929E;}
	.st185{fill:#425C6A;}
	.st186{fill:#435C6A;}
	.st187{fill:#435C6B;}
	.st188{fill:#425B6A;}
	.st189{fill:#768F9E;}
	.st190{fill:#768F9D;}
	.st191{fill:#77909E;}
	.st192{fill:#F8FBFC;}
	.st193{fill:#425D68;}
	.st194{fill:#415C69;}
	.st195{fill:#405C69;}
	.st196{fill:#415C68;}
	.st197{fill:#719E41;}
	.st198{fill:#76909F;}
	.st199{fill:#77949A;}
	.st200{fill:#F9FAFB;}
	.st201{fill:#FAFBF9;}
	.st202{fill:#4B6371;}
	.st203{fill:#F9FAF9;}
	.st204{fill:#F2F7F8;}
	.st205{fill:#7A989E;}
	.st206{fill:#F3F8F8;}
	.st207{fill:#445C69;}
	.st208{fill:#F5F9F9;}
	.st209{fill:#465E6C;}
	.st210{fill:#F2F8F9;}
	.st211{fill:#F0F5F8;}
	.st212{fill:#EFF6F7;}
	.st213{fill:#EDF2F6;}
	.st214{fill:#EDF4F6;}
	.st215{fill:#46616B;}
	.st216{fill:#F0F4F5;}
	.st217{fill:#45616A;}
	.st218{fill:#7EA558;}
	.st219{fill:#F4F6F7;}
	.st220{fill:#F5F7F9;}
	.st221{fill:#F6F9F8;}
	.st222{fill:#6F9C42;}
	.st223{fill:#5A6C75;}
	.st224{fill:#709C40;}
</style>
<g>
	<path class="st0" d="M68.3,22.4c0.1-1.5,0.3-2.9,0.7-4.3c1-4,3.9-6.3,7.5-7.8c2.7-1.1,5.4-1.9,8.3-2.2c0.2,0,0.3,0,0.4-0.2
		c1.2,0,2.4,0,3.5,0c1.1,0.3,2.2,0.4,3.3,0.8c5.1,2.1,9.1,5.4,11.2,10.7c0.2,0.5,0.4,1,0.6,1.4c0.5,0.9,0.5,1.7-0.3,2.5
		c-0.3,1.1-1.4,1.6-2.2,2.3c-2,1.5-4.1,2.5-6.5,3.4c-1.4,0.5-2.7,1.2-4.2,1.4C89.1,30.8,88,30,87,28.8c-1.2-1.6-3-2.6-4.8-3.6
		c-2.4-1.4-5-2.4-7.8-2.8c-1.7-0.2-3.4-0.2-5.1,0.1C69,22.5,68.7,22.7,68.3,22.4z"/>
	<path class="st1" d="M100.7,180.1c-0.9-1.2-0.9-2.7-1.1-4.1c-0.6-3.8-0.7-7.6-1.1-11.4c-0.9-7.6-1-15.2-1.9-22.7
		c-0.4-3.8-1.4-7.6-2.1-11.6c-1.4,2.2-2.7,4.1-3.1,6.5c-1.3,8.3-1.9,16.7-1.5,25.1c0.1,1.1,0.4,2.2-0.4,3.2
		c-0.1,0.7-0.7,0.9-1.2,1.1c-1.8,0.7-3.7,1-5.6,0.7c-1.5-0.2-2.9-0.4-4.4-0.8c-0.9-0.3-1.8-0.7-2.4-1.5c-0.4-0.5-0.6-1-0.3-1.6
		c0-0.2,0-0.4,0-0.6c1-5.9,0.8-11.9,0.7-17.8c0-4.1-0.2-8.3,0.5-12.4c0.1-0.4-0.1-0.9-0.1-1.4c-0.4-4,0.2-8,0.9-11.9
		c0.7-3.5,1.4-7,2.2-10.5c0.1-0.6,0.3-1.2,0.6-1.7c0.3,0,0.4,0.2,0.5,0.4c0,0.1,0,0.3,0,0.4c0,1.2,0.3,1.4,1.4,1.2
		c1,0.1,1.8,0.9,2.8,1.1c0.4,0.1,0.7,0.3,1,0.4c1.1,0.9,2.5,1.1,3.9,1.3c0.7,0.1,1.4,0.1,2.1,0.3c1.1,0.2,2.1,0,3-0.6
		c1.4-0.4,2.8-0.2,4.2-0.3c0,0,0.1,0,0.1,0c0.4,0.3,0.2,1.1,1.1,0.8c0.5-0.2,1-0.4,1.3-0.9c0-0.1,0.1-0.1,0.2-0.2
		c1.7-0.2,3.3-0.5,5-0.5c0.3,0,0.3,0.2,0.4,0.4c0.1,0.2,0,0.6,0.3,0.6c0.3,0,0.4-0.3,0.6-0.5c0.1-0.2,0-0.5,0.3-0.7
		c0.9-0.2,1.8-0.4,2.7-0.7c0.4,0,0.8-0.2,1.2,0c0.3,0.2,0.4,0.5,0.5,0.9c1,3.3,1.4,6.7,1.5,10.1c0,0.6-0.1,1.2,0,1.8
		c0,0.1,0,0.2,0,0.3c-0.9,1-2.2,1.5-3.3,2.1c-1.7,1-3.5,2.1-5.2,3c-0.5,0.3-0.8,0.7-0.9,1.2c-0.1,1.1,0,2.2,0,3.2
		c0,7.9,0,15.8,0,23.7c0,1.1,0.3,1.7,1.3,2.2c2.3,1.2,4.6,2.6,6.9,4c0.4,0.2,0.9,0.4,1,1c0.3,4,0.8,7.9,1.4,11.9
		c0.1,0.6,0,1.2,0.1,1.8c0.1,0.9-0.5,1.6-1.1,2.1c-0.9,0.8-2,1.4-3.2,1.7c-1.8,0.5-3.7,0.9-5.5,1.2c-1.6,0.3-3.1,0-4.6-0.8
		C101.2,180.7,100.8,180.5,100.7,180.1z"/>
	<path class="st1" d="M80.8,100.4c0-1-0.1-2,0-3c0.1-2.1-0.6-3.9-1.5-5.8c-0.5-0.6-0.7-1.4-0.9-2.1c-1.3-5.6-2.5-11.2-3.1-17
		c-0.4-4.1-0.3-8.2-0.2-12.2c0-0.7,0.2-1.5,0.4-2.2c0.7-1.2,1.2-2.6,2.3-3.6c0.6-0.2,1,0.2,1.6,0.4c0.9,0.3,1.8,0.1,2.7,0.4
		c0.3,0.4,0.1,0.8,0,1.2c-1.1,6-0.9,12,1,17.9c0.2,0.6,0.3,1.5,0.9,1.6c0.5,0.1,0.8-0.8,1.1-1.3c1.2-1.6,2.6-2.9,4.1-4.1
		c2.1-1.6,4.3-3,6.4-4.4c3-2,4.7-4.9,5.1-8.5c0.1-1.2,0.3-2.4,0-3.6c-0.1-0.4-0.2-0.9,0.4-1.1c1.8,0.9,3.7,1.8,5.3,3
		c1.2,0.9,2.1,1.9,2.9,3.1c0,0.5-0.4,0.4-0.6,0.3c-0.3-0.1-0.6-0.2-1-0.3c-2.7-0.8-5.5,0.9-6,3.7c-0.3,1.5,0,3,0.5,4.5
		c0.8,2.3,2.1,4.3,3.2,6.5c1.1,2.1,2.5,4,4.4,5.5c0.2,0.2,0.4,0.4,0.5,0.8c-0.1,1-0.5,1.9-0.8,2.9c-0.6,2.3-1.2,4.6-1.2,7
		c0,1.4,0.3,2.8,0.8,4.1c0.9,2.3,1.9,4.7,2.4,7.2c-0.1,1.2-0.1,1.2-1.4,1.4c-0.4,0.1-0.6,0.3-0.3,0.6c0.1,0.2,0.2,0.4,0.1,0.6
		c-0.9,0.9-2.1,1.2-3.3,1.4c-0.4,0-0.8-0.2-1.2-0.3c-0.5-0.1-0.8,0-0.7,0.6c-1.1,0.8-2.4,0.9-3.7,1.1c-0.8-0.4-1.4-1.1-2.4-1.1
		c-0.3,0-0.6-0.1-0.8,0.1c-0.2,0.3,0,0.5,0.1,0.7c0.2,0.3,0.4,0.6,0,0.9c-1.2,0.3-2.3,0.4-3.5,0.4c-0.8-1-1.9-1.1-3.1-1
		c-1.8,0.1-3.6-0.2-5.2-0.9c-0.4-0.2-0.8-0.1-1.1,0.1c-1.2-0.2-2-0.9-2.7-1.8c-0.1-0.3,0.1-0.5,0.1-0.8c-0.3-0.1-0.5,0.2-0.8,0
		c-0.7-0.4-0.8-1.1-0.9-1.8C81.1,101.1,81.2,100.6,80.8,100.4z"/>
	<path class="st2" d="M110.4,80c-0.3-0.6-0.9-0.9-1.3-1.2c-2-1.6-3.1-4-4.3-6.1c-1-1.7-1.9-3.4-2.5-5.2c-0.6-1.6-0.9-3.3-0.4-5
		c0.6-2.3,3.4-4.8,6.8-3.3c0.3,0.1,0.6,0.5,1,0c0.4,0.5,0.9,0.9,1.4,1.3c2.7,2,4.7,4.7,6.6,7.4c-0.1,0.2-0.4,0.2-0.6,0.3
		c-1.9,0.3-3.5,1.3-4.7,2.7c-1.2,1.3-0.9,2.8-0.3,4.3c0.9,2.3,2.5,4,4.7,5c1.4,0.7,2.8,0.5,4-0.6c0.5-0.4,1-0.9,1.4-1.4
		c0.2-0.2,0.3-0.6,0.7-0.4c1.5,2.9,3.5,5.5,5.3,8.1c1.7,2.5,2.3,5.5,2.9,8.4c1.1,5.1,1.3,10.2,0.7,15.4c-0.1,0.6-0.1,1.2-0.1,1.9
		c-0.2,0.7,0.1,1.3,0.1,1.9c0,0.1,0,0.3,0,0.4c0,0.1,0,0.2,0,0.3c0,0.4-0.2,0.7-0.2,1.1c0,0.7,0,1.4-0.4,2c-0.2,0.3-0.3,0.5-0.5,0.7
		c-2.5,1.7-5.1,2.2-7.9,0.7c-0.3-0.2-0.6-0.6-0.8-0.9c-0.6-1.7-0.6-3.5-0.9-5.2c-0.7-3.6-0.9-7.3-1-11c-0.1-2.2-0.2-4.4-0.4-6.6
		c-0.1-1.5-0.7-2.7-1.6-3.9c-1.2-1.7-2.6-3.2-3.8-4.9c-0.6-0.9-1.3-1.8-1.6-2.9C112,82.1,111.1,81.1,110.4,80z"/>
	<path class="st3" d="M82.1,55.5c-1.5,0-2.9-0.1-4.2-0.9c-1.4-1.4-1.7-3.3-2.5-5c-2.1-4.6-3-9.5-3.7-14.4c0.4-0.2,0.7,0.1,1,0.3
		c0.6,0.5,1.1,1,1.5,1.7c0.5,0.9,1.3,1.2,2.3,1.3c1.7,0.1,3.2-0.4,4.7-1.1c2.1-1,4.1-2.1,5.9-3.7c0.2-0.2,0.4-0.3,0.7-0.3
		c0.7,0.5,0.5,1.3,0.6,2c0,0.2-0.1,0.5,0.2,0.7c0.3,0.1,0.5-0.1,0.6-0.3c0.6-0.5,1-1.2,1.3-1.9c0.1-0.3,0.2-0.6,0.3-0.9
		c0.1-0.3,0.2-0.7,0.6-0.7c0.4,0,0.5,0.4,0.6,0.7c0.4,1.8,0.4,3.6-0.1,5.3c-0.2,0.5-0.3,1-0.4,1.5c-0.1,0.5,0.1,0.7,0.6,0.5
		c1.3-0.6,2.6-1.2,2.7-2.9c0.1-1.3,0.7-2.6,1.7-3.5c1.5-1.3,2.9-0.9,3.4,1c0.4,1.8-0.1,3.4-1,5c-0.9,1.6-2,3-2.9,4.6
		c-0.6,1-0.3,1.4,0.8,1.7c0.4,0.1,0.8,0,1.1,0.3c-0.2,0.3-0.9-0.1-0.9,0.5c-0.1,0.5-0.5,0.8-0.8,1.2c-2.9,3.3-6.4,5.8-10.7,7
		c-0.7,0.2-1.5,0.2-2.2,0.4C82.9,55.7,82.4,55.7,82.1,55.5z"/>
	<path class="st4" d="M158.8,125.8c0,3,0,5.9,0,8.9c0,6.3,0,12.7,0,19c0,0.7-0.1,1.1-0.8,1.5c-7.8,4.5-15.6,9-23.4,13.5
		c-1.3,0.8-2.6,1.5-3.9,2.3c-0.3,0.2-0.6,0.4-1,0.4c-0.4-0.5-0.3-1.1-0.3-1.6c0-8.3,0-16.7,0-25c0-0.6,0-1.3-0.1-1.9
		c-0.1-0.3,0.1-0.5,0.4-0.6c2.1-0.8,4-2.1,6-3.3c4.3-2.5,8.6-4.9,12.8-7.4c3.2-1.9,6.4-3.7,9.6-5.6
		C158.3,125.9,158.5,125.8,158.8,125.8z"/>
	<path class="st5" d="M158.8,125.8c-2.9,1.8-5.9,3.4-8.8,5.1c-2.9,1.7-5.8,3.4-8.7,5.1c-3.6,2.1-7.1,4.2-10.7,6.2
		c-0.4,0.2-0.9,0.2-1.3,0.4c-0.7,0.1-1.3-0.4-1.8-0.7c-2.8-1.6-5.6-3.2-8.3-4.8c-3-1.8-6.1-3.5-9.1-5.2c-1.4-0.8-2.8-1.6-4.1-2.4
		c-0.3-0.2-0.7-0.3-0.8-0.7c-0.1-0.7,0.4-0.8,0.8-1.1c2.9-1.7,5.8-3.4,8.7-5c0.2-0.3,0.5-0.5,0.8-0.7c2.2-1.3,4.5-2.5,6.7-3.9
		c0.2,0.2,0.4,0.5,0.6,0.7c0,0.1-0.1,0.2-0.2,0.3c-0.5,0.3-1,0.6-1.5,0.9c-0.1,0.1-0.3,0.1-0.1,0.3c0.4,0.6,1.3,0.6,1.6,1.3
		c0,0.3-0.1,0.4-0.3,0.6c-0.8,0.1-1.2-0.6-2-0.8c-0.1,0.7,0,1.3,0,2c0,0.4,0.2,0.4,0.5,0.2c0.5-0.3,0.9-0.7,1.5-0.6
		c0.3,0.1,0.3,0.3,0.2,0.6c-0.3,0.6-0.9,0.7-1.5,1c0,0,0,0,0.1,0c0.3-0.1,0.7-0.6,0.9-0.3c0.3,0.4-0.2,0.7-0.5,1
		c-1,1-1.5,2.2-1.1,3.6c0.1,0.2,0.1,0.4,0.1,0.6c-0.6,0.7-1.5,1-2.1,1.4c0.8-0.3,0.8-0.3,1,0.9c0.1-0.4,0-0.7,0.1-1.1
		c0.1-0.2,0.1-0.5,0.4-0.4c0.3,0.5,0.2,1,0.2,1.4c0,0.5,0.2,0.9,0.6,1.1c0.2,0.2,0.5,0.3,0.8,0.4c0.1,0.1,0.3,0.2,0.4,0.2
		c0.6-0.3,0.9,0,1,0.6c0.1,0.2,0.3,0.3,0.5,0.4c0.9,0.8,1.8,1,2.7,0.2c0.7-0.6,0.7-0.7,0-1.4c-0.5-0.3-1-0.6-1.5-0.9
		c-0.2-0.1-0.3-0.2-0.4-0.5c0.1-0.2,0.2-0.5,0.2-0.7c0.4-0.6,1.1-0.8,1.6-1.1c0.4-0.2,0.6-0.5,0.5-0.9c0.1-0.3,0.3-0.4,0.6-0.4
		c1.2,0.4,2.1-0.3,2.4-1.3c0.1,0,0.2-0.1,0.2,0c0.1-0.1,0.3,0.8,0.3,0c0-0.1,0-0.2,0-0.4c0.1-0.2,0.2-0.4,0.5-0.4
		c0.5,0,0.9,0.3,1.3,0.4c0.4,0.6,1.2,0,1.5,0.4c0.3,0.4,0.4,1,1,1.2c0.1,0,0.2,0.1,0.3,0.1c0.7,0.6,1.4,0.3,2.1-0.1
		c0.2-0.1,0.5-0.3,0.6-0.6c0.1-0.2,0.1-0.4,0-0.5c-0.8-0.6-1.6-1.2-2.6-1.2c-0.2,0-0.5,0.2-0.7-0.2c0.2-0.3,0.5-0.6-0.1-1
		c-0.2-0.1-0.4-0.5-0.2-0.8c0.4-0.2,0.7,0.1,1,0.2c0.9,0.3,1.4-0.3,2-0.8c0.1-0.1,0.3-0.1,0.5-0.2c-0.9-0.6-1.9-0.9-2.6-1.6
		c-0.2-0.1-0.4,0-0.5,0c-0.3,0.1-0.5,0.3-0.9,0.2c-0.3-0.2-0.5-0.5-0.5-0.8c-0.2-0.9-0.8-1.2-1.6-1c-0.4-0.1-0.5-0.3-0.6-0.6
		c0.2-0.5-0.2-1-0.1-1.5c0.1-0.2,0.3-0.4,0.4-0.5c0.9,0.1,1.4-0.6,2-0.9c0.3-0.1,0.1-0.4-0.1-0.5c-0.5-0.3-0.9-0.7-1.5-0.7
		c0-0.4,0.1-0.7,0.1-1.1c0.5-0.2,0.8,0.2,1.2,0.4c0.5,0.3,0.7,0.1,0.7-0.4c0-0.5-0.1-0.9,0.1-1.4c0.5-0.4,0.4,0.1,0.5,0.3
		c0.1,0.5,0,1,0.1,1.5c0,0.5,0.2,0.9,0.8,0.8c0.7-0.3,1.3-0.8,2-1.2c-0.6-0.5-1.2-0.8-1.8-1c-0.6-0.7-1.3-0.8-2-0.1
		c-0.4,0.3-0.8,0.8-1.4,0.6c0-0.7-0.1-1.4,0.1-2c0.1,1.3,0.2,1.4,1.2,0.6c0.7-0.5,1.3-0.6,2.2-0.1c4.1,2.5,8.3,4.8,12.4,7.2
		c3.6,2.1,7.3,4.1,10.9,6.2C158.4,125.6,158.7,125.6,158.8,125.8z"/>
	<path class="st6" d="M105.1,128.6c4.3,2.5,8.7,4.9,13,7.5c3.7,2.2,7.4,4.4,11.2,6.5c0.4,0.4,0.4,0.9,0.4,1.4c0,9.2,0,18.4,0,27.6
		c-1.6-0.5-3-1.5-4.5-2.4c-3.5-2-7-4.1-10.5-6.1c-0.1,0-0.2,0-0.3-0.1c-1.8-1.3-3.8-2.2-5.6-3.4c-1-0.6-2.1-1.2-3.1-1.8
		c-0.5-0.3-0.7-0.6-0.7-1.2c0-9.1,0-18.2,0-27.4C104.9,129,104.9,128.8,105.1,128.6z"/>
	<path class="st7" d="M100.7,180.1c1.9,1.4,4,1.7,6.3,1.2c1.5-0.3,2.9-0.5,4.4-1c2-0.6,3.8-1.5,4.6-3.6c0.9,0.8,1.1,1.5,0.6,2.5
		c-0.1,0.2-0.1,0.3-0.3,0.5c-3.1,3.8-5.7,7.9-9.9,10.6c-2.4,1.5-4.9,2.7-7.7,3.2c-1.3,0-2.5,0-3.8,0c-0.9-0.3-1.7-0.6-2.5-1.1
		c-2.4-1.7-2.6-4.5-0.6-6.6c1.7-1.7,3.8-2.8,5.9-3.9C98.7,181.4,99.8,180.8,100.7,180.1z"/>
	<path class="st8" d="M83.4,55.4c3.2-0.4,6-1.8,8.6-3.6c1.6-1.1,2.9-2.4,4.1-3.9c0.3-0.3,0.6-0.6,0.9-0.8c0.3,0.8,0.5,1.6,0.8,2.4
		c2,4,3.1,6.6-0.9,11.3c-1.9,2.3-4.3,3.9-7.2,4.8c-0.8,0.3-1.7,0.4-2.6,0.3c-1.1-0.1-2.1-0.6-2.7-1.6c-0.7-1.1-1.1-2.3-1.2-3.7
		c-0.1-1.4,0-2.9,0-4.4C83.2,56,83.2,55.7,83.4,55.4z"/>
	<path class="st9" d="M83.4,55.4c0,1.6,0,3.3,0,4.9c0,1.1,0.3,2.1,0.7,3c0.9,2.1,2.6,2.7,4.6,2.2c4.6-1.2,8.1-4,10.1-8.4
		c1-2.1,0.4-4.2-0.6-6.1c-0.3-0.5-0.4-1-0.5-1.6c1.3,0.5,2.4,1.3,3,2.7c0.1,0.3,0.2,0.6,0.5,0.8c-0.4,0.5-0.1,1-0.1,1.5
		c0.2,3.1-0.3,6.1-2.1,8.8c-1,1.5-2.3,2.6-3.8,3.5c-3.1,2-6.2,3.9-8.7,6.6c-1,1-1.7,2.2-2.5,3.4c-0.6-0.7-0.9-1.4-1.2-2.2
		c-1.7-5.1-2.1-10.3-1.5-15.5c0.1-1.2,0.3-2.4,0.6-3.6C82.5,55.5,83,55.5,83.4,55.4z"/>
	<path class="st10" d="M97.9,46.6c-0.7,0-1.4,0-2.1-0.4c-0.5-0.3-0.7-0.7-0.3-1.3c1.1-1.7,2.2-3.3,3.2-5c0.9-1.6,1.4-3.2,0.9-5
		c-0.5-1.6-1.5-1.9-2.8-0.8c-1.1,1-1.6,2.3-1.8,3.6c-0.2,1.4-1.8,3-3.3,3.1c-0.5,0-0.7-0.2-0.6-0.7c0.1-0.5,0.3-1,0.4-1.5
		c0.6-1.8,0.6-3.6,0.3-5.4c-0.1-0.3-0.1-0.6-0.4-0.9c-0.3,0.7-0.6,1.5-0.9,2.2c-0.4,0.7-0.8,1.4-1.6,1.8c-0.5,0.3-0.8,0.3-0.7-0.4
		c0-0.9,0.1-1.7-0.4-2.5c0.7-1.4,1.9-2.3,3.2-3.1c3.5-1.2,6.9-2.3,10-4.4c1-0.7,2-1.5,2.8-2.4c0.5,5.1,0.4,10.1-1.7,14.8
		C100.6,41,99.4,43.8,97.9,46.6z"/>
	<path class="st11" d="M122.7,77.7c-0.6,0.6-1.1,1.1-1.7,1.7c-1.6,1.5-3.3,1.7-5.2,0.6c-2.4-1.4-3.8-3.4-4.6-6
		c-0.5-2,0.4-3.4,1.8-4.5c1.3-1,2.7-1.8,4.4-1.7c2.7,1.5,4.2,4,5.3,6.8C123.2,75.8,122.9,76.7,122.7,77.7z"/>
	<path class="st12" d="M75.6,58.1c0.3,0.8-0.2,1.6-0.2,2.5c0,2.9-0.1,5.7,0,8.6c0.1,2.2,0.4,4.5,0.6,6.7c0.5,3.6,1.3,7.1,1.9,10.6
		c0.3,1.6,0.6,3.3,1.3,4.9c0,0.1,0,0.2-0.1,0.3c-2.2,3.3-3.9,6.9-5.9,10.3c-1.6,2.6-2.8,5.4-3.8,8.3c-0.5,1.4-1.1,2.9-2.9,3.2
		c-0.8,0.4-1.7,0.2-2.5,0c-1.7-0.5-3-1.4-4.3-2.6c-0.7-0.7-1.1-1.4-1.2-2.4c-0.2-1.3,0.2-2.4,0.9-3.5c1.5-2.4,3.1-4.8,4.5-7.2
		c1.5-2.6,2.9-5.4,4.4-8c2.6-4.8,3.3-10.1,3.4-15.5c0.1-4,0.1-8.1,1.6-12C74.1,60.7,74.6,59.3,75.6,58.1z"/>
	<path class="st12" d="M90.8,30.2c-1.1,1-2.2,2-3.2,3.1c-2.3,2.2-5,3.7-7.9,4.8c-0.8,0.3-1.5,0.4-2.3,0.5c-1.6,0.1-3-0.2-3.8-1.8
		c-0.4-0.8-1.1-1.3-1.9-1.7c-2.8-2-5.9-2.7-9.3-2.4c-0.6,0.1-1.3,0.1-1.9,0.2c-0.7,0.1-0.9-0.2-1-0.7c-0.3-1.4,0.2-2.6,1.2-3.6
		c1.3-1.5,3-2.4,4.6-3.5c1.1-0.8,2.3-1.5,3-2.7c1.2-0.1,2.4-0.4,3.7-0.4c3.9-0.1,7.4,1.3,10.7,3.2c1.4,0.8,2.9,1.7,4,2.9
		c0.4,0.4,0.7,0.8,1.1,1.3c0.6,0.8,1.3,1.1,2.3,0.9C90.4,30.1,90.6,30.2,90.8,30.2z"/>
	<path class="st7" d="M75.6,163c-0.1,1.4,1,2.3,2.4,2.7c2.2,0.6,4.4,1.1,6.6,1c1.8-0.1,3.6-0.2,4.9-1.6c0.3,1.4,0,2-1.3,2.6
		c-0.1,0.1-0.3,0.1-0.4,0.2c-3,0.4-5.1,2.2-7.1,4.3c-2.8,2.9-6.1,5-10.3,5.4c-1.9,0.2-3.7,0-5.4-0.8c-2.2-1.1-2.8-3-1.6-5.2
		c1-1.7,2.5-2.9,4.2-3.8C70.4,166.3,73,164.7,75.6,163z"/>
	<path class="st3" d="M64.8,116.4c0.2,0.7,0.3,1.3,0.5,2c0.4,1.7-0.3,3.2-1.9,4c-3.1,1.5-6.3,0.5-7.7-3.1c-0.3-0.8-0.1-1.7,0.3-2.5
		c0.5-1.1,1-2,1.7-3c0.3-0.4,0.5-0.1,0.7,0.1c1.6,1.5,3.4,2.3,5.5,2.3C64.2,116.1,64.6,116.1,64.8,116.4z"/>
	<path class="st9" d="M64.8,116.4c-2,0.2-3.9-0.3-5.6-1.4c-0.4-0.3-0.8-0.6-1.2-1.1c-0.1-0.2-0.3-0.2-0.5-0.1
		c-0.4-1.6,0.2-3,0.8-4.5c0.1-0.3,0.3-0.6,0.3-0.9c0.9,2.8,4.8,5.4,8,5.1C66,114.3,65.8,115.6,64.8,116.4z"/>
	<path class="st13" d="M80.8,100.4c0.1,0,0.2-0.4,0.3,0c0.1,0.3,0.2,0.6,0.2,1c-0.1,0.7,0.3,1.3,0.7,1.9c0.1,0.2,0.2,0.3,0.1,0.5
		c-0.6,1.1-1,2.2-1.4,3.4c-0.1-0.1-0.3-0.3-0.4-0.4C79.7,104.5,79.9,102.4,80.8,100.4z"/>
	<path class="st14" d="M122.1,117.9c0,0.4-0.3,0.5-0.6,0.6c-2.3,1.3-4.6,2.7-6.9,4c0-0.1,0-0.1,0-0.2c-0.2-0.6,0-1.3-0.1-1.9
		c-0.2-3.4-0.5-6.8-1.5-10c-0.1-0.3-0.2-0.6-0.4-0.9c-0.2-0.2-0.1-0.4,0-0.6c0.4-0.9,0.4-1.9,0.2-2.9c-0.3-1.6-0.4-3.2-1.1-4.7
		c-0.7-3-2.1-5.8-3-8.7c-0.8-2.5-0.3-5.1,0.3-7.6c0.4-1.7,0.9-3.3,1.4-5c0.9,0.7,1.6,1.6,2,2.6c0.9,2.4,2.4,4.4,4.1,6.3
		c2.4,2.6,3.6,5.5,3.6,9c0,3.6,0.2,7.2,0.6,10.7C120.9,111.7,121.4,114.8,122.1,117.9z"/>
	<path class="st15" d="M85.3,105.8c0.3-0.7,0.7-0.7,1.4-0.4c1.2,0.7,2.6,0.8,4,0.9c0.7,0,1.5,0,2.2,0c0.9,0,1.6,0.3,1.9,1.1
		c0.9,1,1,3.1,0.3,4.1c-0.5,0.6-1.2,0.8-1.9,0.7c-1.7-0.2-3.5-0.3-5.2-0.7c-0.7-0.2-1.4-0.5-1.9-1.1C84.9,109.3,84.5,107,85.3,105.8
		z"/>
	<path class="st13" d="M101.3,106.5c1-0.3,1.9-0.5,2.9-0.7c0.3-0.1,0.6-0.1,0.8-0.4c0.6-0.3,0.9,0.2,1.1,0.5
		c0.9,1.2,1.3,2.7,1.4,4.2c0,0.1-0.1,0.2-0.2,0.3c-1.8,0.2-3.6,0.6-5.4,0.5c-0.4-0.5-0.2-1.2-0.3-1.8
		C101.5,108.3,101.2,107.5,101.3,106.5z"/>
	<path class="st16" d="M106.8,105c1.2-0.2,2.3-0.7,3.3-1.3c0.3-0.4,0.5-0.1,0.7,0.1c1.2,1.4,1.5,4.2,0.6,5.8
		c-0.9,0.2-1.8,0.7-2.8,0.6c-0.4-0.6-0.2-1.4-0.5-2.1c-0.3-0.7-0.6-1.5-1.1-2.1C106.9,105.7,106.6,105.4,106.8,105z"/>
	<path class="st13" d="M95.1,111.5c0.4-1.4,0.1-2.7-0.3-4.1c1.2-0.1,2.4-0.3,3.7-0.4c0.3,0,0.5,0.1,0.6,0.3c0.7,1.2,1.1,2.4,0.5,3.8
		C98.1,111.3,96.6,111.4,95.1,111.5z"/>
	<path class="st11" d="M99.6,111.2c0-0.9,0.1-1.8-0.2-2.6c-0.2-0.6-0.4-1.1-0.9-1.5c0-0.2-0.2-0.4-0.3-0.6c-0.2-0.3-0.6-0.6-0.3-1
		c0.3-0.4,0.7-0.3,1.1-0.2c0.9,0.1,1.8,0.5,2.3,1.3c0.6,1.4,0.8,2.9,0.7,4.4c-0.2,0.8-1.5,1.5-2.3,1.2
		C99.2,111.9,99.7,111.5,99.6,111.2z"/>
	<path class="st13" d="M85.3,105.8c-0.4,1.7,0.1,3.2,0.8,4.6c-1-0.2-1.9-0.6-2.8-1.1c-0.3-0.2-0.6-0.4-1-0.4c-0.1-0.1,0,0.1-0.1,0
		c-0.9-1-0.7-4.1,0.4-4.9c0.1-0.1,0.2,0,0.3,0C83.5,104.8,84.4,105.2,85.3,105.8z"/>
	<path class="st17" d="M111.5,109.7c0.1-1.2,0.6-2.3,0.2-3.5c-0.3-0.8-0.6-1.7-1.1-2.4c-0.1-0.2-0.3-0.1-0.4-0.1
		c0-0.2-0.1-0.3-0.2-0.5c-0.2-0.1-0.6-0.2-0.3-0.5c0.2-0.2,0.4-0.6,0.7-0.5c1,0.4,1.1-0.3,1.3-1c1,1.1,1.9,6,1.4,7.3
		c-0.1,0.3-0.4,0.5-0.4,0.8C112.2,109.5,111.9,109.7,111.5,109.7z"/>
	<path class="st18" d="M106.8,105c0.3,1,1,1.7,1.4,2.6c0.3,0.9,0.5,1.7,0.5,2.6c0.3,0.7-0.1,1-0.6,1.4c-0.4,0.3-0.6,0.1-0.7-0.3
		c0-0.3,0-0.5,0-0.8c-0.3-1.7-0.4-3.5-1.9-4.8c-0.1-0.1-0.3-0.2-0.5-0.2c-0.3-0.4-0.3-0.6,0.2-0.7
		C105.8,104.5,106.3,104.9,106.8,105z"/>
	<path class="st19" d="M82.9,103.9c-1.2,1.6-1.2,3.2-0.5,5c-0.4,0.2-0.8,0.4-1.2,0c-0.5-0.5-0.5-1.2-0.3-1.9c-0.1-1.2,0.6-2.1,1-3.1
		c0.1-0.2,0.3-0.5,0.3-0.7c0.1-0.1,0.2-0.1,0.3-0.2c0.2-0.1,0.5-0.3,0.8-0.1c0.3,0.3-0.2,0.4-0.2,0.7
		C82.9,103.7,82.9,103.8,82.9,103.9z"/>
	<path class="st5" d="M114.5,120.5c0.3,0.6,0.1,1.2,0.1,1.9C114.4,121.7,114.5,121.1,114.5,120.5z"/>
	<path class="st20" d="M96.3,84.5c0,0.8,0,1.6-0.5,2.3c-1.2,1.6-3.1,1.6-4.5-0.1c-1.8-2.2-2.9-4.8-2.9-7.7c0-1.3,0.7-1.8,1.9-1.6
		c1.9,0.4,3.6,1.3,5.3,2.1c0.2,0.1,0.4,0.3,0.4,0.6C95.9,81.6,96.2,83,96.3,84.5z"/>
	<path class="st21" d="M122.4,118.7c0.1,0,0.1-0.1,0.2-0.1c2.7,1.3,5.3,0.9,7.8-0.7c0.1,0.5,0.8,0.9,0.2,1.5
		c-0.4,1.1-1.4,1.6-2.4,1.9c-1.9,0.5-3.6,0.4-5.2-0.9c-0.3-0.3-0.5-0.6-0.6-1C122.3,119.1,122.4,118.9,122.4,118.7z"/>
	<path class="st22" d="M131.3,113.5c0.6-0.3,1.2-0.6,1.8-1c0.8-0.6,1.3-0.2,1.8,0.5c0.4,0.9,0.5,1.7-0.1,2.6c-0.9,0.2-1.2,0-1.2-0.9
		c0-0.6,0-1.2,0-1.8c0,0,0,0,0,0c0,0-0.1,0-0.1,0c-0.6,0.5-1.2,1.1-2,1.1C131.3,113.8,131.3,113.7,131.3,113.5z"/>
	<path class="st23" d="M131.2,115.2c0.2-0.1,0.3-0.5,0.6-0.2c0.5,0.5,1.5,0.5,1.5,1.2c0,0.6-0.9,0.7-1.4,1c-0.2,0.2-0.5,0.3-0.7,0.4
		c-0.4,0.2-0.4-0.1-0.4-0.3C131.1,116.7,131,115.9,131.2,115.2z"/>
	<path class="st24" d="M131.3,113.9c0.7-0.4,1.4-0.7,2-1.1c0,0.8,0,1.5,0,2.3c-0.9-0.2-1.4-0.7-2-1
		C131.3,114.1,131.3,114,131.3,113.9z"/>
	<path class="st25" d="M137.5,154.8c0-0.3,0-0.6,0-0.8c0-1,0.5-1.5,1.7-1.6c0.5-0.1,0.9,0.1,1.1,0.6c0.3,0.7,0.2,1.4,0.1,2.2
		c0,0.5-0.7,0.5-1,0.8C138.6,155.8,138,155.4,137.5,154.8z"/>
	<path class="st25" d="M133,153c0.5,1.5,0.3,2-1.3,2.6c-0.6,0-1.1-0.3-1.4-0.8c0-0.4,0.1-0.9,0-1.3c-0.1-0.9,0.3-1.3,1.1-1.5
		C132.1,152,132.6,152.3,133,153z"/>
	<path class="st25" d="M141.2,148.7c-0.3-0.7-0.2-1.4-0.2-2.1c0-0.6,0.6-0.7,1.1-0.7c0.8,0,1.3,0.5,1.8,1c0,0.3,0,0.6,0,0.8
		c0,1-0.6,1.6-1.7,1.6C141.7,149.4,141.4,149.1,141.2,148.7z"/>
	<path class="st25" d="M141,152.7c0-0.3,0-0.5,0-0.8c0-1,0.6-1.6,1.7-1.6c0.5,0,0.9,0.1,1.1,0.6c0.4,0.7,0.2,1.4,0.1,2.2
		c-0.1,0.5-0.6,0.6-1.1,0.7C142,153.7,141.5,153.3,141,152.7z"/>
	<path class="st25" d="M144.7,150.7c-0.4-1.5-0.1-2,1.5-2.6c0.6,0,1,0.3,1.3,0.8c0,0.5,0,1,0,1.5c0.1,0.9-0.3,1.3-1.1,1.3
		C145.6,151.7,145.1,151.3,144.7,150.7z"/>
	<path class="st26" d="M130.6,159.1c-0.8-1.5-0.3-2.2,1.3-2.6c0.5-0.1,0.9,0.1,1.1,0.6c0.4,0.7,0.2,1.5,0.2,2.2
		c0,0.5-0.6,0.6-1.1,0.7C131.4,159.9,130.9,159.6,130.6,159.1z"/>
	<path class="st25" d="M140.2,148.9c0.5,1.5,0.1,2-1.5,2.6c-0.6,0-1-0.3-1.3-0.8c0-0.5,0-1,0-1.5c-0.1-0.9,0.3-1.2,1.1-1.3
		C139.3,147.9,139.8,148.3,140.2,148.9z"/>
	<path class="st26" d="M136.7,150.9c0.1,2,0,2-1.5,2.6c-0.6,0-1-0.3-1.3-0.8c0-0.5,0-0.9,0-1.4c-0.1-0.8,0.2-1.3,1-1.5
		C135.6,150,136.3,150.3,136.7,150.9z"/>
	<path class="st25" d="M136.5,155c0.4,0.7,0.2,1.5,0.2,2.2c0,0.5-0.6,0.5-0.9,0.8c-0.7-0.1-1.3-0.3-1.6-1c-0.6-1.5-0.2-2.2,1.3-2.6
		C135.9,154.4,136.3,154.5,136.5,155z"/>
	<path class="st27" d="M137.7,159c-0.4-0.7-0.3-1.3,0.5-1.7c0.3-0.1,0.5-0.3,0.8-0.5c0.5-0.3,1.4,0.1,1.5,0.7c0.1,0.7,0,1.4,0,2.1
		c0,0.4-0.3,0.6-0.7,0.5C138.8,160.1,138.2,159.7,137.7,159z"/>
	<path class="st23" d="M133.2,148.9c0,1.2-0.6,2-1.7,2.2c-0.5,0.1-1-0.3-1.1-0.6c-0.2-0.8-0.2-1.6,0-2.5c0.1-0.2,0.3-0.4,0.6-0.4
		C131.8,147.7,132.5,148.2,133.2,148.9z"/>
	<path class="st28" d="M140.3,144.7c0.2,0.9-0.9,2.3-1.9,2.2c-0.1,0-0.1,0-0.2-0.1c-0.4-0.2-0.9-0.4-0.8-1c0.2-0.8-0.6-1.9,0.6-2.4
		C138.9,143.6,139.7,144,140.3,144.7z"/>
	<path class="st23" d="M133.2,161.3c0,0.8,0,1.5,0,2.3c0,0.4-0.1,0.7-0.6,0.8c-0.9-0.2-1.7-0.6-2.2-1.3c-0.4-0.7-0.2-1.2,0.5-1.6
		c0.5-0.2,0.9-0.8,1.5-0.7C132.8,160.8,133,161,133.2,161.3z"/>
	<path class="st29" d="M141.3,157c-0.6-0.7-0.5-1.1,0.2-1.6c0.3-0.2,0.6-0.4,1-0.6c0.2-0.1,0.4-0.2,0.7,0c0.4,0.2,0.9,0.4,0.7,0.9
		c-0.2,0.8,0.6,1.9-0.6,2.5C142.5,158.2,141.9,157.7,141.3,157z"/>
	<path class="st25" d="M144.5,154.8c0-1,1-2.1,1.9-2.1c0.4,0,1,0.2,1,0.8c0.1,0.7,0,1.5,0,2.2c0,0.3-0.3,0.5-0.6,0.5
		C145.9,156,145.2,155.4,144.5,154.8z"/>
	<path class="st28" d="M133.9,148.6c0-0.8,0-1.6,0-2.4c0-0.4,0.1-0.7,0.6-0.8c0.9,0.2,1.6,0.6,2.2,1.3c0,1.3-0.4,1.9-2,2.2
		C134.3,149.2,134.1,148.9,133.9,148.6z"/>
	<path class="st25" d="M136.5,159.1c0.5,0.9,0.2,1.9,0.2,2.9c0,0.3-0.3,0.3-0.6,0.3c-0.9,0-1.5-0.5-2-1.2c-0.4-0.8-0.3-1.4,0.6-1.8
		c0.4-0.2,0.8-0.4,1.2-0.6C136.2,158.7,136.5,158.8,136.5,159.1z"/>
	<path class="st28" d="M151,150.9c0,0.8,0,1.6,0,2.4c0,0.4-0.1,0.7-0.6,0.8c-0.9-0.1-1.6-0.6-2.2-1.3c0-1.4,0.3-1.7,2-2.2
		C150.7,150.4,150.8,150.7,151,150.9z"/>
	<path class="st30" d="M133.2,144.8c0.1,0.4,0,0.7-0.5,0.9c-0.4,0.2-0.8,0.5-1.2,0.7c-0.3,0.2-0.6,0.5-1,0.2c-0.4-0.3-0.3-0.6-0.3-1
		c0.1-0.8-0.2-1.6,0.2-2.4C131.5,143.4,132.4,144,133.2,144.8z"/>
	<path class="st23" d="M137.6,163.2c-0.1-0.1-0.2-0.3-0.2-0.4c0-0.4,2.1-1.7,2.5-1.5c0.2,0.1,0.4,0.2,0.4,0.4c0,1,0.2,2.1-0.1,3.1
		C139.2,164.5,138.3,164,137.6,163.2z"/>
	<path class="st30" d="M151.8,154.8c-0.1-0.7,0.4-0.9,0.9-1.1c0.6-0.3,1.1-1.1,1.7-0.7c0.7,0.4,0.3,1.2,0.3,1.9c0,0.5,0.3,1-0.3,1.4
		C153.3,156.1,152.5,155.6,151.8,154.8z"/>
	<path class="st29" d="M141.2,161.1c-0.3-0.3-0.3-0.6,0.1-0.8c0.6-0.3,1.2-0.7,1.8-1c0.4-0.2,0.8-0.1,0.8,0.4c0,1,0.2,2-0.1,3
		C142.7,162.4,141.9,161.9,141.2,161.1z"/>
	<path class="st23" d="M130.4,167.2c-0.1-0.2-0.2-0.5,0-0.7c0.7-0.4,1.4-0.8,2.1-1.2c0.3-0.2,0.6,0,0.6,0.3c0,1,0.3,2.1-0.1,3.1
		C132,168.5,131.1,168,130.4,167.2z"/>
	<path class="st29" d="M144.9,159.1c-0.4-0.3-0.5-0.6,0-0.9c0.6-0.3,1.2-0.7,1.8-1c0.4-0.2,0.8-0.1,0.8,0.3c0,1,0.3,2-0.2,3
		C146.3,160.4,145.5,159.8,144.9,159.1z"/>
	<path class="st31" d="M133.9,165.2c-0.1-0.4,0-0.8,0.5-1c0.5-0.2,1-0.6,1.5-0.8c0.5-0.3,0.8-0.1,0.9,0.5c0,0.9,0,1.9,0,2.8
		C135.6,166.6,134.7,165.9,133.9,165.2z"/>
	<path class="st23" d="M136.5,142.6c0.3,0.4,0.3,0.8-0.2,1c-0.5,0.3-1.1,0.6-1.6,0.9c-0.4,0.2-0.7,0-0.7-0.3c0-1-0.3-2.1,0.1-3.1
		C135.1,141.3,135.9,141.8,136.5,142.6z"/>
	<path class="st23" d="M148.4,157c-0.1-0.2-0.3-0.4-0.2-0.6c0.1-0.3,2-1.4,2.3-1.4c0.2,0,0.4,0.2,0.4,0.4c0,1,0.3,2-0.2,3
		C149.8,158.2,149,157.8,148.4,157z"/>
	<path class="st32" d="M154.1,148.3c0.1-0.2,0.2-0.4,0.4-0.3c0.2,0,0.2,0.2,0.2,0.4c0,1,0,2,0,3c0,0.7-0.8,0.7-1.3,1
		c-0.7-0.1-1.3-0.3-1.7-1c0-0.5,0-0.9,0-1.4c0.6-0.2,0.9,0.3,1.3,0.5c0.8,0.4,0.8,0.4,0.8-0.5C154,149.4,153.8,148.8,154.1,148.3z"
		/>
	<path class="st33" d="M150.1,145.9c0.2-0.2,0.4-0.5,0.7-0.5c0,0.9,0,1.7,0,2.6c0,1.5,0,1.5-1.5,2c-0.5,0.1-0.8-0.2-1.1-0.6
		c0-0.5,0-1,0-1.4c0.7-0.2,1,0.4,1.6,0.6C150,147.7,149.5,146.7,150.1,145.9z"/>
	<path class="st34" d="M158.1,140.3c-0.7,0.6-1.6,1-2.4,1.5c-0.2,0.1-0.4,0.1-0.4-0.1c0-1-0.2-1.9,0.2-2.9
		C156.5,139,157.4,139.4,158.1,140.3z"/>
	<path class="st34" d="M158.1,145c-0.6,0.7-1.6,1-2.3,1.5c-0.4,0.3-0.4,0-0.5-0.3c0-0.9,0-1.8,0-2.7
		C156.4,143.6,157.3,144.1,158.1,145z"/>
	<path class="st34" d="M158.1,130.9c-0.7,0.7-1.5,1-2.3,1.5c-0.4,0.3-0.5,0-0.5-0.3c0-0.9,0-1.8,0-2.7
		C156.5,129.4,157.3,130.1,158.1,130.9z"/>
	<path class="st34" d="M158.1,135.6c-0.6,0.7-1.6,1-2.4,1.5c-0.2,0.1-0.4,0-0.4-0.2c0-0.8,0-1.7,0-2.5c0-0.1,0.2-0.1,0.3-0.2
		C156.6,134.3,157.4,134.8,158.1,135.6z"/>
	<path class="st34" d="M158.1,149.7c-0.6,0.7-1.6,1-2.4,1.5c-0.4,0.2-0.4-0.1-0.4-0.4c0-0.9,0-1.8,0-2.7
		C156.4,148.3,157.3,148.8,158.1,149.7z"/>
	<path class="st35" d="M142.1,141.1c0.5-0.3,0.9-0.9,1.6-0.4c0.3,0.2,0.4,0.5,0.1,0.8c-0.5,0-0.7,0.1-0.7,0.7c0,0.7,0.2,1.5-0.2,2.2
		c-0.2,0.2-0.4,0.4-0.6,0.5c-0.4,0.1-0.7,0.6-1,0.3c-0.3-0.3-0.4-0.9,0-1.3c0.5,0,0.7-0.1,0.7-0.7
		C141.8,142.4,141.7,141.7,142.1,141.1z"/>
	<path class="st36" d="M151.8,135.9c0-0.2,0-0.5,0.2-0.6c0.7-0.4,1.3-0.9,2.1-1.1c0.5,0.9,0.3,1.8,0.2,2.7c0,0.4-0.4,0.5-0.7,0.3
		C152.9,136.9,152.2,136.6,151.8,135.9z"/>
	<path class="st37" d="M151.8,145.3c0-0.3,0-0.5,0.3-0.7c0.7-0.4,1.4-0.7,2.1-1.1c0.6,0.9,0.3,1.9,0.2,2.8c0,0.5-0.5,0.4-0.8,0.2
		C152.9,146.2,152.2,145.9,151.8,145.3z"/>
	<path class="st38" d="M146,146.6c0.4-0.8,0.2-1.7,0.2-2.6c0-0.6,0.2-0.9,0.7-1.1c0.2-0.1,0.3-0.2,0.5-0.1c0.2,0.2,0.2,0.4-0.1,0.6
		c-0.2,0.1-0.3-0.1-0.4-0.2c-0.3,0.9-0.1,1.9-0.1,2.8c0,0.6-0.1,1-0.7,1.2c-0.4,0.2-0.9,0.4-1.2,0c-0.3-0.4-0.5-0.9-0.2-1.4
		C145.3,145.7,145.7,146.2,146,146.6z"/>
	<path class="st39" d="M142.1,136.4c0.4-0.3,0.7-0.8,1.3-0.6c0.5,0.1,0.6,0.5,0.5,1c-0.7,0-0.9,0.2-0.9,0.9c0,0.7,0.2,1.4-0.2,2.1
		c-0.5,0.4-1,0.8-1.6,0.2c-0.3-0.2-0.4-0.5-0.1-0.8c0.5,0,0.7-0.3,0.7-0.8C141.9,137.7,141.7,137,142.1,136.4z"/>
	<path class="st37" d="M151.9,140.7c-0.2-0.3-0.2-0.6,0.2-0.8c0.7-0.3,1.2-0.9,2-1.1c0.6,0.9,0.3,1.8,0.2,2.7c0,0.3-0.3,0.5-0.6,0.4
		C153,141.6,152.3,141.4,151.9,140.7z"/>
	<path class="st40" d="M148.2,139.3c-0.1-0.3-0.2-0.5,0.2-0.7c0.3-0.1,0.5,0,0.7,0.1c0.7,0.5,0.8,0.1,0.8-0.5c0-0.6-0.2-1.2,0.3-1.6
		c0.2-0.4,0.4-0.6,0.8-0.7c-0.2,1-0.1,2.1-0.1,3.2c0,0.7-0.2,1.1-0.9,1.2C149.2,140.2,148.6,139.9,148.2,139.3z"/>
	<path class="st41" d="M151.8,131.2c0.4-1.2,1.4-1.3,2.4-1.7c0.5,0.8,0.3,1.8,0.2,2.7c0,0.4-0.4,0.4-0.7,0.3
		C152.9,132.2,152.2,131.9,151.8,131.2z"/>
	<path class="st37" d="M154.1,148.3c0,0.9,0,1.9,0,3c-0.8-0.5-1.6-0.9-2.4-1.3c0-0.3,0-0.5,0.3-0.7
		C152.8,149,153.3,148.4,154.1,148.3z"/>
	<path class="st39" d="M148.2,144c0-0.3,0-0.5,0-0.8c0.3-0.1,0.5,0,0.8,0.2c0.8,0.3,0.8,0.3,0.8-0.6c0-0.6-0.2-1.2,0.3-1.8
		c0.3-0.1,0.5-0.3,0.8-0.4c-0.2,1.1-0.1,2.1-0.1,3.2c0,0.7-0.2,1.1-0.9,1.2C149.2,145,148.7,144.6,148.2,144z"/>
	<path class="st42" d="M148.4,134.7c-0.3-0.3-0.2-0.6-0.2-0.9c0.6-0.2,1,0.5,1.5,0.5c0.3-0.5-0.2-1.2,0.4-1.6
		c0.3-0.5-0.2-1.3,0.8-1.4c-0.2,1-0.1,2.1-0.1,3.1c0,0.7-0.2,1.1-1,1.1C149.2,135.6,148.8,135.3,148.4,134.7z"/>
	<path class="st43" d="M155.7,133.4c0.5-0.9,1.5-1,2.4-1.7c0,1.1,0,2.1,0,3C157,134.7,156.3,134.1,155.7,133.4z"/>
	<path class="st23" d="M155.6,138.1c0.6-0.8,1.5-1.1,2.5-1.6c-0.1,1.1,0.2,2-0.2,2.9C156.9,139.3,156.2,138.8,155.6,138.1z"/>
	<path class="st23" d="M150.1,141.1c0,1,0,2.1,0,3.2c-0.7-0.4-1.3-0.7-1.9-1C147.9,141.7,149.3,141.7,150.1,141.1z"/>
	<path class="st34" d="M155.7,152.2c0.6-0.8,1.6-1,2.4-1.7c-0.1,1.2,0.2,2.1-0.2,3C157,153.4,156.2,153,155.7,152.2z"/>
	<path class="st44" d="M150.1,145.9c0,1,0,2,0,3c-0.7-0.2-1.3-0.7-1.9-0.9C148.2,146.7,148.6,146.3,150.1,145.9z"/>
	<path class="st45" d="M151.8,135.9c0.7,0.4,1.5,0.8,2.4,1.3c0-1.1,0-2,0-3c0.1-0.2,0.2-0.3,0.4-0.3c0.2,0,0.1,0.2,0.1,0.4
		c0,1,0,2,0,2.9c0,0.5-0.2,0.7-0.7,0.7c-0.8-0.1-1.5-0.5-2-1.2C151.7,136.5,151.7,136.2,151.8,135.9z"/>
	<path class="st46" d="M155.5,128.6c0.6-0.4,1.3-0.7,1.9-1.1c0.5-0.3,0.8-0.3,0.7,0.4c0,0.7,0,1.5,0,2.2
		C157,129.9,156.2,129.4,155.5,128.6z"/>
	<path class="st35" d="M151.9,140.7c0.5,0.3,1.1,0.6,1.6,0.9c0.4,0.3,0.7,0.2,0.6-0.3c0-0.8,0-1.6,0-2.4c0.2-0.3,0.5-0.7,0.6,0.1
		c0,1,0,2,0,2.9c0,0.5-0.3,0.7-0.7,0.7c-0.9-0.1-1.6-0.6-2.2-1.2C151.8,141.1,151.6,140.8,151.9,140.7z"/>
	<path class="st45" d="M151.8,145.3c0.8,0.4,1.5,0.8,2.4,1.3c0-1.1,0-2.1,0-3.1c0.3-0.3,0.6-0.3,0.6,0.2c0,1,0,2,0,2.9
		c0,0.4-0.3,0.7-0.7,0.7c-0.9-0.2-1.6-0.6-2.2-1.3C151.8,145.8,151.8,145.6,151.8,145.3z"/>
	<path class="st23" d="M150.1,132.7c0,0.7,0,1.3,0,2.1c-0.7-0.2-1.3-0.7-1.9-1c-0.4-1.5,1-1.5,1.7-2
		C150.2,132.1,150,132.4,150.1,132.7z"/>
	<path class="st23" d="M155.7,147.5c0.5-0.9,1.5-1,2.4-1.7c0,1.1,0,2.1,0,3C157.1,148.8,156.3,148.3,155.7,147.5z"/>
	<path class="st34" d="M155.5,142.7c0.8-0.5,1.6-1,2.6-1.4c-0.2,1,0.2,1.9-0.2,2.8C156.9,144,156.1,143.4,155.5,142.7z"/>
	<path class="st47" d="M151.8,131.2c0.7,0.4,1.5,0.8,2.4,1.3c0-1.1,0-2,0-3c0.1-0.2,0.1-0.4,0.3-0.3c0.2,0,0.2,0.2,0.2,0.3
		c0,1,0,2,0,3c0,0.4-0.3,0.6-0.7,0.7c-0.9-0.2-1.6-0.6-2.2-1.3C151.8,131.7,151.8,131.5,151.8,131.2z"/>
	<path class="st23" d="M150.1,136.6c0,0.9,0,1.9,0,2.9c-0.7-0.2-1.2-0.6-1.7-0.9C148,137.5,148.7,136.7,150.1,136.6z"/>
	<path class="st48" d="M155.7,152.2c0.8,0.4,1.5,0.9,2.3,1.3c0.2,0.2,0.5,0.4,0.3,0.8c-0.2,0.3-0.5,0.4-0.9,0.4
		c-0.9,0-1.5-0.6-2-1.1c0-0.4,0-0.7,0-1.1C155.3,152.1,155.5,152.2,155.7,152.2z"/>
	<path class="st49" d="M144.7,137.3c-0.1-0.3-0.4-0.6,0.1-0.7c0.4-0.1,0.9,0.3,1.3-0.2c0-0.6,0.1-1.2,0-1.7
		c-0.1-0.7,0.3-0.9,0.8-1.2c0.2-0.1,0.4-0.2,0.5,0c0.1,0.2,0.1,0.4-0.1,0.5c-0.1,0-0.1,0-0.2-0.1c-0.5-0.3-0.3,0.2-0.3,0.3
		c0,0.8,0,1.6,0,2.5c0,0.7-0.3,1.1-1,1.1C145.3,137.9,145,137.7,144.7,137.3z"/>
	<path class="st50" d="M139,138.7c-0.4,0.9-0.1,1.9-0.2,2.8c0,0.5-0.1,0.8-0.6,0.9c-0.2,0.1-0.5,0.3-0.7,0.1
		c-0.2-0.2-0.2-0.6,0.1-0.8c0.2-0.1,0.3,0.1,0.4,0.2c0.4-0.8,0.2-1.7,0.2-2.6c0-0.9,0.3-1.2,1.1-1.3c0.5-0.1,0.8,0.3,1.1,0.6
		c-0.1,0.2,0.1,0.5-0.2,0.7C139.7,139.5,139.3,139.1,139,138.7z"/>
	<path class="st24" d="M139,138.7c0.4,0.2,0.9,0.5,1.3,0.7c0.5,1.7,0.3,2-1.3,2.5C139,140.8,139,139.7,139,138.7z"/>
	<path class="st47" d="M146.9,138.7c-0.3,1-0.1,2-0.1,3c0,0.7-0.3,1-1,1c-0.5,0-0.9-0.2-1.1-0.6c-0.1-0.2-0.3-0.5,0-0.7
		c0.5-0.1,0.9,0.1,1.1,0.6c0.4,0.3,0.4-0.1,0.4-0.3c0-0.8,0-1.5,0-2.3c0-0.4,0.1-0.7,0.5-0.9c0.6-0.4,0.9-0.3,0.8,0.5
		C147.2,139,147.1,138.8,146.9,138.7z"/>
	<path class="st51" d="M146,146.6c-0.4-0.2-0.9-0.5-1.3-0.7c-0.4-1.4-0.2-1.8,0.9-2.2c0.4-0.2,0.5,0,0.5,0.3
		C146,144.9,146,145.7,146,146.6z"/>
	<path class="st24" d="M145.8,141.8c-0.4-0.2-0.7-0.4-1.1-0.6c-0.4-1.2-0.2-1.9,0.8-2.2c0.2-0.1,0.5-0.2,0.5,0.1
		C146,140,146.3,141,145.8,141.8z"/>
	<path class="st52" d="M146.1,136.4c-0.1,0.2-0.2,0.5-0.3,0.8c-0.4-0.2-0.7-0.4-1-0.6c-0.8-1.1-0.5-1.7,1.1-2.4
		C146.2,134.9,145.8,135.7,146.1,136.4z"/>
	<path class="st53" d="M142.9,139.8c0-1.1,0-2.3,0-3.4c0.4-0.1,0.7,0.4,1.1,0.4c0,0.5,0,0.9,0,1.4
		C144.1,139,143.7,139.5,142.9,139.8z"/>
	<path class="st53" d="M142.9,144.4c0-1.1,0-2.2,0-3.3c0.4-0.1,0.6,0.2,0.9,0.4c0.3,0.7,0.2,1.5,0.1,2.2
		C143.9,144.1,143.3,144.3,142.9,144.4z"/>
	<path class="st34" d="M151.8,132c0.7,0.4,1.5,0.9,2.2,1.3c-0.6,0.5-1.6,1.4-2,1.1C151.4,134,151.8,132.8,151.8,132z"/>
	<path class="st54" d="M132.4,169.1c-0.4,0.7-1.2,0.8-1.8,1.2c-0.2,0.2-0.4,0-0.4-0.3c0.1-0.7-0.2-1.4,0.1-2.1
		C131.3,168.1,131.9,168.4,132.4,169.1z"/>
	<path class="st55" d="M151.8,141.4c0.7,0.4,1.5,0.8,2.2,1.2c-0.5,0.7-1.3,0.9-2.2,1.5C151.8,143.1,151.8,142.2,151.8,141.4z"/>
	<path class="st34" d="M151.8,146.1c0.7,0.4,1.5,0.9,2.2,1.3c-0.6,0.6-1.3,0.9-2.1,1.2C151.6,147.8,151.8,146.9,151.8,146.1z"/>
	<path class="st56" d="M146.7,160.9c-0.5,0.6-1.2,0.8-1.8,1.2c-0.2,0.1-0.4,0.1-0.4-0.2c0-0.7-0.2-1.5,0.2-2.1
		C145.6,159.7,146.2,160.2,146.7,160.9z"/>
	<path class="st46" d="M152,136.8c0.7,0.4,1.3,0.8,2,1.2c-0.1,0.1-0.2,0.3-0.4,0.4c-0.6,0.3-1.4,1.1-1.7,0.7
		C151.5,138.5,151.6,137.5,152,136.8z"/>
	<path class="st57" d="M136.5,142.6c-0.8-0.5-1.6-0.9-2.4-1.4c0.1-0.6,0.7-0.7,1.1-0.9c0.6,0.1,1.1,0.4,1.5,0.9
		C136.7,141.7,136.9,142.2,136.5,142.6z"/>
	<path class="st24" d="M155.3,153.5c0.7,0.4,1.4,0.8,2,1.1c0.2,0.6-0.3,0.5-0.6,0.6c-0.4,0.3-0.8,0.6-1.5,0.7
		C155.3,155.1,155.3,154.3,155.3,153.5z"/>
	<path class="st29" d="M142.1,136.4c0,0.7,0,1.5,0,2.2c0,1.1,0,1.1-0.9,0.6C140.6,137.6,140.9,136.8,142.1,136.4z"/>
	<path class="st24" d="M143.2,163c-0.1,0.1-0.3,0.3-0.4,0.3c-0.6,0.3-1.4,1.1-1.6,0.8c-0.4-0.6-0.3-1.5,0-2.3
		C142,161.9,142.7,162.3,143.2,163z"/>
	<path class="st29" d="M142.1,141.1c0,1,0,2,0,2.9c0,0.1,0,0.2-0.1,0.3c-0.4,0-0.6-0.3-0.9-0.4C140.7,142.3,140.9,141.7,142.1,141.1
		z"/>
	<path class="st55" d="M153.8,156.7c-0.3,0.8-1.2,0.9-1.8,1.3c-0.3,0.2-0.3-0.2-0.3-0.4c0-0.7,0-1.3,0-2
		C152.6,155.6,153.3,156,153.8,156.7z"/>
	<path class="st55" d="M139.5,165c-0.4,0.6-1.1,0.8-1.6,1.2c-0.2,0.2-0.4,0.1-0.4-0.2c0.1-0.7-0.2-1.4,0.2-2.1
		C138.5,163.9,139.1,164.3,139.5,165z"/>
	<path class="st24" d="M131.2,142.9c0.4-0.8,1.3-0.8,2-1.5c0,1,0,1.8,0,2.6C132.3,144,131.7,143.5,131.2,142.9z"/>
	<path class="st34" d="M150.3,158.9c-0.5,0.6-1.3,0.8-2.1,1.3c0.1-0.9-0.2-1.7,0.2-2.4C149.2,157.8,149.9,158.2,150.3,158.9z"/>
	<path class="st30" d="M136,167.1c-0.4,0.7-1.1,0.7-1.6,1.1c-0.4,0.3-0.4-0.1-0.4-0.3c0-0.6,0-1.3,0-1.9
		C134.8,166,135.4,166.4,136,167.1z"/>
	<path class="st58" d="M140.3,144.7c-0.7-0.4-1.5-0.9-2.2-1.3c0.4-0.3,0.7-0.7,1.3-0.7c0.4,0,0.8,0.1,0.9,0.6
		C140.5,143.8,140.5,144.3,140.3,144.7z"/>
	<path class="st35" d="M155.7,147.5c0.8,0.4,1.6,0.9,2.4,1.3c0.2,0.3,0.3,0.6,0,0.8c-0.9-0.5-1.8-1-2.8-1.6
		C155.4,147.9,155.1,147.4,155.7,147.5z"/>
	<path class="st59" d="M155.5,142.7c0.8,0.5,1.6,0.9,2.4,1.4c0.3,0.2,0.6,0.5,0.2,0.9c-0.9-0.5-1.8-1-2.8-1.6
		C155.3,143.2,155.2,142.9,155.5,142.7z"/>
	<path class="st45" d="M155.5,128.6c0.9,0.5,1.7,1,2.6,1.5c0.3,0.3,0.3,0.5,0,0.8c-0.9-0.5-1.8-1-2.8-1.5
		C155.3,129.1,155.2,128.8,155.5,128.6z"/>
	<path class="st60" d="M155.7,133.4c0.8,0.4,1.6,0.9,2.4,1.3c0.2,0.3,0.3,0.5,0,0.8c-0.8-0.5-1.6-0.9-2.4-1.4
		C155.5,133.9,154.8,133.6,155.7,133.4z"/>
	<path class="st61" d="M155.6,138.1c0.7,0.4,1.5,0.9,2.2,1.3c0.3,0.3,0.6,0.5,0.2,0.9c-0.9-0.5-1.7-1-2.6-1.5
		C155.3,138.5,155,138.2,155.6,138.1z"/>
	<path class="st62" d="M131.2,142.9c0.7,0.4,1.3,0.7,2,1.1c0,0.3,0,0.5,0,0.8c-0.9-0.5-1.8-1-2.8-1.5
		C130.5,142.8,130.8,142.8,131.2,142.9z"/>
	<path class="st63" d="M131.9,164.7c-0.1,0.7-0.8,0.7-1.3,1c-0.2,0.1-0.3-0.1-0.3-0.3c0.1-0.5-0.2-1,0.2-1.5
		C131.1,163.8,131.5,164.2,131.9,164.7z"/>
	<path class="st64" d="M146.7,160.9c-0.7-0.4-1.4-0.8-2-1.1c-0.1-0.3-0.4-0.6,0.2-0.7c0.8,0.5,1.6,0.9,2.4,1.4
		C147.5,161,147,160.8,146.7,160.9z"/>
	<path class="st62" d="M136,167.1c-0.7-0.4-1.4-0.8-2-1.1c0.1-0.2-0.2-0.5,0-0.8c0.9,0.5,1.8,1,2.7,1.5
		C136.6,167,136.3,167.1,136,167.1z"/>
	<path class="st65" d="M143.2,163c-0.7-0.4-1.3-0.8-2-1.2c-0.1-0.3-0.3-0.5,0-0.8c0.9,0.5,1.7,1,2.6,1.5
		C143.7,162.9,143.5,163,143.2,163z"/>
	<path class="st53" d="M148.2,139.3c0.6,0.3,1.1,0.6,1.7,1c-0.4,0.5-1.1,1-1.5,0.8C147.9,140.8,148.3,139.9,148.2,139.3z"/>
	<path class="st66" d="M146.2,156.5c-0.1,0.3-0.3,0.5-0.6,0.5c-0.3,0.1-0.8,0.7-1,0.2c-0.2-0.4-0.5-1.1,0.3-1.5
		C145.5,155.7,145.9,155.9,146.2,156.5z"/>
	<path class="st67" d="M148.2,144c0.6,0.3,1.1,0.6,1.7,1c-0.4,0.5-1,0.8-1.7,1.1C148.2,145.3,148.2,144.7,148.2,144z"/>
	<path class="st68" d="M132.4,169.1c-0.7-0.4-1.4-0.8-2-1.2c-0.1-0.2-0.3-0.5,0-0.7c0.9,0.5,1.7,1,2.6,1.5
		C133,169.1,132.7,169.1,132.4,169.1z"/>
	<path class="st69" d="M139.5,165c-0.6-0.4-1.3-0.7-1.9-1.1c-0.1-0.2-0.3-0.5,0-0.7c0.9,0.5,1.7,1,2.6,1.5
		C140.1,165,139.8,165,139.5,165z"/>
	<path class="st36" d="M148.4,134.7c0.5,0.3,1,0.5,1.5,0.8c-0.2,0.6-0.8,0.6-1.3,0.9c-0.2,0.1-0.4,0.1-0.4-0.2
		C148.3,135.8,148,135.2,148.4,134.7z"/>
	<path class="st70" d="M142.6,158.5c0,0.1-0.1,0.2-0.1,0.2c-0.4,0.3-1.1,0.9-1.3,0.7c-0.4-0.4-0.3-1.2,0-1.7
		C141.8,157.7,142.3,158,142.6,158.5z"/>
	<path class="st71" d="M153.8,156.7c-0.7-0.4-1.3-0.7-2-1.1c0-0.2,0-0.5,0-0.7c0.9,0.5,1.7,1,2.6,1.5
		C154.5,157,154.1,156.7,153.8,156.7z"/>
	<path class="st72" d="M144,146.8c-0.6-0.3-1.2-0.7-1.8-1c0.1-0.3,0.4-0.4,0.7-0.6c0.5-0.3,1.1,0,1.1,0.6
		C144,146.2,144,146.5,144,146.8z"/>
	<path class="st73" d="M151.8,151.4c0.6,0.3,1.1,0.6,1.7,1c-0.5,0.4-1,0.7-1.7,1C151.8,152.7,151.8,152.1,151.8,151.4z"/>
	<path class="st74" d="M150.3,158.9c-0.6-0.4-1.3-0.7-1.9-1.1c-0.1-0.3-0.4-0.5,0-0.7c0.8,0.5,1.6,0.9,2.4,1.4
		C151,158.9,150.5,158.8,150.3,158.9z"/>
	<path class="st30" d="M146.9,138.7c0.2,0.1,0.4,0.1,0.6,0.2c-0.1,1.1,0.3,2.2-0.2,3.2c-0.1,0-0.2,0-0.3,0
		C146.9,140.9,146.9,139.8,146.9,138.7z"/>
	<path class="st75" d="M146.9,143.3c0.1,0.1,0.2,0.1,0.4,0.2c0.4,0.9,0.1,1.9,0.2,2.8c0,0.2-0.1,0.4-0.3,0.4c-0.3,0-0.2-0.3-0.2-0.4
		C146.9,145.3,146.9,144.3,146.9,143.3z"/>
	<path class="st41" d="M139.1,160.6c0,0.1-0.1,0.2-0.2,0.2c-0.4,0.3-1.1,0.9-1.3,0.6c-0.4-0.4-0.3-1.1,0-1.7
		C138.3,159.8,138.8,160.1,139.1,160.6z"/>
	<path class="st73" d="M131.5,147.2c0.5-0.4,1.1-1,1.5-0.8c0.4,0.3,0.1,1.1,0.2,1.7C132.5,148.1,131.9,147.9,131.5,147.2z"/>
	<path class="st29" d="M147.1,134c0.1,0,0.1,0.1,0.2,0.1c0.4,0.9,0.1,1.9,0.2,2.9c0,0.1-0.2,0.3-0.3,0.3c-0.1,0.1-0.2-0.1-0.2-0.2
		C147,136,146.7,135,147.1,134z"/>
	<path class="st76" d="M149.9,154.5c-0.4,0.4-1.1,1-1.5,0.8c-0.5-0.3-0.1-1.1-0.2-1.7C149,153.5,149.5,153.9,149.9,154.5z"/>
	<path class="st76" d="M135.4,162.6c-0.1,0.7-0.8,0.7-1.2,1c-0.2,0.1-0.3,0-0.3-0.2c0.1-0.5-0.2-1,0.2-1.5
		C134.7,161.8,135.1,162.1,135.4,162.6z"/>
	<path class="st30" d="M138,142c-0.1-0.1-0.3-0.1-0.4-0.2c-0.4-0.9-0.1-1.8-0.2-2.6c0-0.2,0.2-0.4,0.3-0.4c0.3,0,0.2,0.3,0.2,0.4
		C138,140.1,138,141.1,138,142z"/>
	<path class="st36" d="M135.1,145.1c0.5-0.3,1.1-1,1.5-0.7c0.5,0.3,0.1,1.1,0.2,1.7C136,146.1,135.5,145.7,135.1,145.1z"/>
	<path class="st77" d="M131.9,164.7c-0.5-0.3-1-0.5-1.5-0.8c-0.1-0.3-0.3-0.5,0-0.8c0.7,0.4,1.5,0.9,2.2,1.3
		C132.4,164.7,132.2,164.8,131.9,164.7z"/>
	<path class="st78" d="M146.2,156.5c-0.4-0.3-0.9-0.5-1.3-0.8c-0.3-0.2-0.4-0.5-0.4-0.9c0.8,0.4,1.6,0.9,2.4,1.3
		C146.8,156.4,146.5,156.5,146.2,156.5z"/>
	<path class="st79" d="M135.1,145.1c0.5,0.3,1.1,0.6,1.6,1c0,0.3,0.2,0.5,0,0.8c-0.7-0.4-1.5-0.9-2.2-1.3
		C134.6,145.3,134.9,145.2,135.1,145.1z"/>
	<path class="st62" d="M131.5,147.2c0.6,0.3,1.1,0.6,1.7,0.9c0,0.3,0,0.5,0,0.8c-0.8-0.4-1.5-0.9-2.3-1.3
		C131,147.3,131.2,147.2,131.5,147.2z"/>
	<path class="st62" d="M142.6,158.5c-0.5-0.3-1-0.6-1.5-0.8c-0.2-0.3-0.4-0.6,0.2-0.7c0.7,0.4,1.3,0.8,2,1.2
		C143.2,158.5,142.9,158.5,142.6,158.5z"/>
	<path class="st80" d="M135.4,162.6c-0.4-0.3-0.9-0.5-1.3-0.8c-0.1-0.3-0.4-0.5,0-0.7c0.7,0.4,1.3,0.8,2,1.2
		C136.1,162.7,135.7,162.7,135.4,162.6z"/>
	<path class="st81" d="M149.9,154.5c-0.5-0.3-1.1-0.6-1.6-0.9c0-0.3,0-0.5,0-0.8c0.7,0.4,1.5,0.9,2.2,1.3
		C150.4,154.3,150.1,154.4,149.9,154.5z"/>
	<path class="st81" d="M139.1,160.6c-0.5-0.3-1-0.5-1.5-0.8c-0.1-0.3-0.3-0.5,0-0.8c0.7,0.4,1.3,0.8,2,1.2
		C139.7,160.6,139.4,160.6,139.1,160.6z"/>
	<path class="st36" d="M136.7,141.2c-0.5-0.3-1-0.6-1.5-0.9c0.4-0.3,1-0.8,1.3-0.6C137,140,136.7,140.7,136.7,141.2z"/>
	<path class="st79" d="M137.5,154.8c0.6,0.4,1.2,0.7,1.9,1.1c-0.2,0.2-0.4,0.3-0.7,0.4c-0.4,0-0.8-0.2-1-0.6
		C137.4,155.4,137.4,155.1,137.5,154.8z"/>
	<path class="st82" d="M141,152.7c0.6,0.3,1.2,0.7,1.8,1c-0.1,0.5-0.4,0.4-0.7,0.3c-0.5,0.1-0.8-0.2-1.1-0.6
		C141,153.3,141,153,141,152.7z"/>
	<path class="st83" d="M130.6,159.1c0.5,0.3,1,0.6,1.5,0.9c-0.1,0.3-0.3,0.4-0.6,0.4c-0.5,0-0.8-0.2-1.1-0.6
		C130.3,159.5,130,159.2,130.6,159.1z"/>
	<path class="st84" d="M136.7,150.9c-0.6-0.3-1.2-0.7-1.8-1c0.2-0.2,0.4-0.3,0.7-0.3c0.5-0.1,0.8,0.2,1.1,0.6
		C136.9,150.4,136.7,150.7,136.7,150.9z"/>
	<path class="st85" d="M144.7,142c0.4,0.2,0.7,0.4,1.1,0.6c-0.1,0.5-0.6,0.5-0.9,0.8c-0.2,0.2-0.3,0-0.3-0.2
		C144.6,142.7,144.4,142.3,144.7,142z"/>
	<path class="st83" d="M144.7,150.7c0.6,0.3,1.1,0.6,1.7,0.9c-0.1,0.3-0.3,0.4-0.6,0.4c-0.5,0.1-0.8-0.2-1.1-0.6
		C144.6,151.2,144.4,151,144.7,150.7z"/>
	<path class="st86" d="M147.5,148.9c-0.4-0.3-0.9-0.5-1.3-0.8c0,0,0.1-0.1,0.1-0.1c0.4-0.1,0.6-0.7,1-0.5c0.4,0.2,0.1,0.7,0.2,1.1
		C147.5,148.7,147.5,148.8,147.5,148.9z"/>
	<path class="st64" d="M140.2,148.9c-0.6-0.3-1.1-0.6-1.7-0.9c0.1-0.3,0.3-0.4,0.6-0.4c0.5,0,0.9,0.2,1.1,0.6
		C140.4,148.4,140.6,148.6,140.2,148.9z"/>
	<path class="st87" d="M144.7,137.3c0.4,0.2,0.7,0.4,1.1,0.6c0,0.1-0.1,0.2-0.1,0.2c-0.3,0.1-0.7,0.7-1,0.4
		C144.4,138.2,144.4,137.7,144.7,137.3z"/>
	<path class="st88" d="M134.1,157c0.5,0.3,1.1,0.7,1.6,1c-0.2,0.2-0.4,0.3-0.7,0.3c-0.4,0-0.8-0.1-0.9-0.6
		C134,157.5,133.7,157.2,134.1,157z"/>
	<path class="st89" d="M133,153c-0.6-0.3-1.1-0.6-1.7-1c0.2-0.2,0.4-0.3,0.7-0.4c0.5-0.1,0.7,0.2,0.9,0.6
		C133.1,152.5,133.4,152.7,133,153z"/>
	<path class="st90" d="M130.4,159.8c0.4,0.2,0.7,0.4,1.1,0.6c-0.1,0.1-0.1,0.1-0.2,0.2c-0.3,0.2-0.7,0.7-1,0.4
		C130.1,160.7,130.1,160.1,130.4,159.8z"/>
	<path class="st91" d="M140.2,148.1c-0.4-0.2-0.7-0.4-1.1-0.6c0.1-0.1,0.1-0.2,0.2-0.2c0.3-0.2,0.7-0.6,1-0.4
		C140.6,147.2,140.5,147.7,140.2,148.1z"/>
	<path class="st92" d="M144.7,151.5c0.4,0.2,0.7,0.4,1.1,0.6c0,0.1,0,0.1-0.1,0.2c-0.3,0.2-0.7,0.6-1,0.4
		C144.4,152.4,144.4,151.8,144.7,151.5z"/>
	<path class="st93" d="M141,153.5c0.4,0.2,0.7,0.4,1.1,0.6c-0.1,0.5-0.6,0.6-1.1,0.9C141,154.4,141,154,141,153.5z"/>
	<path class="st94" d="M140.4,138.7c-0.4-0.2-0.7-0.4-1.1-0.6c0.1-0.1,0.2-0.3,0.3-0.3c0.2-0.2,0.4-0.4,0.7-0.3
		c0.2,0.1,0.1,0.4,0.1,0.7C140.4,138.3,140.4,138.5,140.4,138.7z"/>
	<path class="st95" d="M137.7,155.7c0.3,0.2,0.6,0.4,1,0.6c-0.3,0.3-0.6,0.6-1.1,0.6C137.5,156.5,137.3,156,137.7,155.7z"/>
	<path class="st96" d="M133,152.2c-0.3-0.2-0.6-0.4-0.9-0.6c0.2-0.4,0.6-0.5,1-0.7C133.2,151.4,133.3,151.8,133,152.2z"/>
	<path class="st97" d="M140.2,143.3c-0.3-0.2-0.6-0.4-0.9-0.6c0.2-0.3,0.6-0.7,0.9-0.5C140.6,142.5,140.5,142.9,140.2,143.3z"/>
	<path class="st96" d="M134.1,157.8c0.3,0.2,0.6,0.4,0.9,0.6c-0.3,0.3-0.7,0.4-1.1,0.7C133.9,158.5,133.8,158.1,134.1,157.8z"/>
	<path class="st98" d="M148.2,149.4c0.4,0.2,0.7,0.4,1.1,0.6c-0.2,0.4-0.6,0.5-1.1,0.7C148.2,150.2,148.2,149.8,148.2,149.4z"/>
	<path class="st82" d="M141.2,148.7c0.4,0.2,0.7,0.4,1.1,0.6c-0.1,0.6-0.4,0.5-0.7,0.3C141.2,149.4,140.7,149.2,141.2,148.7z"/>
	<path class="st99" d="M130.2,154.8c0.5,0.3,1,0.5,1.4,0.8C130.9,156.1,130.3,155.8,130.2,154.8z"/>
	<path class="st70" d="M136.7,150.2c-0.4-0.2-0.7-0.4-1.1-0.6c0.2-0.4,0.6-0.4,1.1-0.7C136.7,149.4,136.7,149.8,136.7,150.2z"/>
	<path class="st100" d="M137.5,150.7c0.4,0.3,0.9,0.5,1.3,0.8c-0.2,0.3-0.4,0.4-0.7,0.2C137.6,151.5,137.4,151.2,137.5,150.7z"/>
	<path class="st101" d="M143.8,150.9c-0.4-0.2-0.7-0.4-1.1-0.6c0.1-0.5,0.4-0.5,0.8-0.3C143.8,150.2,144.2,150.4,143.8,150.9z"/>
	<path class="st101" d="M136.5,155c-0.4-0.2-0.7-0.4-1.1-0.6c0.2-0.4,0.5-0.5,0.9-0.2C136.6,154.4,137,154.6,136.5,155z"/>
	<path class="st102" d="M133.9,152.8c0.4,0.3,0.9,0.5,1.3,0.8c-0.2,0.3-0.5,0.4-0.8,0.2C133.9,153.5,133.9,153.2,133.9,152.8z"/>
	<path class="st103" d="M140.2,153c-0.4-0.2-0.7-0.4-1.1-0.6c0.1-0.6,0.5-0.4,0.8-0.2C140.3,152.3,140.6,152.5,140.2,153z"/>
	<path class="st65" d="M133,157.1c-0.4-0.2-0.7-0.4-1.1-0.6c0.2-0.5,0.6-0.4,0.9-0.2C133.1,156.5,133.4,156.7,133,157.1z"/>
	<path class="st104" d="M151,150.9c-0.2-0.1-0.5-0.3-0.7-0.4c0.2-0.3,0.4-0.5,0.8-0.5C151.1,150.3,151,150.6,151,150.9z"/>
	<path class="st80" d="M133.2,161.3c-0.2-0.1-0.5-0.3-0.7-0.4c0-0.3,0.2-0.4,0.5-0.3C133.3,160.7,133.1,161,133.2,161.3z"/>
	<path class="st105" d="M133.9,148.6c0.2,0.1,0.5,0.3,0.7,0.4c-0.1,0.2-0.3,0.4-0.5,0.3C133.8,149.2,133.9,148.9,133.9,148.6z"/>
	<path class="st106" d="M136.5,159.1c-0.2-0.1-0.4-0.3-0.6-0.4c0.2-0.2,0.4-0.4,0.7-0.2C136.8,158.7,136.8,159,136.5,159.1z"/>
	<path class="st3" d="M123,120.1c0.9,0.6,1.9,1,3,1.1c1.9,0.1,3.4-0.6,4.6-1.9c0.2,0.2,0.2,0.5,0.5,0.6c0.5,1,0.7,2.1,1,3.2
		c0.1,1.3,0,2.4-1.3,3.1c-0.1,0.1-0.3,0.3-0.4,0.4c-0.1,0.2-0.2,0.4-0.4,0.3c0,0-0.1,0-0.1,0.1c-0.7,0.7-1.5,1.1-2.4,1.4
		c-0.2,0-0.4,0.1-0.6,0.3c-0.1,0.3-0.3,0.4-0.6,0.5c-0.9,0.3-1.8,0.3-2.7-0.2c-0.4-0.5-1.3-0.7-1.4-1.5c0.1-0.6,0.6-0.8,1-1
		c0.4-0.2,0.7-0.3,1.1-0.5c1-0.7,1.1-1,0.4-2.1c-0.5-0.8-0.8-0.8-1.6-0.4c-0.5,0.3-0.5,0.3-0.7,0c0-0.2,0-0.5-0.2-0.6
		c-0.3-0.3-0.3-0.6,0-0.9c0.1-0.2,0.1-0.4,0.2-0.6C122.4,120.8,122.5,120.4,123,120.1z"/>
	<path class="st107" d="M122.4,123.5c0.3,0.5,0.5-0.1,0.6-0.1c0.9-0.6,1.3-0.6,1.9,0.3c0.9,1.4,0.7,1.9-0.9,2.7
		c-0.6,0.3-1.2,0.4-1.6,1c-0.1,0.7,0.2,1.2,0.8,1.5c0.4,0.2,0.2,0.7,0.5,0.9c0.3,0.4,0.8,0.5,0.9,1c0.3,0.3,0.1,0.4-0.2,0.6
		c-0.7,0.9-1.7,1.3-2.8,1.6c-0.4,0.1-0.7,0.1-0.8-0.4c-0.2-1,0-2-0.3-3c0-0.2,0.1-0.4,0-0.5c-0.9-2.2,0-3.8,1.8-5.2
		c-0.7,0-1,0.5-1.8,0.5C121.3,124.1,121.9,123.8,122.4,123.5z"/>
	<path class="st107" d="M131.9,123c-0.2-1-0.7-2-0.8-3.1c1.1-0.4,1.3-0.3,1.8,0.7c0.2,0.4,0.3,0.7,0.5,1.1c0.8,0.6,0.6,1.4,0.6,2.3
		c0.2,0.6,0.5,1,1.2,0.9c-0.1,0.5-0.5,0.5-0.8,0.7c-0.3,0.6-1,0.8-1.5,1.1c-0.4,0.2-0.6,0-0.7-0.4
		C132.4,125.2,132.5,124.1,131.9,123z"/>
	<path class="st23" d="M121.1,134c0.7,0,1.2,0.4,1.7,0.8c0.3,0.6,0.4,1.1,0,1.7c-0.9,1-1.4,1-2.4,0.3c-0.4-0.3-0.4-0.6-0.4-1
		c0-0.3,0-0.7,0-1C120.2,134.2,120.6,134,121.1,134z"/>
	<path class="st26" d="M126.3,134.3c-1.3,1-1.8,1-2.8-0.2c-0.5-1.4-0.1-2.1,1.3-2.4c0.5,0.3,1.1,0.5,1.5,1
		C126.7,133.3,126.7,133.8,126.3,134.3z"/>
	<path class="st26" d="M128.4,129.7c0.8,0.3,1.6,0.6,1.5,1.8c-0.1,0.5,0,1-0.6,1.4c-0.6,0.4-1,0-1.5-0.2c-0.3-0.1-0.5-0.4-0.7-0.5
		C126.5,130.8,126.8,130.3,128.4,129.7z"/>
	<path class="st26" d="M126.3,139c-0.4,0.7-1,0.7-1.6,0.2c-0.4-0.3-1.1-0.4-1.2-1c-0.4-0.6-0.2-1.1,0.4-1.4c0.4-0.2,0.7-0.6,1.2-0.5
		c0.6-0.3,0.8,0.3,1.2,0.4C126.7,137.5,126.7,138.3,126.3,139z"/>
	<path class="st26" d="M128.9,134.2c0.7,0.1,1.1,0.5,1,1.3c0,0.2,0,0.5,0,0.7c0,1.3-0.4,1.6-1.5,0.9c-0.4-0.3-1-0.4-1.3-0.9
		c-0.4-0.6-0.2-1.1,0.4-1.4C127.9,134.6,128.3,134.2,128.9,134.2z"/>
	<path class="st26" d="M131.9,127.7c1.4,0.5,1.7,1,1.4,2.4c-0.1,0.6-1,1-1.6,0.8c-0.8-0.4-1.2-0.9-1-1.8c0-0.2,0-0.4,0-0.6
		C130.9,127.8,131.5,127.8,131.9,127.7z"/>
	<path class="st25" d="M132.4,132.1c0.8,0.1,1,0.5,1,1.3c0,0.4,0,0.9,0,1.3c0,0.7-0.5,0.8-1,0.6c-0.8-0.3-1.7-0.6-1.8-1.7
		c-0.2-0.2-0.2-0.5,0-0.6C131.2,132.7,131.7,132.1,132.4,132.1z"/>
	<path class="st26" d="M117.2,131.4c0.6,0.2,1.1,0.7,1.6,1c0.5,0.2,0.3,0.8,0.2,1.2c0,0.4-1.3,1.4-1.8,1.3c-0.7-0.2-0.9-0.6-0.8-1.3
		c0-0.5,0-1.1,0-1.6C116.5,131.6,116.9,131.6,117.2,131.4z"/>
	<path class="st108" d="M134.9,120.1c-1.8-0.1-1.2-1.5-1.4-2.6c-0.7,0.4-1.3,0.7-1.9,1c0-0.1-0.1-0.2-0.1-0.2c0.9-0.5,1.8-1,2.7-1.5
		c0.2-0.1,0.4,0,0.5,0.1c0.9,0.5,1.7,1,2.6,1.5c0.6,0.4,0.2,0.4-0.1,0.5c-0.7,0-1.2-0.6-1.9-0.8
		C134.9,118.7,135.3,119.4,134.9,120.1z"/>
	<path class="st27" d="M116.6,127.1c0.7,0.3,1.4,0.7,2,1c0.5,0.3,0.6,1,0.1,1.3c-0.4,0.3-0.9,0.5-1.4,0.8c-0.6,0.4-0.9,0.1-0.9-0.6
		c0-0.8,0-1.6,0-2.4C116.4,127.2,116.5,127.1,116.6,127.1z"/>
	<path class="st29" d="M129.3,138.6c0.3,0,0.5,0.1,0.5,0.5c0,0.8,0,1.6,0,2.4c0,0.5-0.2,0.6-0.6,0.3c-0.7-0.5-1.5-0.9-2.2-1.3
		c-0.1-0.3-0.1-0.6,0.1-0.7C127.8,139.3,128.5,138.8,129.3,138.6z"/>
	<path class="st38" d="M132.2,126.4c0.1,0.4,0.2,0.3,0.5,0.2c0.5-0.3,1-0.6,1.6-0.9c0.2,0.4,0.3,0.1,0.5,0c0.6,0.6,1.4,0.9,2.1,1.4
		c0.3,0.2,0.6,0.3,0.7,0.6c0.1,0.4-0.3,0.4-0.6,0.5c-0.5,0.1-0.9-0.3-1.3-0.5c-0.4-0.3-0.8-0.4-0.8,0.3c0,0.2-0.1,0.3-0.2,0.4
		c-0.7-0.3-1.6-0.4-1.3-1.6c-0.7,0.4-1.2,0.6-1.5-0.2C132,126.4,132.1,126.4,132.2,126.4z"/>
	<path class="st28" d="M132.8,136.6c0.4,0,0.5,0.2,0.5,0.6c0,0.7,0,1.5,0,2.2c0,0.3,0,0.7-0.4,0.4c-0.7-0.4-1.3-0.8-2-1.2
		c-0.3-0.2-0.2-0.5-0.2-0.8C131.3,137.1,132,136.8,132.8,136.6z"/>
	<path class="st75" d="M138,116.3c-0.1,0.4,0.3,1.2-0.2,1.4c-0.4,0.2-0.9-0.4-1.3-0.7c-0.3-0.2-0.6-0.3-0.9-0.5
		c-0.5-0.2-0.6-0.4-0.1-0.8c0.6-0.3,1.2-0.7,1.8-1.1c0.5-0.3,0.7-0.2,0.6,0.4C138,115.5,138,115.9,138,116.3z"/>
	<path class="st30" d="M134.8,135.1c1-1,1.8-1.1,2.9,0c0.6,0.6,0.4,1.4,0.1,2.1c-1.2-0.1-2-0.9-2.9-1.5
		C134.7,135.5,134.7,135.3,134.8,135.1z"/>
	<path class="st26" d="M142.1,120.3c-0.8-0.4-1.6-0.9-2.4-1.3c-0.6-0.3-0.6-0.5,0-0.8c0.6-0.3,1.2-0.7,1.8-1c0.2-0.1,0.4-0.3,0.6,0
		C142.5,118.2,142.6,119.2,142.1,120.3z"/>
	<path class="st109" d="M133.9,124c-0.4-0.7,0-1.6-0.6-2.3c0.8-0.6,1.5-0.5,2.3,0.1c0.6,0.5,1.4,0.8,2.1,1.3
		c-0.2,0.4-0.5,0.4-0.8,0.3c-0.5,0.1-0.8-0.3-1.2-0.5c-0.5-0.3-0.7-0.1-0.7,0.4c0,0.3,0.1,0.7-0.3,1
		C134.5,124.2,134.3,124,133.9,124z"/>
	<path class="st110" d="M109.2,126.9c0.8,0.5,1.7,0.9,2.5,1.4c0.2,0.1,0.5,0.3,0.1,0.5c-0.9,0.5-1.6,1.2-2.6,1.4
		C108.8,129.1,108.7,128,109.2,126.9z"/>
	<path class="st25" d="M150.1,124.9c-1-0.4-1.8-1-2.8-1.7c1-0.6,1.8-1.2,2.8-1.5C150.5,122.8,150.5,123.9,150.1,124.9z"/>
	<path class="st111" d="M146,121c-0.1,0.4,0.3,1.1-0.2,1.3c-0.4,0.3-0.8-0.4-1.3-0.6c-0.4-0.2-1.2-0.4-1.2-0.8
		c0-0.6,0.8-0.6,1.3-0.9C146,119.3,146,119.3,146,121z"/>
	<path class="st23" d="M116.5,124.3c0.1-0.4-0.2-1.1,0.2-1.3c0.2-0.1,0.8,0.3,1.2,0.6c1.4,0.9,1.4,0.9,0,1.8
		c-0.4,0.2-0.9,0.8-1.2,0.5C116.2,125.5,116.5,124.9,116.5,124.3z"/>
	<path class="st23" d="M122.2,121.9c0,0.3,0,0.6,0,0.9c-0.6,0.2-1.1,0.6-1.7,0.9c-0.4,0.2-0.6,0.1-0.6-0.3c0-0.9,0-1.8,0-2.8
		C120.8,121.1,121.5,121.5,122.2,121.9z"/>
	<path class="st112" d="M114.4,131.2c-0.3,1.3-0.7,1.6-1.7,1c-0.4-0.8-0.3-1.6-0.2-2.5c0-0.3,0.2-0.6,0.6-0.6
		c0.5,0.2,0.9,0.4,1.3,0.7C114.7,130.4,114.8,130.8,114.4,131.2z"/>
	<path class="st112" d="M112.8,124.9c0.4,0.2,0.8,0.4,1.2,0.6c0.8,0.5,0.8,1.6,0,2c-0.4,0.2-0.7,0.7-1.3,0.6
		C112.3,127,112.2,125.9,112.8,124.9z"/>
	<path class="st23" d="M154,124c0,1.1,0,2,0,3c-0.9-0.2-1.5-0.8-2.2-1.2c-0.3-0.2-0.3-0.4,0-0.6C152.5,124.9,153.1,124.5,154,124z"
		/>
	<path class="st34" d="M142.1,134.7c-0.1,0.2-0.3,0-0.4,0c-1.1-0.2-2.1-0.7-2.8-1.7c0.3-0.7,0.7-1.1,1.5-0.6
		c0.5,0.4,1.3,0.5,1.7,1.1C142.4,134,142.4,134.3,142.1,134.7z"/>
	<path class="st34" d="M134.8,130.5c0.5-0.7,1.1-0.7,1.7-0.2c0.7,0.5,1.8,0.8,1.4,2c0,0.1-0.1,0.2-0.2,0.3c-1.1-0.2-1.9-0.9-2.8-1.5
		C134.8,130.9,134.7,130.7,134.8,130.5z"/>
	<path class="st113" d="M142.9,128.8c-0.3,0.3-0.5-0.2-0.7-0.2c-0.4-0.7-0.4-1.5-0.1-2.2c0.3-0.6,0.6-0.6,1.1-0.2
		c0.7,0.5,1.5,0.9,2.2,1.3c0.2,0.1,0.5,0.2,0.4,0.4c-0.1,0.3-0.4,0.3-0.7,0.2c-0.6,0.1-0.9-0.3-1.3-0.5c-0.5-0.2-0.7-0.2-0.7,0.4
		C143.1,128.2,143.1,128.6,142.9,128.8z"/>
	<path class="st109" d="M134.8,130.5c0,0.4,0.3,0.5,0.6,0.6c0.8,0.5,1.6,0.9,2.4,1.4c-0.2,0.2-0.4,0.3-0.7,0.4
		c-0.8-0.1-1.3-0.7-2-0.9c-0.1,0.2,0,0.4-0.2,0.6c-0.8,0-1.2-0.8-1.9-1C133.6,131.1,134.1,130.6,134.8,130.5z"/>
	<path class="st114" d="M146.9,131.2c-0.4,0-0.7-0.1-0.7-0.6c0-0.6,0-1.2,0-1.8c0-0.5,0.3-0.7,0.7-0.4c1,0.6,2,1.2,3,1.8
		c-0.2,0.3-0.5,0.4-0.7,0.3c-0.7,0-1.2-0.6-1.9-0.8C147,130.2,147.4,130.8,146.9,131.2z"/>
	<path class="st59" d="M146.9,127.1c-0.5,0-0.7-0.2-0.7-0.7c0-0.7,0-1.4,0-2.1c0-0.6,0.3-0.6,0.7-0.4c0.9,0.5,1.8,1,2.6,1.5
		c0.6,0.4,0.1,0.4-0.2,0.5c-0.6,0.1-1-0.4-1.5-0.6c-0.5-0.2-0.7-0.2-0.7,0.4C147.1,126.1,147.3,126.7,146.9,127.1z"/>
	<path class="st115" d="M150.1,126.4c0.2-0.4,0.5-0.4,0.8-0.2c0.8,0.5,1.7,1,2.5,1.5c0.1,0.1,0.4,0.1,0.3,0.4
		c-0.1,0.2-0.3,0.1-0.5,0.1c-0.8-0.1-1.5-0.5-2.1-1.2c-0.3-0.3-0.3,0-0.3,0.2c0,0.7,0,1.5,0,2.2c-0.4,0.1-0.5-0.2-0.7-0.4
		C149.6,128.1,149.7,127.2,150.1,126.4z"/>
	<path class="st42" d="M142.1,121.7c0.1-0.5,0.4-0.5,0.7-0.3c0.9,0.5,1.7,1,2.5,1.5c0.5,0.3,0.4,0.4-0.1,0.5c-0.8,0-1.3-0.7-2-0.9
		c-0.3,0.7,0.1,1.5-0.3,2.1c-0.3,0.2-0.5-0.2-0.7-0.2C141.6,123.6,141.7,122.7,142.1,121.7z"/>
	<path class="st26" d="M154.9,124.3c0.6,0.4,1.2,0.8,1.9,1.1c0.6,0.3,0.4,0.6,0.1,0.8c-0.6,0.4-1.3,0.7-1.9,1
		C154.5,126.3,154.5,125.3,154.9,124.3z"/>
	<path class="st25" d="M142.1,121.7c0,0.9,0,1.9,0.1,2.8c-0.7-0.4-1.3-0.8-2-1.2c-0.2-0.1-0.5-0.3-0.2-0.5
		C140.6,122.3,141.2,121.7,142.1,121.7z"/>
	<path class="st75" d="M138,119.3c0,0.7,0,1.4,0,2c0,0.5-0.2,0.6-0.6,0.3c-0.6-0.4-1.7-0.6-1.6-1.1c0-0.6,1.2-0.7,1.7-1.2
		C137.6,119.3,137.8,119.3,138,119.3C138,119.3,138,119.3,138,119.3z"/>
	<path class="st116" d="M139.2,124.7c-0.2-0.2-0.3-0.1-0.3,0.1c0,0.3,0,0.7,0,1c0,0.2,0.2,0.6-0.2,0.6c-0.4,0-0.4-0.4-0.4-0.7
		c0-0.4,0-0.9,0-1.3c0-0.2,0-0.4-0.2-0.5l0,0c0.3-0.5,0.6-0.6,1.1-0.1c0.8,0.6,1.8,1.1,2.7,1.6c-0.2,0.3-0.4,0.4-0.6,0.4
		C140.4,125.7,139.7,125.3,139.2,124.7z"/>
	<path class="st114" d="M145.8,132.4c0.1,0.5-0.3,0.4-0.5,0.5c-0.6,0-1-0.3-1.4-0.6c-0.5-0.3-0.8-0.4-0.8,0.4c0,0.2-0.1,0.3-0.2,0.4
		c-0.7-0.1-0.7-0.6-0.7-1.2c0-0.6-0.2-1.3,0.7-1.4C143.8,131.1,145,131.5,145.8,132.4z"/>
	<path class="st117" d="M124.6,130.9c-0.4-0.3-0.7-0.5-1.1-0.8c-0.2-0.4-0.1-0.9,0-1.3c0.9,0.5,1.8,0.5,2.8,0.2
		c0.2,0.2,0.2,0.5,0,0.7C125.9,130.2,125.2,130.4,124.6,130.9z"/>
	<path class="st23" d="M146.9,127.1c0-0.8,0-1.7,0-2.7c0.9,0.5,1.7,1,2.4,1.4C148.6,126.3,147.9,127,146.9,127.1z"/>
	<path class="st118" d="M142.9,124.7c0-0.8,0-1.6,0-2.5c0.9,0.3,1.6,0.9,2.4,1.3C144.5,124,143.8,124.5,142.9,124.7z"/>
	<path class="st34" d="M151.2,126.9c0.7,0.4,1.4,0.8,2.1,1.2c-0.4,0.8-1.3,0.8-1.9,1.3c-0.2,0.1-0.4,0-0.3-0.3
		C151.1,128.4,150.8,127.7,151.2,126.9z"/>
	<path class="st119" d="M138,119.3c0.1-0.4,0.4-0.4,0.7-0.2c0.9,0.5,1.8,1,2.6,1.5c0.6,0.4,0.1,0.4-0.2,0.5
		c-0.9-0.1-1.6-0.7-2.3-1.2c-0.3,0.8,0,1.6-0.2,2.4c-0.6,0-0.5-0.4-0.6-0.8C138.1,120.8,138.3,120.1,138,119.3
		C138,119.3,138,119.3,138,119.3z"/>
	<path class="st111" d="M150.1,126.4c0,0.9,0,1.7,0,2.6c-0.7-0.2-1.3-0.7-1.9-1c-0.2-0.1-0.4-0.3-0.1-0.5
		C148.7,127,149.3,126.5,150.1,126.4z"/>
	<path class="st120" d="M139.1,129.4c-0.3-0.2-0.3,0-0.3,0.2c0,0.4,0.1,0.7-0.1,1.1c-0.4,0-0.5-0.2-0.5-0.6c0-0.4-0.1-0.8,0-1.2
		c0-0.6,0.3-0.8,0.8-0.4c1.1,0.4,2.1,0.8,2.9,1.7c-0.2,0.3-0.5,0.4-0.9,0.3C140.2,130.3,139.6,129.9,139.1,129.4z"/>
	<path class="st44" d="M146,126.7c-0.7-0.4-1.3-0.7-1.9-1.1c-0.4-0.2-0.3-0.5,0.1-0.7c0.1-0.1,0.3-0.1,0.4-0.2
		c0.5-0.2,0.9-0.9,1.3-0.6c0.4,0.2,0.1,1,0.1,1.5C146,125.9,146,126.2,146,126.7z"/>
	<path class="st23" d="M151.1,122.2c0.7,0.2,1.3,0.6,1.8,1c0.4,0.2,0.3,0.5,0,0.7c-0.6,0.3-1.1,0.6-1.8,1
		C151.1,123.9,151.1,123.1,151.1,122.2z"/>
	<path class="st23" d="M146.9,119.9c0.7,0.2,1.3,0.7,1.9,1c0.4,0.2,0.3,0.4,0,0.6c-0.6,0.4-1.3,0.8-1.9,1.2
		C146.5,121.7,146.5,120.8,146.9,119.9z"/>
	<path class="st121" d="M142.9,117.7c0.9,0,1.4,0.9,2.3,1.1c-0.7,0.5-1.3,1.3-2.3,1.1C142.4,119.1,142.4,118.4,142.9,117.7z"/>
	<path class="st30" d="M146.9,131.2c0-0.6,0-1.3,0-2c0.8,0.4,1.6,0.8,2.3,1.3C148.4,131.5,147.6,131.8,146.9,131.2z"/>
	<path class="st122" d="M109.2,126.9c0,1.1,0,2.2,0,3.2c-0.3-0.1-0.5-0.2-0.7-0.4c-0.4-0.6-0.1-1.4-0.3-2.1
		c-0.7,0.1-1.2,0.9-1.9,0.8c-0.1,0-0.3-0.1-0.2-0.2c0.9-0.6,1.8-1.1,2.7-1.6C108.9,126.6,109.1,126.8,109.2,126.9z"/>
	<path class="st123" d="M112.8,124.9c0,1.1,0,2.1,0,3.2c-0.3,0-0.5-0.2-0.7-0.4c-0.4-0.6-0.1-1.4-0.3-2.1c-0.7,0.2-1.2,0.8-1.9,0.8
		c-0.2-0.1-0.3-0.2-0.1-0.3c0.8-0.5,1.6-0.9,2.4-1.4C112.5,124.5,112.6,124.7,112.8,124.9z"/>
	<path class="st24" d="M142.9,128.8c0-0.6-0.3-1.5,0.1-1.7c0.5-0.3,1.1,0.5,1.6,0.7c0.2,0.1,0.3,0.2,0.5,0.3
		c-0.3,0.6-0.9,0.8-1.4,1.1C143.2,129.4,143.1,129.1,142.9,128.8z"/>
	<path class="st124" d="M134.8,135.1c0,0.4,0.3,0.5,0.5,0.7c0.8,0.5,1.6,0.9,2.4,1.4c-0.3,0.4-0.6,0.4-1,0.2
		c-0.2-0.1-0.5-0.2-0.6-0.4c-0.6-0.7-1.5-0.2-2.2-0.7c-0.1-0.1-0.3-0.2-0.5-0.3C133.8,135.5,134.3,135.3,134.8,135.1z"/>
	<path class="st24" d="M134.9,120.1c0-0.8,0-1.6,0-2.6c0.8,0.5,1.5,0.9,2.2,1.3C136.4,119.4,135.7,119.8,134.9,120.1z"/>
	<path class="st34" d="M138.9,119.9c0.8,0.3,1.5,0.8,2.3,1.2c0,0,0,0.1-0.1,0.1c-0.7,0.4-1.5,1.3-2,1
		C138.6,121.9,139,120.7,138.9,119.9z"/>
	<path class="st124" d="M138.9,133.1c0.9,0.7,1.9,1.2,2.8,1.7c0,0.4-0.3,0.4-0.5,0.5c-0.9-0.2-1.6-0.7-2.3-1.2
		c-0.3,0.2,0,0.5-0.3,0.8c-0.8-0.3-0.4-1.1-0.6-1.6C138.1,133.1,138.6,132.7,138.9,133.1z"/>
	<path class="st125" d="M134.8,115.6c0-0.9,0.1-1.7,0.1-2.6c0.9,0,1.4,0.8,2.4,1C136.3,114.6,135.5,115.1,134.8,115.6z"/>
	<path class="st36" d="M141.9,130.1c-1-0.6-2-1.1-2.9-1.7c0-0.5,0.3-0.6,0.7-0.4c0.8,0.4,1.6,0.8,2.3,1.3
		C142.4,129.5,142.5,129.9,141.9,130.1z"/>
	<path class="st126" d="M132.2,126.4c-0.1,0.1-0.1,0.1-0.2,0.2c-0.5,0.1-0.8-0.3-1.3-0.4c0.9-0.9,1.2-2,1.1-3.2
		c0.6,0.6,0.9,1.8,0.6,2.7C132.4,125.9,132.3,126.1,132.2,126.4z"/>
	<path class="st127" d="M106.2,128.5c0.7-0.4,1.4-0.8,2.2-1.3c0,1,0,1.8,0,2.6C107.7,129.4,107,129,106.2,128.5z"/>
	<path class="st70" d="M142.8,133.1c0-0.5,0-0.9,0-1.6c0.9,0.5,1.7,1,2.4,1.4C143.9,134,143.9,134,142.8,133.1z"/>
	<path class="st23" d="M141.2,116.5c-0.7,0.5-1.4,0.9-2.2,1.4c0-0.8,0-1.5,0-2.2c0-0.3,0.1-0.4,0.4-0.2
		C139.9,115.7,140.5,116.1,141.2,116.5z"/>
	<path class="st34" d="M139.2,124.7c0.7,0.4,1.3,0.8,2,1.2c-0.5,0.3-1,0.6-1.5,1c-0.4,0.2-0.7,0.1-0.7-0.3
		C139,125.9,138.8,125.2,139.2,124.7z"/>
	<path class="st24" d="M134.8,124.3c0-0.7,0-1.3,0-2.1c0.8,0.4,1.5,0.7,2.1,1.2C136.5,124.2,135.6,124.6,134.8,124.3z"/>
	<path class="st128" d="M109.8,126.4c0.7-0.4,1.4-0.8,2.2-1.3c0,0.9,0,1.7,0,2.5C111.2,127.3,110.5,126.9,109.8,126.4z"/>
	<path class="st129" d="M120.7,129.6c0.4,1,0.6,2.1,0.2,3.1c-0.7,0-0.9-0.4-0.9-1c0-0.6,0-1.2,0-1.7
		C120.1,129.7,120.3,129.3,120.7,129.6z"/>
	<path class="st130" d="M145.8,132.4c-1-0.6-2.2-0.9-2.9-1.9c0.4-0.3,0.7-0.4,1.1-0.1c0.5,0.3,1.1,0.6,1.6,0.9
		C146,131.6,146.2,131.9,145.8,132.4z"/>
	<path class="st131" d="M133.6,139.7c0-0.9,0-1.8,0-2.8c0.6,0.3,1.2,0.4,1.3,1.2C134.9,139.1,134.3,139.4,133.6,139.7z"/>
	<path class="st132" d="M113.1,129.2c-0.4,0.2-0.4,0.6-0.4,0.9c0,0.7,0,1.4,0,2.1c-0.2-0.1-0.5-0.3-0.7-0.4
		c-0.2-0.2-0.2-0.5-0.2-0.8c0-0.7-0.2-0.7-0.7-0.4c-0.2,0.1-0.4,0.2-0.7,0.2c-0.2,0-0.3-0.2-0.2-0.3c0.9-0.5,1.8-1.2,2.8-1.5
		C113,129,113,129.1,113.1,129.2z"/>
	<path class="st133" d="M117,122.3c-0.2,0-0.4-0.1-0.1-0.3c0.8-0.5,1.6-0.9,2.4-1.4c0.5-0.3,0.6,0.1,0.6,0.5c0,0.9,0,1.8,0,2.8
		c-0.5,0-0.6-0.2-0.6-0.6c0-0.6,0-1.2,0-1.8c0-0.3-0.1-0.5-0.4-0.2C118.4,121.8,117.8,122.2,117,122.3z"/>
	<path class="st67" d="M123,120.1c-0.2,0.4-0.4,0.9-0.6,1.3c-0.5-0.5-1.4-0.4-1.6-1.3c0.5-0.5,1-0.9,1.7-1
		C122.9,119.3,122.7,119.8,123,120.1z"/>
	<path class="st37" d="M137.7,127.7c-0.8-0.4-1.6-0.9-2.4-1.3c-0.3-0.2-0.5-0.4-0.5-0.7c0.7-0.2,3,0.9,3.2,1.5
		C138.1,127.4,138,127.6,137.7,127.7z"/>
	<path class="st134" d="M113.5,124.4c-0.3-0.1-0.4-0.2-0.1-0.4c0.8-0.5,1.5-0.9,2.3-1.3c0.4-0.2,0.6-0.1,0.6,0.3c0,0.1,0,0.2,0,0.4
		c0,0.9,0,1.7,0,2.6c-0.5,0-0.6-0.3-0.6-0.7c0-0.6,0-1.2,0-1.8c0-0.2,0-0.5-0.3-0.2c-0.1,0.3-0.4,0.4-0.6,0.6
		C114.3,124,114,124.3,113.5,124.4z"/>
	<path class="st135" d="M124.8,131.8c0,0-0.1,0.1-0.1,0.1c-1.2,0.4-1.4,1.2-1.2,2.3c-0.7-0.1-0.7-0.1-0.8-1
		c-0.3-0.2-0.8,0.8-1.1-0.1c0.9-0.5,1.9-1.1,2.8-1.6C124.6,131.5,124.7,131.7,124.8,131.8z"/>
	<path class="st67" d="M139.1,129.4c0.6,0.4,1.3,0.7,1.9,1.1c-0.3,0.7-0.8,1-1.5,0.7C138.6,130.8,138.9,130,139.1,129.4z"/>
	<path class="st34" d="M117,122.3c0.6-0.4,1.3-0.7,1.9-1.1c0.4,0.7,0.1,1.5,0.2,2.4C118.3,123.1,117.7,122.7,117,122.3z"/>
	<path class="st136" d="M116.6,127.1c-0.1,0.1-0.1,0.1-0.2,0.2c-0.4,0.9,0,1.8-0.3,2.9c-0.8-0.8-0.3-1.7-0.6-2.4
		c-0.5,0.3-1,0.3-1.2,1c-0.1,0.3-0.1,0.2-0.8-0.2c0.9-0.5,1.7-1,2.5-1.5C116.4,126.9,116.5,126.9,116.6,127.1z"/>
	<path class="st24" d="M134.8,128.4c0-0.5,0-0.9,0-1.5c0.9,0.4,1.6,0.8,2.3,1.3C136.4,128.8,135.7,129.3,134.8,128.4z"/>
	<path class="st44" d="M142.1,126.4c0,0.7,0.1,1.5,0.1,2.2c-0.5-0.3-1-0.6-1.5-0.9c-0.3-0.2-0.5-0.5,0-0.7
		C141.1,126.9,141.4,126.2,142.1,126.4z"/>
	<path class="st137" d="M150.1,124.9c0-1,0-2.1,0-3.1c0.6-0.1,0.8,0.2,0.7,0.8c0,0.7,0,1.4,0,2C150.9,125.2,150.6,125.3,150.1,124.9
		z"/>
	<path class="st138" d="M154.9,124.3c0,1,0,2,0,3c-0.5,0.4-0.7,0.1-0.7-0.3c0-0.9-0.1-1.7,0-2.6
		C154.3,123.6,154.7,124.4,154.9,124.3z"/>
	<path class="st44" d="M138,124c0,0.7,0,1.3,0,2.1c-0.2,0-0.3,0-0.4-0.1c-0.4-0.4-1.4-0.5-1.3-1C136.5,124.4,137.3,124.1,138,124
		C138,124,138,124,138,124z"/>
	<path class="st139" d="M146.9,119.9c0,0.9,0,1.9,0,2.8c-0.5,0.3-0.7,0.1-0.7-0.4c0-0.9,0-1.8,0-2.7
		C146.6,119.4,146.7,119.6,146.9,119.9z"/>
	<path class="st140" d="M119.8,128.1c-0.9-0.7-0.3-1.6-0.6-2.4c-0.7,0.2-1.1,0.8-1.9,0.7c0.9-0.5,1.9-1.1,3-1.8
		C119.6,125.9,120,126.9,119.8,128.1z"/>
	<path class="st141" d="M142.9,117.7c0,0.7,0,1.5,0,2.2c-0.1,0.5-0.3,0.8-0.8,0.4c0-1,0-2.1,0-3.1
		C142.5,117.1,142.8,117.2,142.9,117.7z"/>
	<path class="st142" d="M120.7,129.6c-0.3,0-0.5,0.2-0.7,0.4c-0.4,0.7,0,1.4-0.2,2.1c-0.6,0-0.5-0.5-0.5-0.9c0-0.7-0.1-1-0.8-0.5
		c-0.2,0.1-0.4,0.4-0.9,0.2c1-0.6,2-1.2,2.9-1.8C120.7,129.3,120.7,129.4,120.7,129.6z"/>
	<path class="st143" d="M117.2,131.4c-0.2,0.2-0.5,0.4-0.7,0.6c-0.4,0.5-0.1,1.1-0.2,1.7c0,0.2,0.2,0.5-0.2,0.5
		c-0.2,0-0.4-0.2-0.4-0.4c0.2-1.5-0.5-1.1-1.3-0.6c-0.1,0-0.2,0-0.5-0.1C115.2,132.5,116,131.6,117.2,131.4z"/>
	<path class="st144" d="M133.6,135c0-0.8,0-1.5,0-2.3c0.5,0.4,1.2,0.4,1.2,1.2C134.8,134.7,134.1,134.6,133.6,135z"/>
	<path class="st145" d="M145.9,130.7c-0.7-0.2-1.1-0.7-1.8-1.1c0.6-0.3,1.2-0.6,1.8-1C145.9,129.4,145.9,130,145.9,130.7z"/>
	<path class="st146" d="M138.9,134c0.8,0.3,1.5,0.8,2.3,1.2c-0.4,0.5-0.9,0.5-1.5,0.2C139.1,135.2,138.8,134.7,138.9,134z"/>
	<path class="st51" d="M134.8,132.5c0-0.3,0-0.5,0-1c0.8,0.5,1.5,0.9,2.2,1.4C136.1,134,135.5,133,134.8,132.5z"/>
	<path class="st147" d="M128.4,129.7c-1.1,0.4-1.6,1.2-1.3,2.4c-0.8,0-0.6-0.6-0.7-1c-0.4-0.2-0.6,0.4-1.1,0.1c1-0.6,2-1.1,2.9-1.6
		C128.2,129.6,128.3,129.7,128.4,129.7z"/>
	<path class="st70" d="M130.6,139.9c0.2-0.1,0-0.6,0.4-0.4c0.4,0.2,0.9,0.3,1.1,0.7c0.1,0.3-0.2,0.5-0.5,0.6
		c-0.3,0.2-0.7,0.4-1.1,0.4C130.2,140.8,130.2,140.4,130.6,139.9z"/>
	<path class="st148" d="M131.9,127.7c-0.4,0.2-0.8,0.5-1.2,0.7c-0.4,0.4-0.1,0.8-0.2,1.2c0,0.1,0.1,0.3-0.1,0.4
		c-0.2,0.1-0.4-0.1-0.4-0.3c0.1-1-0.5-0.7-1.1-0.7c0.9-0.5,1.8-1,2.7-1.5C131.8,127.5,131.9,127.6,131.9,127.7z"/>
	<path class="st30" d="M114.6,123.6c0.3-0.1,0.5-0.3,0.8-0.4c0.4,0.7,0.1,1.5,0.2,2.3c-0.5-0.1-0.8-0.1-0.9-0.6
		C114.3,124.5,114.4,124,114.6,123.6z"/>
	<path class="st126" d="M127.4,128.4c0.8-0.6,1.5-1,2.4-1.4C129.8,128.2,128.6,128.9,127.4,128.4z"/>
	<path class="st149" d="M110.4,130.8c0.5-0.3,1.1-1,1.5-0.7c0.4,0.3,0.1,1.1,0.1,1.7C111.4,131.5,110.9,131.2,110.4,130.8z"/>
	<path class="st150" d="M138.2,114.8c0.4,0,0.6,0.2,0.6,0.5c0,0.7,0,1.5,0,2.2c0,0.2-0.1,0.5-0.3,0.5c-0.3,0-0.3-0.3-0.3-0.5
		c0-0.1,0-0.2,0-0.3C138.2,116.5,138.2,115.7,138.2,114.8z"/>
	<path class="st151" d="M121.1,134c-0.4,0.2-0.8,0.4-1.2,0.7c-0.3,0.5,0,1-0.2,1.5c-0.8,0-0.4-0.7-0.6-1c-0.4-0.1-0.6,0.4-1.1,0.2
		c1-0.6,1.9-1.1,2.8-1.6C121.1,133.6,121.1,133.8,121.1,134z"/>
	<path class="st23" d="M114.4,131.2c0-0.4,0-0.9,0-1.3c0.4,0,0.6,0.3,0.9,0.5c0.3,0.2,0.3,0.6,0.1,0.9c-0.2,0.3-0.5,0.5-0.8,0.5
		C114.3,131.8,114.5,131.4,114.4,131.2z"/>
	<path class="st152" d="M125.2,136.4c-0.3,0.2-0.6,0.4-1,0.5c-0.7,0.3-0.8,0.7-0.7,1.4c-0.6,0.3-0.7-0.7-1.3-0.6
		c0.8-0.5,1.7-1,2.5-1.5C125,136.1,125.3,135.9,125.2,136.4z"/>
	<path class="st153" d="M128.9,134.2c-0.3,0.2-0.6,0.4-0.9,0.5c-0.7,0.3-1.1,0.7-0.9,1.5c-0.6,0.3-0.6-0.8-1.2-0.7
		c0.9-0.5,1.8-1,2.7-1.5C128.6,133.9,128.8,134,128.9,134.2z"/>
	<path class="st154" d="M132.4,132.1c-0.5,0.3-0.9,0.5-1.4,0.8c-0.3,0.2-0.5,0.3-0.4,0.7c0,0.4-0.1,0.9-0.6,0.3
		c-0.2-0.3-0.4-0.3-0.7-0.4c0.8-0.5,1.7-1,2.5-1.5C132.1,131.9,132.3,131.8,132.4,132.1z"/>
	<path class="st155" d="M126.3,139c0-0.7,0-1.5,0-2.2c1,0.3,0.6,1.1,0.6,1.7C127,139,126.7,139.1,126.3,139z"/>
	<path class="st156" d="M130.6,139.9c0,0.4,0,0.9,0,1.3c-0.1,0.2-0.3,0.5-0.5,0.4c-0.2-0.1-0.1-0.3-0.1-0.5c0-0.5,0-1,0-1.5
		c0-0.2-0.2-0.6,0.2-0.6c0.4,0,0.4,0.3,0.4,0.6C130.6,139.8,130.6,139.8,130.6,139.9z"/>
	<path class="st157" d="M133.6,130.3c0-0.6,0-1.1,0-1.7c0.5,0.2,1.2,0.3,1.2,0.8C134.8,129.9,134.1,130,133.6,130.3z"/>
	<path class="st158" d="M132.8,136.6c-0.7,0.4-1.4,0.8-2.1,1.2c-0.2,0.6-0.5,0.6-0.9,0.1c0.8-0.5,1.7-1,2.5-1.5
		C132.6,136.3,132.8,136.2,132.8,136.6z"/>
	<path class="st148" d="M129.3,138.6c-0.6,0.3-1.2,0.7-1.8,1c-0.4,0.2-0.6,0.4-0.5,0.9c-0.2-0.1-0.5-0.2-0.7-0.5
		c0.9-0.5,1.7-1,2.6-1.5C129.1,138.4,129.3,138.4,129.3,138.6z"/>
	<path class="st159" d="M130,134.8c0.6,0.3,0.8,1.6,0.4,2c-0.1,0.1-0.2,0.1-0.3,0.1c0-0.1-0.1-0.2-0.1-0.3
		C130,136,130,135.5,130,134.8z"/>
	<path class="st160" d="M126.3,134.3c0-0.5,0-1.1,0-1.6c0.6,0,0.7,0.4,0.7,0.9C127,134.1,126.8,134.4,126.3,134.3z"/>
	<path class="st161" d="M122.8,136.4c0-0.6,0-1.1,0-1.7c0.5,0.1,0.7,0.4,0.7,0.9C123.4,136.1,123.3,136.5,122.8,136.4z"/>
	<path class="st162" d="M114.6,123.6c0,0.4,0,0.8,0,1.3c-0.5,0.1-0.8-0.3-1.1-0.5C113.8,124.1,114.2,123.9,114.6,123.6z"/>
	<path class="st163" d="M122.4,119.1c-0.6,0.3-1.1,0.7-1.7,1c-0.1,0-0.3,0.1-0.3,0c-0.2-0.2,0-0.2,0.1-0.3c0.6-0.4,1.3-0.7,1.9-1.1
		C122.8,118.8,122.5,119,122.4,119.1z"/>
	<path class="st164" d="M138.1,136.2c0.1-0.3-0.2-0.7,0.3-0.7c0.3,0,0.4,0.4,0.4,0.7c0,0.3,0,0.7-0.4,0.7
		C137.9,136.8,138.4,136.4,138.1,136.2z"/>
	<path class="st165" d="M130,132.3c0-0.6-0.1-1.1,0-1.6C130.8,131.2,130.8,131.8,130,132.3z"/>
	<path class="st166" d="M142.1,134.7c0-0.4,0-0.7,0-1.1c0.4,0,0.7,0.1,0.7,0.5C142.8,134.5,142.5,134.6,142.1,134.7z"/>
	<path class="st167" d="M126.3,129.7c0-0.2,0-0.5,0-0.7c0.2-0.1,0.3-0.2,0.5-0.2C127.3,129.4,126.9,129.6,126.3,129.7z"/>
	<path class="st168" d="M119.3,133.8c0-0.4,0-0.7,0-1c0.3,0,0.5,0.1,0.6,0.5C119.9,133.6,119.6,133.7,119.3,133.8z"/>
	<path class="st169" d="M130,126.9c0.1-0.1,0.3-0.2,0.4-0.3c0.1,0.1,0.1,0.1,0.2,0.2c0.1,0.3,0,0.7-0.3,0.7
		C129.8,127.6,130.1,127.1,130,126.9z"/>
	<path class="st170" d="M138.2,131.3c0.4,0.1,0.7,0.2,0.5,0.6c-0.1,0.1-0.4,0.3-0.4,0.3C138,132,138.2,131.6,138.2,131.3z"/>
	<path class="st171" d="M109.8,150c-0.3-0.2-0.1-0.5-0.1-0.8c0.7-0.8,1.6-1.2,2.5-1.7c0.6,0.2,0.8,0.5,0.8,1.2c-0.1,1,0,2,0,3
		c-0.4,0.1-0.7-0.2-0.9-0.4c-0.4-0.6-0.1-1.4-0.3-2.1C111,149.2,110.6,150,109.8,150z"/>
	<path class="st172" d="M112,138.1c0.7,0.2,1,0.5,0.9,1.3c-0.1,0.7,0,1.4,0,2.1c0,0.3,0.2,0.7-0.1,0.8c-0.3,0.1-0.5-0.2-0.8-0.4
		c-0.4-0.7-0.1-1.4-0.3-2.2c-0.7,0.1-1.2,0.9-2,0.8c-0.2-0.2-0.1-0.5-0.1-0.8C110.3,139,111.3,138.7,112,138.1z"/>
	<path class="st172" d="M109.8,135.9c-0.3-0.2-0.1-0.5-0.1-0.8c0.2-0.5,0.7-0.7,1.1-0.9c0.5-0.2,0.8-0.6,1.4-0.8
		c0.6,0.2,0.8,0.5,0.8,1.2c-0.1,1,0,2,0,3c-0.4,0.1-0.7-0.2-0.9-0.4c-0.5-0.6-0.1-1.4-0.3-2.1C111,135.2,110.5,135.9,109.8,135.9z"
		/>
	<path class="st172" d="M112,142.8c0.7,0.2,1,0.6,0.9,1.3c-0.1,0.7,0,1.3,0,2c0,0.3,0.2,0.7-0.1,0.8c-0.3,0.1-0.5-0.2-0.8-0.3
		c-0.4-0.5-0.2-1.1-0.2-1.6c0-0.4-0.2-0.5-0.6-0.3c-0.5,0.2-0.9,0.7-1.5,0.5c0-0.2,0-0.4,0-0.6c0.2-0.5,0.7-0.6,1.1-0.9
		C111.2,143.4,111.7,143.1,112,142.8z"/>
	<path class="st34" d="M116.8,160.3c0.4,0.9,0.1,1.9,0.2,2.9c0,0.4-0.3,0.2-0.5,0.1c-0.8-0.4-1.5-0.9-2.3-1.3c0-0.1-0.1-0.2,0-0.3
		C114.9,161.1,115.7,160.4,116.8,160.3z"/>
	<path class="st127" d="M112.9,158c0,0.9,0,1.7,0,2.6c0,0.5-0.1,0.7-0.6,0.4c-0.7-0.5-1.5-0.9-2.2-1.3c0-0.2,0-0.3,0.1-0.4
		C111.1,158.7,111.8,157.9,112.9,158z"/>
	<path class="st173" d="M108.7,158.8c-0.9-0.5-1.8-1-2.6-1.5c-0.1-0.3,0.1-0.4,0.3-0.5c0.8-0.4,1.5-1.1,2.5-1.2l0,0
		c0.2,1,0,2,0.1,2.9C108.9,158.6,108.8,158.7,108.7,158.8z"/>
	<path class="st121" d="M116.7,155.9c0.7,0.8,0.3,1.7,0.3,2.5c0,0.3-0.4,0.2-0.6,0.1c-0.8-0.4-1.5-0.9-2.3-1.3
		C114.8,156.5,115.5,155.7,116.7,155.9z"/>
	<path class="st128" d="M112.9,153.7c0,0.9,0,1.8,0,2.8c-1-0.6-1.9-1.1-2.8-1.6C110.6,153.9,112.1,153.2,112.9,153.7z"/>
	<path class="st127" d="M108.5,144.5c-0.9-0.6-2-0.9-2.8-1.8c0.6-0.7,1.4-1.1,2.2-1.4c0.3-0.1,0.7-0.2,0.7,0.2
		C108.6,142.5,108.9,143.6,108.5,144.5z"/>
	<path class="st29" d="M125.9,148.1c0-0.1-0.1-0.1-0.1-0.2c-0.2-0.6-0.4-1.3,0.1-1.7c0.3-0.3,0.9,0.3,1.3,0.6
		c0.5,0.4,1.2,0.4,1.5,1.1C127.9,149.2,126.5,149.3,125.9,148.1z"/>
	<path class="st174" d="M108.5,153.9c-1-0.5-2-0.9-2.8-1.7c0.6-0.8,1.5-1.1,2.3-1.5c0.3-0.1,0.6-0.1,0.6,0.3
		C108.6,151.9,108.9,153,108.5,153.9z"/>
	<path class="st127" d="M108.5,139.8c-1-0.5-2-0.9-2.8-1.7c0.6-0.7,1.4-1.1,2.2-1.4c0.3-0.1,0.7-0.2,0.7,0.2
		C108.6,137.9,108.9,138.9,108.5,139.8z"/>
	<path class="st175" d="M108.5,149.2c-1-0.5-1.9-0.9-2.8-1.7c0.5-0.8,1.5-1.1,2.3-1.5c0.3-0.1,0.6-0.1,0.6,0.3
		C108.6,147.3,108.9,148.3,108.5,149.2z"/>
	<path class="st127" d="M108.5,135.1c-1-0.5-2-0.9-2.8-1.7c0.6-0.9,1.5-1.1,2.4-1.5c0.3-0.1,0.5,0,0.5,0.3
		C108.6,133.2,108.9,134.2,108.5,135.1z"/>
	<path class="st176" d="M112.9,158c-1,0.5-2,0.9-2.8,1.7c-0.2-0.1-0.5-0.2-0.5-0.4c0-1.1,0-2.3,0-3.4c0-0.3,0.2-0.3,0.4-0.2
		c0.9,0.5,1.8,1,2.7,1.6C113,157.4,112.9,157.7,112.9,158z"/>
	<path class="st24" d="M124.7,165.2c0.7,0.2,0.3,0.8,0.3,1.2c0,0.6,0.3,1.4-0.2,1.6c-0.4,0.3-0.9-0.4-1.4-0.7
		c-0.4-0.2-0.9-0.2-1-0.8C123,165.7,123.7,165.3,124.7,165.2z"/>
	<path class="st177" d="M112,142.8c0,0.4-0.2,0.5-0.5,0.7c-0.6,0.4-1.2,0.7-1.9,1.1c0-0.9,0-1.7-0.1-2.6c0-0.6,0.2-0.5,0.6-0.3
		C110.8,142,111.4,142.4,112,142.8z"/>
	<path class="st178" d="M112.2,147.5c-0.7,0.8-1.6,1.1-2.5,1.7c-0.1-1-0.1-2,0-3.1C110.6,146.5,111.4,147,112.2,147.5z"/>
	<path class="st29" d="M120.7,162.8c0.4,0.9,0.1,1.8,0.2,2.7c0,0.2-0.2,0.3-0.4,0.2c-0.8-0.4-1.6-0.8-2.2-1.5
		C118.9,163.3,119.7,162.9,120.7,162.8z"/>
	<path class="st30" d="M116.8,151.9c0,0.1,0.1,0.2,0.1,0.2c0.1,0.6,0.3,1.4-0.1,1.8c-0.4,0.3-0.9-0.4-1.4-0.6
		c-0.4-0.2-1-0.3-1.2-0.9c0.4-0.7,1-1,1.8-1.1C116.4,151.3,116.7,151.4,116.8,151.9z"/>
	<path class="st177" d="M112.2,133.4c-0.6,0.9-1.7,1-2.5,1.7c-0.1-1-0.1-2,0-3.2C110.6,132.5,111.4,132.9,112.2,133.4z"/>
	<path class="st177" d="M112,138.1c-0.5,1-1.5,1.2-2.4,1.7c0-0.8,0-1.7-0.1-2.5c0-0.6,0.2-0.6,0.6-0.3
		C110.8,137.3,111.4,137.7,112,138.1z"/>
	<path class="st179" d="M124.8,160.6c0.4,0.8,0.2,1.6,0.2,2.4c0,0.6-0.5,0.2-0.7,0.1c-0.7-0.4-1.4-0.8-2.1-1.2
		C122.9,161.1,123.7,160.4,124.8,160.6z"/>
	<path class="st106" d="M116.7,155.9c-1,0.1-1.7,0.9-2.6,1.3c-0.3-0.2-0.6-0.4-0.2-0.8c0.4-0.4,0.9-0.7,1.4-1
		c-0.4-0.6-1.3-0.6-1.6-1.3c0-0.2,0-0.5,0-0.7c0.7,0,1.2,0.5,1.8,0.8c0.4,0.2,0.8,0.4,1.2,0.7C117.2,155.3,117.2,155.6,116.7,155.9z
		"/>
	<path class="st23" d="M120.9,158.3c0,0.9,0,1.8,0,2.8c-1-0.6-2-0.8-2.6-1.7c0.5-0.7,1.3-1,2-1.4
		C120.6,157.9,120.8,158.1,120.9,158.3z"/>
	<path class="st180" d="M120,139.4c-0.3,0.6-0.1,1.2-0.2,1.8c0,0.2,0.1,0.4-0.2,0.4c-0.2,0-0.4-0.2-0.4-0.4c0-0.4,0-0.8-0.1-1.3
		c0,0,0,0-0.1,0c0,0-0.1,0-0.1,0c-0.3,0.4-0.6,0.7-1.1,0.6c-0.4-0.2-0.2-0.5-0.2-0.7c0-0.2,0.1-0.3,0.2-0.4c0.6-0.3,0.9-0.7,0.8-1.4
		c0-0.2,0.1-0.4,0.2-0.5c0.7-0.1,0.7,0.5,0.8,0.9c0.4-0.2,0.9-0.5,1,0.3C120.7,139.1,120.4,139.4,120,139.4z"/>
	<path class="st181" d="M124.8,160.6c-1,0.1-1.7,0.8-2.6,1.3c-0.2-0.1-0.7-0.1-0.4-0.6c0.4-0.7,1.2-0.9,1.8-1.2
		c-0.7-0.3-1.4-0.6-1.9-1.2c0-0.2-0.1-0.5,0.2-0.7c0.7,0,1.1,0.5,1.6,0.8c0.5,0.2,0.9,0.5,1.4,0.7
		C125.1,160,125.1,160.3,124.8,160.6z"/>
	<path class="st43" d="M121.9,166c-0.3-1-0.3-1.9,0-2.9c0.9,0,1.5,0.6,2.2,1.1c0.3,0.2,0.3,0.5,0,0.7
		C123.4,165.4,122.8,166,121.9,166z"/>
	<path class="st34" d="M125.9,168.4c-0.4-1-0.1-2-0.2-3c1,0,1.8,0.7,2.5,1.3c0.2,0.1,0.2,0.4,0,0.6
		C127.6,167.7,126.9,168.3,125.9,168.4z"/>
	<path class="st182" d="M122.4,152.4c-0.3,0-0.6,0-0.7-0.4c0.4-0.4,0.9-0.8,0.2-1.3c-0.2-0.3-0.3-0.5,0-0.8c0.1-0.1,0.3-0.1,0.4,0
		c0.7,0.6,1.5,0.6,2.4,0.4c0.4,0.4,0.4,0.4-0.3,1c0.2,0.3,1,0.5,0.5,1.1c0,0-0.1,0.1-0.1,0C124,152,123.2,152.1,122.4,152.4z"/>
	<path class="st183" d="M121.8,154.8c-0.1-0.3-0.3-0.5,0-0.8c0.5-0.1,0.9,0.2,1.2,0.5c0.5,0.3,1.1,0.6,1.7,0.4c0.2,0.5,0.2,1,0,1.5
		c-0.9-0.3-1.6,0.6-2.4,0.6c-0.4,0.1-0.6,0.1-0.7-0.4c0.3-0.4,0.7-0.6,1.2-0.9C122.6,155.3,122,155.3,121.8,154.8z"/>
	<path class="st184" d="M116.8,160.3c-0.9,0.6-1.9,0.8-2.6,1.7c-0.3-0.2-0.6-0.3-0.5-0.7c0.2-0.1,0.2-0.4,0.4-0.5
		c0.6-0.2,1.2-0.7,1.8-0.9c-0.3-0.3-0.7-0.4-1-0.6c-0.5-0.4-0.6,0-0.9,0.2c-0.4-0.3,0-0.8-0.3-1.1c0-0.3-0.1-0.6,0.4-0.4
		c0.9,0.5,1.7,1,2.5,1.5C117.1,159.7,117.1,160,116.8,160.3z"/>
	<path class="st185" d="M118,145.2c-0.6-0.2-0.2-0.5,0-0.8c0.3-0.4,0.6-0.7,1.2-0.7c0.3-0.4,0-0.9,0.2-1.3c0.7-0.1,0.4,0.5,0.6,0.8
		c0.3,0.1,0.6-0.5,1-0.1c0.2,0.2-0.1,0.3-0.2,0.5c-0.1,0.3-0.3,0.5-0.7,0.4c-0.4,0.5-0.1,1.1-0.2,1.7c0,0.2,0.2,0.6-0.2,0.6
		c-0.3,0-0.4-0.3-0.4-0.6C119.1,144.8,118.5,145.2,118,145.2z"/>
	<path class="st186" d="M115.5,145.7c0.3-0.1,0-0.5,0.4-0.7c0.2,0.4,1.1,0.1,0.9,0.9c-0.3,0.6-0.3,1.2-0.3,1.9
		c0,0.4,0.1,0.9-0.3,1.3c-0.4-0.1-0.6-0.3-0.6-0.8c0-0.5,0.2-1.1-0.1-1.6c-0.4,0.5-1,0.9-1.7,0.9c-0.3-0.2-0.1-0.5-0.2-0.7
		C114.2,146.2,114.8,145.9,115.5,145.7z"/>
	<path class="st187" d="M123.5,142c-0.2,0.4-0.1,0.8-0.1,1.2c0,0.2,0.1,0.4-0.2,0.4c-0.2,0-0.4-0.2-0.4-0.4c0-0.2,0-0.5,0-0.5
		c-0.3-0.5-1.1,1-1.1-0.5c0.6-0.6,1-1.3,0.9-2.2c0-0.2,0.1-0.4,0.2-0.5c1,0.2,0.4,1,0.7,1.5c0.3,0.1,0.6-0.3,0.9-0.4
		c0.5-0.2,0.8-0.1,0.5,0.5C124.5,141.7,124.1,142,123.5,142z"/>
	<path class="st29" d="M128.9,163c0,0.5,0,1.1,0,1.6c0,0.3,0.2,0.8-0.1,1c-0.3,0.2-0.6-0.2-0.9-0.4c-0.6-0.3-1.1-0.7-1.6-1
		C126.9,163.4,128.1,162.8,128.9,163z"/>
	<path class="st188" d="M113.9,142.9c-0.4-0.3-0.2-0.6,0.1-0.9c0.4-0.6,1-0.9,1.6-1c0.3-0.2,0-0.5,0.2-0.8c1.1,0.4,1.1,0.4,0.9,1
		c-0.2,0.9,0.1,1.9-0.4,2.8c-0.5,0.4-0.6,0.1-0.6-0.3c0-0.6,0-1.2,0-1.7c0,0,0-0.1,0-0.1c0,0-0.1,0-0.1,0
		C115.1,142.4,114.6,142.9,113.9,142.9z"/>
	<path class="st29" d="M120.9,154.2c0,0.7,0,1.4,0,2.2c-1-0.5-1.9-0.9-2.6-1.7C119.1,153.6,120.1,153.4,120.9,154.2z"/>
	<path class="st189" d="M120.9,158.3c-0.4-0.3-0.7,0-1.1,0.2c-0.5,0.3-1,0.6-1.5,0.9c-0.4,0-0.7-0.1-0.4-0.6
		c0.3-0.6,0.9-0.7,1.4-1.1c-0.5-0.5-1.2-0.6-1.5-1.2c0-0.3-0.2-0.5,0.2-0.7c0.8,0.1,1.4,0.7,2.1,1c0.2,0.1,0.4,0.3,0.7,0.3
		C121.1,157.6,120.9,158,120.9,158.3z"/>
	<path class="st190" d="M128.9,163c-1,0.1-1.7,0.8-2.6,1.3c-0.2-0.1-0.5-0.2-0.5-0.5c0.5-0.6,1.2-1,1.9-1.2
		c-0.5-0.4-1.3-0.5-1.8-1.2c-0.1-0.3-0.4-0.5,0-0.8c1.1,0.2,1.9,0.9,2.8,1.5C129.1,162.3,128.9,162.6,128.9,163z"/>
	<path class="st191" d="M120.9,154.2c-1.1-0.9-1.8,0.2-2.6,0.6c-0.4,0-0.6-0.1-0.5-0.5c0.1-0.5,0.8-0.5,1-0.9
		c-0.2-0.4-0.7-0.4-0.8-0.8c-0.2-0.3-0.4-0.5,0-0.8c0.4-0.1,0.7,0.1,1,0.3c0.5,0.4,1.1,0.5,1.8,0.4
		C121.1,153.1,120.8,153.7,120.9,154.2z"/>
	<path class="st52" d="M122.4,157.1c0.3-0.2,0.7-0.4,1-0.6c0.5-0.4,0.9-0.3,1.4,0c0,0,0,0.1,0,0.1c0.2,0.7,0.4,1.5,0,1.9
		c-0.4,0.4-1-0.3-1.5-0.6C123,157.7,122.5,157.7,122.4,157.1z"/>
	<path class="st175" d="M105.7,137.3c0-0.9,0-1.9,0-3c0.9,0.5,1.8,1,2.6,1.5C107.6,136.7,106.8,137.3,105.7,137.3z"/>
	<path class="st175" d="M105.7,132.7c0-1,0-1.9,0-3c1,0.6,1.8,1.1,2.6,1.6C107.6,132,106.8,132.5,105.7,132.7z"/>
	<path class="st174" d="M105.7,151.4c0-0.9,0-1.9,0-3c0.9,0.5,1.7,1,2.5,1.5C107.9,150.7,106.5,151.5,105.7,151.4z"/>
	<path class="st191" d="M125.8,152.9c0-0.2,0-0.5,0-0.7c0.4-0.1,0.7,0.1,1,0.3c0.6,0.4,1.1,0.6,1.7,0.1c0.1-0.1,0.3-0.1,0.4,0
		c-0.2,0.7-0.2,1.4-0.2,2.1c-0.8-0.4-1.6,0-2.4,0.2c-0.3-0.1-0.7-0.1-0.4-0.6C126.6,153.7,126.2,153.3,125.8,152.9z"/>
	<path class="st188" d="M113.8,138.2c-0.2-0.2-0.2-0.5-0.1-0.7c0.1-0.1,0.1-0.2,0.2-0.3c0.5-0.3,1-0.8,1.7-0.8
		c0.3-0.2,0-0.6,0.3-0.9c0.4,0.3,0.9,0.4,1.2,0.8c-0.4,0.5-0.5,1.1-0.5,1.7c0,0.5,0.1,1.1-0.3,1.5c-0.5,0-0.6-0.3-0.6-0.7
		c0-0.5,0-0.9,0-1.4c0-0.3-0.1-0.5-0.4-0.2C115,137.8,114.5,138.1,113.8,138.2z"/>
	<path class="st191" d="M121.9,166c0.7-0.4,1.3-0.8,2-1.1c0.4-0.2,0.5-0.4,0-0.7c-0.7-0.4-1.3-0.7-2-1.1c-0.1-0.2-0.3-0.3-0.2-0.5
		c0.1-0.2,0.3,0,0.5,0c0.8,0.5,1.7,0.9,2.5,1.4c0.6,0.3,0.4,0.7,0,1.1c-0.7,0.4-1.5,0.9-2.2,1.3C122.1,166.5,121.6,166.6,121.9,166z
		"/>
	<path class="st192" d="M123.5,142c0.4-0.4,0.8-0.6,1.3-0.8c0.4,1,0.1,2,0.2,3c0,0.3-0.2,0.3-0.4,0.2c-0.6-0.3-1.1-0.5-1-1.3
		C123.6,142.8,123.5,142.4,123.5,142z"/>
	<path class="st23" d="M128.7,167.6c0.5,0.8,0.2,1.7,0.2,2.5c0,0.3-0.2,0.3-0.4,0.1c-0.7-0.4-1.4-0.8-2.1-1.3
		C126.9,168.1,127.7,167.7,128.7,167.6z"/>
	<path class="st183" d="M126.5,159.4c-0.3,0-0.8,0.1-0.5-0.5c0.3-0.5,0.8-0.7,1.3-0.9c-0.5-0.2-1-0.4-1.3-0.9
		c-0.3-0.2-0.3-0.6-0.2-0.9c0.5-0.2,0.7,0.2,1.1,0.3c0.6,0.4,1.2,0.7,1.9,0.7c0.3,0.5,0.3,0.9,0,1.4c-0.5,0-1,0.1-1.4,0.4
		C127.1,159.3,126.8,159.6,126.5,159.4z"/>
	<path class="st173" d="M105.7,156.1c0-0.9,0-1.9,0-3c0.9,0.5,1.7,1,2.6,1.5C107.6,155.5,106.8,156.1,105.7,156.1z"/>
	<path class="st174" d="M109.7,151.7c0-0.3-0.2-0.6,0.1-0.7c0.2-0.1,0.4,0.1,0.6,0.3c0.5,0.3,1.1,0.7,1.6,1c0,0.1,0.1,0.2,0.1,0.3
		c-0.2,0.6-1.7,1.5-2.4,1.4C109.7,153.1,109.8,152.4,109.7,151.7z"/>
	<path class="st191" d="M128.7,167.6c-0.8,0.5-1.6,0.9-2.4,1.4c-0.2-0.1-0.7-0.1-0.4-0.6c0.8-0.5,1.6-0.9,2.6-1.5
		c-1-0.6-1.9-1-2.7-1.5c-0.1-0.4,0-0.6,0.5-0.4c0.8,0.4,1.5,0.9,2.3,1.3C129.1,166.7,129,167.1,128.7,167.6z"/>
	<path class="st174" d="M105.7,142c0-0.9,0-1.8,0-3c0.9,0.6,1.8,1.1,2.6,1.6C107.6,141.3,106.8,142,105.7,142z"/>
	<path class="st31" d="M115.5,145.7c-0.5,0.5-1.2,0.8-1.9,1.2c0-1,0-2,0-3C115.2,144.3,115.5,144.6,115.5,145.7z"/>
	<path class="st189" d="M125.9,148.1c1,1.1,1.9,0.5,2.8-0.2c0.5,0.5,0,0.7-0.3,0.9c-0.5,0.3-0.5,0.5,0,0.7c0.4,0.2,0.6,0.5,0.5,0.9
		c-0.2,0.2-0.5,0.1-0.7-0.1c-0.6-0.5-1.2-0.6-1.9-0.3c-0.6-0.4-0.6-0.4,0.1-0.9C126.3,148.8,125.3,148.8,125.9,148.1z"/>
	<path class="st31" d="M113.8,151.5c-0.3-0.9-0.1-1.8-0.1-2.6c0-0.3,0.2-0.3,0.4-0.2c1,0.3,1.4,0.8,1.4,1.8
		C115.1,151.1,114.6,151.5,113.8,151.5z"/>
	<path class="st175" d="M105.7,146.7c0-0.7,0-1.5,0-2.2c0-0.5,0.1-0.7,0.6-0.4c0.7,0.4,1.4,0.8,2,1.2
		C107.6,146.1,106.8,146.7,105.7,146.7z"/>
	<path class="st34" d="M124.6,150.3c-1.1,1.1-1.9,0-2.8-0.4c-0.2-0.2-0.2-0.5-0.2-0.8c0-0.5,0.1-0.8,0.7-0.5
		c0.8,0.4,1.5,0.9,2.3,1.3C124.8,150.1,124.7,150.2,124.6,150.3z"/>
	<path class="st117" d="M115.6,141c-0.5,0.4-1.1,0.7-1.6,1c-0.5-0.8-0.1-1.7-0.2-2.6c0-0.3,0.2-0.4,0.4-0.2
		C114.8,139.7,115.8,139.9,115.6,141z"/>
	<path class="st34" d="M128.9,152.6c-1.2,1.2-2.1,0-3.2-0.4c0-0.5-0.2-1.1,0.1-1.3c0.4-0.3,0.8,0.3,1.2,0.5
		C127.7,151.7,128.4,152,128.9,152.6z"/>
	<path class="st30" d="M118,163.6c-0.3-0.9-0.3-1.9-0.2-2.8c1,0,1.6,0.7,2.3,1.1c0.3,0.2,0.2,0.5,0,0.7
		C119.4,163,118.8,163.6,118,163.6z"/>
	<path class="st191" d="M118,163.6c0.6-0.3,1.2-0.7,1.9-1c0.5-0.3,0.4-0.4,0-0.7c-0.7-0.4-1.3-0.7-2-1.1c0-0.3-0.1-0.6,0.4-0.4
		c0.8,0.5,1.7,1,2.5,1.5c0.4,0.3,0.3,0.6,0.1,0.9c-0.8,0.5-1.6,0.9-2.4,1.4c-0.2,0-0.4,0.1-0.5-0.1
		C117.7,163.8,117.9,163.7,118,163.6z"/>
	<path class="st73" d="M117.6,149.2c0-0.7,0-1.5,0-2.2c0-0.3-0.2-0.9,0.2-0.8c0.5,0,1.1,0.2,1.2,0.9c0.1,0.4,0,0.9,0,1.4
		c-0.2,0.5-0.7,0.7-1.2,0.9C117.7,149.3,117.7,149.3,117.6,149.2z"/>
	<path class="st34" d="M126.5,159.4c0.4-0.2,0.8-0.5,1.2-0.7c0.4-0.3,0.7-0.3,1.1,0c0.4,0.6,0.1,1.3,0.2,2c0,0.3-0.2,0.3-0.4,0.2
		C127.9,160.4,127,160.2,126.5,159.4z"/>
	<path class="st73" d="M119.1,137.6c0.1,1.1-0.1,1.9-1.3,2.2c-0.4-0.9-0.1-1.9-0.2-2.9c0-0.3,0.2-0.3,0.4-0.1
		C118.3,137.1,118.9,137.1,119.1,137.6z"/>
	<path class="st189" d="M128.9,143.3c0.1,0.3,0,0.5-0.2,0.7c-0.2,0.5-0.7,0.6-1,0.8c0.4,0.1,0.8,0.3,1,0.7c0.2,0.2,0.2,0.5,0.2,0.9
		c-1,0-1.6-0.7-2.4-1.1c-0.4,0.2-0.6,0-0.8-0.3c0.7-0.9,1.8-1.2,2.7-1.8C128.6,143.1,128.8,143.2,128.9,143.3z"/>
	<path class="st193" d="M105.7,146.7c1-0.3,1.7-0.9,2.6-1.4c0.4,0.1,0.6,0.3,0.6,0.8c0,1,0,1.9,0,2.9c0,0.3,0,0.6-0.4,0.3
		c0-0.9,0-1.7,0-2.6c0-0.6-0.2-0.6-0.7-0.4c-0.7,0.4-1.4,0.8-2.1,1.2C105.7,147.3,105.7,147,105.7,146.7z"/>
	<path class="st73" d="M119.1,143.7c-0.4,0.2-0.8,0.5-1.2,0.7c-0.3-0.4-0.5-2.5-0.2-2.8c0.2-0.2,0.3-0.1,0.5,0
		c0.4,0.2,0.8,0.3,0.9,0.8C119.1,142.8,119.1,143.3,119.1,143.7z"/>
	<path class="st194" d="M105.7,132.7c0.9-0.5,1.7-1,2.6-1.5c0.3,0.1,0.6,0.2,0.6,0.6c0,1,0,2.1,0,3.1c0,0.4-0.2,0.5-0.4,0.2
		c0-0.9,0-1.7,0-2.6c0-0.6-0.2-0.6-0.6-0.3c-0.7,0.4-1.4,0.8-2.2,1.2C105.7,133.2,105.7,132.9,105.7,132.7z"/>
	<path class="st194" d="M105.7,137.3c0.9-0.5,1.7-1,2.6-1.5c0.4,0.1,0.6,0.3,0.6,0.8c0,1,0,2,0,2.9c0,0.4-0.1,0.5-0.4,0.2
		c0-0.9,0-1.7,0-2.6c0-0.6-0.2-0.6-0.6-0.4c-0.7,0.4-1.4,0.8-2.2,1.2C105.7,137.8,105.7,137.6,105.7,137.3z"/>
	<path class="st34" d="M120.7,150c0.3,0.5,0.2,1.1,0.2,1.8c-1-0.6-1.9-1.1-2.8-1.6C118.9,149,120,149,120.7,150z"/>
	<path class="st195" d="M105.7,151.4c0.9-0.4,1.8-0.8,2.5-1.5c0.6,0.1,0.8,0.5,0.7,1.1c0,0.9,0,1.8,0,2.7c0,0.3,0,0.6-0.4,0.2
		c0-0.9,0-1.7,0-2.6c0-0.5-0.1-0.7-0.6-0.4c-0.7,0.4-1.4,0.8-2.2,1.2C105.7,151.9,105.7,151.7,105.7,151.4z"/>
	<path class="st183" d="M122.4,147.7c-0.4,0-0.7-0.1-0.7-0.6c0.9-0.8,2.1-1.1,3.1-1.8c0.5,0.7,0,0.9-0.5,1.1c-0.5,0.2-0.5,0.4,0,0.7
		c0.4,0.2,0.8,0.5,0.7,1c-0.3,0.2-0.6,0-0.8-0.2C123.6,147.7,123,147.6,122.4,147.7z"/>
	<path class="st196" d="M105.7,142c1-0.3,1.7-1.1,2.6-1.4c0.3,0.1,0.6,0.2,0.6,0.6c0,1,0,2.1,0,3.1c0,0.4-0.2,0.4-0.4,0.2
		c0-1,0-2.1,0-3.2c-1.1,0.2-1.8,1.1-2.8,1.4C105.7,142.5,105.7,142.3,105.7,142z"/>
	<path class="st24" d="M122.4,152.4c0.8-0.8,1.6-0.7,2.4,0c0.2,0.5,0.4,1.2,0.1,1.5c-0.3,0.3-0.8-0.3-1.1-0.5
		C123.3,153.1,122.7,153,122.4,152.4z"/>
	<path class="st177" d="M109.7,145.2c0.5-0.2,1-0.5,1.5-0.7c0.2-0.1,0.5-0.4,0.7-0.3c0.3,0.2,0.1,0.5,0.1,0.8c0,0.6,0,1.1,0,1.7
		C111.2,146.2,110.4,145.8,109.7,145.2z"/>
	<path class="st177" d="M109.8,140.5c0.5-0.3,1.1-0.6,1.6-0.9c0.7-0.5,0.7-0.2,0.7,0.4c0,0.6,0,1.2,0,1.8
		C111.2,141.5,110.4,141.1,109.8,140.5z"/>
	<path class="st34" d="M126.3,154.8c0.8-0.5,1.5-1.1,2.4-0.2c0,0.1,0.1,0.1,0.1,0.2c0.2,0.4,0.3,1,0,1.3c-0.3,0.2-0.7-0.2-1.1-0.4
		C127.3,155.4,126.8,155.1,126.3,154.8z"/>
	<path class="st177" d="M109.8,135.9c0.7-0.4,1.4-0.8,2.2-1.3c0,1,0,1.8,0,2.6C111.2,136.8,110.5,136.4,109.8,135.9z"/>
	<path class="st197" d="M109.8,150c0.7-0.4,1.3-0.9,2.2-1.2c0,0.9,0,1.7,0,2.5C111.2,150.9,110.5,150.5,109.8,150z"/>
	<path class="st198" d="M120.7,150c-0.9-0.9-1.8-0.5-2.6,0.1c-0.5-0.1-0.6-0.5-0.5-0.9c0.1,0,0.1,0,0.2,0c0.6,0.1,0.9-0.4,1.3-0.6
		c0.6-0.3,1.1-0.6,1.7-0.9c0.6,0.6-0.2,0.9-0.4,1.2C120.5,149.3,121.3,149.4,120.7,150z"/>
	<path class="st199" d="M109.7,151.7c0.3,0.7,0,1.5,0.1,2.2c1.1-0.2,1.8-1,2.8-1.5c0.6,0.3,0.3,0.8,0.3,1.3c-1.2-0.3-2,0.6-2.8,1.3
		c-0.4-0.1-0.6-0.4-0.5-0.8C109.6,153.3,109.6,152.5,109.7,151.7z"/>
	<path class="st121" d="M122.8,139.6c0,0.3-0.1,0.6,0,0.8c0.2,1-0.2,1.5-1.1,1.8c0-0.7,0-1.4,0-2.1c0-0.3-0.2-0.8,0.1-0.9
		C122.2,139,122.5,139.3,122.8,139.6z"/>
	<path class="st121" d="M121.9,146.8c-0.4-0.9-0.1-1.9-0.2-2.8c0-0.3,0.2-0.3,0.4-0.2c0.2,0.1,0.5,0.3,0.7,0.4
		c0.2,0.4,0.2,0.8,0.2,1.2C123,146.4,122.9,146.6,121.9,146.8z"/>
	<path class="st200" d="M121.7,158.9c0.7,0.4,1.4,0.8,2.3,1.3c-0.8,0.4-1.4,0.8-2.1,1.2C121.5,160.5,121.8,159.7,121.7,158.9z"/>
	<path class="st67" d="M125.9,161.3c0.7,0.4,1.3,0.7,2.1,1.2c-0.8,0.5-1.6,0.9-2.3,1.3C125.8,162.9,125.5,162.1,125.9,161.3z"/>
	<path class="st201" d="M115.5,136.4c-0.5,0.3-1.1,0.6-1.6,0.9c-0.1-0.8-0.2-1.6,0.2-2.4c0.5-0.3,1.3,0.1,1.4,0.7
		C115.6,135.9,115.5,136.1,115.5,136.4z"/>
	<path class="st183" d="M116.8,151.9c-1.1-0.9-1.8,0.2-2.6,0.6c-0.4,0-0.6-0.1-0.6-0.6c1-0.6,1.9-1.3,3-1.7
		C116.9,150.4,117,151.3,116.8,151.9z"/>
	<path class="st29" d="M120,139.4c0.3-0.2,0.6-0.4,0.9-0.6c0,1.1,0,2.3,0,3.4c-0.7-0.1-1-0.4-0.9-1.1C120,140.5,120,140,120,139.4z"
		/>
	<path class="st98" d="M124.8,154.9c-0.5,0.4-0.9,0.4-1.4,0c-0.5-0.4-1-0.6-1.6-0.9c-0.1-0.3-0.3-0.6,0-0.8c0.2-0.2,0.4,0.1,0.6,0.2
		C123.3,153.9,124.2,154.2,124.8,154.9z"/>
	<path class="st202" d="M128.9,143.3c-1.1,0.4-2.1,1.1-3.2,1.7c-0.1-0.3,0.1-0.4,0.2-0.5c0.1-0.6,0-1.1,0.1-1.7c0-0.3,0-0.7,0.3-0.9
		c0.3-0.3,0.5,0.1,0.7,0.2c0.3,0.4,0.2,0.9,0.3,1.4c0.5,0,0.8-0.5,1.3-0.4C128.8,142.9,128.9,143,128.9,143.3z"/>
	<path class="st203" d="M117.8,156.6c0.6,0.4,1.3,0.7,2,1.1c-0.6,0.5-1.2,0.8-1.9,1.2C117.6,158.1,117.6,157.4,117.8,156.6z"/>
	<path class="st25" d="M120,144c0.2-0.1,0.5-0.3,0.7-0.4c0.5,1.1,0.1,2.2,0.2,3.3c-0.8-0.1-1-0.4-1-1.1C120,145.2,120,144.6,120,144
		z"/>
	<path class="st36" d="M128.7,157.4c-0.4,0.3-0.7,0.3-1.1,0c-0.6-0.4-1.3-0.7-1.9-1.1c0-0.3,0-0.5-0.1-1c1.1,0.6,2.1,1.2,3.1,1.8
		C128.8,157.1,128.7,157.3,128.7,157.4z"/>
	<path class="st36" d="M120.7,152.6c-0.4,0.4-0.9,0.4-1.4,0c-0.4-0.3-0.9-0.6-1.4-0.8c-0.1-0.3-0.5-0.6-0.2-0.9
		c0.3-0.2,0.5,0.2,0.8,0.3C119.3,151.6,120.1,151.9,120.7,152.6z"/>
	<path class="st70" d="M122.4,147.7c0.5-0.5,0.9-0.4,1.5-0.1c0.4,0.2,0.8,0.4,1.1,0.6c0,0.3,0,0.7,0,1.2
		C124,148.8,123.1,148.5,122.4,147.7z"/>
	<path class="st204" d="M116.3,139.6c0-0.7,0-1.4,0-2.1c0-0.6,0.2-0.9,0.7-1.1c0,1,0,2,0,3C117,140.1,116.7,140,116.3,139.6z"/>
	<path class="st41" d="M113.7,154.2c0.7,0.4,1.3,0.7,2.1,1.2c-0.7,0.4-1.2,0.9-1.9,1.1C113.8,155.7,113.6,155,113.7,154.2z"/>
	<path class="st204" d="M116.3,149c0-0.8,0-1.6,0-2.4c0-0.4,0.1-0.7,0.5-0.8c0.4,1,0.2,2.2,0.1,3.2C116.9,149.7,116.5,149,116.3,149
		z"/>
	<path class="st36" d="M126.3,150.2c0.6-0.6,1.1-0.6,1.7-0.1c0.3,0.2,0.6,0.3,0.9,0.5c-0.1,0.3,0.2,0.8-0.1,0.9
		c-0.3,0.1-0.6-0.2-0.9-0.4C127.4,150.8,126.8,150.5,126.3,150.2z"/>
	<path class="st204" d="M116.3,144c0-0.7,0-1.4,0-2.1c0-0.3,0-0.6,0.4-0.7c0.5,0.1,0.3,0.4,0.3,0.7c0,0.6,0,1.3,0,1.9
		c0,0.3,0.2,0.7-0.2,0.7C116.4,144.8,116.5,144.2,116.3,144z"/>
	<path class="st205" d="M108.9,155.5c-0.9,0.6-2,1-2.8,1.7c-0.4-0.1-0.3-0.4-0.4-0.7c0.9-0.6,1.9-1.2,2.8-1.7
		C108.9,154.9,108.9,155.2,108.9,155.5z"/>
	<path class="st143" d="M121.9,146.8c0.8-0.2,1.1-0.7,1-1.5c0-0.4,0-0.7,0-1.1c0.9,0.3,0.5,1,0.6,1.6c0.5,0.1,0.8-0.6,1.4-0.4
		c-0.9,0.8-2,1.3-3.1,1.8C121.7,147.1,121.8,146.9,121.9,146.8z"/>
	<path class="st36" d="M113.9,142.9c0.5-0.4,1.1-0.7,1.7-0.9c0,0.6,0,1.3,0,2C114.9,143.6,114.3,143.4,113.9,142.9z"/>
	<path class="st36" d="M113.9,147.6c0.5-0.3,1.1-0.7,1.7-0.9c0,0.6,0,1.2,0,1.9C114.9,148.3,114.3,148.1,113.9,147.6z"/>
	<path class="st51" d="M113.8,138.2c0.5-0.3,1-0.6,1.5-0.9c0.4,0.5,0.1,1.1,0.2,1.8C114.9,138.9,114.3,138.7,113.8,138.2z"/>
	<path class="st51" d="M121.8,154.8c0.5,0.3,1,0.6,1.6,0.9c-0.7,0.4-1.2,0.7-1.8,1C121.7,156.1,121.5,155.4,121.8,154.8z"/>
	<path class="st206" d="M118,152.6c0.4,0.2,0.8,0.5,1.4,0.8c-0.6,0.4-1.1,0.6-1.6,0.9C117.6,153.7,117.3,153.1,118,152.6z"/>
	<path class="st118" d="M126,157.2c0.5,0.3,0.9,0.5,1.5,0.9c-0.6,0.3-1.1,0.6-1.5,0.9C125.6,158.4,125.6,157.8,126,157.2z"/>
	<path class="st207" d="M120.7,147.7c-0.8,0.8-1.8,1.1-2.7,1.7c-0.2,0.1-0.3,0-0.3-0.2c0.4-0.3,0.9-0.5,1.3-0.8
		c0.4-0.3,0.1-0.7,0.2-1c0-0.1-0.1-0.3,0.1-0.4c0.2,0,0.4,0.1,0.4,0.2C119.7,148.2,120.3,147.7,120.7,147.7z"/>
	<path class="st46" d="M126.3,141.8c0,0.6,0,1.3,0,1.9c0,0.3,0,0.6-0.4,0.7c-0.5-0.9-0.1-1.9-0.2-2.8c0-0.1,0-0.2,0.2-0.2
		C126.2,141.4,126.3,141.6,126.3,141.8z"/>
	<path class="st208" d="M128.6,142.9c-0.5,0.3-0.9,0.6-1.5,0.9c0-0.7,0-1.3,0-1.9C127.6,142.3,128.1,142.6,128.6,142.9z"/>
	<path class="st209" d="M116.7,150.1c-0.9,0.7-1.9,1.2-3,1.7c0.1-0.1,0.1-0.2,0.2-0.4c0.6-0.3,1.1-0.7,1.7-1c0.3-0.2,0-0.6,0.3-0.9
		C116.1,149.8,116.4,150,116.7,150.1z"/>
	<path class="st93" d="M128.7,145.6c-0.4-0.2-0.8-0.4-1.2-0.7c0.4-0.4,0.8-0.6,1.3-0.9C129,144.5,129,145.1,128.7,145.6z"/>
	<path class="st210" d="M126.5,145.3c1,0,1.6,0.8,2.4,1.1c0,0.2,0,0.5-0.1,0.4C128,146.3,126.9,146.3,126.5,145.3z"/>
	<path class="st211" d="M128.7,162c-1-0.3-1.9-1-2.8-1.5c0-0.1-0.2-0.5,0-0.3c1,0.5,1.9,1.1,2.8,1.6
		C128.8,161.8,128.8,161.9,128.7,162z"/>
	<path class="st212" d="M124.8,159.6c-1.2-0.1-2-1-3-1.5c0-0.1-0.2-0.5,0.2-0.3C123,158.4,124,158.9,124.8,159.6z"/>
	<path class="st213" d="M116.6,154.9c-0.8,0-1.3-0.6-2-0.9c-0.3-0.1-0.6-0.3-1-0.5c0-0.1,0.1-0.4,0.2-0.3
		C114.8,153.8,115.9,154.1,116.6,154.9z"/>
	<path class="st214" d="M120.8,157.2c-0.5,0.3-0.7-0.1-1-0.3c-0.6-0.3-1.2-0.7-1.8-1c0-0.2-0.4-0.2-0.2-0.6
		C118.7,156.1,119.9,156.4,120.8,157.2z"/>
	<path class="st215" d="M112.6,152.4c-0.7,0.8-1.8,1.2-2.7,1.7c0-0.1-0.1-0.2-0.1-0.2c0.6-0.3,1.1-0.7,1.7-1
		c0.3-0.2,0.5-0.3,0.5-0.7C112.2,152.2,112.4,152.3,112.6,152.4z"/>
	<path class="st216" d="M118,145.2c0.4-0.2,0.7-0.4,1.2-0.7c0.2,0.4,0.1,0.8,0.1,1.2C118.6,146.1,118.3,145.6,118,145.2z"/>
	<path class="st217" d="M108.5,154.8c-0.8,0.8-1.8,1.2-2.8,1.7c0-0.1,0-0.3,0-0.4c0.9-0.3,1.7-1,2.6-1.4
		C108.4,154.7,108.4,154.7,108.5,154.8z"/>
	<path class="st218" d="M114.1,134.9c-0.1,0.8-0.1,1.6-0.2,2.4c-0.1,0.1-0.1,0.1-0.2,0.2c0-0.9,0-1.8,0-2.6c0-0.2-0.1-0.4,0.2-0.4
		C114.2,134.4,114,134.7,114.1,134.9z"/>
	<path class="st219" d="M121.9,150.7c0.3,0.2,0.9,0.3,0.8,0.6c-0.1,0.5-0.7,0.5-1,0.8C121.7,151.6,121.5,151.1,121.9,150.7z"/>
	<path class="st220" d="M125.8,152.9c0.1,0,0.1,0,0.2,0.1c0.3,0.2,0.9,0.3,0.9,0.7c0,0.3-0.5,0.4-0.8,0.6
		C125.6,153.9,125.8,153.4,125.8,152.9z"/>
	<path class="st221" d="M118,140.5c0.4-0.2,0.7-0.4,1.1-0.6c0,0.4,0,0.8,0,1.3C118.6,141,118.2,140.9,118,140.5z"/>
	<path class="st222" d="M113.7,158.4c0.3,0.3,0,0.8,0.3,1.1c0.5,0.5,0.4,1,0.1,1.5c-0.1,0.2-0.2,0.4-0.4,0.4
		C113.7,160.3,113.7,159.3,113.7,158.4z"/>
	<path class="st205" d="M108.7,158.8c0.4-1.1,0.1-2.2,0.2-3.2c0.3,1,0.1,2.1,0.1,3.1C109,158.9,108.8,158.9,108.7,158.8z"/>
	<path class="st223" d="M123.5,128.8c0,0.4,0,0.9,0,1.3c-0.1-0.1-0.1-0.1-0.2-0.2c-0.1-0.2,0.2-0.8-0.5-0.5c-0.1-0.6-1-1.1-0.5-1.9
		c0.1,0.2-0.2,0.5,0.3,0.5C123.1,128,123.3,128.5,123.5,128.8z"/>
	<path class="st224" d="M109.8,158.9c0-1,0-1.8,0-2.7c0.7,0.2,1.3,0.6,1.9,1c0.4,0.2,0.3,0.5-0.1,0.7
		C111.1,158.2,110.5,158.5,109.8,158.9z"/>
	<path class="st37" d="M114.1,160.9c0-0.5-0.1-1-0.1-1.5c0-0.2,0-0.5,0.1-0.9c0.8,0.4,1.4,0.8,2.2,1.3
		C115.5,160.2,115,160.9,114.1,160.9z"/>
</g>
</svg>
