<?xml version="1.0" encoding="utf-8"?>
<!-- Generator: Adobe Illustrator 22.0.1, SVG Export Plug-In . SVG Version: 6.00 Build 0)  -->
<svg version="1.1" id="Layer_1" xmlns="http://www.w3.org/2000/svg" xmlns:xlink="http://www.w3.org/1999/xlink" x="0px" y="0px"
	 viewBox="0 0 200 200" style="enable-background:new 0 0 200 200;" xml:space="preserve">
<style type="text/css">
	.st0{fill:#589FB7;}
	.st1{fill:#2181B8;}
	.st2{opacity:0.2;enable-background:new    ;}
	.st3{fill:#D0D0D0;}
	.st4{fill:#F1F1F1;}
	.st5{fill:#E2E2E2;}
	.st6{fill:#C5C6CB;}
	.st7{opacity:0.3;fill:#FFFFFF;enable-background:new    ;}
	.st8{fill:#FFA530;}
	.st9{fill:#D8D8D8;}
	.st10{fill:#B1B1B1;}
	.st11{fill:#747B81;}
	.st12{fill:#C5D2D8;}
	.st13{fill:#97ABB1;}
	.st14{fill:#495259;}
	.st15{fill:#A4DEF7;}
	.st16{fill:#B0BDC3;}
	.st17{fill:#8D9BA0;}
</style>
<g>
	<g>
		<path class="st0" d="M96.8,171.6H131c4.2,0,7.6-3.4,7.6-7.6V99.6c0-4.2-3.4-7.6-7.6-7.6H96.8c-4.2,0-7.6,3.4-7.6,7.6V164
			C89.2,168.2,92.6,171.6,96.8,171.6z"/>
		<path class="st1" d="M88.8,164V99.6c0-4.4,3.6-8,8-8H131c4.4,0,8,3.6,8,8V164c0,4.4-3.6,8-8,8H96.8
			C92.4,171.9,88.8,168.4,88.8,164z M96.8,92.3c-4,0-7.2,3.2-7.2,7.2V164c0,4,3.2,7.2,7.2,7.2H131c4,0,7.2-3.2,7.2-7.2V99.6
			c0-4-3.2-7.2-7.2-7.2L96.8,92.3L96.8,92.3z"/>
	</g>
	<g>
		<g>
			<g>
				<g>
					<path class="st2" d="M129.5,97.7c0.2,0.2,0.4,0.4,0.6,0.6c0.2,0.2,0.3,0.3,0.4,0.5c0,0.1,0.1,0.1,0.1,0.2s0.1,0.1,0.1,0.2
						c2.2,2.9,2,7.1-0.7,9.8c-2.7,2.7-6.9,2.9-9.8,0.7c-0.1,0-0.1-0.1-0.2-0.1c-0.1-0.1-0.1-0.1-0.2-0.1c-0.2-0.1-0.3-0.3-0.5-0.4
						c-0.2-0.2-0.4-0.4-0.6-0.6c-2.3-3-2.1-7.2,0.6-10C122.3,95.5,126.6,95.3,129.5,97.7z"/>
					<g>
						<path class="st3" d="M129.9,98.5l-0.1,1.3l-8.7,8.7l-1.3,0.1c0.1,0.1,0.3,0.3,0.5,0.4c0,0,0.1,0.1,0.2,0.1s0.1,0.1,0.2,0.1
							c2.8,2.1,6.8,1.9,9.3-0.7c2.5-2.5,2.8-6.5,0.7-9.3c0-0.1-0.1-0.1-0.1-0.2s-0.1-0.1-0.1-0.2C130.2,98.8,130,98.7,129.9,98.5z"
							/>
						<path class="st4" d="M129.9,98.5c-0.2-0.2-0.4-0.4-0.6-0.5c-2.8-2.2-6.9-2-9.5,0.5c-2.6,2.6-2.8,6.7-0.6,9.5
							c0.2,0.2,0.4,0.4,0.6,0.6l1.3-0.1l8.7-8.7L129.9,98.5z"/>
						<path class="st5" d="M129.3,99.1c-0.2-0.2-0.4-0.3-0.5-0.5c-2.5-1.9-6-1.8-8.3,0.5s-2.4,5.8-0.5,8.3c0.1,0.2,0.3,0.4,0.5,0.5
							c0.1,0.1,0.3,0.3,0.4,0.4l0.1,0.1l0.1,0.1c2.5,1.8,5.9,1.6,8.2-0.6c2.2-2.2,2.4-5.7,0.6-8.2l-0.1-0.1c0-0.1-0.1-0.1-0.1-0.1
							C129.5,99.4,129.4,99.3,129.3,99.1z"/>
						<polygon class="st6" points="129.9,98.5 128.6,98.6 119.9,107.3 119.8,108.6 121.1,108.5 129.8,99.8 						"/>
						<polygon class="st2" points="120.8,108.2 129.6,99.5 129.9,98.5 129.8,99.8 121.1,108.5 119.8,108.6 						"/>
					</g>
				</g>
				<path class="st7" d="M130,107.1c-0.2-2-1.1-4-2.6-5.5c-1.9-1.9-4.5-2.8-7-2.7c0.1-0.1,0.2-0.2,0.2-0.3c0.1-0.1,0.3-0.3,0.4-0.4
					l0.1-0.1l0.1-0.1c2.5-1.8,6-1.6,8.2,0.6c2.3,2.2,2.4,5.8,0.6,8.2C130.1,106.9,130.1,107,130,107.1L130,107.1z"/>
			</g>
			<g>
				<g>
					<path class="st2" d="M129.5,116.5c0.2,0.2,0.4,0.4,0.6,0.6c0.2,0.2,0.3,0.3,0.4,0.5c0,0.1,0.1,0.1,0.1,0.2s0.1,0.1,0.1,0.2
						c2.2,2.9,2,7.1-0.7,9.8s-6.9,2.9-9.8,0.7c-0.1,0-0.1-0.1-0.2-0.1s-0.1-0.1-0.2-0.1c-0.2-0.1-0.3-0.3-0.5-0.4
						c-0.2-0.2-0.4-0.4-0.6-0.6c-2.3-2.9-2.1-7.2,0.6-10C122.3,114.3,126.6,114.1,129.5,116.5z"/>
					<g>
						<path class="st3" d="M129.9,117.3l-0.1,1.3l-8.7,8.7l-1.3,0.1c0.1,0.1,0.3,0.3,0.5,0.4c0,0,0.1,0.1,0.2,0.1s0.1,0.1,0.2,0.1
							c2.8,2.1,6.8,1.9,9.3-0.7c2.5-2.5,2.8-6.5,0.7-9.3c0-0.1-0.1-0.1-0.1-0.2s-0.1-0.1-0.1-0.2C130.2,117.6,130,117.5,129.9,117.3
							z"/>
						<path class="st4" d="M129.9,117.3c-0.2-0.2-0.4-0.4-0.6-0.5c-2.8-2.2-6.9-2-9.5,0.5c-2.6,2.6-2.8,6.7-0.6,9.5
							c0.2,0.2,0.4,0.4,0.6,0.6l1.3-0.1l8.7-8.7L129.9,117.3z"/>
						<path class="st5" d="M129.3,117.9c-0.2-0.2-0.4-0.3-0.5-0.5c-2.5-1.9-6-1.8-8.3,0.5s-2.4,5.8-0.5,8.3c0.1,0.2,0.3,0.4,0.5,0.5
							c0.1,0.1,0.3,0.3,0.4,0.4l0.1,0.1l0.1,0.1c2.5,1.8,5.9,1.6,8.2-0.6c2.2-2.2,2.4-5.7,0.6-8.2l-0.1-0.1c0-0.1-0.1-0.1-0.1-0.1
							C129.5,118.2,129.4,118.1,129.3,117.9z"/>
						<polygon class="st6" points="129.9,117.3 128.6,117.4 119.9,126.1 119.8,127.4 121.1,127.3 129.8,118.6 						"/>
						<polygon class="st2" points="120.8,127 129.6,118.3 129.9,117.3 129.8,118.6 121.1,127.3 119.8,127.4 						"/>
					</g>
				</g>
				<path class="st7" d="M130,125.9c-0.2-2-1.1-4-2.6-5.5c-1.9-1.9-4.5-2.8-7-2.7c0.1-0.1,0.2-0.2,0.2-0.3c0.1-0.1,0.3-0.3,0.4-0.4
					l0.1-0.1l0.1-0.1c2.5-1.8,6-1.6,8.2,0.6c2.3,2.2,2.4,5.8,0.6,8.2C130.1,125.8,130.1,125.8,130,125.9L130,125.9z"/>
			</g>
			<g>
				<g>
					<path class="st2" d="M129.5,135.3c0.2,0.2,0.4,0.4,0.6,0.6c0.2,0.2,0.3,0.3,0.4,0.5c0,0.1,0.1,0.1,0.1,0.2
						c0,0.1,0.1,0.1,0.1,0.2c2.2,2.9,2,7.1-0.7,9.8s-6.9,2.9-9.8,0.7c-0.1,0-0.1-0.1-0.2-0.1s-0.1-0.1-0.2-0.1
						c-0.2-0.1-0.3-0.3-0.5-0.4c-0.2-0.2-0.4-0.4-0.6-0.6c-2.3-3-2.1-7.2,0.6-10C122.3,133.1,126.6,132.9,129.5,135.3z"/>
					<g>
						<path class="st3" d="M129.9,136.1l-0.1,1.3l-8.7,8.7l-1.3,0.1c0.1,0.1,0.3,0.3,0.5,0.4c0,0,0.1,0.1,0.2,0.1s0.1,0.1,0.2,0.1
							c2.8,2.1,6.8,1.9,9.3-0.7c2.5-2.5,2.8-6.5,0.7-9.3c0-0.1-0.1-0.1-0.1-0.2c0-0.1-0.1-0.1-0.1-0.2
							C130.2,136.4,130,136.3,129.9,136.1z"/>
						<path class="st4" d="M129.9,136.1c-0.2-0.2-0.4-0.4-0.6-0.5c-2.8-2.2-6.9-2-9.5,0.5c-2.6,2.6-2.8,6.7-0.6,9.5
							c0.2,0.2,0.4,0.4,0.6,0.6l1.3-0.1l8.7-8.7L129.9,136.1z"/>
						<path class="st5" d="M129.3,136.7c-0.2-0.2-0.4-0.3-0.5-0.5c-2.5-1.9-6-1.8-8.3,0.5s-2.4,5.8-0.5,8.3c0.1,0.2,0.3,0.4,0.5,0.5
							c0.1,0.1,0.3,0.3,0.4,0.4l0.1,0.1l0.1,0.1c2.5,1.8,5.9,1.6,8.2-0.6c2.2-2.2,2.4-5.7,0.6-8.2l-0.1-0.1c0-0.1-0.1-0.1-0.1-0.1
							C129.5,137,129.4,136.9,129.3,136.7z"/>
						<polygon class="st6" points="129.9,136.1 128.6,136.2 119.9,144.9 119.8,146.2 121.1,146.1 129.8,137.4 						"/>
						<polygon class="st2" points="120.8,145.8 129.6,137.1 129.9,136.1 129.8,137.4 121.1,146.1 119.8,146.2 						"/>
					</g>
				</g>
				<path class="st7" d="M130,144.7c-0.2-2-1.1-4-2.6-5.5c-1.9-1.9-4.5-2.8-7-2.6c0.1-0.1,0.2-0.2,0.2-0.3c0.1-0.1,0.3-0.3,0.4-0.4
					l0.1-0.1l0.1-0.1c2.5-1.9,6-1.7,8.2,0.6c2.3,2.2,2.4,5.7,0.6,8.2C130.1,144.6,130.1,144.6,130,144.7L130,144.7z"/>
			</g>
			<g>
				<g>
					<path class="st2" d="M129.5,154.1c0.2,0.2,0.4,0.4,0.6,0.6c0.2,0.2,0.3,0.3,0.4,0.5c0,0.1,0.1,0.1,0.1,0.2
						c0,0.1,0.1,0.1,0.1,0.2c2.2,3,2,7.1-0.7,9.8s-6.9,2.9-9.8,0.7c-0.1,0-0.1-0.1-0.2-0.1c-0.1-0.1-0.1-0.1-0.2-0.1
						c-0.2-0.1-0.3-0.3-0.5-0.4c-0.2-0.2-0.4-0.4-0.6-0.6c-2.3-2.9-2.1-7.2,0.6-10C122.3,151.9,126.6,151.7,129.5,154.1z"/>
					<g>
						<path class="st3" d="M129.9,154.9l-0.1,1.3l-8.7,8.7l-1.3,0.1c0.1,0.1,0.3,0.3,0.5,0.4c0,0,0.1,0.1,0.2,0.1s0.1,0.1,0.2,0.1
							c2.8,2.1,6.8,1.9,9.3-0.7c2.5-2.5,2.8-6.5,0.7-9.3c0-0.1-0.1-0.1-0.1-0.2c0-0.1-0.1-0.1-0.1-0.2
							C130.2,155.2,130,155.1,129.9,154.9z"/>
						<path class="st4" d="M129.9,154.9c-0.2-0.2-0.4-0.4-0.6-0.5c-2.8-2.2-6.9-2-9.5,0.5c-2.6,2.6-2.8,6.7-0.6,9.5
							c0.2,0.2,0.4,0.4,0.6,0.6l1.3-0.1l8.7-8.7L129.9,154.9z"/>
						<path class="st5" d="M129.3,155.5c-0.2-0.2-0.4-0.3-0.5-0.5c-2.5-1.9-6-1.8-8.3,0.5s-2.4,5.8-0.5,8.3c0.1,0.2,0.3,0.4,0.5,0.5
							c0.1,0.1,0.3,0.3,0.4,0.4l0.1,0.1l0.1,0.1c2.5,1.8,5.9,1.6,8.2-0.6c2.2-2.2,2.4-5.7,0.6-8.2c0-0.1-0.1-0.1-0.1-0.1
							c0-0.1-0.1-0.1-0.1-0.1C129.5,155.8,129.4,155.7,129.3,155.5z"/>
						<polygon class="st6" points="129.9,154.9 128.6,155 119.9,163.7 119.8,165 121.1,164.9 129.8,156.2 						"/>
						<polygon class="st2" points="120.8,164.7 129.6,155.9 129.9,154.9 129.8,156.2 121.1,164.9 119.8,165 						"/>
					</g>
				</g>
				<path class="st7" d="M130,163.5c-0.2-2-1.1-4-2.6-5.5c-1.9-1.9-4.5-2.8-7-2.7c0.1-0.1,0.2-0.2,0.2-0.3c0.1-0.1,0.3-0.3,0.4-0.4
					l0.1-0.1l0.1-0.1c2.5-1.8,6-1.7,8.2,0.6c2.3,2.2,2.4,5.7,0.6,8.2C130.1,163.4,130.1,163.4,130,163.5L130,163.5z"/>
			</g>
		</g>
		<g>
			<g>
				<g>
					<path class="st2" d="M107.6,97.7c0.2,0.2,0.4,0.4,0.6,0.6s0.3,0.3,0.4,0.5c0,0.1,0.1,0.1,0.1,0.2s0.1,0.1,0.1,0.2
						c2.2,2.9,2,7.1-0.7,9.8c-2.7,2.7-6.8,2.9-9.8,0.7c-0.1,0-0.1-0.1-0.2-0.1c-0.1-0.1-0.1-0.1-0.2-0.1c-0.2-0.1-0.3-0.3-0.5-0.4
						c-0.2-0.2-0.4-0.4-0.6-0.6c-2.3-3-2.1-7.2,0.6-10C100.4,95.5,104.7,95.3,107.6,97.7z"/>
					<g>
						<path class="st3" d="M108,98.5l-0.1,1.3l-8.7,8.7l-1.3,0.1c0.1,0.1,0.3,0.3,0.4,0.4c0.1,0,0.1,0.1,0.2,0.1s0.1,0.1,0.2,0.1
							c2.8,2.1,6.8,1.9,9.3-0.7c2.5-2.5,2.8-6.5,0.7-9.3c0-0.1-0.1-0.1-0.1-0.2s-0.1-0.1-0.1-0.2C108.3,98.8,108.1,98.7,108,98.5z"
							/>
						<path class="st4" d="M108,98.5c-0.2-0.2-0.4-0.4-0.6-0.5c-2.8-2.2-6.9-2-9.5,0.5c-2.6,2.6-2.8,6.7-0.6,9.5
							c0.2,0.2,0.3,0.4,0.6,0.6l1.3-0.1l8.7-8.7L108,98.5z"/>
						<path class="st5" d="M107.4,99.1c-0.2-0.2-0.4-0.3-0.5-0.5c-2.4-1.9-6-1.8-8.3,0.5s-2.4,5.8-0.5,8.3c0.1,0.2,0.3,0.4,0.5,0.5
							c0.1,0.1,0.3,0.3,0.4,0.4l0.1,0.1l0.1,0.1c2.5,1.8,5.9,1.6,8.2-0.6c2.2-2.2,2.4-5.7,0.6-8.2l-0.1-0.1c0-0.1-0.1-0.1-0.1-0.1
							C107.6,99.4,107.5,99.3,107.4,99.1z"/>
						<polygon class="st6" points="108,98.5 106.7,98.6 98,107.3 97.9,108.6 99.2,108.5 107.9,99.8 						"/>
						<polygon class="st2" points="98.9,108.2 107.7,99.5 108,98.5 107.9,99.8 99.2,108.5 97.9,108.6 						"/>
					</g>
				</g>
				<path class="st7" d="M108.1,107.1c-0.2-2-1.1-4-2.6-5.5c-1.9-1.9-4.5-2.8-7-2.7c0.1-0.1,0.1-0.2,0.2-0.3
					c0.1-0.1,0.3-0.3,0.4-0.4l0.1-0.1l0.1-0.1c2.5-1.8,6-1.6,8.2,0.6s2.4,5.8,0.6,8.2C108.2,106.9,108.2,107,108.1,107.1
					C108.2,107.1,108.1,107.1,108.1,107.1z"/>
			</g>
			<g>
				<g>
					<path class="st2" d="M107.6,116.5c0.2,0.2,0.4,0.4,0.6,0.6s0.3,0.3,0.4,0.5c0,0.1,0.1,0.1,0.1,0.2s0.1,0.1,0.1,0.2
						c2.2,2.9,2,7.1-0.7,9.8s-6.8,2.9-9.8,0.7c-0.1,0-0.1-0.1-0.2-0.1s-0.1-0.1-0.2-0.1c-0.2-0.1-0.3-0.3-0.5-0.4
						c-0.2-0.2-0.4-0.4-0.6-0.6c-2.3-2.9-2.1-7.2,0.6-10C100.4,114.3,104.7,114.1,107.6,116.5z"/>
					<g>
						<path class="st3" d="M108,117.3l-0.1,1.3l-8.7,8.7l-1.3,0.1c0.1,0.1,0.3,0.3,0.4,0.4c0.1,0,0.1,0.1,0.2,0.1s0.1,0.1,0.2,0.1
							c2.8,2.1,6.8,1.9,9.3-0.7c2.5-2.5,2.8-6.5,0.7-9.3c0-0.1-0.1-0.1-0.1-0.2s-0.1-0.1-0.1-0.2C108.3,117.6,108.1,117.5,108,117.3
							z"/>
						<path class="st4" d="M108,117.3c-0.2-0.2-0.4-0.4-0.6-0.5c-2.8-2.2-6.9-2-9.5,0.5c-2.6,2.6-2.8,6.7-0.6,9.5
							c0.2,0.2,0.3,0.4,0.6,0.6l1.3-0.1l8.7-8.7L108,117.3z"/>
						<path class="st5" d="M107.4,117.9c-0.2-0.2-0.4-0.3-0.5-0.5c-2.4-1.9-6-1.8-8.3,0.5s-2.4,5.8-0.5,8.3c0.1,0.2,0.3,0.4,0.5,0.5
							c0.1,0.1,0.3,0.3,0.4,0.4l0.1,0.1l0.1,0.1c2.5,1.8,5.9,1.6,8.2-0.6c2.2-2.2,2.4-5.7,0.6-8.2l-0.1-0.1c0-0.1-0.1-0.1-0.1-0.1
							C107.6,118.2,107.5,118.1,107.4,117.9z"/>
						<polygon class="st6" points="108,117.3 106.7,117.4 98,126.1 97.9,127.4 99.2,127.3 107.9,118.6 						"/>
						<polygon class="st2" points="98.9,127 107.7,118.3 108,117.3 107.9,118.6 99.2,127.3 97.9,127.4 						"/>
					</g>
				</g>
				<path class="st7" d="M108.1,125.9c-0.2-2-1.1-4-2.6-5.5c-1.9-1.9-4.5-2.8-7-2.7c0.1-0.1,0.1-0.2,0.2-0.3
					c0.1-0.1,0.3-0.3,0.4-0.4l0.1-0.1l0.1-0.1c2.5-1.8,6-1.6,8.2,0.6s2.4,5.8,0.6,8.2C108.2,125.8,108.2,125.8,108.1,125.9
					C108.2,125.9,108.1,125.9,108.1,125.9z"/>
			</g>
			<g>
				<g>
					<path class="st2" d="M107.6,135.3c0.2,0.2,0.4,0.4,0.6,0.6c0.2,0.2,0.3,0.3,0.4,0.5c0,0.1,0.1,0.1,0.1,0.2
						c0,0.1,0.1,0.1,0.1,0.2c2.2,2.9,2,7.1-0.7,9.8s-6.8,2.9-9.8,0.7c-0.1,0-0.1-0.1-0.2-0.1s-0.1-0.1-0.2-0.1
						c-0.2-0.1-0.3-0.3-0.5-0.4c-0.2-0.2-0.4-0.4-0.6-0.6c-2.3-3-2.1-7.2,0.6-10C100.4,133.1,104.7,132.9,107.6,135.3z"/>
					<g>
						<path class="st3" d="M108,136.1l-0.1,1.3l-8.7,8.7l-1.3,0.1c0.1,0.1,0.3,0.3,0.4,0.4c0.1,0,0.1,0.1,0.2,0.1s0.1,0.1,0.2,0.1
							c2.8,2.1,6.8,1.9,9.3-0.7c2.5-2.5,2.8-6.5,0.7-9.3c0-0.1-0.1-0.1-0.1-0.2c0-0.1-0.1-0.1-0.1-0.2
							C108.3,136.4,108.1,136.3,108,136.1z"/>
						<path class="st4" d="M108,136.1c-0.2-0.2-0.4-0.4-0.6-0.5c-2.8-2.2-6.9-2-9.5,0.5c-2.6,2.6-2.8,6.7-0.6,9.5
							c0.2,0.2,0.3,0.4,0.6,0.6l1.3-0.1l8.7-8.7L108,136.1z"/>
						<path class="st5" d="M107.4,136.7c-0.2-0.2-0.4-0.3-0.5-0.5c-2.4-1.9-6-1.8-8.3,0.5s-2.4,5.8-0.5,8.3c0.1,0.2,0.3,0.4,0.5,0.5
							c0.1,0.1,0.3,0.3,0.4,0.4l0.1,0.1l0.1,0.1c2.5,1.8,5.9,1.6,8.2-0.6c2.2-2.2,2.4-5.7,0.6-8.2l-0.1-0.1c0-0.1-0.1-0.1-0.1-0.1
							C107.6,137,107.5,136.9,107.4,136.7z"/>
						<polygon class="st6" points="108,136.1 106.7,136.2 98,144.9 97.9,146.2 99.2,146.1 107.9,137.4 						"/>
						<polygon class="st2" points="98.9,145.8 107.7,137.1 108,136.1 107.9,137.4 99.2,146.1 97.9,146.2 						"/>
					</g>
				</g>
				<path class="st7" d="M108.1,144.7c-0.2-2-1.1-4-2.6-5.5c-1.9-1.9-4.5-2.8-7-2.6c0.1-0.1,0.1-0.2,0.2-0.3s0.3-0.3,0.4-0.4
					l0.1-0.1l0.1-0.1c2.5-1.9,6-1.7,8.2,0.6c2.2,2.2,2.4,5.7,0.6,8.2C108.2,144.6,108.2,144.6,108.1,144.7
					C108.2,144.7,108.1,144.7,108.1,144.7z"/>
			</g>
			<g>
				<g>
					<path class="st2" d="M107.6,154.1c0.2,0.2,0.4,0.4,0.6,0.6c0.2,0.2,0.3,0.3,0.4,0.5c0,0.1,0.1,0.1,0.1,0.2
						c0,0.1,0.1,0.1,0.1,0.2c2.2,3,2,7.1-0.7,9.8s-6.8,2.9-9.8,0.7c-0.1,0-0.1-0.1-0.2-0.1c-0.1-0.1-0.1-0.1-0.2-0.1
						c-0.2-0.1-0.3-0.3-0.5-0.4c-0.2-0.2-0.4-0.4-0.6-0.6c-2.3-2.9-2.1-7.2,0.6-10C100.4,151.9,104.7,151.7,107.6,154.1z"/>
					<g>
						<path class="st3" d="M108,154.9l-0.1,1.3l-8.7,8.7l-1.3,0.1c0.1,0.1,0.3,0.3,0.4,0.4c0.1,0,0.1,0.1,0.2,0.1s0.1,0.1,0.2,0.1
							c2.8,2.1,6.8,1.9,9.3-0.7c2.5-2.5,2.8-6.5,0.7-9.3c0-0.1-0.1-0.1-0.1-0.2c0-0.1-0.1-0.1-0.1-0.2
							C108.3,155.2,108.1,155.1,108,154.9z"/>
						<path class="st4" d="M108,154.9c-0.2-0.2-0.4-0.4-0.6-0.5c-2.8-2.2-6.9-2-9.5,0.5c-2.6,2.6-2.8,6.7-0.6,9.5
							c0.2,0.2,0.3,0.4,0.6,0.6l1.3-0.1l8.7-8.7L108,154.9z"/>
						<path class="st5" d="M107.4,155.5c-0.2-0.2-0.4-0.3-0.5-0.5c-2.4-1.9-6-1.8-8.3,0.5s-2.4,5.8-0.5,8.3c0.1,0.2,0.3,0.4,0.5,0.5
							c0.1,0.1,0.3,0.3,0.4,0.4l0.1,0.1l0.1,0.1c2.5,1.8,5.9,1.6,8.2-0.6c2.2-2.2,2.4-5.7,0.6-8.2c0-0.1-0.1-0.1-0.1-0.1
							c0-0.1-0.1-0.1-0.1-0.1C107.6,155.8,107.5,155.7,107.4,155.5z"/>
						<polygon class="st6" points="108,154.9 106.7,155 98,163.7 97.9,165 99.2,164.9 107.9,156.2 						"/>
						<polygon class="st2" points="98.9,164.7 107.7,155.9 108,154.9 107.9,156.2 99.2,164.9 97.9,165 						"/>
					</g>
				</g>
				<path class="st7" d="M108.1,163.5c-0.2-2-1.1-4-2.6-5.5c-1.9-1.9-4.5-2.8-7-2.7c0.1-0.1,0.1-0.2,0.2-0.3s0.3-0.3,0.4-0.4
					l0.1-0.1l0.1-0.1c2.5-1.8,6-1.7,8.2,0.6c2.2,2.2,2.4,5.7,0.6,8.2C108.2,163.4,108.2,163.4,108.1,163.5
					C108.2,163.5,108.1,163.5,108.1,163.5z"/>
			</g>
		</g>
	</g>
</g>
<g>
	<path class="st8" d="M64.2,175.6H13.5c-3.4,0-6.2-2.8-6.2-6.2V79h63.2v90.4C70.5,172.8,67.7,175.6,64.2,175.6z"/>
	<rect x="7.2" y="79" class="st2" width="63.2" height="1.6"/>
	<path class="st9" d="M4.1,71.6c0,0,0-1,0-2.2s1.1-2.2,3.3-2.2h62.8c2.3,0,3.3,1,3.3,2.2v2.2H4.1z"/>
	<rect x="4.1" y="70.8" class="st2" width="69.5" height="0.8"/>
	<path class="st9" d="M7.4,67.1V50c0-2.3,1.9-4.1,4.1-4.1h54.6c2.3,0,4.1,1.9,4.1,4.1v17.2L7.4,67.1L7.4,67.1z"/>
	<rect x="14.6" y="101.7" class="st5" width="48.4" height="51.2"/>
	<rect x="1" y="71.6" class="st8" width="75.6" height="7.4"/>
	<rect x="5.6" y="71.6" class="st7" width="16.5" height="7.4"/>
	<rect x="64" y="71.6" class="st7" width="6.3" height="7.4"/>
	<path class="st7" d="M26.8,79H11.9v90.4c0,3.4,2.1,6.2,4.7,6.2h10.1V79H26.8z"/>
	<path class="st7" d="M59.8,79h5.8v90.4c0,3.4-0.8,6.2-1.8,6.2h-4V79z"/>
	<g>
		<g>
			<path class="st10" d="M12,64.8c-0.6,0-1-0.4-1-1V49.2c0-0.5,0.5-1,1-1c0.6,0,1,0.4,1,1v14.6C13,64.3,12.6,64.8,12,64.8z"/>
		</g>
		<g>
			<path class="st10" d="M17.4,64.8c-0.6,0-1-0.4-1-1V49.2c0-0.5,0.5-1,1-1s1,0.4,1,1v14.6C18.4,64.3,17.9,64.8,17.4,64.8z"/>
		</g>
		<g>
			<path class="st10" d="M22.7,64.8c-0.6,0-1-0.4-1-1V49.2c0-0.5,0.5-1,1-1s1,0.4,1,1v14.6C23.8,64.3,23.3,64.8,22.7,64.8z"/>
		</g>
		<g>
			<path class="st10" d="M28.1,64.8c-0.6,0-1-0.4-1-1V49.2c0-0.5,0.5-1,1-1c0.6,0,1,0.4,1,1v14.6C29.1,64.3,28.7,64.8,28.1,64.8z"/>
		</g>
		<g>
			<path class="st10" d="M33.5,64.8c-0.6,0-1-0.4-1-1V49.2c0-0.5,0.5-1,1-1c0.6,0,1,0.4,1,1v14.6C34.5,64.3,34,64.8,33.5,64.8z"/>
		</g>
		<g>
			<path class="st10" d="M38.8,64.8c-0.6,0-1-0.4-1-1V49.2c0-0.5,0.5-1,1-1c0.6,0,1,0.4,1,1v14.6C39.9,64.3,39.4,64.8,38.8,64.8z"/>
		</g>
		<g>
			<path class="st10" d="M44.2,64.8c-0.6,0-1-0.4-1-1V49.2c0-0.5,0.5-1,1-1c0.6,0,1,0.4,1,1v14.6C45.3,64.3,44.8,64.8,44.2,64.8z"/>
		</g>
		<g>
			<path class="st10" d="M49.6,64.8c-0.6,0-1-0.4-1-1V49.2c0-0.5,0.5-1,1-1c0.6,0,1,0.4,1,1v14.6C50.6,64.3,50.2,64.8,49.6,64.8z"/>
		</g>
		<g>
			<path class="st10" d="M55,64.8c-0.6,0-1-0.4-1-1V49.2c0-0.5,0.5-1,1-1s1,0.4,1,1v14.6C56,64.3,55.5,64.8,55,64.8z"/>
		</g>
		<g>
			<path class="st10" d="M60.3,64.8c-0.6,0-1-0.4-1-1V49.2c0-0.5,0.5-1,1-1c0.6,0,1,0.4,1,1v14.6C61.4,64.3,60.9,64.8,60.3,64.8z"/>
		</g>
		<g>
			<path class="st10" d="M65.7,64.8c-0.6,0-1-0.4-1-1V49.2c0-0.5,0.5-1,1-1c0.6,0,1,0.4,1,1v14.6C66.7,64.3,66.3,64.8,65.7,64.8z"/>
		</g>
	</g>
	<path class="st7" d="M22.7,67.1V50c0-2.3,1.3-4.1,2.9-4.1H14.1c-2,0-3.7,1.9-3.7,4.1v17.2c-2,0-3,1-3,2.2s0,2.2,0,2.2h12.9
		c0,0,0-1,0-2.2C20.3,68.1,21,67.1,22.7,67.1z"/>
</g>
<g>
	<path class="st11" d="M173.2,69l1.8-47l1.8,47c0.1,1-0.8,1.8-1.8,1.9S173.2,70.1,173.2,69C173.2,69.1,173.3,69,173.2,69z"/>
	<path class="st12" d="M179,73.2v-8.7c0-2.2-1.8-4-4-4l0,0c-2.2,0-4,1.8-4,4v8.7"/>
	<path class="st13" d="M175.1,60.6c-0.5,0-1.1,0.1-1.5,0.3c1.5,0.6,2.4,2,2.4,3.6v8.7h3v-8.7C179,62.3,177.2,60.6,175.1,60.6z"/>
	<rect x="169.4" y="147.2" class="st11" width="11.4" height="23.4"/>
	<g>
		<rect x="169.4" y="147.3" class="st14" width="11.4" height="7.5"/>
		<rect x="175.1" y="147.2" class="st14" width="5.7" height="23.4"/>
	</g>
	<path class="st13" d="M187.9,81.8v65.4h-25.7V81.8c0-7.2,5.7-12.9,12.9-12.9l0,0C182.2,68.9,188,74.7,187.9,81.8z"/>
	<polyline class="st12" points="172.5,113.5 175.1,115.3 175.1,143.6 162.2,143.6 162.2,115.2 164.8,113.5 	"/>
	<path class="st15" d="M188,70.7v44.6h-25.7l-0.1-44.6c0-1,0.8-1.7,1.7-1.7h22.3C187.2,69,188,69.7,188,70.7z"/>
	<path class="st15" d="M188,70.7v42.8h-7.4V69h5.6C187.2,69,188,69.7,188,70.7z"/>
	<path class="st16" d="M199.1,145.4v3.7c0,1-0.8,1.7-1.7,1.7h-44.6c-1,0-1.7-0.8-1.7-1.7v-3.7c0-1,0.8-1.7,1.7-1.7h44.6
		C198.4,143.7,199.1,144.4,199.1,145.4z"/>
	<path class="st17" d="M199.1,145.4v3.7c0,1-0.8,1.7-1.7,1.7H179v-7.2h18.4C198.4,143.7,199.1,144.4,199.1,145.4z"/>
	<rect x="169.4" y="120.2" class="st14" width="11.4" height="23.4"/>
	<g>
		<rect x="169.4" y="120.2" class="st11" width="5.7" height="23.4"/>
		<rect x="162.2" y="113.5" class="st11" width="25.8" height="6.7"/>
	</g>
	<polygon class="st14" points="180.6,113.5 180.8,120.2 187.9,120.2 188,113.5 	"/>
	<path class="st11" d="M186.7,169.4v2.7c0,1.2-0.9,2.1-2.1,2.1h-19.2c-1.2,0-2.1-0.9-2.1-2.1v-2.7c0-1.2,0.9-2.1,2.1-2.1h19.2
		C185.8,167.3,186.8,168.3,186.7,169.4z"/>
	<path class="st14" d="M184.7,167.4h-4.8c1.2,0,2.1,0.9,2.1,2.1v2.7c0,1.2-0.9,2.1-2.1,2.1h4.8c1.2,0,2.1-0.9,2.1-2.1v-2.7
		C186.8,168.3,185.8,167.3,184.7,167.4z"/>
</g>
</svg>
