<?xml version="1.0" encoding="utf-8"?>
<!-- Generator: Adobe Illustrator 24.0.1, SVG Export Plug-In . SVG Version: 6.00 Build 0)  -->
<svg version="1.1" id="Layer_1" xmlns="http://www.w3.org/2000/svg" xmlns:xlink="http://www.w3.org/1999/xlink" x="0px" y="0px"
	 viewBox="0 0 400 280" style="enable-background:new 0 0 400 280;" xml:space="preserve">
<style type="text/css">
	.st0{fill:#B72133;}
	.st1{fill:#F15A24;}
	.st2{fill:#B52B0B;}
</style>
<g>
	<g>
		<path class="st0" d="M69,236.2c-3.4,0.5-6.8,1-10.2,1.6c1.8,11.5,3.5,23,5.3,34.5c-8.3,1.3-16.6,2.6-24.9,3.8
			c-4.4-28.7-8.8-57.4-13.2-86.1c14.2-2.2,28.3-4.3,42.5-6.5c6.2,3.3,12.4,6.7,18.6,10c1.1,7.5,2.3,14.9,3.4,22.4
			c-3.7,3.5-7.3,7-11,10.4c4.5,2.1,9,4.1,13.6,6.2c1.8,11.5,3.5,23,5.3,34.5c-8,1.2-16,2.5-24,3.7C72.6,259.2,70.8,247.7,69,236.2z
			 M63.6,200.8c-3.4,0.5-6.8,1-10.2,1.6c1,6.4,2,12.8,3,19.2c3.4-0.5,6.8-1,10.2-1.6C65.5,213.6,64.6,207.2,63.6,200.8z"/>
	</g>
	<g>
		<path class="st0" d="M140.8,244.2c-4.8,0.7-9.6,1.5-14.4,2.2c0.1,5.4,0.2,10.8,0.3,16.2c-8.1,1.2-16.2,2.5-24.3,3.7
			c0.7-29.5,1.4-59,2.1-88.5c12-1.8,24-3.7,36-5.5c9.7,27.9,19.4,55.8,29.1,83.7c-8.2,1.3-16.3,2.5-24.5,3.8
			C143.7,254.6,142.2,249.4,140.8,244.2z M124,194c0.6,12,1.1,24,1.7,36c3.6-0.6,7.2-1.1,10.8-1.7c-3.4-11.6-6.7-23.1-10.1-34.7
			C125.6,193.7,124.8,193.8,124,194z"/>
	</g>
	<g>
		<path class="st0" d="M213,204.3c5,2.1,10,4.2,14.9,6.3c1.2,7.8,2.4,15.5,3.6,23.3c-4.8,5-9.6,10-14.4,15
			c-14.5,2.2-28.9,4.4-43.4,6.7c-4.4-28.7-8.8-57.4-13.2-86.1c14.5-2.2,28.9-4.4,43.4-6.7c5.4,2.9,10.7,5.7,16.1,8.6
			c1.2,7.6,2.3,15.2,3.5,22.8C219.9,197.4,216.4,200.9,213,204.3z M197.8,180.2c-3.3,0.5-6.6,1-9.9,1.5c0.9,6.1,1.9,12.2,2.8,18.3
			c3.3-0.5,6.6-1,9.9-1.5C199.6,192.4,198.7,186.3,197.8,180.2z M203.1,214.7c-3.3,0.5-6.6,1-9.9,1.5c1,6.4,2,12.8,3,19.2
			c3.3-0.5,6.6-1,9.9-1.5C205,227.5,204,221.1,203.1,214.7z"/>
	</g>
	<g>
		<path class="st0" d="M246.4,238.2c0-3-0.3-6-0.9-8.9c-0.7-3.4-1.7-6.7-2.7-10c-0.7-2.4-0.8-5.1-2.8-7c-1.6-1.5-2.1-3.2-1.6-5.3
			c0.5-2.2-0.4-4.1-1.1-6c-0.4,0.2-0.6,0.4-1,0.6c-0.1-1.6-0.5-3-0.2-4.4c0.7-3.3,1.7-6.6,2.5-9.9c0.1-0.4,0-1.2-0.3-1.3
			c-2.6-1.2-2-3.9-1.7-5.5c0.4-1.8,1.3-3.4,0.3-5.2c-0.5-1-1-2-1.5-3c-0.4-1-1.2-1.9-1.2-2.9c-0.1-2.5,0-5,0.2-7.5
			c0.1-1,0.6-2,0.9-3.1c0.5-0.1,0.9-0.1,1.4-0.2c1.8,2.7,3.6,5.4,5.5,8c0.3,0.5,1.2,0.7,1.9,0.8c1.4,0.1,2.9-0.1,4.3,0
			c1.5,0.1,2.6-0.4,3.5-1.4c1.3-1.6,2.4-3.4,3.7-5c0.5-0.7,1.3-1.2,1.9-1.8c0.5,0.8,1.4,1.7,1.4,2.5c0.1,3.1-0.5,6.2-2,9
			c-0.5,1-0.8,2-1.1,3c-0.3,0.8-0.6,1.7-0.9,2.5c0,0.1-0.1,0.2-0.1,0.3c-0.4,1.4,1.5,4.4,2.9,4.6c-0.6,0.8-1.2,1.6-1.9,2.4
			c0.3,0.3,0.5,0.7,0.8,1c1.3,1.5,2.2,3.3,3.2,5c2.4,4,5.3,7.7,9,10.7c0.6,0.5,1.2,0.9,1.8,1.3c-2.5-16-4.9-32-7.4-48.1
			c-11.9,1.8-23.8,3.7-35.7,5.5c4.4,28.7,8.8,57.4,13.2,86.1c1.1-0.2,2.2-0.3,3.3-0.5c0.1-0.5,0.3-1.4,0.5-2
			C245.3,241.1,246.4,239.6,246.4,238.2z"/>
	</g>
	<g>
		<path class="st0" d="M254.6,230.9c0.2-1.2,0.2-2-0.8-2.7c-1.4-1-2.1-2.3-1.5-4.2c0.4-1.4-0.4-2.2-1.8-2.9c-1,3.1-1.3,6.2-0.7,9.3
			c0.3,1.5,1.3,3,0.3,4.7c-0.1,0.2,0,0.6,0.1,0.8c0.9,1.5,0.9,3,0.9,4.8c0,1.4,0,2.3-0.2,2.9c0.5-0.1,0.9-0.1,1.4-0.2
			c0.7-2.5,1.4-4.9,1.9-7.4C254.5,234.4,254.3,232.6,254.6,230.9z"/>
	</g>
	<g>
		<path class="st0" d="M274.1,238.1c-2.4,2-5.3,2.5-8.2,2.9c-0.3,0-0.8-0.1-1-0.4c-1.2-1.1-0.8-2.4,0.9-3.1c0.7-0.3,1.5-0.7,2.5-1.1
			c-1-0.4-1.7-0.5-2.1-0.9c-1.4-1.3-3-1.2-4.7-0.9c-2.4,0.5-3,1.4-2.3,3.8c0.1,0.6,0,1.2,0,1.8c0,0.7-0.1,1.5,0.2,2.1
			c5.8-0.9,11.5-1.8,17.3-2.7c-0.1-0.9-0.3-1.7-0.4-2.6C275.5,237.3,274.7,237.7,274.1,238.1z"/>
	</g>
	<g>
		<path class="st0" d="M271.2,152.3c15.3-2.3,30.5-4.7,45.8-7c0.8,5.4,1.7,10.8,2.5,16.2c-7,1.1-13.9,2.1-20.9,3.2
			c0.8,5.4,1.7,10.8,2.5,16.2c5.8-0.9,11.5-1.8,17.3-2.7c0.8,5.4,1.7,10.8,2.5,16.2c-5.8,0.9-11.5,1.8-17.3,2.7
			c1.1,7.1,2.2,14.2,3.3,21.3c7.2-1.1,14.3-2.2,21.5-3.3c0.8,5.4,1.7,10.8,2.5,16.2c-15.5,2.4-30.9,4.7-46.4,7.1
			C280,209.7,275.6,181,271.2,152.3z"/>
	</g>
	<g>
		<path class="st0" d="M361.6,155c-3.5,0.5-6.9,1.1-10.4,1.6c0.9,5.9,1.8,11.7,2.7,17.6c6-0.5,12-1,18-1.6c6.3,3.3,12.7,6.6,19,9.8
			c1.3,8.8,2.7,17.5,4,26.3c-4.8,5-9.5,10-14.3,14.9c-9.2,1.4-18.3,2.8-27.5,4.2c-6-3.3-12.1-6.6-18.1-10
			c-0.8-5.1-1.6-10.1-2.3-15.2c8.3-1.3,16.6-2.6,24.9-3.8c0.6,3.8,1.2,7.6,1.8,11.4c3.5-0.5,6.9-1.1,10.4-1.6c-0.9-6-1.8-12-2.8-18
			c-6.1,0.5-12.1,1-18.2,1.6c-6.4-3.2-12.8-6.4-19.2-9.7c-1.3-8.6-2.6-17.2-4-25.8c4.9-5,9.7-10.1,14.6-15.1c8.7-1.3,17.3-2.7,26-4
			c6.2,3.3,12.5,6.7,18.7,10c0.8,5.1,1.6,10.1,2.3,15.2c-8,1.2-16,2.5-24,3.7C362.8,162.7,362.2,158.8,361.6,155z"/>
	</g>
	<g>
		<g>
			<path class="st1" d="M4.9,56.8c10.8-1.7,21.7-3.3,32.5-5c0.6,3.6,1.1,7.2,1.7,10.8c-6.1,0.9-12.2,1.9-18.3,2.8
				c0.9,6,1.9,12.1,2.8,18.1c4.9-0.8,9.8-1.5,14.7-2.3c0.6,3.6,1.1,7.3,1.7,10.9c-4.9,0.8-9.8,1.5-14.7,2.3
				c4.3,28,8.6,56.1,12.9,84.1c-4.7,0.7-9.5,1.5-14.2,2.2C17.6,139.5,11.3,98.2,4.9,56.8z"/>
			<path class="st1" d="M46.9,50.4c10.8-1.7,21.7-3.3,32.5-5c0.6,3.6,1.1,7.2,1.7,10.8C75,57.1,68.9,58.1,62.8,59
				c0.9,6,1.9,12.1,2.8,18.1c4.9-0.8,9.8-1.5,14.7-2.3c0.6,3.6,1.1,7.3,1.7,10.9c-4.9,0.8-9.8,1.5-14.7,2.3
				c3.7,24.4,7.5,48.7,11.2,73.1c6.1-0.9,12.2-1.9,18.3-2.8c0.6,3.7,1.1,7.4,1.7,11c-10.8,1.7-21.7,3.3-32.5,5
				C59.6,133,53.3,91.7,46.9,50.4z"/>
			<path class="st1" d="M98.9,53.4c-2.3,0.3-4.5,0.7-6.8,1c-0.6-3.6-1.1-7.2-1.7-10.8c10.2-1.6,20.4-3.1,30.6-4.7
				c11.3,40.6,22.6,81.1,34,121.7c-5.5,0.8-11,1.7-16.6,2.5c-3.8-16.7-7.5-33.4-11.3-50.1c-4.2,0.6-8.4,1.3-12.6,1.9
				c1.4,17.1,2.8,34.1,4.2,51.2c-5.6,0.9-11.1,1.7-16.7,2.6C100.9,130.4,99.9,91.9,98.9,53.4z M124.4,102.8
				c-4.4-17.2-8.9-34.4-13.3-51.6c0.9,17.7,1.8,35.5,2.8,53.2C117.3,103.9,120.8,103.3,124.4,102.8z"/>
			<path class="st1" d="M141.9,46.9c-1.6,0.2-3.1,0.5-4.7,0.7c-0.6-3.6-1.1-7.2-1.7-10.8c9.4-1.4,18.8-2.9,28.3-4.3
				c8.6-1.3,14.9,1.6,16.3,10.2c1.3,8.5,2.6,16.9,3.9,25.4c1,6.4-1.5,10.8-6.8,11.9c9.1,24.4,18.3,48.8,27.4,73.2
				c-5.2,0.8-10.3,1.6-15.5,2.4c-9.2-25-18.4-50-27.6-75.1c4,25.8,7.9,51.7,11.9,77.5c-4.7,0.7-9.4,1.4-14.1,2.2
				C153.4,122.3,147.7,84.6,141.9,46.9z M166,71.4c4.4-0.7,4.6-1.6,4.1-5c-1-6.2-1.9-12.4-2.9-18.6c-0.5-3.3-1.6-4.8-5.9-4.1
				c-1.8,0.3-3.5,0.5-5.3,0.8c1.4,9.3,2.8,18.5,4.3,27.8C162.1,71.9,164,71.7,166,71.4z"/>
			<path class="st1" d="M189.7,28.5c4.9-0.7,9.7-1.5,14.6-2.2c3.7,24.1,7.4,48.2,11.1,72.4c6-0.9,11.9-1.8,17.9-2.8
				c0.6,3.7,1.1,7.4,1.7,11c-10.8,1.7-21.7,3.3-32.5,5C198.2,84,194,56.2,189.7,28.5z"/>
			<path class="st1" d="M231,22.1c10.8-1.7,21.7-3.3,32.5-5c0.6,3.6,1.1,7.2,1.7,10.8c-6.1,0.9-12.2,1.9-18.3,2.8
				c0.9,6,1.9,12.1,2.8,18.1c4.9-0.8,9.8-1.5,14.7-2.3c0.6,3.6,1.1,7.3,1.7,10.9c-4.9,0.8-9.8,1.5-14.7,2.3
				c1.7,10.8,3.3,21.7,5,32.5c6.1-0.9,12.2-1.9,18.3-2.8c0.6,3.7,1.1,7.4,1.7,11c-10.8,1.7-21.7,3.3-32.5,5
				C239.6,77.7,235.3,49.9,231,22.1z"/>
			<path class="st1" d="M283.4,88.8c-0.7-4.6-1.4-9.3-2.1-13.9c4.7-0.7,9.3-1.4,14-2.2c0.5,3.6,1.1,7.1,1.6,10.7
				c0.4,2.9,1.1,3.4,5.7,2.7c4.1-0.6,5.2-1.3,4.8-4.3c-0.6-3.7-1.1-7.4-1.7-11.1c-2.8-18.1-27-12.6-30.1-32.6c-0.6-4-1.2-8-1.9-12.1
				c-1.3-8.6,3.4-11.2,11.9-12.5c3.6-0.6,7.3-1.1,10.9-1.7c8.5-1.3,13.9-0.3,15.3,8.4c0.7,4.8,1.5,9.6,2.2,14.4
				c-4.6,0.7-9.1,1.4-13.7,2.1c-0.6-3.7-1.1-7.4-1.7-11c-0.5-3.1-1.7-3.3-5.8-2.6c-4.6,0.7-5.1,1.3-4.6,4.2c0.4,2.7,0.8,5.4,1.2,8
				c1.9,12.6,26.7,10.2,29.9,30.8c0.9,5.6,1.7,11.3,2.6,16.9c1.3,8.6-3.5,11.4-12,12.7c-4.1,0.6-8.1,1.2-12.2,1.9
				C289.7,98.4,284.7,97.2,283.4,88.8z"/>
			<path class="st1" d="M331.8,81.4c-0.7-4.6-1.4-9.3-2.1-13.9c4.7-0.7,9.3-1.4,14-2.2c0.5,3.6,1.1,7.1,1.6,10.7
				c0.4,2.9,1.1,3.4,5.7,2.7c4.1-0.6,5.2-1.3,4.8-4.3c-0.6-3.7-1.1-7.4-1.7-11.1c-2.8-18.1-27-12.6-30.1-32.6c-0.6-4-1.2-8-1.9-12.1
				C320.9,10,325.6,7.3,334.1,6c3.6-0.6,7.3-1.1,10.9-1.7c8.5-1.3,13.9-0.3,15.3,8.4c0.7,4.8,1.5,9.6,2.2,14.4
				c-4.6,0.7-9.1,1.4-13.7,2.1c-0.6-3.7-1.1-7.4-1.7-11c-0.5-3.1-1.7-3.3-5.8-2.6c-4.6,0.7-5.1,1.3-4.6,4.2c0.4,2.7,0.8,5.4,1.2,8
				c1.9,12.6,26.7,10.2,29.9,30.8c0.9,5.6,1.7,11.3,2.6,16.9c1.3,8.6-3.5,11.4-12,12.7c-4.1,0.6-8.1,1.2-12.2,1.9
				C338.1,91,333.1,89.8,331.8,81.4z"/>
		</g>
	</g>
	<g>
		<g>
			<path class="st2" d="M227.7,139.6c-0.5,3-1,6-1.5,9c-1.2,0.2-2.4,0.4-3.6,0.6c1.7-9.6,3.4-19.1,5.1-28.7c1.4-0.2,2.8-0.4,4.3-0.7
				c4.5,8.6,9,17.2,13.5,25.9c-1.3,0.2-2.5,0.4-3.8,0.6c-1.4-2.7-2.8-5.4-4.2-8.1C234.2,138.6,231,139.1,227.7,139.6z M236.3,135.4
				c-1.3-2.5-2.6-5-3.9-7.4c-0.9-1.7-1.5-3.2-2.2-4.8c0,0-0.1,0-0.1,0c-0.2,1.7-0.3,3.4-0.6,5.2c-0.5,2.8-1,5.5-1.5,8.3
				C230.8,136.3,233.5,135.9,236.3,135.4z"/>
			<path class="st2" d="M269.8,140.6c-1.5,0.8-4.5,2.2-8.2,2.8c-4.1,0.6-7.7,0.1-10.8-2c-2.7-1.9-4.7-5.3-5.4-9.6
				c-1.2-8.1,3.5-15,12.6-16.4c3.2-0.5,5.7-0.2,7,0.2c-0.1,1-0.3,2-0.4,3c-1.6-0.4-3.5-0.7-6.2-0.2c-6.6,1-10.3,5.8-9.3,12.7
				c1.1,6.9,5.9,10.4,12.2,9.4c2.3-0.4,3.8-0.9,4.6-1.5c-0.4-2.7-0.8-5.4-1.3-8.1c-1.8,0.3-3.7,0.6-5.5,0.9
				c-0.1-0.9-0.3-1.9-0.4-2.8c3-0.5,6-0.9,9-1.4C268.5,131.9,269.1,136.3,269.8,140.6z"/>
			<path class="st2" d="M278.9,131.7c-0.5,3-1,6-1.5,9c-1.2,0.2-2.4,0.4-3.6,0.6c1.7-9.6,3.4-19.1,5.1-28.7c1.4-0.2,2.8-0.4,4.3-0.7
				c4.5,8.6,9,17.2,13.5,25.9c-1.3,0.2-2.5,0.4-3.8,0.6c-1.4-2.7-2.8-5.4-4.2-8.1C285.3,130.7,282.1,131.2,278.9,131.7z
				 M287.4,127.6c-1.3-2.5-2.6-5-3.9-7.4c-0.9-1.7-1.5-3.2-2.2-4.8c0,0-0.1,0-0.1,0c-0.2,1.7-0.3,3.4-0.6,5.2
				c-0.5,2.8-1,5.5-1.5,8.3C281.9,128.4,284.7,128,287.4,127.6z"/>
			<path class="st2" d="M300.3,109.3c1.4,9.1,2.8,18.2,4.2,27.3c-1.2,0.2-2.3,0.4-3.5,0.5c-1.4-9.1-2.8-18.2-4.2-27.3
				C298,109.6,299.1,109.4,300.3,109.3z"/>
			<path class="st2" d="M311.1,135.6c-1.4-9.1-2.8-18.2-4.2-27.3c1.3-0.2,2.6-0.4,3.8-0.6c3.6,4.2,7.2,8.3,10.9,12.5
				c2.5,2.9,4.5,5.5,6.3,8.1c0,0,0,0,0.1-0.1c-0.9-3.6-1.5-6.9-2.1-11.2c-0.6-3.8-1.2-7.6-1.8-11.4c1.1-0.2,2.2-0.3,3.3-0.5
				c1.4,9.1,2.8,18.2,4.2,27.3c-1.2,0.2-2.4,0.4-3.6,0.5c-3.6-4.2-7.2-8.3-10.8-12.5c-2.4-2.7-4.7-5.6-6.5-8.3c0,0-0.1,0-0.1,0.1
				c0.7,3.4,1.3,6.7,2,11.2c0.6,3.9,1.2,7.8,1.8,11.7C313.3,135.2,312.2,135.4,311.1,135.6z"/>
			<path class="st2" d="M337,127.2c1.7,0.7,4.2,1.2,6.6,0.8c3.6-0.6,5.4-2.8,5-5.5c-0.4-2.6-2.1-3.8-6-4.6c-4.7-0.9-7.8-2.8-8.4-6.6
				c-0.7-4.3,2.4-8,7.7-8.8c2.8-0.4,4.9-0.1,6.2,0.4c-0.2,1-0.4,2-0.5,3c-1-0.3-2.9-0.9-5.4-0.5c-3.7,0.6-4.8,3-4.5,4.9
				c0.4,2.6,2.2,3.6,6.2,4.4c4.9,1.1,7.6,2.9,8.2,6.9c0.6,4.2-1.9,8.3-8.4,9.3c-2.6,0.4-5.6,0.1-7.2-0.7
				C336.7,129.2,336.8,128.2,337,127.2z"/>
			<path class="st2" d="M359.9,103.2c-2.8,0.4-5.5,0.9-8.3,1.3c-0.2-1-0.3-2-0.5-3c6.7-1,13.5-2.1,20.2-3.1c0.2,1,0.3,2,0.5,3
				c-2.8,0.4-5.6,0.9-8.3,1.3c1.2,8.1,2.5,16.2,3.7,24.3c-1.2,0.2-2.4,0.4-3.6,0.5C362.4,119.4,361.2,111.3,359.9,103.2z"/>
		</g>
	</g>
</g>
</svg>
