<svg width="65" height="65" viewBox="0 0 65 65" fill="none" xmlns="http://www.w3.org/2000/svg">
<g clip-path="url(#clip0_462_22)">
<path d="M56.3489 30.6747H56.1053V15.8813C56.1053 13.9957 55.371 12.223 54.0378 10.8898L45.8273 2.67936C44.494 1.34598 42.7212 0.611725 40.8358 0.611725H15.667C11.7745 0.611725 8.60782 3.77836 8.60782 7.67088V30.6747H8.36407C5.75256 30.6747 3.62793 32.7994 3.62793 35.4109V51.1434C3.62793 53.7549 5.75256 55.8796 8.36407 55.8796H8.6077V57.5524C8.6077 61.4448 11.7743 64.6115 15.6669 64.6115H49.0462C52.9386 64.6115 56.1053 61.4448 56.1053 57.5524V55.8796H56.3489C58.9604 55.8796 61.0852 53.7549 61.0852 51.1434V35.4111C61.0852 32.7995 58.9605 30.6747 56.3489 30.6747ZM44.7328 6.887L50.205 12.3591H45.1521C44.9208 12.3591 44.7328 12.171 44.7328 11.94V6.887ZM12.3568 7.67088C12.3568 5.84562 13.8416 4.36086 15.6669 4.36086H40.8357C40.8852 4.36086 40.9345 4.36236 40.9837 4.36449V11.9399C40.9837 14.2384 42.8537 16.1082 45.1521 16.1082H52.3561V30.6747H12.3568V7.67088ZM52.3561 57.5528C52.3561 59.378 50.8714 60.8627 49.0462 60.8627H15.6669C13.8417 60.8627 12.3568 59.378 12.3568 57.5528V55.8799H52.356V57.5528H52.3561ZM57.3361 51.1437C57.336 51.6879 56.8933 52.1307 56.3489 52.1307H54.232C54.2316 52.1307 54.2313 52.1307 54.2308 52.1307C54.2303 52.1307 54.23 52.1307 54.2295 52.1307H10.4823H10.4811H8.36407C7.81982 52.1307 7.37694 51.6879 7.37694 51.1437V35.4111C7.37694 34.8669 7.8197 34.4241 8.36395 34.4241H56.3489C56.8931 34.4241 57.336 34.8669 57.336 35.4111L57.3361 51.1437Z" fill="#B72133"/>
<path d="M25.748 37.3541C24.9199 36.6414 23.8184 36.285 22.4445 36.285H18.4571C18.1231 36.285 17.8533 36.375 17.648 36.5548C17.4423 36.7348 17.3398 36.9466 17.3398 37.1904V49.4416C17.3398 49.7371 17.4873 49.9649 17.7828 50.1254C18.078 50.2862 18.4312 50.3663 18.8424 50.3663C19.2531 50.3663 19.6062 50.2862 19.9017 50.1254C20.197 49.9649 20.3447 49.7372 20.3447 49.4416V45.2809H22.2517C23.6771 45.2809 24.8232 44.9183 25.6901 44.1927C26.557 43.4673 26.9904 42.3404 26.9904 40.812V40.7156C26.9905 39.1875 26.5763 38.0669 25.748 37.3541ZM23.9855 41.043C23.9855 42.3274 23.4075 42.9693 22.2517 42.9693H20.3449V38.9049H22.2519C23.4076 38.9049 23.9856 39.5473 23.9856 40.8311L23.9855 41.043Z" fill="#B72133"/>
<path d="M36.4682 37.383C35.6077 36.651 34.4583 36.285 33.0202 36.285H29.6107C29.2254 36.285 28.9105 36.375 28.6668 36.5546C28.4227 36.7346 28.3008 36.9465 28.3008 37.1903V49.4607C28.3008 49.7049 28.4228 49.9167 28.6668 50.0964C28.9107 50.2764 29.2254 50.3661 29.6107 50.3661H33.0202C34.4582 50.3661 35.6077 50.0001 36.4682 49.2681C37.3283 48.536 37.7588 47.3869 37.7588 45.82V40.831C37.7586 39.2645 37.3282 38.1151 36.4682 37.383ZM34.7537 45.8202C34.7537 47.1044 34.1758 47.7465 33.02 47.7465H31.3057V38.9049H33.02C34.1758 38.9049 34.7537 39.5473 34.7537 40.8313V45.8202Z" fill="#B72133"/>
<path d="M48.3331 36.6704C48.1789 36.4136 47.9542 36.2852 47.6589 36.2852H40.9748C40.6152 36.2852 40.3069 36.3656 40.0503 36.5261C39.7932 36.6869 39.665 36.9146 39.665 37.21V49.4418C39.665 49.7373 39.8125 49.9652 40.108 50.1257C40.4032 50.2864 40.7564 50.3666 41.1675 50.3666C41.5783 50.3666 41.9314 50.2864 42.2269 50.1257C42.5222 49.9652 42.6699 49.7374 42.6699 49.4418V44.4719H45.5786C45.8738 44.4719 46.0987 44.3563 46.2528 44.1253C46.4069 43.894 46.4841 43.631 46.4841 43.3354C46.4841 43.0146 46.4037 42.7383 46.2432 42.507C46.0824 42.2758 45.8609 42.1604 45.5786 42.1604H42.6699V38.905H47.6589C47.9412 38.905 48.1627 38.7768 48.3234 38.5198C48.4839 38.2629 48.5643 37.9485 48.5643 37.5759C48.5643 37.2291 48.4872 36.9274 48.3331 36.6704Z" fill="#B72133"/>
</g>
<defs>
<clipPath id="clip0_462_22">
<rect width="64" height="64" fill="white" transform="translate(0.356445 0.611725)"/>
</clipPath>
</defs>
</svg>
